<?xml version="1.0" encoding="utf-8"?>
<!-- Generator: Adobe Illustrator 21.1.0, SVG Export Plug-In . SVG Version: 6.00 Build 0)  -->
<svg version="1.1" id="Layer_1" xmlns="http://www.w3.org/2000/svg" xmlns:xlink="http://www.w3.org/1999/xlink" x="0px" y="0px"
	 viewBox="0 0 120 120" style="enable-background:new 0 0 120 120;" xml:space="preserve">
<style type="text/css">
	.st0{fill:#FFFFFF;}
</style>
<g>
	<g>
		<path class="st0" d="M24.5,59.3c0-16.3,10.6-28.5,24.9-31.8c2.5-0.6,5.1-0.9,7.8-0.9c8.1,0,14.8,2.2,19.9,6.4v8.2
			c-4.2-5.8-10.9-8.4-19.9-8.4c-15,0-25.8,11.4-25.8,26.6s10.8,26.6,25.8,26.6c2.8,0,5.4-0.3,7.8-1c0,0,2.5-1.4,5-2.8v7.8
			c-1.5,0.6-3.4,1.1-5,1.5c-2.5,0.6-5.1,0.8-7.8,0.8C39.1,92,24.5,78.6,24.5,59.3z"/>
	</g>
	<g>
		<path class="st0" d="M95,88h-8.3l-8.3-12.1c-1.2,0.1-2.6,0.2-3.9,0.2h-4.3V88H63V41.7h11.6c12.8,0,20,6.7,20,17.3
			c0,7.2-3.2,12-9.3,14.8L95,88z M74.2,70c9.2,0,12.8-4,12.8-10.9s-3.9-11-12.8-11h-4.1V70H74.2z"/>
	</g>
</g>
</svg>
