<?xml version="1.0" standalone="no"?>
<!DOCTYPE svg PUBLIC "-//W3C//DTD SVG 1.1//EN" "http://www.w3.org/Graphics/SVG/1.1/DTD/svg11.dtd" >
<svg xmlns="http://www.w3.org/2000/svg" xmlns:xlink="http://www.w3.org/1999/xlink" version="1.1">
<metadata>
Created by FontForge 20161003 at Thu May 18 22:39:14 2017
 By www-data
(c) 1987, 1990, 1992, 2001, 2002 Adobe Systems Incorporated. All rights reserved.
</metadata>
<defs>
<font id="itcstoneinformalsemibold" horiz-adv-x="574" >
  <font-face 
    font-family="itcstoneinformalsemibold"
    font-weight="600"
    font-stretch="normal"
    units-per-em="1000"
    panose-1="2 4 7 2 5 5 5 2 4 4"
    ascent="735"
    descent="-265"
    x-height="500"
    cap-height="700"
    bbox="-191 -250 1319 943"
    underline-thickness="50"
    underline-position="-150"
    unicode-range="U+0020-FB02"
  />
<missing-glyph horiz-adv-x="500" 
d="M0 0v700h500v-700h-500zM250 395l170 255h-340zM280 350l170 -255v510zM80 50h340l-170 255zM50 605v-510l170 255z" />
    <glyph glyph-name="f_i" unicode="fi" horiz-adv-x="678" 
d="M103 500v47q0 55 37.5 96.5t87.5 64.5q60 27 146 27q71 0 118 -15l39 -61q6 -8 -6 -16l-53 -32q-10 -6 -24 4l-42 30q-47 33 -88 33q-40 0 -61 -29t-21 -81v-68h339v-393q0 -31 12.5 -41.5t51.5 -19.5q19 -3 11 -18l-8 -20q-5 -8 -17 -8h-246q-19 0 -13 17l6 17
q3 10 19 14q51 10 51 59v286q0 31 -13 40.5t-52 9.5h-141v-336q0 -31 12.5 -41.5t51.5 -19.5q19 -3 11 -18l-8 -20q-5 -8 -17 -8h-246q-19 0 -13 17l6 17q3 10 19 14q51 10 51 59v336h-68v57h68z" />
    <glyph glyph-name="f_l" unicode="fl" horiz-adv-x="680" 
d="M103 500v48q0 98 129 154q70 31 96 33q41 2 55 -10q5 10 17 10h159q25 0 25 -25v-603q0 -31 11.5 -41.5t46.5 -19.5q18 -3 10 -18l-7 -20q-5 -8 -15 -8h-242q-19 0 -13 17l6 17q3 10 19 14q51 10 51 59v521q0 40 -27 51l-2 -2l6 -5q5 -7 -4 -16l-27 -27q-6 -6 -19 1
l-38 22q-5 3 -15.5 9t-17 9.5t-16 6.5t-17.5 3q-38 0 -38 -69v-111h137v-37l-20 -20h-117v-336q0 -31 12.5 -41.5t51.5 -19.5q19 -3 11 -18l-8 -20q-5 -8 -17 -8h-246q-19 0 -13 17l6 17q3 10 19 14q51 10 51 59v336h-68v57h68z" />
    <glyph glyph-name=".notdef" horiz-adv-x="500" 
d="M0 0v700h500v-700h-500zM250 395l170 255h-340zM280 350l170 -255v510zM80 50h340l-170 255zM50 605v-510l170 255z" />
    <glyph glyph-name=".null" horiz-adv-x="0" 
 />
    <glyph glyph-name="nonmarkingreturn" horiz-adv-x="333" 
 />
    <glyph glyph-name="space" unicode=" " horiz-adv-x="287" 
 />
    <glyph glyph-name="exclam" unicode="!" horiz-adv-x="315" 
d="M178 207h-58q-30 386 -45 484q-7 44 74 44t74 -44q-15 -98 -45 -484zM74 63q0 31 22.5 53t52.5 22q31 0 53 -22.5t22 -52.5t-22.5 -52.5t-52.5 -22.5t-52.5 22.5t-22.5 52.5z" />
    <glyph glyph-name="quotedbl" unicode="&#x22;" horiz-adv-x="407" 
d="M157 654l-26 -204q0 -1 -0.5 -5t-0.5 -6.5t-1.5 -6.5t-3.5 -6.5t-5 -4.5t-8 -2t-8.5 2t-5.5 7t-2.5 7.5t-1.5 8.5v6l-27 204q-10 81 45 81q58 0 45 -81zM339 654l-26 -204q0 -1 -0.5 -5t-0.5 -6.5t-1.5 -6.5t-3.5 -6.5t-5 -4.5t-8 -2t-8.5 2t-5.5 7t-2.5 7.5t-1.5 8.5v6
l-27 204q-10 81 45 81q58 0 45 -81z" />
    <glyph glyph-name="numbersign" unicode="#" 
d="M508 292v-78h-104l-29 -214h-66l28 214h-129l-31 -214h-67l31 214h-99v78h111l18 129h-102v78h113l29 201h66l-28 -201h128l28 201h67l-28 -201h89v-78h-100l-17 -129h92zM366 421h-128l-18 -129h129z" />
    <glyph glyph-name="dollar" unicode="$" 
d="M308 280v-214q24 9 45.5 35.5t22.5 64.5q5 67 -68 114zM322 745v-33q73 -4 112 -20q25 -10 35 -18t9 -20v-74q0 -3 -6 -11l-29 -21q-5 -5 -18 18q-6 10 -18 34q-3 5 -4 8q-12 23 -30 35.5t-51 18.5v-226q97 -64 144.5 -120.5t48.5 -113.5q3 -89 -61 -147.5t-146 -62.5
v-91h-54v87q-88 0 -142 18q-39 12 -45.5 17.5t-6.5 25.5v97q0 2 -0.5 8.5t-0.5 9.5t1.5 7t5.5 5l32 12q3 1 6 -3t6 -12.5t6.5 -18t9.5 -23t12 -24.5q8 -17 36 -34.5t61 -18.5h19v268q-109 71 -146 110.5t-37 103.5q0 66 53.5 117t143.5 59v33h54zM268 480v174
q-15 -4 -32.5 -22.5t-21.5 -45.5q-10 -69 54 -106z" />
    <glyph glyph-name="percent" unicode="%" horiz-adv-x="944" 
d="M203 673q-15 0 -26 -4.5t-24.5 -19.5t-21 -51.5t-7.5 -92.5q0 -64 7.5 -105t21 -57.5t24.5 -21t26 -4.5t25.5 4.5t24.5 21t21 57.5t7 105q0 56 -7.5 92.5t-20.5 51.5t-24 19.5t-26 4.5zM203 278q-82 0 -133 62.5t-51 168.5q0 77 48 140t136 63t135.5 -63t47.5 -140
q0 -106 -50.5 -168.5t-132.5 -62.5zM709 383q-15 0 -26 -4.5t-24.5 -19.5t-21 -51.5t-7.5 -93.5q0 -51 5.5 -87.5t13 -55.5t19.5 -29.5t20.5 -12.5t20.5 -2q15 0 26 5t24.5 21.5t20.5 57t7 103.5q0 57 -7.5 93.5t-20.5 51.5t-24 19.5t-26 4.5zM709 -12q-81 0 -132.5 62.5
t-51.5 167.5q0 77 48 140.5t136 63.5t135.5 -63t47.5 -141q0 -105 -51 -167.5t-132 -62.5zM279 0h-70l418 700h69z" />
    <glyph glyph-name="ampersand" unicode="&#x26;" horiz-adv-x="815" 
d="M493 125l-227 218q-83 -41 -83 -146q0 -64 43.5 -106.5t108.5 -42.5q99 0 158 77zM595 176l122 -106q5 -5 18.5 -16t20.5 -18.5t7 -13.5v-21h-115q-28 0 -55 24l-58 56q-91 -93 -224 -93q-117 0 -190 58.5t-73 147.5q0 62 42.5 114t126.5 74q-7 7 -27 26.5t-30.5 31.5
t-24.5 31t-20.5 39.5t-6.5 42.5q0 72 53.5 115.5t149.5 43.5q58 0 107 -19q19 -8 28 -15t8 -16v-69q0 -3 -6 -9l-21 -15q-7 -4 -10 4l-19 37q-10 20 -34 34t-54 14q-37 0 -60 -18.5t-23 -52.5q0 -61 94 -150l232 -226q21 42 20 112t-26 102h-104q-32 0 -14 19l30 31
q12 11 38 11h283q13 0 17.5 -4t-3.5 -15l-30 -31q-12 -11 -38 -11h-103q14 -34 8 -114t-36 -135z" />
    <glyph glyph-name="quotesingle" unicode="'" horiz-adv-x="222" 
d="M155 654l-26 -204q0 -1 -0.5 -5t-0.5 -6.5t-1.5 -6.5t-3.5 -6.5t-5 -4.5t-8 -2t-8.5 2t-5.5 7t-2.5 7.5t-1.5 8.5v6l-27 204q-10 81 45 81q58 0 45 -81z" />
    <glyph glyph-name="parenleft" unicode="(" horiz-adv-x="370" 
d="M74 277q0 297 267 458q9 2 17 -5t9 -16t-5 -14q-169 -105 -169 -418q0 -153 37 -265.5t136 -180.5q10 -8 -1.5 -26.5t-26.5 -15.5q-264 170 -264 483z" />
    <glyph glyph-name="parenright" unicode=")" horiz-adv-x="370" 
d="M296 252q0 -145 -67.5 -261.5t-199.5 -196.5q-9 -2 -17 5t-9 16t5 14q169 105 169 418q0 153 -37 265.5t-136 180.5q-10 8 1.5 26.5t26.5 15.5q264 -170 264 -483z" />
    <glyph glyph-name="asterisk" unicode="*" horiz-adv-x="426" 
d="M254 700l-9 -130l122 48l25 -77l-127 -32l84 -101l-66 -48l-70 111l-70 -111l-66 48l84 101l-127 32l26 77l121 -48l-8 130h81z" />
    <glyph glyph-name="plus" unicode="+" 
d="M248 292v214h78v-214h213v-78h-213v-214h-78v214h-213v78h213z" />
    <glyph glyph-name="comma" unicode="," horiz-adv-x="287" 
d="M142 147q27 0 43.5 -22.5t16.5 -56.5q0 -44 -132 -226q-22 -9 -32.5 -1.5t-9.5 29.5q49 52 56 120q3 23 -6 92q-4 29 16 47t48 18z" />
    <glyph glyph-name="hyphen" unicode="-" horiz-adv-x="336" 
d="M291 195h-249v86h249v-86z" />
    <glyph glyph-name="period" unicode="." horiz-adv-x="287" 
d="M68 63q0 31 22.5 53t52.5 22q31 0 53 -22.5t22 -52.5t-22.5 -52.5t-52.5 -22.5t-52.5 22.5t-22.5 52.5z" />
    <glyph glyph-name="slash" unicode="/" horiz-adv-x="463" 
d="M109 -108h-75l319 843h75z" />
    <glyph glyph-name="zero" unicode="0" 
d="M287 -12q-114 0 -185.5 104.5t-71.5 279.5q0 59 15.5 117t45.5 109t81 82.5t115 31.5t115 -31.5t81 -82.5t45.5 -109t15.5 -117q0 -175 -71.5 -279.5t-185.5 -104.5zM287 650q-12 0 -25.5 -7t-29 -27.5t-28 -51t-21 -83t-8.5 -119.5q0 -143 34 -227.5t78 -84.5t78 84.5
t34 227.5q0 67 -8.5 119.5t-21 83t-28 51t-29 27.5t-25.5 7z" />
    <glyph glyph-name="one" unicode="1" 
d="M377 712v-595q0 -33 21 -48q10 -6 26 -10t30 -5t26.5 -2.5t18 -5.5t1.5 -12l-9 -18q-1 -3 -3.5 -5.5t-4 -4.5t-5.5 -3t-5.5 -1.5t-6.5 -1t-6.5 -0.5h-7.5h-7h-287q-44 0 -47 9q-1 4 1 9l9 21q6 14 45 18t43 7q32 20 32 53v445q0 18 -4.5 28.5t-10 14.5t-17 2.5
t-20.5 -4.5t-25 -9.5t-25 -9.5l-22 -8q-12 -3 -16 9l-6 20q-6 17 7 22z" />
    <glyph glyph-name="two" unicode="2" 
d="M29 0v77q19 19 77.5 68.5t87.5 80.5q35 38 55 61t54 68.5t51.5 86.5t17.5 77q0 56 -31.5 83.5t-67.5 27.5q-84 0 -126 -78l-26 -47q-5 -10 -12 -5l-25 13q-7 9 -7 12v92q0 5 2 9.5t7 9.5t8.5 8t13 10t13.5 10q25 18 72 33t95 15q98 0 164 -44.5t66 -129.5
q0 -35 -17.5 -75t-35 -66.5t-55.5 -66.5t-48 -49t-44 -40l-158 -141h233q23 0 45 18.5t35.5 41t25 39t17.5 13.5l29 -15q10 -5 6 -16l-56 -156q-8 -25 -54 -25h-412z" />
    <glyph glyph-name="three" unicode="3" 
d="M165 336v54q79 11 128.5 51.5t49.5 108.5q0 56 -27.5 78.5t-59.5 22.5q-86 0 -126 -94l-15 -33q-5 -10 -13 -5l-20 11q-6 4 -6 11v88q0 11 35 36q64 47 174 47q83 0 146 -40.5t63 -114.5q0 -61 -52 -110.5t-120 -67.5v-3q87 -3 146 -53t59 -127q0 -96 -81.5 -152
t-204.5 -56q-57 0 -106 13.5t-68 26.5l-35 82q-4 10 6 20l28 24q13 13 20 3l54 -65q43 -49 101 -49q60 0 97.5 38.5t37.5 104.5q0 141 -211 150z" />
    <glyph glyph-name="four" unicode="4" 
d="M445 700v-414h85q13 0 19.5 -4.5t1.5 -14.5l-32 -63h-74v-87q0 -31 24 -48q10 -6 25 -9.5t27.5 -4.5t23.5 -2.5t16 -5.5t1 -12l-9 -18q-4 -9 -9.5 -12.5t-10 -4t-17.5 -0.5h-304h-4q-13 0 -18.5 0.5t-14 2t-7.5 5t1 10.5l9 21q6 14 51.5 18t50.5 7q32 20 32 53v87h-251
q-31 0 -35 8l-22 39q43 62 331 449h110zM113 286h199v273q-105 -124 -199 -273z" />
    <glyph glyph-name="five" unicode="5" 
d="M195 700h277q16 0 26 -3.5t6 -12.5l-41 -86h-216l-37 -126q77 -1 138.5 -23t97.5 -58t54.5 -78.5t18.5 -86.5q-3 -113 -87 -175.5t-197 -62.5q-48 0 -100 15t-76 33l-32 78q-5 14 1 23l27 33q11 13 19 0l59 -74q44 -55 110 -55q60 0 101.5 39.5t41.5 106.5
q0 77 -73.5 131t-216.5 50z" />
    <glyph glyph-name="six" unicode="6" 
d="M497 686l-19 -42q-119 -3 -196.5 -79t-98.5 -172q76 41 146 41q94 0 152.5 -59t57.5 -157q-1 -101 -72 -165.5t-174 -64.5q-113 0 -186 75.5t-72 209.5q1 68 28 138t78.5 134.5t139 109t197.5 54.5q13 1 18.5 -5.5t0.5 -17.5zM168 240q-4 -93 31.5 -143.5t97.5 -50.5
q55 0 84.5 44t29.5 104q0 78 -32.5 126.5t-92.5 48.5q-51 0 -84.5 -34t-33.5 -95z" />
    <glyph glyph-name="seven" unicode="7" 
d="M402 595h-188q-23 0 -41 -12.5t-26.5 -27t-16.5 -23.5t-14 -5l-14 11q-5 7 -5 14l-1 126q0 13 6 17.5t22 4.5h401v-53q-26 -56 -151 -314t-160 -333h-126q237 408 314 595z" />
    <glyph glyph-name="eight" unicode="8" 
d="M290 47q25 0 53 10.5t52 37t24 63.5q0 31 -15 58t-44.5 48t-56 35t-65.5 31q-92 -53 -92 -151q0 -59 42.5 -95.5t101.5 -36.5zM287 -12q-119 0 -190 53.5t-71 141.5q0 40 13 71.5t41 55.5t44 34.5t50 28.5q-130 66 -130 167q0 78 71 125t169 47q95 0 158.5 -40.5
t63.5 -116.5q0 -60 -45 -101t-94 -59q32 -15 51.5 -25.5t47.5 -30t43.5 -39.5t27.5 -49.5t12 -63.5q0 -89 -74 -144t-188 -55zM283 656q-53 0 -83 -28.5t-30 -64.5q0 -79 135 -135q93 45 93 129q0 40 -32 69.5t-83 29.5z" />
    <glyph glyph-name="nine" unicode="9" 
d="M77 14l21 46q94 2 182 80t108 165q-73 -41 -139 -41q-95 0 -155 57.5t-59 164.5q1 95 71 160.5t187 65.5q120 0 183 -74.5t62 -181.5q-1 -53 -16 -109.5t-49.5 -116t-84 -108.5t-125.5 -84.5t-167 -46.5q-13 -1 -18.5 5.5t-0.5 17.5zM291 653q-62 0 -94.5 -49.5
t-32.5 -112.5q0 -76 32 -118.5t93 -42.5q52 0 84 37t32 110q0 81 -31.5 128.5t-82.5 47.5z" />
    <glyph glyph-name="colon" unicode=":" horiz-adv-x="287" 
d="M68 63q0 31 22.5 53t52.5 22q31 0 53 -22.5t22 -52.5t-22.5 -52.5t-52.5 -22.5t-52.5 22.5t-22.5 52.5zM68 420q0 31 22.5 53t52.5 22q31 0 53 -22.5t22 -52.5t-22.5 -52.5t-52.5 -22.5t-52.5 22.5t-22.5 52.5z" />
    <glyph glyph-name="semicolon" unicode=";" horiz-adv-x="287" 
d="M143 147q27 0 43.5 -22.5t16.5 -56.5q0 -44 -132 -226q-22 -9 -32.5 -1.5t-9.5 29.5q49 52 56 120q3 23 -6 92q-4 29 16 47t48 18zM68 420q0 31 22.5 53t52.5 22q31 0 53 -22.5t22 -52.5t-22.5 -52.5t-52.5 -22.5t-52.5 22.5t-22.5 52.5z" />
    <glyph glyph-name="less" unicode="&#x3c;" 
d="M542 67v-75l-509 234v54l509 234v-75l-402 -186z" />
    <glyph glyph-name="equal" unicode="=" 
d="M539 389v-78h-504v78h504zM539 195v-78h-504v78h504z" />
    <glyph glyph-name="greater" unicode="&#x3e;" 
d="M33 67l401 186l-401 186v75l509 -234v-54l-509 -234v75z" />
    <glyph glyph-name="question" unicode="?" horiz-adv-x="481" 
d="M241 217h-72q-4 52 8 91.5t53 106.5q55 97 55 165q0 43 -20.5 77.5t-49.5 34.5q-32 0 -70 -38l-40 -40q-10 -8 -25 1l-23 15q-12 7 -7 19l34 61q16 10 59 17.5t85 7.5q87 0 145 -46t58 -125q0 -17 -3.5 -33.5t-12.5 -33l-15 -27.5t-21.5 -28t-22 -23.5t-25 -24.5
t-22.5 -22q-38 -37 -52 -70.5t-16 -84.5zM206 138q31 0 53 -22.5t22 -52.5t-22.5 -52.5t-52.5 -22.5t-52.5 22.5t-22.5 52.5q0 31 22.5 53t52.5 22z" />
    <glyph glyph-name="at" unicode="@" horiz-adv-x="815" 
d="M540 521h84l-65 -251q-21 -78 39 -78q114 0 114 214q0 101 -75 177.5t-211 76.5q-131 0 -214 -84.5t-83 -230.5q0 -52 17.5 -104t51.5 -97t92 -73.5t130 -28.5q102 0 216 50l24 -46q-136 -58 -238 -58q-86 0 -155 23t-111.5 58.5t-71 82t-39.5 90t-11 85.5
q0 167 114.5 276t280.5 109q82 0 146.5 -22.5t102 -56.5t62 -77.5t33 -80t8.5 -69.5q0 -38 -7.5 -76.5t-27 -83t-61.5 -72.5t-101 -28q-42 0 -71.5 29t-30.5 49q-68 -63 -121 -67q-11 -1 -24 0.5t-31 9.5t-32 21.5t-24 40.5t-10 63q0 102 67 172t137 70q24 0 42 -9t26 -19.5
t17 -26.5zM457 479q-38 0 -73.5 -51t-35.5 -140q0 -41 12.5 -55.5t38.5 -14.5q30 0 64 54t42 149q0 28 -14 43t-34 15z" />
    <glyph glyph-name="A" unicode="A" horiz-adv-x="741" 
d="M236 269h208l-103 271zM737 32l-10 -22q-6 -10 -25 -10h-235q-20 0 -14 16l9 20q3 6 19 12.5t24.5 19.5t-0.5 40l-39 101h-251l-45 -114q-6 -18 1.5 -29.5t20 -15t21 -9t4.5 -13.5l-6 -11l-3 -5l-3 -6t-5 -4t-9 -2h-155h-8h-8.5t-6.5 0.5t-5.5 1.5t-3.5 3t-1.5 5.5
t2.5 8.5l5 14q3 9 26 15q32 8 43 18.5t27 47.5l172 442q3 9 4.5 17t2 13.5t-1.5 11.5t-3 9.5t-4.5 8t-5 6.5t-5.5 5.5t-5 4.5q-9 9 -27 14t-26.5 10t-2.5 16l5 16q4 12 24 12h173q19 0 25 -29q77 -222 218 -557q14 -36 25.5 -45.5t49.5 -19.5q17 -5 13 -17z" />
    <glyph glyph-name="B" unicode="B" horiz-adv-x="685" 
d="M251 347v-216q0 -49 23.5 -69t71.5 -20q61 0 95 41.5t32 112.5q-2 70 -45 110.5t-117 40.5h-60zM53 700h324q87 0 143.5 -35.5t59.5 -115.5q2 -53 -36.5 -95.5t-105.5 -65.5v-2q98 -11 145.5 -68t47.5 -118q0 -55 -24 -97t-64.5 -66.5t-89 -36.5t-102.5 -12
q-143 0 -214 24q-27 10 -27 53v520q0 31 -15 46t-48 20q-9 2 -12.5 4t-7 5.5t0.5 8.5l8 19q5 12 17 12zM251 646v-245h62q59 0 92.5 37.5t33.5 90.5q0 68 -31.5 92.5t-98.5 24.5h-58z" />
    <glyph glyph-name="C" unicode="C" horiz-adv-x="704" 
d="M674 108l-31 -67q-13 -22 -20 -26q-43 -27 -195 -27q-171 0 -277.5 102t-106.5 266q0 148 109.5 252t270.5 104q135 0 235 -61q8 -4 8 -17v-64q0 -5 -6 -11l-27 -19q-4 -3 -11.5 6.5t-22.5 26.5t-36 33.5t-57.5 28.5t-81.5 12q-110 0 -170 -78.5t-60 -204.5
q0 -144 73 -227.5t180 -83.5q125 0 198 69q7 7 16 6t12 -6.5t0 -13.5z" />
    <glyph glyph-name="D" unicode="D" horiz-adv-x="815" 
d="M252 640v-498q0 -53 32 -73.5t95 -20.5q112 0 170.5 87.5t58.5 228.5q0 145 -60.5 210.5t-181.5 65.5h-114zM111 65v520q0 31 -15 46t-48 20q-9 2 -12.5 4t-7 5.5t0.5 8.5l8 19q5 12 17 12h329q203 0 289.5 -86t86.5 -248q0 -158 -108 -268t-271 -110q-171 0 -242 24
q-27 10 -27 53z" />
    <glyph glyph-name="E" unicode="E" horiz-adv-x="611" 
d="M259 640v-232h231q10 0 13.5 -4t-0.5 -11l-18 -31q-9 -14 -32 -14h-194v-194q0 -55 15.5 -74.5t57.5 -19.5h82q33 0 58.5 13t36.5 28.5t19 27.5t12 11l25 -8q6 -2 6 -9v-98q0 -25 -46 -25h-309h-30t-22 1t-18.5 4t-12 7.5t-9.5 12t-4 18.5t-2 26v516q0 31 -15 46t-48 20
q-9 2 -12.5 4t-7 5.5t0.5 8.5l8 19q5 12 17 12h436q14 0 22.5 -7t6.5 -18v-80q0 -4 -5 -9l-18 -15q-4 -3 -9 2.5t-12.5 16.5t-16.5 22t-24.5 19.5t-34.5 8.5h-147z" />
    <glyph glyph-name="F" unicode="F" horiz-adv-x="563" 
d="M274 640v-273h232q10 0 13.5 -4.5t-0.5 -10.5l-19 -31q-8 -14 -31 -14h-195v-200q0 -31 13 -41.5t52 -19.5q19 -3 11 -18l-8 -20q-5 -8 -17 -8h-255q-19 0 -13 17l6 17q3 10 19 14q51 10 51 59v478q0 31 -15 46t-48 20q-9 2 -12.5 4t-7 5.5t0.5 8.5l8 19q5 12 17 12h436
q14 0 22.5 -7t6.5 -18v-80q0 -4 -5 -9l-18 -15q-4 -3 -9 2.5t-12.5 16.5t-16.5 22t-24.5 19.5t-34.5 8.5h-147z" />
    <glyph glyph-name="G" unicode="G" horiz-adv-x="778" 
d="M690 1h-89q-18 0 -18 34v19q-28 -31 -76 -48.5t-95 -17.5q-160 0 -264 103t-104 265q0 148 109.5 252t270.5 104q135 0 235 -61q8 -4 8 -17v-64q0 -5 -6 -11l-27 -19q-4 -3 -11.5 6.5t-22.5 26.5t-36 33.5t-57.5 28.5t-81.5 12q-107 0 -168.5 -79.5t-61.5 -206.5
q0 -141 68 -224.5t162 -83.5q79 0 122 36.5t43 89.5q0 32 -14.5 52t-35.5 26q-8 6 -21 10t-18.5 7.5t-2.5 11.5l8 18q4 11 23 11h164q8 0 12.5 -1t7 -5.5t3 -7.5t1.5 -12v-234q0 -27 -5 -40.5t-22 -13.5z" />
    <glyph glyph-name="H" unicode="H" horiz-adv-x="833" 
d="M269 593v-179h296v179q0 31 -12.5 41.5t-51.5 19.5q-19 3 -11 18l8 20q5 8 17 8h254q19 0 13 -17l-6 -17q-3 -10 -19 -14q-51 -10 -51 -59v-486q0 -31 12.5 -41.5t51.5 -19.5q19 -3 11 -18l-8 -20q-5 -8 -17 -8h-254q-19 0 -13 17l6 17q3 10 19 14q51 10 51 59v247h-296
v-247q0 -31 12.5 -41.5t51.5 -19.5q19 -3 11 -18l-8 -20q-5 -8 -17 -8h-254q-19 0 -13 17l6 17q3 10 19 14q51 10 51 59v486q0 31 -12.5 41.5t-51.5 19.5q-19 3 -11 18l8 20q5 8 17 8h254q19 0 13 -17l-6 -17q-3 -10 -19 -14q-51 -10 -51 -59z" />
    <glyph glyph-name="I" unicode="I" horiz-adv-x="395" 
d="M127 107v486q0 31 -12.5 41.5t-51.5 19.5q-19 3 -11 18l8 20q5 8 17 8h254q19 0 13 -17l-6 -17q-3 -10 -19 -14q-51 -10 -51 -59v-486q0 -31 12.5 -41.5t51.5 -19.5q19 -3 11 -18l-8 -20q-5 -8 -17 -8h-254q-19 0 -13 17l6 17q3 10 19 14q51 10 51 59z" />
    <glyph glyph-name="J" unicode="J" horiz-adv-x="392" 
d="M268 593v-549q0 -67 -21 -116t-55 -73t-67 -35t-66 -11v50q34 14 50 47q18 38 18 108v579q0 31 -12.5 41.5t-51.5 19.5q-19 3 -11 18l8 20q5 8 17 8h254q19 0 13 -17l-6 -17q-3 -10 -19 -14q-51 -10 -51 -59z" />
    <glyph glyph-name="K" unicode="K" horiz-adv-x="710" 
d="M268 593v-216h2l265 323h111v-29q0 -10 -9.5 -16t-23.5 -11t-36 -21t-42 -40l-156 -188q213 -273 272 -330q6 -6 18.5 -15t20.5 -16t8 -11v-23h-124q-8 0 -15 1.5t-12.5 3.5t-13 7.5t-11.5 9t-13 12.5t-12.5 13.5t-14.5 17.5t-16 19l-196 260h-2v-237q0 -31 12.5 -41.5
t51.5 -19.5q19 -3 11 -18l-8 -20q-5 -8 -17 -8h-254q-19 0 -13 17l6 17q3 10 19 14q51 10 51 59v486q0 31 -12.5 41.5t-51.5 19.5q-19 3 -11 18l8 20q5 8 17 8h254q19 0 13 -17l-6 -17q-3 -10 -19 -14q-51 -10 -51 -59z" />
    <glyph glyph-name="L" unicode="L" horiz-adv-x="599" 
d="M268 593v-439q0 -62 15.5 -82.5t57.5 -20.5h81q27 0 49 9.5t34 23t20.5 27t13.5 22t9 7.5l25 -8q6 -2 6 -9v-98q0 -25 -46 -25h-469q-19 0 -13 17l6 17q3 10 19 14q51 10 51 59v486q0 31 -12.5 41.5t-51.5 19.5q-19 3 -11 18l8 20q5 8 17 8h254q19 0 13 -17l-6 -17
q-3 -10 -19 -14q-51 -10 -51 -59z" />
    <glyph glyph-name="M" unicode="M" horiz-adv-x="981" 
d="M863 585v-478q0 -31 12.5 -41.5t51.5 -19.5q19 -3 11 -18l-8 -20q-5 -8 -17 -8h-254q-19 0 -13 17l6 17q3 10 19 14q51 10 51 59v401h-2l-237 -486q-11 -22 -19 -22h-29q-8 0 -22 32l-221 476h-2v-401q0 -31 12.5 -41.5t51.5 -19.5q19 -3 11 -18l-8 -20q-5 -8 -17 -8
h-182q-19 0 -13 17l6 17q3 10 19 14q51 10 51 59v477q-41 59 -82 67q-25 6 -18 21l8 20q6 8 17 8h159q25 0 34.5 -7t22.5 -34l225 -475l243 484q15 32 42 32h159q20 0 14 -18l-6 -19q-4 -10 -25 -16q-26 -6 -38.5 -19t-12.5 -43z" />
    <glyph glyph-name="N" unicode="N" horiz-adv-x="796" 
d="M11 672l8 20q6 8 17 8h172q12 -1 23 -8.5t15 -11.5t18 -21l371 -467h2v401q0 31 -12.5 41.5t-51.5 19.5q-19 3 -11 18l8 20q5 8 17 8h182q19 0 13 -17l-6 -17q-3 -10 -19 -14q-51 -10 -51 -59v-560q0 -33 -22 -33h-69q-5 0 -42 45l-380 484h-2v-422q0 -31 12.5 -41.5
t51.5 -19.5q19 -3 11 -18l-8 -20q-5 -8 -17 -8h-182q-19 0 -13 17l6 17q3 10 19 14q51 10 51 59v485q-41 43 -93 58q-25 7 -18 22z" />
    <glyph glyph-name="O" unicode="O" horiz-adv-x="815" 
d="M428 712q148 0 246 -102t98 -246q0 -99 -45 -184t-133.5 -138.5t-201.5 -53.5q-140 0 -244.5 97t-104.5 255q0 164 112.5 268t272.5 104zM407 647q-48 0 -86 -19t-61 -48t-38.5 -66.5t-21.5 -71.5t-6 -67q0 -159 60.5 -240.5t156.5 -81.5q54 0 96 28t66 73t36 95.5
t12 101.5q0 147 -62 221.5t-152 74.5z" />
    <glyph glyph-name="P" unicode="P" horiz-adv-x="656" 
d="M274 640v-533q0 -31 12.5 -41.5t51.5 -19.5q19 -3 11 -18l-8 -20q-5 -8 -17 -8h-254q-19 0 -13 17l6 17q3 10 19 14q51 10 51 59v478q0 31 -15 46t-48 20q-9 2 -12.5 4t-7 5.5t0.5 8.5l8 19q5 12 17 12h314q97 0 164 -47t66 -139q-1 -76 -45.5 -127.5t-107.5 -71.5
t-136 -17l-14 33q-7 13 11 15q64 3 102.5 42.5t38.5 111.5q0 66 -35 103t-91 37h-69z" />
    <glyph glyph-name="Q" unicode="Q" horiz-adv-x="815" 
d="M875 -98v-31l-92 -24q-32 -10 -56 2l-291 139q-182 0 -276 82q-54 46 -85.5 117.5t-31.5 152.5q0 164 112.5 268t272.5 104q148 0 246 -102t98 -246q0 -129 -68 -220.5t-157 -124.5q168 -82 328 -117zM411 53q54 0 96 27.5t66 72.5t36 95.5t12 101.5q0 147 -62 222
t-152 75q-59 0 -103 -28t-66.5 -72t-33 -87.5t-10.5 -85.5q0 -159 60.5 -240t156.5 -81z" />
    <glyph glyph-name="R" unicode="R" horiz-adv-x="710" 
d="M274 646v-290h62q56 0 92.5 41.5t35.5 119.5q-1 71 -30 100t-80 29h-80zM684 33v-33h-150q-4 0 -7.5 1.5t-6 3t-5 4.5t-3.5 5t-3.5 5.5t-2.5 4.5l-157 278h-75v-195q0 -31 12.5 -41.5t51.5 -19.5q19 -3 11 -18l-8 -20q-5 -8 -17 -8h-254q-19 0 -13 17l6 17q3 10 19 14
q51 10 51 59v478q0 31 -15 46t-48 20q-9 2 -12.5 4t-7 5.5t0.5 8.5l8 19q5 12 17 12h348q76 0 130.5 -44t55.5 -128q0 -64 -34.5 -118.5t-102.5 -85.5q68 -117 124.5 -195.5t86.5 -95.5z" />
    <glyph glyph-name="S" unicode="S" horiz-adv-x="537" 
d="M453 569l-29 -21q-5 -5 -18 18q-6 10 -18 34q-3 5 -4 8q-28 55 -91 55q-33 0 -62.5 -20.5t-35.5 -56.5q-8 -49 21 -82t102 -82q92 -62 134 -109t44 -112q2 -70 -35 -119.5t-95.5 -71.5t-130.5 -22q-88 0 -142 18q-39 12 -45.5 17.5t-6.5 25.5v97q0 2 -0.5 8.5t-0.5 9.5
t1.5 7t5.5 5l32 12q3 1 6 -3t6 -12.5t6.5 -18t9.5 -23t12 -24.5q31 -61 102 -61q56 0 93 33t39 85q1 18 -2.5 34.5t-14.5 32.5t-19.5 27t-28.5 27t-29.5 23.5t-35 25t-33.5 22.5q-8 6 -30 20.5t-32.5 22.5t-28 24t-25.5 30.5t-15 36t-7 46.5q0 73 64 124.5t178 51.5
q71 0 121 -20q25 -10 35 -18t9 -20v-74q0 -3 -6 -11z" />
    <glyph glyph-name="T" unicode="T" horiz-adv-x="661" 
d="M400 630v-523q0 -31 12.5 -41.5t51.5 -19.5q19 -3 11 -18l-8 -20q-5 -8 -17 -8h-254q-19 0 -13 17l6 17q3 10 19 14q51 10 51 59v523h-232q-30 0 -14 21l22 36q11 13 35 13h564q30 0 14 -21l-22 -36q-11 -13 -35 -13h-191z" />
    <glyph glyph-name="U" unicode="U" horiz-adv-x="759" 
d="M254 593v-323q0 -40 7 -74t23 -66t48.5 -50t78.5 -18q79 0 121.5 52t42.5 157v322q0 31 -12.5 41.5t-51.5 19.5q-19 3 -11 18l8 20q5 8 17 8h186q19 0 13 -17l-6 -17q-3 -10 -19 -14q-51 -10 -51 -59v-323q0 -81 -23.5 -139.5t-63 -88t-80 -42t-85.5 -12.5
q-283 0 -283 279v326q0 31 -12.5 41.5t-51.5 19.5q-19 3 -11 18l8 20q5 8 17 8h254q19 0 13 -17l-6 -17q-3 -10 -19 -14q-51 -10 -51 -59z" />
    <glyph glyph-name="V" unicode="V" horiz-adv-x="722" 
d="M11 669l9 19q5 12 26 12h237q21 0 15 -16l-9 -20q-3 -8 -20 -17t-23.5 -17.5t0.5 -39.5l151 -423l174 425q9 26 1.5 39.5t-21.5 17.5t-24 9t-5 13l8 15q8 14 16 14h145h7.5h7h6.5t5 -1t3.5 -2.5t1.5 -4.5t-1 -7l-5 -16q-2 -6 -7.5 -10.5t-16.5 -9.5t-16 -8
q-8 -5 -14 -10.5t-11.5 -15t-7.5 -14t-8 -18.5t-7 -17l-215 -526q-15 -40 -28 -40h-63q-4 0 -7 1.5t-6 6.5t-4.5 8t-4.5 12l-4 12l-200 545q-13 36 -25 47t-47 20q-18 4 -13 17z" />
    <glyph glyph-name="W" unicode="W" horiz-adv-x="1056" 
d="M611 660l157 -487h2l125 419q12 42 -20 59q-3 2 -10 4.5t-9 3.5t-7 4t-3.5 5t1.5 6l8 14q7 12 15 12h160h2q8 0 12 -0.5t7 -3t1 -8.5l-8 -24q-1 -5 -25 -13q-26 -7 -37 -19.5t-21 -45.5l-165 -546q-11 -40 -33 -40h-70q-9 0 -20 13t-15 27l-138 448h-2l-149 -448
q-5 -14 -8.5 -21t-10 -13t-14.5 -6h-66q-9 0 -20 13t-15 27l-161 545q-10 34 -20 45t-32 22q-21 11 -17 20l8 20q2 8 16 8h219q19 0 13 -14l-8 -23q-3 -8 -18 -16.5t-20.5 -17t0.5 -39.5l127 -422h2l166 492q1 4 3 9.5t3 8.5t2.5 7t3 6.5t3 4.5t3 3t3.5 1h62q3 0 5 -2
t3.5 -6.5l3 -9t3.5 -11.5t3 -11z" />
    <glyph glyph-name="X" unicode="X" horiz-adv-x="741" 
d="M663 689l-7 -22q-3 -7 -26 -16q-25 -11 -61 -60l-139 -189l192 -285q22 -33 38.5 -45t47.5 -16q17 -2 24.5 -5.5t3.5 -12.5l-13 -28q-4 -10 -26 -10h-269q-19 0 -13 19l5 16q1 2 5 4.5t8 4.5t11 5t12 5q27 15 14 37l-133 213l-152 -218q-19 -29 12 -41q2 -1 8 -2.5
t7.5 -2t5.5 -2.5t3 -4.5t-1 -6.5l-7 -13q-7 -14 -16 -14h-163q-10 0 -16 2.5t-3 11.5l7 24q1 3 3.5 4.5t4.5 2.5t7.5 2t9.5 2q45 12 70 51l183 258l-155 228q-18 26 -32.5 39.5t-22 16t-20.5 4.5q-11 2 -17 9t-2 15l10 22q4 8 18 8h270q20 0 13 -14l-7 -16q-3 -6 -9.5 -10
t-18 -8.5t-18.5 -8.5q-14 -8 -17 -15.5t7 -27.5l95 -144l113 147q11 12 7.5 21.5t-9 13.5t-17.5 10q-4 2 -11 5t-9.5 4.5l-7.5 4.5t-4 5t1 6l9 17q4 10 13 10h172q6 0 9.5 -3t2.5 -8z" />
    <glyph glyph-name="Y" unicode="Y" horiz-adv-x="667" 
d="M354 337l143 259q18 35 -15 53q-4 3 -10 6l-9 4.5t-6.5 4.5t-2.5 5t1 6l9 17q5 7 11 7h166q15 0 11 -14l-5 -18q-2 -4 -7 -7.5t-14 -7.5t-10 -4q-33 -12 -59 -61l-147 -267q-21 -39 -21 -96v-117q0 -31 12.5 -41.5t51.5 -19.5q19 -3 11 -18l-8 -20q-5 -8 -17 -8h-254
q-19 0 -13 17l6 17q3 10 19 14q51 10 51 59v163l-155 316q-11 23 -21.5 36.5t-16.5 17t-19 10.5q-24 10 -19 20l8 21q3 9 18 9h226q5 0 9 -3.5t2 -9.5l-8 -22q-2 -5 -14 -11.5t-18 -13.5q-18 -16 -8 -50z" />
    <glyph glyph-name="Z" unicode="Z" horiz-adv-x="630" 
d="M581 700v-35l-384 -604h268q25 0 44 9.5t29 22.5t17 26.5t11.5 22t8.5 7.5l25 -9q6 -2 6 -10v-101q0 -29 -46 -29h-512l-23 40l386 601h-208q-19 0 -34.5 -11.5t-24.5 -27t-16.5 -31t-12.5 -23.5t-9 -4l-18 20q-5 7 -5 12v88q0 36 32 36h466z" />
    <glyph glyph-name="bracketleft" unicode="[" horiz-adv-x="352" 
d="M75 735h247v-43h-65q-47 0 -62.5 -11t-15.5 -45v-722q0 -39 16.5 -51.5t66.5 -12.5h60v-43h-247v928z" />
    <glyph glyph-name="backslash" unicode="\" 
d="M484 -108h-75l-319 843h75z" />
    <glyph glyph-name="bracketright" unicode="]" horiz-adv-x="352" 
d="M277 -193h-247v43h65q47 0 62.5 11t15.5 45v722q0 39 -16.5 51.5t-66.5 12.5h-60v43h247v-928z" />
    <glyph glyph-name="asciicircum" unicode="^" 
d="M138 335h-77l184 365h85l183 -365h-76l-150 296z" />
    <glyph glyph-name="underscore" unicode="_" horiz-adv-x="500" 
d="M500 -125h-500v50h500v-50z" />
    <glyph glyph-name="grave" unicode="`" horiz-adv-x="370" 
d="M140 721l114 -109q2 -15 -6 -22.5t-28 -7.5l-136 77q-18 10 -29.5 17.5t-21.5 19t-10 23.5q0 20 12 32.5t30 12.5q28 0 75 -43z" />
    <glyph glyph-name="a" unicode="a" horiz-adv-x="628" 
d="M413 31v87h-2q-24 -56 -77 -93t-109 -37q-87 0 -140 69t-53 163q0 121 84.5 206.5t213.5 85.5q85 0 158 -27q35 -15 44 -26q14 -18 14 -58v-291q0 -26 7 -36t25 -17q5 -4 12.5 -7.5t11.5 -5t7 -6t-1 -11.5l-5 -19q-5 -8 -20 -8h-142q-15 -1 -21.5 7t-6.5 24zM318 460
q-66 0 -105.5 -65t-39.5 -148q0 -75 26.5 -125t71.5 -50q49 0 95.5 66.5t46.5 165.5q0 75 -19.5 115.5t-75.5 40.5z" />
    <glyph glyph-name="b" unicode="b" horiz-adv-x="624" 
d="M336 434q-62 0 -94.5 -69t-32.5 -168q0 -79 21 -119t74 -40q67 0 107 66t40 150q0 44 -11.5 83.5t-38.5 68t-65 28.5zM2 707l9 20q3 8 15 8h157q27 0 27 -31v-295h2q28 48 79 75.5t108 27.5q87 0 140 -69t53 -163q0 -125 -85.5 -208.5t-215.5 -83.5q-85 0 -158 27
q-4 2 -13.5 6.5t-13 6.5t-9.5 7t-8.5 9.5t-6 12.5t-4.5 18t-1 24v529q0 31 -12 41.5t-49 18.5q-20 6 -14 19z" />
    <glyph glyph-name="c" unicode="c" horiz-adv-x="513" 
d="M475 468v-78q0 -4 -5 -11l-22 -14q-4 -3 -9 4.5t-14 23t-13 22.5q-28 43 -91 43q-68 0 -108 -57.5t-40 -144.5q0 -84 41 -141.5t114 -57.5q41 0 69 14.5t58 46.5q8 7 22 -1t8 -19l-32 -65q-11 -20 -20 -25q-42 -20 -117 -20q-132 0 -208 75.5t-76 186.5q0 117 78.5 189.5
t209.5 72.5q66 0 123 -13q35 -8 32 -31z" />
    <glyph glyph-name="d" unicode="d" horiz-adv-x="623" 
d="M415 31v66h-2q-25 -45 -73 -77t-101 -32q-87 0 -147 67.5t-60 171.5q0 116 85.5 200.5t212.5 84.5q29 0 84 -12v128q0 31 -12 41.5t-49 18.5q-20 6 -14 19l9 20q3 8 15 8h157q28 0 28 -31v-594q0 -26 7 -36t25 -17q5 -4 12.5 -7.5t11.5 -5t7 -6t-1 -11.5l-5 -19
q-5 -8 -20 -8h-142q-28 0 -28 31zM320 460q-66 0 -106.5 -65.5t-40.5 -147.5q0 -74 30.5 -124.5t77.5 -50.5q58 0 96 55t38 163q0 87 -20 128.5t-75 41.5z" />
    <glyph glyph-name="e" unicode="e" horiz-adv-x="525" 
d="M470 246h-297q0 -79 39 -134t111 -55q41 0 69 15t57 46q8 7 22.5 -1t8.5 -19l-32 -65q-11 -19 -21 -25q-42 -20 -117 -20q-128 0 -203 74.5t-75 182.5q0 123 71.5 195t184.5 72q99 0 152 -61.5t53 -164.5q0 -15 -6.5 -27.5t-16.5 -12.5zM173 300h163q39 0 39 44
q0 62 -26 90.5t-63 28.5q-51 0 -82 -48.5t-31 -114.5z" />
    <glyph glyph-name="f" unicode="f" horiz-adv-x="370" 
d="M374 500v-37l-20 -20h-117v-336q0 -31 12.5 -41.5t51.5 -19.5q19 -3 11 -18l-8 -20q-5 -8 -17 -8h-246q-19 0 -13 17l6 17q3 10 19 14q51 10 51 59v336h-68v57h68v48q0 56 38.5 97t91.5 63q50 24 95 27q42 2 54 -11l47 -71q5 -7 -4 -16l-27 -27q-6 -6 -19 1l-38 22
q-6 3 -20.5 13t-27 16t-24.5 6q-33 0 -33 -57v-111h137z" />
    <glyph glyph-name="g" unicode="g" horiz-adv-x="611" 
d="M55 -170l23 41q1 2 3.5 6t4 6.5t3.5 5.5t3.5 4.5t3.5 2.5t4.5 0t5.5 -3l8.5 -8.5t15.5 -14.5t22.5 -16.5t30 -16t38 -11.5t46.5 -5q75 0 114.5 49.5t39.5 145.5v102h-2q-24 -56 -77 -93t-109 -37q-87 0 -140 69t-53 163q0 121 84.5 206.5t213.5 85.5q85 0 158 -27
q2 -1 11 -5t11 -5t9.5 -5.5t9.5 -7.5t6.5 -9.5t6 -13t3 -16.5t1.5 -22v-347q0 -147 -72 -225.5t-211 -78.5q-112 0 -196 42q-17 9 -21.5 15t1.5 23zM326 460q-66 0 -105.5 -65t-39.5 -148q0 -75 26.5 -125t71.5 -50q49 0 95.5 66.5t46.5 165.5q0 75 -19.5 115.5t-75.5 40.5z
" />
    <glyph glyph-name="h" unicode="h" horiz-adv-x="680" 
d="M28 707l9 20q3 8 15 8h160q8 0 11.5 -0.5t8 -5t4.5 -14.5v-312h2q32 53 88 81t109 28q142 0 142 -171v-234q0 -31 12.5 -41.5t51.5 -19.5q19 -3 11 -18l-8 -20q-5 -8 -17 -8h-240q-17 0 -12 17l6 17q3 9 17 14q46 10 46 59v180q0 78 -19 107.5t-59 29.5q-57 0 -93.5 -63
t-36.5 -197v-57q0 -31 11 -41.5t47 -19.5q16 -3 10 -18l-8 -20q-3 -8 -15 -8h-241q-19 0 -13 17l6 17q3 10 19 14q51 10 51 59v521q0 31 -12 41.5t-49 18.5q-20 6 -14 19z" />
    <glyph glyph-name="i" unicode="i" horiz-adv-x="339" 
d="M103 107v286q0 31 -12 41.5t-49 18.5q-20 6 -14 19l9 20q3 8 15 8h184v-393q0 -31 12.5 -41.5t51.5 -19.5q19 -3 11 -18l-8 -20q-5 -8 -17 -8h-246q-19 0 -13 17l6 17q3 10 19 14q51 10 51 59zM96 646q0 31 22 52.5t52 21.5t52 -22t22 -52q0 -29 -22 -51.5t-51 -22.5
q-31 0 -53 21.5t-22 52.5z" />
    <glyph glyph-name="j" unicode="j" horiz-adv-x="313" 
d="M97 -29v422q0 31 -12 41.5t-49 18.5q-20 6 -14 19l9 20q3 8 15 8h184v-536q0 -59 -20.5 -103.5t-53.5 -67t-65 -33t-62 -10.5v50q37 20 53 54q15 45 15 117zM90 646q0 31 22 52.5t52 21.5t52 -22t22 -52q0 -29 -22 -51.5t-51 -22.5q-31 0 -53 21.5t-22 52.5z" />
    <glyph glyph-name="k" unicode="k" horiz-adv-x="627" 
d="M440 0l-202 274h-2v-167q0 -31 11 -41.5t47 -19.5q16 -3 10 -18l-8 -20q-3 -8 -15 -8h-241q-19 0 -13 17l6 17q3 10 19 14q51 10 51 59v521q0 31 -12 41.5t-49 18.5q-20 6 -14 19l9 20q3 8 15 8h160q8 0 11.5 -0.5t8 -5t4.5 -14.5v-408q111 97 188 193h121q20 0 20 -31
q0 -10 -12.5 -17t-29.5 -11.5t-38 -14t-35 -23.5l-94 -91q21 -26 61 -77.5t70.5 -88.5t55.5 -63q35 -38 66 -50v-33h-169z" />
    <glyph glyph-name="l" unicode="l" horiz-adv-x="339" 
d="M28 707l9 20q3 8 15 8h159q25 0 25 -25v-603q0 -31 12.5 -41.5t51.5 -19.5q19 -3 11 -18l-8 -20q-5 -8 -17 -8h-246q-19 0 -13 17l6 17q3 10 19 14q51 10 51 59v521q0 31 -12 41.5t-49 18.5q-20 6 -14 19z" />
    <glyph glyph-name="m" unicode="m" horiz-adv-x="995" 
d="M237 480v-72h2q35 53 85 78.5t98 25.5q66 0 95.5 -24.5t46.5 -71.5q72 96 183 96q69 0 107 -40t38 -118v-247q0 -31 12.5 -41.5t51.5 -19.5q19 -3 11 -18l-8 -20q-5 -8 -17 -8h-241q-18 0 -12 17l6 17q2 9 17 14q47 10 47 59v209q0 108 -75 108q-49 0 -84.5 -63
t-35.5 -189v-65q0 -31 11.5 -41.5t46.5 -19.5q16 -3 10 -18l-8 -20q-3 -8 -15 -8h-236q-18 0 -12 17l6 17q3 9 17 14q47 10 47 59v209q0 108 -75 108q-49 0 -84.5 -63t-35.5 -189v-65q0 -31 11 -41.5t47 -19.5q16 -3 10 -18l-8 -20q-3 -8 -15 -8h-241q-19 0 -13 17l6 17
q3 10 19 14q51 10 51 59v286q0 31 -12 41.5t-49 18.5q-20 6 -14 19l9 20q3 8 15 8h161q8 0 11.5 -0.5t8 -5t4.5 -14.5z" />
    <glyph glyph-name="n" unicode="n" horiz-adv-x="680" 
d="M236 480v-77h2q32 53 88 81t109 28q142 0 142 -171v-234q0 -31 12.5 -41.5t51.5 -19.5q19 -3 11 -18l-8 -20q-5 -8 -17 -8h-240q-17 0 -12 17l6 17q3 9 17 14q46 10 46 59v180q0 78 -19 107.5t-59 29.5q-57 0 -93.5 -63t-36.5 -197v-57q0 -31 11 -41.5t47 -19.5
q16 -3 10 -18l-8 -20q-3 -8 -15 -8h-241q-19 0 -13 17l6 17q3 10 19 14q51 10 51 59v286q0 31 -12 41.5t-49 18.5q-20 6 -14 19l9 20q3 8 15 8h160q8 0 11.5 -0.5t8 -5t4.5 -14.5z" />
    <glyph glyph-name="o" unicode="o" horiz-adv-x="599" 
d="M312 512q115 0 185 -75t70 -177q0 -112 -78 -192t-203 -80q-116 0 -185 77.5t-69 174.5q0 118 79.5 195t200.5 77zM303 42q35 0 60.5 17.5t38.5 48.5t18.5 64t5.5 72q0 97 -35 155.5t-90 58.5q-61 0 -94.5 -55t-33.5 -128q0 -109 39 -171t91 -62z" />
    <glyph glyph-name="p" unicode="p" horiz-adv-x="640" 
d="M352 434q-62 0 -94.5 -69t-32.5 -168q0 -75 20.5 -116t76.5 -41q68 0 106.5 65t38.5 149q0 44 -11.5 83.5t-38.5 68t-65 28.5zM225 0v-143q0 -31 16.5 -41.5t67.5 -19.5q25 -3 15 -18l-11 -20q-6 -8 -22 -8h-262q-19 0 -13 17l6 17q3 10 19 14q51 10 51 59v536
q0 31 -12 41.5t-49 18.5q-20 6 -14 19l9 20q3 8 15 8h158q27 0 27 -31v-60h2q28 48 79 75.5t108 27.5q87 0 140 -69t53 -163q0 -125 -85.5 -208.5t-216.5 -83.5q-38 0 -81 12z" />
    <glyph glyph-name="q" unicode="q" horiz-adv-x="603" 
d="M546 401v-544q0 -31 12.5 -41.5t51.5 -19.5q19 -3 11 -18l-8 -20q-5 -8 -17 -8h-266q-25 0 -17 17l8 17q5 10 25 14q67 10 67 59v240h-2q-25 -45 -73 -77t-101 -32q-87 0 -146 67.5t-59 171.5q0 116 84.5 200.5t211.5 84.5q87 0 160 -27q3 -2 12 -5.5t11.5 -5t9.5 -5.5
t9 -7.5t6.5 -9.5t5.5 -13t2.5 -16.5t1.5 -21.5zM318 460q-66 0 -105.5 -65t-39.5 -148q0 -74 29.5 -124.5t76.5 -50.5q56 0 95 58t39 160q0 87 -20 128.5t-75 41.5z" />
    <glyph glyph-name="r" unicode="r" horiz-adv-x="441" 
d="M237 480v-70h2q72 102 133 102q40 0 49 -24l20 -75q2 -5 -2 -9l-39 -32q-9 -5 -13.5 -4t-19.5 8.5t-25 10.5q-63 19 -87 -22q-7 -12 -11 -23.5t-6 -28.5t-2.5 -24.5t0 -31t0.5 -28.5v-122q0 -31 16.5 -41.5t67.5 -19.5q25 -3 15 -18l-11 -20q-6 -8 -22 -8h-262
q-19 0 -13 17l6 17q3 10 19 14q51 10 51 59v286q0 31 -12 41.5t-49 18.5q-20 6 -14 19l9 20q3 8 15 8h161q8 0 11.5 -0.5t8 -5t4.5 -14.5z" />
    <glyph glyph-name="s" unicode="s" horiz-adv-x="426" 
d="M30 39v97q0 22 5 24l20 7q5 2 8 -7t8.5 -27.5t13.5 -32.5q13 -28 38 -46t57 -18q39 0 64 21.5t24 54.5q0 8 -3.5 16.5t-7.5 15.5t-12.5 16t-14 14.5t-17 14.5t-16.5 13t-18.5 13.5t-16.5 12.5q-8 6 -27 19t-29.5 20.5t-25.5 21.5t-23.5 25.5t-14.5 28.5t-6 35
q0 57 49 95.5t143 38.5q59 0 115 -12q26 -6 26 -28v-75q0 -2 -5 -9l-17 -14q-3 -3 -8 5t-14 23.5t-14 23.5q-25 39 -81 39q-25 0 -45 -18.5t-19 -34.5q1 -17 13.5 -31t46 -37.5t50.5 -37.5q73 -60 97.5 -94t24.5 -77q0 -73 -60 -110t-139 -37q-94 0 -143 28q-26 17 -26 23z
" />
    <glyph glyph-name="t" unicode="t" horiz-adv-x="387" 
d="M381 500v-37l-20 -20h-132v-294q0 -95 73 -95q27 0 39 6q14 7 17 0l14 -28q4 -8 -3 -11l-29 -15q-36 -18 -78 -18q-166 0 -166 159v296h-85v57h85v100l86 46q15 8 31 7.5t16 -9.5v-144h152z" />
    <glyph glyph-name="u" unicode="u" horiz-adv-x="667" 
d="M429 75l-38 -29q-74 -58 -141 -58q-152 0 -152 171v234q0 31 -12 41.5t-49 18.5q-20 6 -14 19l9 20q3 8 15 8h160q24 0 24 -27v-260q0 -80 18.5 -110t60.5 -30q24 0 48.5 19t40.5 49q30 53 30 195v57q0 26 -11.5 39t-44.5 21q-20 6 -14 19l9 20q3 8 10 8h160q24 0 24 -27
v-369q0 -26 14 -40q6 -6 17.5 -10t21 -5t18.5 -4t10.5 -7.5t-2.5 -14.5l-6 -14q-5 -9 -30 -9h-152q-8 0 -11.5 0.5t-8 5t-4.5 14.5v55z" />
    <glyph glyph-name="v" unicode="v" horiz-adv-x="575" 
d="M303 0h-49q-5 -1 -8 3t-7 13l-166 369q-22 49 -46 60q-7 3 -10 4.5t-7.5 4t-4 4.5t0.5 6l9 24q5 12 19 12h219q24 0 17 -17l-8 -20q-3 -6 -21 -13.5t-28.5 -20.5t-0.5 -37l100 -238l118 248q9 18 -1.5 30t-27.5 15.5t-30.5 9.5t-9.5 14l6 11q9 18 16 18h157q11 0 17 -0.5
t10 -5.5t1 -14l-5 -17q-3 -10 -20.5 -18.5t-23.5 -15.5t-24 -44l-178 -371q-7 -14 -14 -14z" />
    <glyph glyph-name="w" unicode="w" horiz-adv-x="836" 
d="M270 0h-49q-7 0 -15 18l-136 367q-18 48 -44 60q-7 3 -10 4.5t-7.5 4t-4 4.5t0.5 6l9 24q4 12 19 12h218q17 0 23 -4.5t0 -15.5l-8 -17q-3 -6 -23.5 -11.5t-33 -18t-3.5 -39.5l75 -217l128 305q2 5 3 6.5t3 5t4 4t5 0.5h49q7 0 14 -14l116 -318h2l87 249q6 18 -5.5 26.5
t-29 9.5t-30 5.5t-8.5 14.5l13 18q8 11 17 11h160h2q8 0 12 -0.5t7 -3.5t1 -10l-8 -23q-3 -9 -16.5 -13.5t-26.5 -17.5q-10 -8 -24 -47l-131 -369q-8 -16 -14 -16h-49q-7 0 -15 18l-122 328l-141 -330q-8 -16 -14 -16z" />
    <glyph glyph-name="x" unicode="x" horiz-adv-x="630" 
d="M610 41l-11 -28q-7 -13 -23 -13h-211q-15 0 -20 4t-1 15l4 15q2 7 16.5 12.5t19.5 10t-4 21.5l-96 126l-97 -119q-17 -25 -2.5 -31.5t34 -13t13.5 -15.5l-6 -10l-2 -3l-1.5 -3t-2.5 -3t-4.5 -3t-6.5 -2t-9 -1h-160q-16 0 -19.5 3t-0.5 14l5 16q3 8 24.5 12.5t29.5 12.5
q26 23 40 40l125 148l-118 142q-27 34 -41 44q-4 3 -19 10t-20 14t0 18l6 15q6 11 28 11h191q20 0 25.5 -3.5t0.5 -14.5l-6 -15q-2 -5 -12 -11t-17.5 -10t-10 -13t8.5 -21l70 -86l84 93q17 24 4.5 29.5t-30.5 11t-12 14.5l6 10q0 1 2 4.5t3.5 5.5t4.5 4t8 2h145h5.5h5.5h5.5
t5 -0.5t3.5 -1.5t3 -2t1.5 -3t0 -5t-1.5 -6l-5 -15q-3 -9 -25 -16t-30 -13q-18 -13 -38 -36l-107 -120l140 -174q32 -39 50 -47q5 -2 21.5 -3.5t25.5 -5t5 -11.5z" />
    <glyph glyph-name="y" unicode="y" horiz-adv-x="573" 
d="M65 -234l-12 28q-3 9 1 12t15 6l49 15q39 11 68 74l51 110l-165 374q-22 49 -46 60q-7 3 -10 4.5t-7.5 4t-4 4.5t0.5 6l9 24q4 12 19 12h219q24 0 17 -17l-8 -20q-3 -6 -21 -13.5t-28.5 -20.5t-0.5 -37l101 -244l117 254q9 18 -1.5 30t-27.5 15.5t-30.5 9.5t-9.5 14l6 11
q9 18 16 18h157q11 0 17 -0.5t10 -5.5t1 -14l-5 -17q-3 -10 -20.5 -18.5t-23.5 -15.5t-24 -44l-269 -563q-16 -36 -34.5 -54t-48.5 -18h-45q-25 0 -32 16z" />
    <glyph glyph-name="z" unicode="z" horiz-adv-x="519" 
d="M119 500h356v-47l-283 -396h155q30 0 52 12t31 26t16 25t11 10l25 -8q6 -2 6 -8v-91q0 -23 -46 -23h-394l-17 37l309 410h-130q-19 0 -34.5 -9t-24.5 -21t-16.5 -24t-12.5 -18.5t-9 -3.5l-18 15q-5 5 -5 9v80q-2 11 6.5 18t22.5 7z" />
    <glyph glyph-name="braceleft" unicode="{" horiz-adv-x="352" 
d="M239 116v-181q0 -59 19 -91.5t64 -41.5v-2q-105 -3 -142.5 30t-37.5 133v176q0 59 -14.5 85.5t-61.5 40.5v2q45 14 60.5 41t15.5 82v193q0 93 40 122.5t140 29.5v-2q-47 -12 -65 -43.5t-18 -90.5v-193q0 -63 -16 -94.5t-65 -44.5v-2q50 -14 65.5 -48t15.5 -101z" />
    <glyph glyph-name="bar" unicode="|" horiz-adv-x="333" 
d="M127 -250v1000h78v-1000h-78z" />
    <glyph glyph-name="braceright" unicode="}" horiz-adv-x="352" 
d="M113 -65v181q0 67 15.5 101t65.5 48v2q-49 13 -65 44.5t-16 94.5v193q0 59 -18 90.5t-65 43.5v2q100 0 140 -29.5t40 -122.5v-193q0 -55 15.5 -82t60.5 -41v-2q-47 -14 -61.5 -40.5t-14.5 -85.5v-176q0 -100 -37.5 -133t-142.5 -30v2q45 9 64 41.5t19 91.5z" />
    <glyph glyph-name="asciitilde" unicode="~" 
d="M477 323l52 -35q-34 -50 -62 -74.5t-70 -24.5q-39 0 -101 31q-66 30 -108 30q-24 0 -44 -13t-28 -23.5t-20 -30.5l-51 36q32 52 63 78t77 26q35 0 111 -30q72 -31 95 -31q22 0 40 10.5t26.5 21.5t19.5 29z" />
    <glyph glyph-name="uni00A0" unicode="&#xa0;" horiz-adv-x="287" 
 />
    <glyph glyph-name="exclamdown" unicode="&#xa1;" horiz-adv-x="315" 
d="M157 512q31 0 53 -22.5t22 -52.5t-22.5 -52.5t-52.5 -22.5t-52.5 22.5t-22.5 52.5q0 31 22.5 53t52.5 22zM157 -235q-81 0 -74 44q15 98 45 484h58q30 -386 45 -484q7 -44 -74 -44z" />
    <glyph glyph-name="cent" unicode="&#xa2;" 
d="M388 451l-83 -385q23 -9 48 -9q41 0 69 14.5t58 46.5q8 7 22 -1t8 -19l-32 -65q-11 -20 -20 -25q-42 -20 -117 -20q-31 0 -52 4l-18 -85l-49 13l17 83q-86 26 -132 93t-46 154q0 117 77 189.5t207 72.5h2l14 68l52 -11l-13 -60q31 -1 68 -10q35 -8 32 -31v-78
q0 -4 -5 -11l-22 -14q-4 -3 -9 4.5t-14 23t-13 22.5q-18 27 -49 36zM258 94l77 363q-63 -4 -100 -61t-37 -140q0 -108 60 -162z" />
    <glyph glyph-name="sterling" unicode="&#xa3;" 
d="M3 0v32q68 46 81 127q5 30 10 88t12 95h-93v60h96l13 79q17 103 76 167t142 64q71 0 117 -16q18 -6 26 -33l18 -58q3 -8 -6 -10l-44 -7q-8 -2 -13 4t-14 19.5t-13.5 19.5t-13 15.5t-15 14t-16.5 8t-21 3.5q-71 0 -89 -148l-13 -122h140v-60h-144l-6 -55
q-4 -53 -28.5 -113t-70.5 -97l2 -2q101 23 148 23q50 0 94 -6t60 -6q21 0 31 7.5t9.5 18.5t-1.5 24l-5 40q-3 15 3 18l36 20q10 7 16 -3l30 -54q7 -14 -3 -41q-14 -39 -59 -83.5t-85 -44.5q-23 0 -73 9t-96.5 17.5t-112.5 6.5t-125 -21z" />
    <glyph glyph-name="currency" unicode="&#xa4;" 
d="M26 146l59 59q-45 58 -45 142q0 93 45 147l-59 59l55 56l60 -59q61 46 150 46q85 0 141 -46l60 59l55 -55l-55 -56q44 -60 44 -149q0 -91 -46 -143l59 -59l-54 -58l-59 59q-58 -48 -146 -48q-92 0 -150 49l-59 -59zM291 513q-70 0 -119 -48t-49 -117t49 -117t118 -48
q68 0 115.5 49t47.5 118q0 66 -48 114.5t-114 48.5z" />
    <glyph glyph-name="yen" unicode="&#xa5;" 
d="M483 385v-46h-118l-10 -19q-12 -27 -15 -50h143v-46h-147v-117q0 -31 11 -41.5t46 -19.5q18 -3 10 -18l-7 -20q-5 -8 -15 -8h-228q-17 0 -12 17l6 17q3 10 17 14q45 10 45 59v117h-147v46h144l-30 69h-114v46h95l-86 201q-10 23 -20 36.5t-15 17t-17 10.5q-21 10 -17 20
l8 21q2 9 16 9h202q14 0 10 -13l-7 -22q-2 -5 -12.5 -11.5t-16.5 -13.5q-16 -16 -7 -50l110 -253l128 259q16 36 -14 53q-4 3 -9.5 6t-7.5 4.5t-5.5 4.5t-2.5 5t1 6l8 17q5 7 10 7h149q13 0 10 -14l-5 -18q-1 -3 -4.5 -6.5t-7 -5t-9.5 -4t-7 -3.5q-30 -12 -52 -61l-100 -202
h96z" />
    <glyph glyph-name="brokenbar" unicode="&#xa6;" horiz-adv-x="333" 
d="M127 -175v350h78v-350h-78zM127 325v350h78v-350h-78z" />
    <glyph glyph-name="section" unicode="&#xa7;" 
d="M159 321q0 -43 56 -89q54 -44 110 -44q80 0 80 58q0 34 -54 83q-55 49 -116 49q-30 0 -53 -15.5t-23 -41.5zM229 421l17 2q-8 6 -28.5 20.5t-28.5 20.5t-24 19t-22.5 20t-17 19t-15 21t-8 21t-3.5 24q0 59 56 91.5t132 32.5q40 0 91 -7.5t61 -20.5l50 -66q8 -16 -12 -26
l-28 -18q-14 -9 -25 0l-66 56q-43 38 -78 38q-26 0 -50 -10.5t-24 -33.5q0 -27 17 -49t55 -53l107 -76q146 -96 146 -182q0 -64 -56.5 -97t-133.5 -21l-7 -2q78 -56 99 -78q37 -41 37 -88q0 -69 -81 -108q-44 -21 -121 -21q-82 0 -170 27l-54 65q-3 9 1 17t6.5 9.5t11.5 7.5
l17 11q22 20 39 2l70 -61q33 -29 93 -29q32 0 55 14.5t23 41.5q0 16 -7 31t-23.5 30.5t-29.5 25.5t-40 29t-39 28q-14 11 -46.5 33t-50 36t-39.5 35t-32 43.5t-10 47.5q0 67 55 103t131 25z" />
    <glyph glyph-name="dieresis" unicode="&#xa8;" horiz-adv-x="463" 
d="M121 685q23 0 40 -16.5t17 -39.5t-17 -40t-40 -17q-22 0 -39 17t-17 40q0 21 17 38.5t39 17.5zM339 685q23 0 40 -16.5t17 -39.5t-17 -40t-40 -17q-22 0 -39 17t-17 40q0 21 17 38.5t39 17.5z" />
    <glyph glyph-name="copyright" unicode="&#xa9;" horiz-adv-x="796" 
d="M398 712q149 0 255.5 -106.5t106.5 -255.5t-106.5 -255.5t-255.5 -106.5t-255.5 106.5t-106.5 255.5t106.5 255.5t255.5 106.5zM398 653q-123 0 -213 -90.5t-90 -212.5q0 -123 90 -213t213 -90t213 90t90 213t-90 213t-213 90zM185 359q0 84 65.5 142.5t162.5 58.5
q79 0 141 -36q4 -3 4 -10v-34q0 -5 -3 -8l-24 -14q-5 -3 -11.5 5.5t-15.5 21t-32 23t-56 10.5q-116 0 -116 -155q0 -163 128 -163q69 0 108 41q6 6 18.5 -2t8.5 -15l-19 -42q-8 -13 -12 -15q-8 -6 -41.5 -11.5t-66.5 -5.5q-108 0 -173.5 57.5t-65.5 151.5z" />
    <glyph glyph-name="ordfeminine" unicode="&#xaa;" horiz-adv-x="444" 
d="M209 677q-38 0 -61 -37.5t-23 -84.5q0 -43 15.5 -71.5t41.5 -28.5q24 0 43.5 21.5t27.5 55.5q11 37 11 56q0 89 -55 89zM364 645v-173q0 -18 7 -24.5t27 -11.5q17 -7 17 -11q0 -2 -1 -4l-5 -12q-3 -5 -13 -5h-114q-9 -1 -13.5 4t-4.5 15v48h-2q-15 -31 -49 -52.5
t-70 -21.5q-56 0 -90 41t-34 98q0 73 55.5 124.5t144.5 51.5q59 0 107 -17q1 0 6 -2t6 -2.5l5 -2.5t5.5 -3t4.5 -3.5t4 -4.5t3 -5.5t2.5 -7t1 -8.5t0.5 -11z" />
    <glyph glyph-name="guillemotleft" unicode="&#xab;" horiz-adv-x="500" 
d="M51 238l163 152q27 27 36 27t9 -13q0 -14 -40 -77t-61 -89q19 -25 60 -88t44 -77q0 -14 -12 -14q-10 0 -40 32zM238 238l163 152q27 27 36 27t9 -13q0 -14 -40 -77t-61 -89q19 -25 60 -88t44 -77q0 -14 -12 -14q-10 0 -40 32z" />
    <glyph glyph-name="logicalnot" unicode="&#xac;" 
d="M461 112v199h-426v78h504v-277h-78z" />
    <glyph glyph-name="uni00AD" unicode="&#xad;" horiz-adv-x="336" 
d="M291 195h-249v86h249v-86z" />
    <glyph glyph-name="registered" unicode="&#xae;" horiz-adv-x="796" 
d="M398 712q149 0 255.5 -106.5t106.5 -255.5t-106.5 -255.5t-255.5 -106.5t-255.5 106.5t-106.5 255.5t106.5 255.5t255.5 106.5zM398 653q-123 0 -213 -90.5t-90 -212.5q0 -123 90 -213t213 -90t213 90t90 213t-90 213t-213 90zM269 232v259q0 18 -8.5 26.5t-28.5 11.5
q-14 4 -11 11l5 10q2 7 10 7h228q40 0 73.5 -24t34.5 -67q0 -38 -21 -69t-61 -47q85 -141 123 -160v-20h-103q-8 0 -16 14l-93 148h-36v-100q0 -18 7 -24t30 -11q11 -1 7 -10l-5 -12q-3 -5 -10 -5h-162q-12 0 -7 10l3 10q3 5 11 8q30 6 30 34zM365 370h34q31 -1 51.5 20
t20.5 64q0 65 -62 65h-44v-149z" />
    <glyph glyph-name="macron" unicode="&#xaf;" horiz-adv-x="519" 
d="M456 612h-393v68h393v-68z" />
    <glyph glyph-name="degree" unicode="&#xb0;" horiz-adv-x="370" 
d="M185 657q-36 0 -62.5 -26.5t-26.5 -62.5t27 -62t62 -26t61.5 27t26.5 61q0 35 -26 62t-62 27zM185 425q-59 0 -101.5 42.5t-42.5 100.5t43 101t101 43t100.5 -42.5t42.5 -101.5q0 -58 -42 -100.5t-101 -42.5z" />
    <glyph glyph-name="plusminus" unicode="&#xb1;" 
d="M248 407v214h78v-214h213v-78h-213v-214h-78v214h-213v78h213zM35 0v78h504v-78h-504z" />
    <glyph glyph-name="twosuperior" unicode="&#xb2;" horiz-adv-x="407" 
d="M33 285v51q14 13 51.5 41.5t55.5 46.5q112 109 112 168q0 33 -19.5 49.5t-41.5 16.5q-52 0 -78 -45l-18 -29q-3 -6 -8 -4l-19 8q-4 4 -4 8v57q0 2 0.5 4.5t2.5 4.5l3.5 3.5t4.5 4t5 4t6.5 4.5t6.5 4q16 11 47.5 20.5t62.5 9.5q63 0 109.5 -27t46.5 -78q0 -75 -137 -179
l-102 -76v-2h153q19 0 37 18.5t29 35.5t16 15l20 -10q6 -3 4 -10l-39 -99q-5 -15 -34 -15h-273z" />
    <glyph glyph-name="threesuperior" unicode="&#xb3;" horiz-adv-x="407" 
d="M128 487v34q50 5 83 29t33 65q0 33 -18 46t-39 13q-57 0 -82 -57l-9 -18q-3 -7 -9 -3l-15 7q-4 2 -4 7v52q0 6 23 22q44 28 121 28q51 0 96.5 -23t45.5 -72q0 -34 -35.5 -64t-79.5 -39v-2q59 -2 97.5 -32.5t38.5 -75.5q0 -57 -54 -91.5t-140 -34.5q-83 0 -119 25l-23 51
q-1 7 5 13l19 16q9 7 14 1l35 -40q28 -32 63 -32q39 0 64.5 22.5t25.5 61.5q0 84 -137 91z" />
    <glyph glyph-name="acute" unicode="&#xb4;" horiz-adv-x="370" 
d="M284 659l-140 -79q-31 4 -26 36l111 104q46 44 74 44q15 0 27.5 -12.5t12.5 -29.5q0 -12 -10.5 -24.5t-18.5 -18.5t-30 -20z" />
    <glyph glyph-name="mu" unicode="&#xb5;" horiz-adv-x="667" 
d="M231 473v-260q0 -80 18.5 -110t60.5 -30q24 0 48.5 19t40.5 49q30 53 30 195v57q0 26 -11.5 39t-44.5 21q-20 6 -14 19l9 20q3 8 10 8h160q24 0 24 -27v-369q0 -26 14 -40q6 -6 17.5 -10t21 -5t18.5 -4t10.5 -7.5t-2.5 -14.5l-6 -14q-5 -9 -30 -9h-152q-8 0 -11.5 0.5
t-8 5t-4.5 14.5v55l-38 -29q-74 -58 -141 -58q-30 0 -67 30q-7 -16 -7 -49q0 -9 6 -37l53 -113q16 -41 -20 -48q-25 -5 -33 -6.5t-27 -3.5t-28.5 1t-14.5 10q-14 22 -14 74v547q0 31 -12 41.5t-49 18.5q-20 6 -14 19l9 20q3 8 15 8h160q24 0 24 -27z" />
    <glyph glyph-name="paragraph" unicode="&#xb6;" horiz-adv-x="611" 
d="M263 -73v354q-118 -1 -174 57.5t-56 161.5q0 106 51.5 153t170.5 47h296q19 0 13 -15l-6 -16q-3 -9 -19 -13q-51 -8 -51 -53v-676q0 -28 12.5 -37.5t51.5 -17.5q18 -3 11 -17l-8 -18q-5 -7 -17 -6h-136v823h-53v-823h-157q-6 0 -8.5 0.5t-5.5 3.5t1 10l6 16q3 9 19 13
q23 4 41 17t18 36zM263 333v321q-60 0 -85 -34.5t-25 -119.5q0 -90 25.5 -128.5t84.5 -38.5z" />
    <glyph glyph-name="periodcentered" unicode="&#xb7;" horiz-adv-x="287" 
d="M68 253q0 31 22.5 53t52.5 22q31 0 53 -22.5t22 -52.5t-22.5 -52.5t-52.5 -22.5t-52.5 22.5t-22.5 52.5z" />
    <glyph glyph-name="cedilla" unicode="&#xb8;" horiz-adv-x="333" 
d="M107 -99l46 109h39l-30 -75q14 3 29 3q32 0 56 -17.5t24 -51.5q0 -38 -39 -61t-90 -23q-39 0 -69 13q-7 9 -3.5 19t14.5 13q33 -9 51 -9q52 0 52 42q0 16 -9 25.5t-22 10.5q-17 2 -42 -3z" />
    <glyph glyph-name="onesuperior" unicode="&#xb9;" horiz-adv-x="407" 
d="M263 712v-350q0 -22 14 -30q10 -7 55 -11q14 -4 13 -8l-10 -20q-4 -8 -24 -8h-217h-2h-7.5t-5.5 2.5t0 7.5l7 20q3 4 27 7t29 6q21 16 21 34v260q0 9 -1.5 15.5t-5.5 9t-8 3t-11 -1t-12 -3.5t-14 -5t-14 -5l-13 -4q-8 -3 -10 5l-4 12q-4 10 4 13z" />
    <glyph glyph-name="ordmasculine" unicode="&#xba;" horiz-adv-x="407" 
d="M194 397q-78 0 -124 46.5t-46 104.5q0 67 51.5 115.5t136.5 48.5q78 0 124.5 -46t46.5 -106q0 -65 -51 -114t-138 -49zM206 430q71 0 71 119q0 59 -20.5 94.5t-51.5 35.5q-37 0 -56 -34.5t-19 -76.5q0 -64 23 -101t53 -37z" />
    <glyph glyph-name="guillemotright" unicode="&#xbb;" horiz-adv-x="500" 
d="M449 238l-163 -152q-27 -27 -36 -27t-9 13q0 14 40 77t61 89q-19 25 -60 88t-44 77q0 14 12 14q10 0 40 -32zM262 238l-163 -152q-27 -27 -36 -27t-9 13q0 14 40 77t61 89q-19 25 -60 88t-44 77q0 14 12 14q10 0 40 -32z" />
    <glyph glyph-name="onequarter" unicode="&#xbc;" horiz-adv-x="963" 
d="M835 420v-244h60q17 0 10 -13l-22 -41h-48v-45q0 -22 14 -30q10 -7 55 -11q14 -4 13 -8l-10 -20q-4 -8 -24 -8h-217h-2h-7.5t-5.5 2.5t0 7.5l7 20q3 4 27 7t29 6q21 16 21 34v45h-163q-20 0 -23 5l-16 25q28 37 213 268h89zM311 0h-76l418 700h75zM607 176h128v161
q-60 -64 -128 -161zM248 712v-350q0 -22 14 -30q10 -7 55 -11q14 -4 13 -8l-10 -20q-4 -8 -24 -8h-217h-2h-7.5t-5.5 2.5t0 7.5l7 20q3 4 27 7t29 6q21 16 21 34v260q0 9 -1.5 15.5t-5.5 9t-8 3t-11 -1t-12 -3.5t-14 -5t-14 -5l-13 -4q-8 -3 -10 5l-4 12q-4 10 4 13z" />
    <glyph glyph-name="onehalf" unicode="&#xbd;" horiz-adv-x="963" 
d="M297 0h-76l418 700h75zM571 0v51q14 13 51.5 41.5t55.5 46.5q112 109 112 168q0 33 -19.5 49.5t-41.5 16.5q-52 0 -78 -45l-18 -29q-3 -6 -8 -4l-19 8q-4 4 -4 8v57q0 2 0.5 4.5t2.5 4.5l3.5 3.5t4.5 4t5 4t6.5 4.5t6.5 4q16 11 47.5 20.5t62.5 9.5q63 0 109.5 -27
t46.5 -78q0 -75 -137 -179l-102 -76v-2h153q19 0 37 18.5t29 35.5t16 15l20 -10q6 -3 4 -10l-39 -99q-5 -15 -34 -15h-273zM235 712v-350q0 -22 14 -30q10 -7 55 -11q14 -4 13 -8l-10 -20q-4 -8 -24 -8h-217h-2h-7.5t-5.5 2.5t0 7.5l7 20q3 4 27 7t29 6q21 16 21 34v260
q0 9 -1.5 15.5t-5.5 9t-8 3t-11 -1t-12 -3.5t-14 -5t-14 -5l-13 -4q-8 -3 -10 5l-4 12q-4 10 4 13z" />
    <glyph glyph-name="threequarters" unicode="&#xbe;" horiz-adv-x="963" 
d="M840 420v-244h60q16 0 10 -13l-22 -41h-48v-45q0 -22 14 -30q10 -7 55 -11q14 -4 13 -8l-10 -20q-4 -8 -24 -8h-217h-2h-7.5t-5.5 2.5t0 7.5l7 20q3 4 27 7t29 6q21 16 21 34v45h-163q-20 0 -23 5l-16 25q28 37 213 268h89zM612 176h128v161q-60 -64 -128 -161zM331 0
h-76l418 700h75zM139 487v34q50 5 83 29t33 65q0 33 -18 46t-39 13q-57 0 -82 -57l-9 -18q-3 -7 -9 -3l-15 7q-4 2 -4 7v52q0 6 23 22q44 28 121 28q51 0 96.5 -23t45.5 -72q0 -34 -35.5 -64t-79.5 -39v-2q59 -2 97.5 -32.5t38.5 -75.5q0 -57 -54 -91.5t-140 -34.5
q-83 0 -119 25l-23 51q-1 7 5 13l19 16q9 7 14 1l35 -40q28 -32 63 -32q39 0 64.5 22.5t25.5 61.5q0 84 -137 91z" />
    <glyph glyph-name="questiondown" unicode="&#xbf;" horiz-adv-x="481" 
d="M252 -235q-87 0 -145 46t-58 125q0 17 3.5 33.5t12.5 33l15 27.5t21.5 28t22 23.5t25 24.5t22.5 22q38 37 52 70.5t16 84.5h72q4 -52 -8 -91.5t-53 -106.5q-55 -97 -55 -165q0 -43 20.5 -77.5t49.5 -34.5q32 0 70 38l40 40q10 8 25 -1l23 -15q12 -7 7 -19l-34 -61
q-16 -10 -59 -17.5t-85 -7.5zM274 512q31 0 53 -22.5t22 -52.5t-22.5 -52.5t-52.5 -22.5t-52.5 22.5t-22.5 52.5q0 31 22.5 53t52.5 22z" />
    <glyph glyph-name="Agrave" unicode="&#xc0;" horiz-adv-x="741" 
d="M236 269h208l-103 271zM737 32l-10 -22q-6 -10 -25 -10h-235q-20 0 -14 16l9 20q3 6 19 12.5t24.5 19.5t-0.5 40l-39 101h-251l-45 -114q-6 -18 1.5 -29.5t20 -15t21 -9t4.5 -13.5l-6 -11l-3 -5l-3 -6t-5 -4t-9 -2h-155h-8h-8.5t-6.5 0.5t-5.5 1.5t-3.5 3t-1.5 5.5
t2.5 8.5l5 14q3 9 26 15q32 8 43 18.5t27 47.5l172 442q3 9 4.5 17t2 13.5t-1.5 11.5t-3 9.5t-4.5 8t-5 6.5t-5.5 5.5t-5 4.5q-9 9 -27 14t-26.5 10t-2.5 16l5 16q4 12 24 12h173q19 0 25 -29q77 -222 218 -557q14 -36 25.5 -45.5t49.5 -19.5q17 -5 13 -17zM326 900
l114 -109q2 -15 -6 -22.5t-28 -7.5l-136 77q-18 10 -29.5 17.5t-21.5 19t-10 23.5q0 20 12 32.5t30 12.5q28 0 75 -43z" />
    <glyph glyph-name="Aacute" unicode="&#xc1;" horiz-adv-x="741" 
d="M236 269h208l-103 271zM737 32l-10 -22q-6 -10 -25 -10h-235q-20 0 -14 16l9 20q3 6 19 12.5t24.5 19.5t-0.5 40l-39 101h-251l-45 -114q-6 -18 1.5 -29.5t20 -15t21 -9t4.5 -13.5l-6 -11l-3 -5l-3 -6t-5 -4t-9 -2h-155h-8h-8.5t-6.5 0.5t-5.5 1.5t-3.5 3t-1.5 5.5
t2.5 8.5l5 14q3 9 26 15q32 8 43 18.5t27 47.5l172 442q3 9 4.5 17t2 13.5t-1.5 11.5t-3 9.5t-4.5 8t-5 6.5t-5.5 5.5t-5 4.5q-9 9 -27 14t-26.5 10t-2.5 16l5 16q4 12 24 12h173q19 0 25 -29q77 -222 218 -557q14 -36 25.5 -45.5t49.5 -19.5q17 -5 13 -17zM450 838
l-140 -79q-31 4 -26 36l111 104q46 44 74 44q15 0 27.5 -12.5t12.5 -29.5q0 -12 -10.5 -24.5t-18.5 -18.5t-30 -20z" />
    <glyph glyph-name="Acircumflex" unicode="&#xc2;" horiz-adv-x="741" 
d="M236 269h208l-103 271zM737 32l-10 -22q-6 -10 -25 -10h-235q-20 0 -14 16l9 20q3 6 19 12.5t24.5 19.5t-0.5 40l-39 101h-251l-45 -114q-6 -18 1.5 -29.5t20 -15t21 -9t4.5 -13.5l-6 -11l-3 -5l-3 -6t-5 -4t-9 -2h-155h-8h-8.5t-6.5 0.5t-5.5 1.5t-3.5 3t-1.5 5.5
t2.5 8.5l5 14q3 9 26 15q32 8 43 18.5t27 47.5l172 442q3 9 4.5 17t2 13.5t-1.5 11.5t-3 9.5t-4.5 8t-5 6.5t-5.5 5.5t-5 4.5q-9 9 -27 14t-26.5 10t-2.5 16l5 16q4 12 24 12h173q19 0 25 -29q77 -222 218 -557q14 -36 25.5 -45.5t49.5 -19.5q17 -5 13 -17zM350 851
l-126 -94q-11 -5 -25.5 -3.5t-16.5 11.5l132 153h72l132 -153q-2 -10 -16.5 -11.5t-25.5 3.5z" />
    <glyph glyph-name="Atilde" unicode="&#xc3;" horiz-adv-x="741" 
d="M236 269h208l-103 271zM737 32l-10 -22q-6 -10 -25 -10h-235q-20 0 -14 16l9 20q3 6 19 12.5t24.5 19.5t-0.5 40l-39 101h-251l-45 -114q-6 -18 1.5 -29.5t20 -15t21 -9t4.5 -13.5l-6 -11l-3 -5l-3 -6t-5 -4t-9 -2h-155h-8h-8.5t-6.5 0.5t-5.5 1.5t-3.5 3t-1.5 5.5
t2.5 8.5l5 14q3 9 26 15q32 8 43 18.5t27 47.5l172 442q3 9 4.5 17t2 13.5t-1.5 11.5t-3 9.5t-4.5 8t-5 6.5t-5.5 5.5t-5 4.5q-9 9 -27 14t-26.5 10t-2.5 16l5 16q4 12 24 12h173q19 0 25 -29q77 -222 218 -557q14 -36 25.5 -45.5t49.5 -19.5q17 -5 13 -17zM284 868
q27 0 75 -25q4 -2 13.5 -7.5t15 -8.5t14 -6.5t17 -5t18.5 -1.5q27 0 47 16.5t23 34.5q7 8 20 6t15 -12q-2 -38 -36.5 -73t-80.5 -35t-88 27q-40 26 -73 26q-22 0 -40.5 -15t-21.5 -29q-5 -7 -19 -5.5t-15 11.5q9 42 39.5 72t76.5 30z" />
    <glyph glyph-name="Adieresis" unicode="&#xc4;" horiz-adv-x="741" 
d="M236 269h208l-103 271zM737 32l-10 -22q-6 -10 -25 -10h-235q-20 0 -14 16l9 20q3 6 19 12.5t24.5 19.5t-0.5 40l-39 101h-251l-45 -114q-6 -18 1.5 -29.5t20 -15t21 -9t4.5 -13.5l-6 -11l-3 -5l-3 -6t-5 -4t-9 -2h-155h-8h-8.5t-6.5 0.5t-5.5 1.5t-3.5 3t-1.5 5.5
t2.5 8.5l5 14q3 9 26 15q32 8 43 18.5t27 47.5l172 442q3 9 4.5 17t2 13.5t-1.5 11.5t-3 9.5t-4.5 8t-5 6.5t-5.5 5.5t-5 4.5q-9 9 -27 14t-26.5 10t-2.5 16l5 16q4 12 24 12h173q19 0 25 -29q77 -222 218 -557q14 -36 25.5 -45.5t49.5 -19.5q17 -5 13 -17zM240 864
q23 0 40 -16.5t17 -39.5t-17 -40t-40 -17q-22 0 -39 17t-17 40q0 21 17 38.5t39 17.5zM458 864q23 0 40 -16.5t17 -39.5t-17 -40t-40 -17q-22 0 -39 17t-17 40q0 21 17 38.5t39 17.5z" />
    <glyph glyph-name="Aring" unicode="&#xc5;" horiz-adv-x="741" 
d="M236 269h208l-103 271zM737 32l-10 -22q-6 -10 -25 -10h-235q-20 0 -14 16l9 20q3 6 19 12.5t24.5 19.5t-0.5 40l-39 101h-251l-45 -114q-6 -18 1.5 -29.5t20 -15t21 -9t4.5 -13.5l-6 -11l-3 -5l-3 -6t-5 -4t-9 -2h-155h-8h-8.5t-6.5 0.5t-5.5 1.5t-3.5 3t-1.5 5.5
t2.5 8.5l5 14q3 9 26 15q32 8 43 18.5t27 47.5l172 442q3 9 4.5 17t2 13.5t-1.5 11.5t-3 9.5t-4.5 8t-5 6.5t-5.5 5.5t-5 4.5q-9 9 -27 14t-26.5 10t-2.5 16l5 16q4 12 24 12h173q19 0 25 -29q77 -222 218 -557q14 -36 25.5 -45.5t49.5 -19.5q17 -5 13 -17zM355 894
q-22 0 -38 -16t-16 -38q0 -21 16.5 -37t37.5 -16t37.5 16t16.5 37t-16 37.5t-38 16.5zM355 741q-40 0 -70 29.5t-30 69.5t30.5 70t70.5 30t69.5 -29.5t29.5 -70.5t-29.5 -70t-70.5 -29z" />
    <glyph glyph-name="AE" unicode="&#xc6;" horiz-adv-x="963" 
d="M469 95v114h-229l-71 -123q-6 -16 1.5 -26.5t20 -14t21 -8.5t4.5 -12l-6 -10q-9 -15 -20 -15h-177q-17 0 -21.5 3.5t-0.5 13.5l5 12q3 8 26 14q47 10 77 60l258 466q26 49 23 60q-1 3 -3 5q-6 5 -15 9t-16 6t-13.5 5t-7 6.5t2.5 10.5l5 14q6 15 20 15h493q14 0 22.5 -7
t6.5 -18v-80q0 -4 -5 -9l-18 -15q-4 -3 -9 2.5t-12.5 16.5t-16.5 22t-24.5 19.5t-34.5 8.5h-147v-232h231q10 0 13.5 -4t-0.5 -11l-18 -31q-9 -14 -32 -14h-194v-194q0 -55 15.5 -74.5t57.5 -19.5h82q33 0 58.5 13t36.5 28.5t19 27.5t12 11l25 -8q6 -2 6 -9v-98
q0 -25 -46 -25h-447q-4 -1 -8 2.5t0 10.5l9 18q2 4 13 8.5t19.5 17t8.5 38.5zM271 269h198v363h-2z" />
    <glyph glyph-name="Ccedilla" unicode="&#xc7;" horiz-adv-x="704" 
d="M674 108l-31 -67q-13 -22 -20 -26q-43 -27 -195 -27q-33 0 -57 4l-23 -57q13 3 29 3q32 0 56 -17.5t24 -51.5q0 -38 -39 -61t-90 -23q-39 0 -69 13q-7 9 -3.5 19t14.5 13q33 -9 51 -9q52 0 52 42q0 16 -9 25.5t-22 10.5q-17 2 -42 -3l-7 5l41 97q-133 26 -211.5 122.5
t-78.5 235.5q0 148 109.5 252t270.5 104q135 0 235 -61q8 -4 8 -17v-64q0 -5 -6 -11l-27 -19q-4 -3 -11.5 6.5t-22.5 26.5t-36 33.5t-57.5 28.5t-81.5 12q-110 0 -170 -78.5t-60 -204.5q0 -144 73 -227.5t180 -83.5q125 0 198 69q7 7 16 6t12 -6.5t0 -13.5z" />
    <glyph glyph-name="Egrave" unicode="&#xc8;" horiz-adv-x="611" 
d="M259 640v-232h231q10 0 13.5 -4t-0.5 -11l-18 -31q-9 -14 -32 -14h-194v-194q0 -55 15.5 -74.5t57.5 -19.5h82q33 0 58.5 13t36.5 28.5t19 27.5t12 11l25 -8q6 -2 6 -9v-98q0 -25 -46 -25h-309h-30t-22 1t-18.5 4t-12 7.5t-9.5 12t-4 18.5t-2 26v516q0 31 -15 46t-48 20
q-9 2 -12.5 4t-7 5.5t0.5 8.5l8 19q5 12 17 12h436q14 0 22.5 -7t6.5 -18v-80q0 -4 -5 -9l-18 -15q-4 -3 -9 2.5t-12.5 16.5t-16.5 22t-24.5 19.5t-34.5 8.5h-147zM285 900l114 -109q2 -15 -6 -22.5t-28 -7.5l-136 77q-18 10 -29.5 17.5t-21.5 19t-10 23.5q0 20 12 32.5
t30 12.5q28 0 75 -43z" />
    <glyph glyph-name="Eacute" unicode="&#xc9;" horiz-adv-x="611" 
d="M259 640v-232h231q10 0 13.5 -4t-0.5 -11l-18 -31q-9 -14 -32 -14h-194v-194q0 -55 15.5 -74.5t57.5 -19.5h82q33 0 58.5 13t36.5 28.5t19 27.5t12 11l25 -8q6 -2 6 -9v-98q0 -25 -46 -25h-309h-30t-22 1t-18.5 4t-12 7.5t-9.5 12t-4 18.5t-2 26v516q0 31 -15 46t-48 20
q-9 2 -12.5 4t-7 5.5t0.5 8.5l8 19q5 12 17 12h436q14 0 22.5 -7t6.5 -18v-80q0 -4 -5 -9l-18 -15q-4 -3 -9 2.5t-12.5 16.5t-16.5 22t-24.5 19.5t-34.5 8.5h-147zM405 838l-140 -79q-31 4 -26 36l111 104q46 44 74 44q15 0 27.5 -12.5t12.5 -29.5q0 -12 -10.5 -24.5
t-18.5 -18.5t-30 -20z" />
    <glyph glyph-name="Ecircumflex" unicode="&#xca;" horiz-adv-x="611" 
d="M259 640v-232h231q10 0 13.5 -4t-0.5 -11l-18 -31q-9 -14 -32 -14h-194v-194q0 -55 15.5 -74.5t57.5 -19.5h82q33 0 58.5 13t36.5 28.5t19 27.5t12 11l25 -8q6 -2 6 -9v-98q0 -25 -46 -25h-309h-30t-22 1t-18.5 4t-12 7.5t-9.5 12t-4 18.5t-2 26v516q0 31 -15 46t-48 20
q-9 2 -12.5 4t-7 5.5t0.5 8.5l8 19q5 12 17 12h436q14 0 22.5 -7t6.5 -18v-80q0 -4 -5 -9l-18 -15q-4 -3 -9 2.5t-12.5 16.5t-16.5 22t-24.5 19.5t-34.5 8.5h-147zM305 851l-126 -94q-11 -5 -25.5 -3.5t-16.5 11.5l132 153h72l132 -153q-2 -10 -16.5 -11.5t-25.5 3.5z" />
    <glyph glyph-name="Edieresis" unicode="&#xcb;" horiz-adv-x="611" 
d="M259 640v-232h231q10 0 13.5 -4t-0.5 -11l-18 -31q-9 -14 -32 -14h-194v-194q0 -55 15.5 -74.5t57.5 -19.5h82q33 0 58.5 13t36.5 28.5t19 27.5t12 11l25 -8q6 -2 6 -9v-98q0 -25 -46 -25h-309h-30t-22 1t-18.5 4t-12 7.5t-9.5 12t-4 18.5t-2 26v516q0 31 -15 46t-48 20
q-9 2 -12.5 4t-7 5.5t0.5 8.5l8 19q5 12 17 12h436q14 0 22.5 -7t6.5 -18v-80q0 -4 -5 -9l-18 -15q-4 -3 -9 2.5t-12.5 16.5t-16.5 22t-24.5 19.5t-34.5 8.5h-147zM195 864q23 0 40 -16.5t17 -39.5t-17 -40t-40 -17q-22 0 -39 17t-17 40q0 21 17 38.5t39 17.5zM413 864
q23 0 40 -16.5t17 -39.5t-17 -40t-40 -17q-22 0 -39 17t-17 40q0 21 17 38.5t39 17.5z" />
    <glyph glyph-name="Igrave" unicode="&#xcc;" horiz-adv-x="395" 
d="M127 107v486q0 31 -12.5 41.5t-51.5 19.5q-19 3 -11 18l8 20q5 8 17 8h254q19 0 13 -17l-6 -17q-3 -10 -19 -14q-51 -10 -51 -59v-486q0 -31 12.5 -41.5t51.5 -19.5q19 -3 11 -18l-8 -20q-5 -8 -17 -8h-254q-19 0 -13 17l6 17q3 10 19 14q51 10 51 59zM177 900l114 -109
q2 -15 -6 -22.5t-28 -7.5l-136 77q-18 10 -29.5 17.5t-21.5 19t-10 23.5q0 20 12 32.5t30 12.5q28 0 75 -43z" />
    <glyph glyph-name="Iacute" unicode="&#xcd;" horiz-adv-x="395" 
d="M127 107v486q0 31 -12.5 41.5t-51.5 19.5q-19 3 -11 18l8 20q5 8 17 8h254q19 0 13 -17l-6 -17q-3 -10 -19 -14q-51 -10 -51 -59v-486q0 -31 12.5 -41.5t51.5 -19.5q19 -3 11 -18l-8 -20q-5 -8 -17 -8h-254q-19 0 -13 17l6 17q3 10 19 14q51 10 51 59zM297 838l-140 -79
q-31 4 -26 36l111 104q46 44 74 44q15 0 27.5 -12.5t12.5 -29.5q0 -12 -10.5 -24.5t-18.5 -18.5t-30 -20z" />
    <glyph glyph-name="Icircumflex" unicode="&#xce;" horiz-adv-x="395" 
d="M127 107v486q0 31 -12.5 41.5t-51.5 19.5q-19 3 -11 18l8 20q5 8 17 8h254q19 0 13 -17l-6 -17q-3 -10 -19 -14q-51 -10 -51 -59v-486q0 -31 12.5 -41.5t51.5 -19.5q19 -3 11 -18l-8 -20q-5 -8 -17 -8h-254q-19 0 -13 17l6 17q3 10 19 14q51 10 51 59zM197 851l-126 -94
q-11 -5 -25.5 -3.5t-16.5 11.5l132 153h72l132 -153q-2 -10 -16.5 -11.5t-25.5 3.5z" />
    <glyph glyph-name="Idieresis" unicode="&#xcf;" horiz-adv-x="395" 
d="M127 107v486q0 31 -12.5 41.5t-51.5 19.5q-19 3 -11 18l8 20q5 8 17 8h254q19 0 13 -17l-6 -17q-3 -10 -19 -14q-51 -10 -51 -59v-486q0 -31 12.5 -41.5t51.5 -19.5q19 -3 11 -18l-8 -20q-5 -8 -17 -8h-254q-19 0 -13 17l6 17q3 10 19 14q51 10 51 59zM87 864
q23 0 40 -16.5t17 -39.5t-17 -40t-40 -17q-22 0 -39 17t-17 40q0 21 17 38.5t39 17.5zM305 864q23 0 40 -16.5t17 -39.5t-17 -40t-40 -17q-22 0 -39 17t-17 40q0 21 17 38.5t39 17.5z" />
    <glyph glyph-name="Eth" unicode="&#xd0;" horiz-adv-x="815" 
d="M439 406v-60h-179v-204q0 -53 32 -73.5t95 -20.5q112 0 170.5 87.5t58.5 228.5q0 145 -60.5 210.5t-181.5 65.5h-114v-234h179zM119 65v281h-118v60h118v179q0 31 -15 46t-48 20q-9 2 -12.5 4t-7 5.5t0.5 8.5l8 19q5 12 17 12h329q203 0 289.5 -86t86.5 -248
q0 -158 -108 -268t-271 -110q-171 0 -242 24q-27 10 -27 53z" />
    <glyph glyph-name="Ntilde" unicode="&#xd1;" horiz-adv-x="796" 
d="M11 672l8 20q6 8 17 8h172q12 -1 23 -8.5t15 -11.5t18 -21l371 -467h2v401q0 31 -12.5 41.5t-51.5 19.5q-19 3 -11 18l8 20q5 8 17 8h182q19 0 13 -17l-6 -17q-3 -10 -19 -14q-51 -10 -51 -59v-560q0 -33 -22 -33h-69q-5 0 -42 45l-380 484h-2v-422q0 -31 12.5 -41.5
t51.5 -19.5q19 -3 11 -18l-8 -20q-5 -8 -17 -8h-182q-19 0 -13 17l6 17q3 10 19 14q51 10 51 59v485q-41 43 -93 58q-25 7 -18 22zM327 868q27 0 75 -25q4 -2 13.5 -7.5t15 -8.5t14 -6.5t17 -5t18.5 -1.5q27 0 47 16.5t23 34.5q7 8 20 6t15 -12q-2 -38 -36.5 -73t-80.5 -35
t-88 27q-40 26 -73 26q-22 0 -40.5 -15t-21.5 -29q-5 -7 -19 -5.5t-15 11.5q9 42 39.5 72t76.5 30z" />
    <glyph glyph-name="Ograve" unicode="&#xd2;" horiz-adv-x="815" 
d="M428 712q148 0 246 -102t98 -246q0 -99 -45 -184t-133.5 -138.5t-201.5 -53.5q-140 0 -244.5 97t-104.5 255q0 164 112.5 268t272.5 104zM407 647q-48 0 -86 -19t-61 -48t-38.5 -66.5t-21.5 -71.5t-6 -67q0 -159 60.5 -240.5t156.5 -81.5q54 0 96 28t66 73t36 95.5
t12 101.5q0 147 -62 221.5t-152 74.5zM363 900l114 -109q2 -15 -6 -22.5t-28 -7.5l-136 77q-18 10 -29.5 17.5t-21.5 19t-10 23.5q0 20 12 32.5t30 12.5q28 0 75 -43z" />
    <glyph glyph-name="Oacute" unicode="&#xd3;" horiz-adv-x="815" 
d="M428 712q148 0 246 -102t98 -246q0 -99 -45 -184t-133.5 -138.5t-201.5 -53.5q-140 0 -244.5 97t-104.5 255q0 164 112.5 268t272.5 104zM407 647q-48 0 -86 -19t-61 -48t-38.5 -66.5t-21.5 -71.5t-6 -67q0 -159 60.5 -240.5t156.5 -81.5q54 0 96 28t66 73t36 95.5
t12 101.5q0 147 -62 221.5t-152 74.5zM507 838l-140 -79q-31 4 -26 36l111 104q46 44 74 44q15 0 27.5 -12.5t12.5 -29.5q0 -12 -10.5 -24.5t-18.5 -18.5t-30 -20z" />
    <glyph glyph-name="Ocircumflex" unicode="&#xd4;" horiz-adv-x="815" 
d="M428 712q148 0 246 -102t98 -246q0 -99 -45 -184t-133.5 -138.5t-201.5 -53.5q-140 0 -244.5 97t-104.5 255q0 164 112.5 268t272.5 104zM407 647q-48 0 -86 -19t-61 -48t-38.5 -66.5t-21.5 -71.5t-6 -67q0 -159 60.5 -240.5t156.5 -81.5q54 0 96 28t66 73t36 95.5
t12 101.5q0 147 -62 221.5t-152 74.5zM407 851l-126 -94q-11 -5 -25.5 -3.5t-16.5 11.5l132 153h72l132 -153q-2 -10 -16.5 -11.5t-25.5 3.5z" />
    <glyph glyph-name="Otilde" unicode="&#xd5;" horiz-adv-x="815" 
d="M428 712q148 0 246 -102t98 -246q0 -99 -45 -184t-133.5 -138.5t-201.5 -53.5q-140 0 -244.5 97t-104.5 255q0 164 112.5 268t272.5 104zM407 647q-48 0 -86 -19t-61 -48t-38.5 -66.5t-21.5 -71.5t-6 -67q0 -159 60.5 -240.5t156.5 -81.5q54 0 96 28t66 73t36 95.5
t12 101.5q0 147 -62 221.5t-152 74.5zM336 868q27 0 75 -25q4 -2 13.5 -7.5t15 -8.5t14 -6.5t17 -5t18.5 -1.5q27 0 47 16.5t23 34.5q7 8 20 6t15 -12q-2 -38 -36.5 -73t-80.5 -35t-88 27q-40 26 -73 26q-22 0 -40.5 -15t-21.5 -29q-5 -7 -19 -5.5t-15 11.5q9 42 39.5 72
t76.5 30z" />
    <glyph glyph-name="Odieresis" unicode="&#xd6;" horiz-adv-x="815" 
d="M428 712q148 0 246 -102t98 -246q0 -99 -45 -184t-133.5 -138.5t-201.5 -53.5q-140 0 -244.5 97t-104.5 255q0 164 112.5 268t272.5 104zM407 647q-48 0 -86 -19t-61 -48t-38.5 -66.5t-21.5 -71.5t-6 -67q0 -159 60.5 -240.5t156.5 -81.5q54 0 96 28t66 73t36 95.5
t12 101.5q0 147 -62 221.5t-152 74.5zM297 864q23 0 40 -16.5t17 -39.5t-17 -40t-40 -17q-22 0 -39 17t-17 40q0 21 17 38.5t39 17.5zM515 864q23 0 40 -16.5t17 -39.5t-17 -40t-40 -17q-22 0 -39 17t-17 40q0 21 17 38.5t39 17.5z" />
    <glyph glyph-name="multiply" unicode="&#xd7;" 
d="M231 253l-157 158l55 55l157 -158l159 158l55 -55l-159 -158l159 -158l-55 -55l-159 158l-157 -158l-55 55z" />
    <glyph glyph-name="Oslash" unicode="&#xd8;" horiz-adv-x="815" 
d="M220 200l345 368q-51 79 -158 79q-48 0 -86 -19t-61 -48t-38.5 -66.5t-21.5 -71.5t-6 -67q0 -107 26 -175zM594 509l-346 -370q56 -86 163 -86q54 0 96 27.5t66 72.5t36 95.5t12 101.5q0 92 -27 159zM635 644l75 80l50 -36l-80 -85q92 -98 92 -239q0 -99 -45 -184
t-133.5 -138.5t-201.5 -53.5q-122 0 -218 74l-84 -90l-46 40l86 92q-87 93 -87 236q0 164 112.5 268t272.5 104q117 0 207 -68z" />
    <glyph glyph-name="Ugrave" unicode="&#xd9;" horiz-adv-x="759" 
d="M254 593v-323q0 -40 7 -74t23 -66t48.5 -50t78.5 -18q79 0 121.5 52t42.5 157v322q0 31 -12.5 41.5t-51.5 19.5q-19 3 -11 18l8 20q5 8 17 8h186q19 0 13 -17l-6 -17q-3 -10 -19 -14q-51 -10 -51 -59v-323q0 -81 -23.5 -139.5t-63 -88t-80 -42t-85.5 -12.5
q-283 0 -283 279v326q0 31 -12.5 41.5t-51.5 19.5q-19 3 -11 18l8 20q5 8 17 8h254q19 0 13 -17l-6 -17q-3 -10 -19 -14q-51 -10 -51 -59zM359 900l114 -109q2 -15 -6 -22.5t-28 -7.5l-136 77q-18 10 -29.5 17.5t-21.5 19t-10 23.5q0 20 12 32.5t30 12.5q28 0 75 -43z" />
    <glyph glyph-name="Uacute" unicode="&#xda;" horiz-adv-x="759" 
d="M254 593v-323q0 -40 7 -74t23 -66t48.5 -50t78.5 -18q79 0 121.5 52t42.5 157v322q0 31 -12.5 41.5t-51.5 19.5q-19 3 -11 18l8 20q5 8 17 8h186q19 0 13 -17l-6 -17q-3 -10 -19 -14q-51 -10 -51 -59v-323q0 -81 -23.5 -139.5t-63 -88t-80 -42t-85.5 -12.5
q-283 0 -283 279v326q0 31 -12.5 41.5t-51.5 19.5q-19 3 -11 18l8 20q5 8 17 8h254q19 0 13 -17l-6 -17q-3 -10 -19 -14q-51 -10 -51 -59zM479 838l-140 -79q-31 4 -26 36l111 104q46 44 74 44q15 0 27.5 -12.5t12.5 -29.5q0 -12 -10.5 -24.5t-18.5 -18.5t-30 -20z" />
    <glyph glyph-name="Ucircumflex" unicode="&#xdb;" horiz-adv-x="759" 
d="M254 593v-323q0 -40 7 -74t23 -66t48.5 -50t78.5 -18q79 0 121.5 52t42.5 157v322q0 31 -12.5 41.5t-51.5 19.5q-19 3 -11 18l8 20q5 8 17 8h186q19 0 13 -17l-6 -17q-3 -10 -19 -14q-51 -10 -51 -59v-323q0 -81 -23.5 -139.5t-63 -88t-80 -42t-85.5 -12.5
q-283 0 -283 279v326q0 31 -12.5 41.5t-51.5 19.5q-19 3 -11 18l8 20q5 8 17 8h254q19 0 13 -17l-6 -17q-3 -10 -19 -14q-51 -10 -51 -59zM379 851l-126 -94q-11 -5 -25.5 -3.5t-16.5 11.5l132 153h72l132 -153q-2 -10 -16.5 -11.5t-25.5 3.5z" />
    <glyph glyph-name="Udieresis" unicode="&#xdc;" horiz-adv-x="759" 
d="M254 593v-323q0 -40 7 -74t23 -66t48.5 -50t78.5 -18q79 0 121.5 52t42.5 157v322q0 31 -12.5 41.5t-51.5 19.5q-19 3 -11 18l8 20q5 8 17 8h186q19 0 13 -17l-6 -17q-3 -10 -19 -14q-51 -10 -51 -59v-323q0 -81 -23.5 -139.5t-63 -88t-80 -42t-85.5 -12.5
q-283 0 -283 279v326q0 31 -12.5 41.5t-51.5 19.5q-19 3 -11 18l8 20q5 8 17 8h254q19 0 13 -17l-6 -17q-3 -10 -19 -14q-51 -10 -51 -59zM269 864q23 0 40 -16.5t17 -39.5t-17 -40t-40 -17q-22 0 -39 17t-17 40q0 21 17 38.5t39 17.5zM487 864q23 0 40 -16.5t17 -39.5
t-17 -40t-40 -17q-22 0 -39 17t-17 40q0 21 17 38.5t39 17.5z" />
    <glyph glyph-name="Yacute" unicode="&#xdd;" horiz-adv-x="667" 
d="M354 337l143 259q18 35 -15 53q-4 3 -10 6l-9 4.5t-6.5 4.5t-2.5 5t1 6l9 17q5 7 11 7h166q15 0 11 -14l-5 -18q-2 -4 -7 -7.5t-14 -7.5t-10 -4q-33 -12 -59 -61l-147 -267q-21 -39 -21 -96v-117q0 -31 12.5 -41.5t51.5 -19.5q19 -3 11 -18l-8 -20q-5 -8 -17 -8h-254
q-19 0 -13 17l6 17q3 10 19 14q51 10 51 59v163l-155 316q-11 23 -21.5 36.5t-16.5 17t-19 10.5q-24 10 -19 20l8 21q3 9 18 9h226q5 0 9 -3.5t2 -9.5l-8 -22q-2 -5 -14 -11.5t-18 -13.5q-18 -16 -8 -50zM433 838l-140 -79q-31 4 -26 36l111 104q46 44 74 44
q15 0 27.5 -12.5t12.5 -29.5q0 -12 -10.5 -24.5t-18.5 -18.5t-30 -20z" />
    <glyph glyph-name="Thorn" unicode="&#xde;" horiz-adv-x="611" 
d="M267 201v-94q0 -31 12.5 -41.5t51.5 -19.5q19 -3 11 -18l-8 -20q-5 -8 -17 -8h-254q-19 0 -13 17l6 17q3 10 19 14q51 10 51 59v486q0 31 -12 41.5t-51 19.5q-19 3 -11 18l8 20q5 8 17 8h253q19 0 13 -17l-6 -17q-3 -10 -19 -14q-51 -10 -51 -59v-40h79q127 0 186 -46.5
t59 -120.5q0 -80 -63.5 -132.5t-174.5 -52.5h-86zM267 499v-244h66q45 0 76 30t31 97q0 62 -29 89.5t-91 27.5h-53z" />
    <glyph glyph-name="germandbls" unicode="&#xdf;" horiz-adv-x="704" 
d="M104 97v325h-58v32l58 25v79q0 65 67.5 123.5t178.5 58.5q96 0 147 -41.5t51 -98.5q0 -52 -45 -109q-2 -3 -9 -12t-9.5 -12.5t-8 -11t-8 -12.5t-5.5 -12.5t-4 -14t-1 -13.5q0 -16 17 -34.5t42.5 -34.5t55.5 -37t55.5 -43t42.5 -52.5t17 -64.5q0 -66 -56.5 -107.5
t-137.5 -41.5q-50 0 -91.5 9t-56.5 19l-25 89q-3 9 5 17l26 21q12 10 16 2l36 -62q0 -1 3.5 -6t5 -7t6 -7.5t8.5 -8t10 -6.5t12 -6.5t15 -4t18 -1.5q34 0 58.5 19t24.5 53q0 29 -23.5 54.5t-57 46.5t-67 42.5t-57 51.5t-23.5 65q0 52 53 117q18 23 26 34.5t17 32t9 40.5
q0 43 -30.5 64.5t-63.5 21.5q-39 0 -75 -26.5t-36 -85.5v-469q0 -28 12.5 -37.5t51.5 -17.5q18 -3 11 -17l-8 -18q-5 -7 -17 -7h-246q-19 0 -13 15l6 16q3 9 19 13q51 8 51 53z" />
    <glyph glyph-name="agrave" unicode="&#xe0;" horiz-adv-x="628" 
d="M413 31v87h-2q-24 -56 -77 -93t-109 -37q-87 0 -140 69t-53 163q0 121 84.5 206.5t213.5 85.5q85 0 158 -27q35 -15 44 -26q14 -18 14 -58v-291q0 -26 7 -36t25 -17q5 -4 12.5 -7.5t11.5 -5t7 -6t-1 -11.5l-5 -19q-5 -8 -20 -8h-142q-15 -1 -21.5 7t-6.5 24zM318 460
q-66 0 -105.5 -65t-39.5 -148q0 -75 26.5 -125t71.5 -50q49 0 95.5 66.5t46.5 165.5q0 75 -19.5 115.5t-75.5 40.5zM284 721l114 -109q2 -15 -6 -22.5t-28 -7.5l-136 77q-18 10 -29.5 17.5t-21.5 19t-10 23.5q0 20 12 32.5t30 12.5q28 0 75 -43z" />
    <glyph glyph-name="aacute" unicode="&#xe1;" horiz-adv-x="628" 
d="M413 31v87h-2q-24 -56 -77 -93t-109 -37q-87 0 -140 69t-53 163q0 121 84.5 206.5t213.5 85.5q85 0 158 -27q35 -15 44 -26q14 -18 14 -58v-291q0 -26 7 -36t25 -17q5 -4 12.5 -7.5t11.5 -5t7 -6t-1 -11.5l-5 -19q-5 -8 -20 -8h-142q-15 -1 -21.5 7t-6.5 24zM318 460
q-66 0 -105.5 -65t-39.5 -148q0 -75 26.5 -125t71.5 -50q49 0 95.5 66.5t46.5 165.5q0 75 -19.5 115.5t-75.5 40.5zM413 659l-140 -79q-31 4 -26 36l111 104q46 44 74 44q15 0 27.5 -12.5t12.5 -29.5q0 -12 -10.5 -24.5t-18.5 -18.5t-30 -20z" />
    <glyph glyph-name="acircumflex" unicode="&#xe2;" horiz-adv-x="628" 
d="M413 31v87h-2q-24 -56 -77 -93t-109 -37q-87 0 -140 69t-53 163q0 121 84.5 206.5t213.5 85.5q85 0 158 -27q35 -15 44 -26q14 -18 14 -58v-291q0 -26 7 -36t25 -17q5 -4 12.5 -7.5t11.5 -5t7 -6t-1 -11.5l-5 -19q-5 -8 -20 -8h-142q-15 -1 -21.5 7t-6.5 24zM318 460
q-66 0 -105.5 -65t-39.5 -148q0 -75 26.5 -125t71.5 -50q49 0 95.5 66.5t46.5 165.5q0 75 -19.5 115.5t-75.5 40.5zM314 672l-126 -94q-11 -5 -25.5 -3.5t-16.5 11.5l132 153h72l132 -153q-2 -10 -16.5 -11.5t-25.5 3.5z" />
    <glyph glyph-name="atilde" unicode="&#xe3;" horiz-adv-x="628" 
d="M413 31v87h-2q-24 -56 -77 -93t-109 -37q-87 0 -140 69t-53 163q0 121 84.5 206.5t213.5 85.5q85 0 158 -27q35 -15 44 -26q14 -18 14 -58v-291q0 -26 7 -36t25 -17q5 -4 12.5 -7.5t11.5 -5t7 -6t-1 -11.5l-5 -19q-5 -8 -20 -8h-142q-15 -1 -21.5 7t-6.5 24zM318 460
q-66 0 -105.5 -65t-39.5 -148q0 -75 26.5 -125t71.5 -50q49 0 95.5 66.5t46.5 165.5q0 75 -19.5 115.5t-75.5 40.5zM243 689q27 0 75 -25q4 -2 13.5 -7.5t15 -8.5t14 -6.5t17 -5t18.5 -1.5q27 0 47 16.5t23 34.5q7 8 20 6t15 -12q-2 -38 -36.5 -73t-80.5 -35t-88 27
q-40 26 -73 26q-22 0 -40.5 -15t-21.5 -29q-5 -7 -19 -5.5t-15 11.5q9 42 39.5 72t76.5 30z" />
    <glyph glyph-name="adieresis" unicode="&#xe4;" horiz-adv-x="628" 
d="M413 31v87h-2q-24 -56 -77 -93t-109 -37q-87 0 -140 69t-53 163q0 121 84.5 206.5t213.5 85.5q85 0 158 -27q35 -15 44 -26q14 -18 14 -58v-291q0 -26 7 -36t25 -17q5 -4 12.5 -7.5t11.5 -5t7 -6t-1 -11.5l-5 -19q-5 -8 -20 -8h-142q-15 -1 -21.5 7t-6.5 24zM318 460
q-66 0 -105.5 -65t-39.5 -148q0 -75 26.5 -125t71.5 -50q49 0 95.5 66.5t46.5 165.5q0 75 -19.5 115.5t-75.5 40.5zM204 685q23 0 40 -16.5t17 -39.5t-17 -40t-40 -17q-22 0 -39 17t-17 40q0 21 17 38.5t39 17.5zM422 685q23 0 40 -16.5t17 -39.5t-17 -40t-40 -17
q-22 0 -39 17t-17 40q0 21 17 38.5t39 17.5z" />
    <glyph glyph-name="aring" unicode="&#xe5;" horiz-adv-x="628" 
d="M413 31v87h-2q-24 -56 -77 -93t-109 -37q-87 0 -140 69t-53 163q0 121 84.5 206.5t213.5 85.5q85 0 158 -27q35 -15 44 -26q14 -18 14 -58v-291q0 -26 7 -36t25 -17q5 -4 12.5 -7.5t11.5 -5t7 -6t-1 -11.5l-5 -19q-5 -8 -20 -8h-142q-15 -1 -21.5 7t-6.5 24zM318 460
q-66 0 -105.5 -65t-39.5 -148q0 -75 26.5 -125t71.5 -50q49 0 95.5 66.5t46.5 165.5q0 75 -19.5 115.5t-75.5 40.5zM314 715q-22 0 -38 -16t-16 -38q0 -21 16.5 -37t37.5 -16t37.5 16t16.5 37t-16 37.5t-38 16.5zM314 562q-40 0 -70 29.5t-30 69.5t30.5 70t70.5 30
t69.5 -29.5t29.5 -70.5t-29.5 -70t-70.5 -29z" />
    <glyph glyph-name="ae" unicode="&#xe6;" horiz-adv-x="826" 
d="M474 300h163q39 0 39 44q0 62 -26 90.5t-63 28.5q-51 0 -82 -48.5t-31 -114.5zM335 204v92q-171 -55 -171 -150q0 -35 18 -58.5t51 -23.5q45 0 73.5 36.5t28.5 103.5zM771 246h-297q0 -79 39 -134t111 -55q41 0 69 15t57 46q8 7 22.5 -1t8.5 -19l-32 -65q-11 -19 -21 -25
q-42 -20 -117 -20q-80 0 -141 32.5t-93 79.5q-67 -112 -194 -112q-61 0 -106 39t-45 100q0 105 153 163l148 56q2 117 -83 117q-37 0 -61.5 -24t-45.5 -69q-4 -12 -18 -8l-49 16q-13 8 -10 20l13 47q8 29 33 38q82 29 155 29q110 0 160 -53q65 53 162 53q99 0 152 -61.5
t53 -164.5q0 -15 -6.5 -27.5t-16.5 -12.5z" />
    <glyph glyph-name="ccedilla" unicode="&#xe7;" horiz-adv-x="513" 
d="M475 468v-78q0 -4 -5 -11l-22 -14q-4 -3 -9 4.5t-14 23t-13 22.5q-28 43 -91 43q-68 0 -108 -57.5t-40 -144.5q0 -84 41 -141.5t114 -57.5q41 0 69 14.5t58 46.5q8 7 22 -1t8 -19l-32 -65q-11 -20 -20 -25q-42 -20 -117 -20q-25 0 -41 4l-23 -57q14 3 29 3q32 0 56 -17.5
t24 -51.5q0 -38 -39 -61t-90 -23q-39 0 -69 13q-7 9 -3.5 19t14.5 13q33 -9 51 -9q52 0 52 42q0 16 -9 25.5t-22 10.5q-17 2 -42 -3l-7 5l41 98q-97 19 -151.5 88.5t-54.5 162.5q0 117 78.5 189.5t209.5 72.5q66 0 123 -13q35 -8 32 -31z" />
    <glyph glyph-name="egrave" unicode="&#xe8;" horiz-adv-x="525" 
d="M470 246h-297q0 -79 39 -134t111 -55q41 0 69 15t57 46q8 7 22.5 -1t8.5 -19l-32 -65q-11 -19 -21 -25q-42 -20 -117 -20q-128 0 -203 74.5t-75 182.5q0 123 71.5 195t184.5 72q99 0 152 -61.5t53 -164.5q0 -15 -6.5 -27.5t-16.5 -12.5zM173 300h163q39 0 39 44
q0 62 -26 90.5t-63 28.5q-51 0 -82 -48.5t-31 -114.5zM233 721l114 -109q2 -15 -6 -22.5t-28 -7.5l-136 77q-18 10 -29.5 17.5t-21.5 19t-10 23.5q0 20 12 32.5t30 12.5q28 0 75 -43z" />
    <glyph glyph-name="eacute" unicode="&#xe9;" horiz-adv-x="525" 
d="M470 246h-297q0 -79 39 -134t111 -55q41 0 69 15t57 46q8 7 22.5 -1t8.5 -19l-32 -65q-11 -19 -21 -25q-42 -20 -117 -20q-128 0 -203 74.5t-75 182.5q0 123 71.5 195t184.5 72q99 0 152 -61.5t53 -164.5q0 -15 -6.5 -27.5t-16.5 -12.5zM173 300h163q39 0 39 44
q0 62 -26 90.5t-63 28.5q-51 0 -82 -48.5t-31 -114.5zM362 659l-140 -79q-31 4 -26 36l111 104q46 44 74 44q15 0 27.5 -12.5t12.5 -29.5q0 -12 -10.5 -24.5t-18.5 -18.5t-30 -20z" />
    <glyph glyph-name="ecircumflex" unicode="&#xea;" horiz-adv-x="525" 
d="M470 246h-297q0 -79 39 -134t111 -55q41 0 69 15t57 46q8 7 22.5 -1t8.5 -19l-32 -65q-11 -19 -21 -25q-42 -20 -117 -20q-128 0 -203 74.5t-75 182.5q0 123 71.5 195t184.5 72q99 0 152 -61.5t53 -164.5q0 -15 -6.5 -27.5t-16.5 -12.5zM173 300h163q39 0 39 44
q0 62 -26 90.5t-63 28.5q-51 0 -82 -48.5t-31 -114.5zM277 672l-126 -94q-11 -5 -25.5 -3.5t-16.5 11.5l132 153h72l132 -153q-2 -10 -16.5 -11.5t-25.5 3.5z" />
    <glyph glyph-name="edieresis" unicode="&#xeb;" horiz-adv-x="525" 
d="M470 246h-297q0 -79 39 -134t111 -55q41 0 69 15t57 46q8 7 22.5 -1t8.5 -19l-32 -65q-11 -19 -21 -25q-42 -20 -117 -20q-128 0 -203 74.5t-75 182.5q0 123 71.5 195t184.5 72q99 0 152 -61.5t53 -164.5q0 -15 -6.5 -27.5t-16.5 -12.5zM173 300h163q39 0 39 44
q0 62 -26 90.5t-63 28.5q-51 0 -82 -48.5t-31 -114.5zM152 685q23 0 40 -16.5t17 -39.5t-17 -40t-40 -17q-22 0 -39 17t-17 40q0 21 17 38.5t39 17.5zM370 685q23 0 40 -16.5t17 -39.5t-17 -40t-40 -17q-22 0 -39 17t-17 40q0 21 17 38.5t39 17.5z" />
    <glyph glyph-name="igrave" unicode="&#xec;" horiz-adv-x="339" 
d="M28 472l9 20q3 8 15 8h184v-393q0 -31 12.5 -41.5t51.5 -19.5q19 -3 11 -18l-8 -20q-5 -8 -17 -8h-246q-19 0 -13 17l6 17q3 10 19 14q51 10 51 59v286q0 31 -12 41.5t-49 18.5q-20 6 -14 19zM139 721l114 -109q2 -15 -6 -22.5t-28 -7.5l-136 77q-18 10 -29.5 17.5
t-21.5 19t-10 23.5q0 20 12 32.5t30 12.5q28 0 75 -43z" />
    <glyph glyph-name="iacute" unicode="&#xed;" horiz-adv-x="339" 
d="M28 472l9 20q3 8 15 8h184v-393q0 -31 12.5 -41.5t51.5 -19.5q19 -3 11 -18l-8 -20q-5 -8 -17 -8h-246q-19 0 -13 17l6 17q3 10 19 14q51 10 51 59v286q0 31 -12 41.5t-49 18.5q-20 6 -14 19zM248 659l-140 -79q-31 4 -26 36l111 104q46 44 74 44q15 0 27.5 -12.5
t12.5 -29.5q0 -12 -10.5 -24.5t-18.5 -18.5t-30 -20z" />
    <glyph glyph-name="icircumflex" unicode="&#xee;" horiz-adv-x="339" 
d="M28 472l9 20q3 8 15 8h184v-393q0 -31 12.5 -41.5t51.5 -19.5q19 -3 11 -18l-8 -20q-5 -8 -17 -8h-246q-19 0 -13 17l6 17q3 10 19 14q51 10 51 59v286q0 31 -12 41.5t-49 18.5q-20 6 -14 19zM157 672l-126 -94q-11 -5 -25.5 -3.5t-16.5 11.5l132 153h72l132 -153
q-2 -10 -16.5 -11.5t-25.5 3.5z" />
    <glyph glyph-name="idieresis" unicode="&#xef;" horiz-adv-x="339" 
d="M28 472l9 20q3 8 15 8h184v-393q0 -31 12.5 -41.5t51.5 -19.5q19 -3 11 -18l-8 -20q-5 -8 -17 -8h-246q-19 0 -13 17l6 17q3 10 19 14q51 10 51 59v286q0 31 -12 41.5t-49 18.5q-20 6 -14 19zM59 685q23 0 40 -16.5t17 -39.5t-17 -40t-40 -17q-22 0 -39 17t-17 40
q0 21 17 38.5t39 17.5zM277 685q23 0 40 -16.5t17 -39.5t-17 -40t-40 -17q-22 0 -39 17t-17 40q0 21 17 38.5t39 17.5z" />
    <glyph glyph-name="eth" unicode="&#xf0;" horiz-adv-x="599" 
d="M303 42q35 0 60.5 17.5t38.5 48.5t18.5 64t5.5 72q0 97 -35 155.5t-90 58.5q-61 0 -94.5 -55t-33.5 -128q0 -109 39 -171t91 -62zM536 671l-128 -47q73 -68 116 -160t43 -196q0 -118 -77.5 -199t-203.5 -81q-116 0 -185 77.5t-69 174.5q1 114 79.5 193t178.5 79
q30 0 76 -12q-28 53 -65 84l-129 -46l-61 42l129 51q-23 16 -88 49q-9 4 -9 13q0 11 36 24.5t61 13.5q9 0 23 -7q40 -20 86 -52l121 47z" />
    <glyph glyph-name="ntilde" unicode="&#xf1;" horiz-adv-x="680" 
d="M236 480v-77h2q32 53 88 81t109 28q142 0 142 -171v-234q0 -31 12.5 -41.5t51.5 -19.5q19 -3 11 -18l-8 -20q-5 -8 -17 -8h-240q-17 0 -12 17l6 17q3 9 17 14q46 10 46 59v180q0 78 -19 107.5t-59 29.5q-57 0 -93.5 -63t-36.5 -197v-57q0 -31 11 -41.5t47 -19.5
q16 -3 10 -18l-8 -20q-3 -8 -15 -8h-241q-19 0 -13 17l6 17q3 10 19 14q51 10 51 59v286q0 31 -12 41.5t-49 18.5q-20 6 -14 19l9 20q3 8 15 8h160q8 0 11.5 -0.5t8 -5t4.5 -14.5zM269 689q27 0 75 -25q4 -2 13.5 -7.5t15 -8.5t14 -6.5t17 -5t18.5 -1.5q27 0 47 16.5
t23 34.5q7 8 20 6t15 -12q-2 -38 -36.5 -73t-80.5 -35t-88 27q-40 26 -73 26q-22 0 -40.5 -15t-21.5 -29q-5 -7 -19 -5.5t-15 11.5q9 42 39.5 72t76.5 30z" />
    <glyph glyph-name="ograve" unicode="&#xf2;" horiz-adv-x="599" 
d="M312 512q115 0 185 -75t70 -177q0 -112 -78 -192t-203 -80q-116 0 -185 77.5t-69 174.5q0 118 79.5 195t200.5 77zM303 42q35 0 60.5 17.5t38.5 48.5t18.5 64t5.5 72q0 97 -35 155.5t-90 58.5q-61 0 -94.5 -55t-33.5 -128q0 -109 39 -171t91 -62zM270 721l114 -109
q2 -15 -6 -22.5t-28 -7.5l-136 77q-18 10 -29.5 17.5t-21.5 19t-10 23.5q0 20 12 32.5t30 12.5q28 0 75 -43z" />
    <glyph glyph-name="oacute" unicode="&#xf3;" horiz-adv-x="599" 
d="M312 512q115 0 185 -75t70 -177q0 -112 -78 -192t-203 -80q-116 0 -185 77.5t-69 174.5q0 118 79.5 195t200.5 77zM303 42q35 0 60.5 17.5t38.5 48.5t18.5 64t5.5 72q0 97 -35 155.5t-90 58.5q-61 0 -94.5 -55t-33.5 -128q0 -109 39 -171t91 -62zM399 659l-140 -79
q-31 4 -26 36l111 104q46 44 74 44q15 0 27.5 -12.5t12.5 -29.5q0 -12 -10.5 -24.5t-18.5 -18.5t-30 -20z" />
    <glyph glyph-name="ocircumflex" unicode="&#xf4;" horiz-adv-x="599" 
d="M312 512q115 0 185 -75t70 -177q0 -112 -78 -192t-203 -80q-116 0 -185 77.5t-69 174.5q0 118 79.5 195t200.5 77zM303 42q35 0 60.5 17.5t38.5 48.5t18.5 64t5.5 72q0 97 -35 155.5t-90 58.5q-61 0 -94.5 -55t-33.5 -128q0 -109 39 -171t91 -62zM299 672l-126 -94
q-11 -5 -25.5 -3.5t-16.5 11.5l132 153h72l132 -153q-2 -10 -16.5 -11.5t-25.5 3.5z" />
    <glyph glyph-name="otilde" unicode="&#xf5;" horiz-adv-x="599" 
d="M312 512q115 0 185 -75t70 -177q0 -112 -78 -192t-203 -80q-116 0 -185 77.5t-69 174.5q0 118 79.5 195t200.5 77zM303 42q35 0 60.5 17.5t38.5 48.5t18.5 64t5.5 72q0 97 -35 155.5t-90 58.5q-61 0 -94.5 -55t-33.5 -128q0 -109 39 -171t91 -62zM228 689q27 0 75 -25
q4 -2 13.5 -7.5t15 -8.5t14 -6.5t17 -5t18.5 -1.5q27 0 47 16.5t23 34.5q7 8 20 6t15 -12q-2 -38 -36.5 -73t-80.5 -35t-88 27q-40 26 -73 26q-22 0 -40.5 -15t-21.5 -29q-5 -7 -19 -5.5t-15 11.5q9 42 39.5 72t76.5 30z" />
    <glyph glyph-name="odieresis" unicode="&#xf6;" horiz-adv-x="599" 
d="M312 512q115 0 185 -75t70 -177q0 -112 -78 -192t-203 -80q-116 0 -185 77.5t-69 174.5q0 118 79.5 195t200.5 77zM303 42q35 0 60.5 17.5t38.5 48.5t18.5 64t5.5 72q0 97 -35 155.5t-90 58.5q-61 0 -94.5 -55t-33.5 -128q0 -109 39 -171t91 -62zM189 685q23 0 40 -16.5
t17 -39.5t-17 -40t-40 -17q-22 0 -39 17t-17 40q0 21 17 38.5t39 17.5zM407 685q23 0 40 -16.5t17 -39.5t-17 -40t-40 -17q-22 0 -39 17t-17 40q0 21 17 38.5t39 17.5z" />
    <glyph glyph-name="divide" unicode="&#xf7;" 
d="M539 214h-504v78h504v-78zM212 63q0 31 22.5 53t53.5 22q29 0 51.5 -22.5t22.5 -52.5q0 -29 -22.5 -52t-50.5 -23q-32 0 -54.5 22t-22.5 53zM212 443q0 31 22.5 53t53.5 22q29 0 51.5 -23t22.5 -52t-22.5 -52t-50.5 -23q-32 0 -54.5 22t-22.5 53z" />
    <glyph glyph-name="oslash" unicode="&#xf8;" horiz-adv-x="599" 
d="M186 170l214 214q-34 74 -99 74q-61 0 -94.5 -55t-33.5 -128q0 -59 13 -105zM417 330l-212 -212q37 -76 98 -76q35 0 60.5 17.5t38.5 48.5t18.5 64t5.5 72q0 47 -9 86zM129 41l-66 -66l-35 37l65 65q-61 72 -61 163q0 118 79.5 195t200.5 77q93 0 161 -54l62 62l36 -37
l-61 -61q57 -70 57 -162q0 -112 -78 -192t-203 -80q-92 0 -157 53z" />
    <glyph glyph-name="ugrave" unicode="&#xf9;" horiz-adv-x="667" 
d="M429 75l-38 -29q-74 -58 -141 -58q-152 0 -152 171v234q0 31 -12 41.5t-49 18.5q-20 6 -14 19l9 20q3 8 15 8h160q24 0 24 -27v-260q0 -80 18.5 -110t60.5 -30q24 0 48.5 19t40.5 49q30 53 30 195v57q0 26 -11.5 39t-44.5 21q-20 6 -14 19l9 20q3 8 10 8h160q24 0 24 -27
v-369q0 -26 14 -40q6 -6 17.5 -10t21 -5t18.5 -4t10.5 -7.5t-2.5 -14.5l-6 -14q-5 -9 -30 -9h-152q-8 0 -11.5 0.5t-8 5t-4.5 14.5v55zM289 721l114 -109q2 -15 -6 -22.5t-28 -7.5l-136 77q-18 10 -29.5 17.5t-21.5 19t-10 23.5q0 20 12 32.5t30 12.5q28 0 75 -43z" />
    <glyph glyph-name="uacute" unicode="&#xfa;" horiz-adv-x="667" 
d="M429 75l-38 -29q-74 -58 -141 -58q-152 0 -152 171v234q0 31 -12 41.5t-49 18.5q-20 6 -14 19l9 20q3 8 15 8h160q24 0 24 -27v-260q0 -80 18.5 -110t60.5 -30q24 0 48.5 19t40.5 49q30 53 30 195v57q0 26 -11.5 39t-44.5 21q-20 6 -14 19l9 20q3 8 10 8h160q24 0 24 -27
v-369q0 -26 14 -40q6 -6 17.5 -10t21 -5t18.5 -4t10.5 -7.5t-2.5 -14.5l-6 -14q-5 -9 -30 -9h-152q-8 0 -11.5 0.5t-8 5t-4.5 14.5v55zM433 659l-140 -79q-31 4 -26 36l111 104q46 44 74 44q15 0 27.5 -12.5t12.5 -29.5q0 -12 -10.5 -24.5t-18.5 -18.5t-30 -20z" />
    <glyph glyph-name="ucircumflex" unicode="&#xfb;" horiz-adv-x="667" 
d="M429 75l-38 -29q-74 -58 -141 -58q-152 0 -152 171v234q0 31 -12 41.5t-49 18.5q-20 6 -14 19l9 20q3 8 15 8h160q24 0 24 -27v-260q0 -80 18.5 -110t60.5 -30q24 0 48.5 19t40.5 49q30 53 30 195v57q0 26 -11.5 39t-44.5 21q-20 6 -14 19l9 20q3 8 10 8h160q24 0 24 -27
v-369q0 -26 14 -40q6 -6 17.5 -10t21 -5t18.5 -4t10.5 -7.5t-2.5 -14.5l-6 -14q-5 -9 -30 -9h-152q-8 0 -11.5 0.5t-8 5t-4.5 14.5v55zM333 672l-126 -94q-11 -5 -25.5 -3.5t-16.5 11.5l132 153h72l132 -153q-2 -10 -16.5 -11.5t-25.5 3.5z" />
    <glyph glyph-name="udieresis" unicode="&#xfc;" horiz-adv-x="667" 
d="M429 75l-38 -29q-74 -58 -141 -58q-152 0 -152 171v234q0 31 -12 41.5t-49 18.5q-20 6 -14 19l9 20q3 8 15 8h160q24 0 24 -27v-260q0 -80 18.5 -110t60.5 -30q24 0 48.5 19t40.5 49q30 53 30 195v57q0 26 -11.5 39t-44.5 21q-20 6 -14 19l9 20q3 8 10 8h160q24 0 24 -27
v-369q0 -26 14 -40q6 -6 17.5 -10t21 -5t18.5 -4t10.5 -7.5t-2.5 -14.5l-6 -14q-5 -9 -30 -9h-152q-8 0 -11.5 0.5t-8 5t-4.5 14.5v55zM223 685q23 0 40 -16.5t17 -39.5t-17 -40t-40 -17q-22 0 -39 17t-17 40q0 21 17 38.5t39 17.5zM441 685q23 0 40 -16.5t17 -39.5t-17 -40
t-40 -17q-22 0 -39 17t-17 40q0 21 17 38.5t39 17.5z" />
    <glyph glyph-name="yacute" unicode="&#xfd;" horiz-adv-x="573" 
d="M65 -234l-12 28q-3 9 1 12t15 6l49 15q39 11 68 74l51 110l-165 374q-22 49 -46 60q-7 3 -10 4.5t-7.5 4t-4 4.5t0.5 6l9 24q4 12 19 12h219q24 0 17 -17l-8 -20q-3 -6 -21 -13.5t-28.5 -20.5t-0.5 -37l101 -244l117 254q9 18 -1.5 30t-27.5 15.5t-30.5 9.5t-9.5 14l6 11
q9 18 16 18h157q11 0 17 -0.5t10 -5.5t1 -14l-5 -17q-3 -10 -20.5 -18.5t-23.5 -15.5t-24 -44l-269 -563q-16 -36 -34.5 -54t-48.5 -18h-45q-25 0 -32 16zM386 659l-140 -79q-31 4 -26 36l111 104q46 44 74 44q15 0 27.5 -12.5t12.5 -29.5q0 -12 -10.5 -24.5t-18.5 -18.5
t-30 -20z" />
    <glyph glyph-name="thorn" unicode="&#xfe;" horiz-adv-x="624" 
d="M209 0v-143q0 -31 16.5 -41.5t67.5 -19.5q25 -3 15 -18l-11 -20q-6 -8 -22 -8h-261q-19 0 -13 17l6 17q3 10 19 14q51 10 51 59v771q0 31 -12 41.5t-49 18.5q-20 6 -14 19l9 20q3 8 15 8h157q27 0 27 -31v-295h2q28 48 79 75.5t108 27.5q87 0 140 -69t53 -163
q0 -125 -85.5 -208.5t-216.5 -83.5q-38 0 -81 12zM336 434q-62 0 -94.5 -69t-32.5 -168q0 -75 20.5 -116t76.5 -41q68 0 106.5 65t38.5 149q0 44 -11.5 83.5t-38.5 68t-65 28.5z" />
    <glyph glyph-name="ydieresis" unicode="&#xff;" horiz-adv-x="573" 
d="M65 -234l-12 28q-3 9 1 12t15 6l49 15q39 11 68 74l51 110l-165 374q-22 49 -46 60q-7 3 -10 4.5t-7.5 4t-4 4.5t0.5 6l9 24q4 12 19 12h219q24 0 17 -17l-8 -20q-3 -6 -21 -13.5t-28.5 -20.5t-0.5 -37l101 -244l117 254q9 18 -1.5 30t-27.5 15.5t-30.5 9.5t-9.5 14l6 11
q9 18 16 18h157q11 0 17 -0.5t10 -5.5t1 -14l-5 -17q-3 -10 -20.5 -18.5t-23.5 -15.5t-24 -44l-269 -563q-16 -36 -34.5 -54t-48.5 -18h-45q-25 0 -32 16zM176 685q23 0 40 -16.5t17 -39.5t-17 -40t-40 -17q-22 0 -39 17t-17 40q0 21 17 38.5t39 17.5zM394 685
q23 0 40 -16.5t17 -39.5t-17 -40t-40 -17q-22 0 -39 17t-17 40q0 21 17 38.5t39 17.5z" />
    <glyph glyph-name="dotlessi" unicode="&#x131;" horiz-adv-x="339" 
d="M28 472l9 20q3 8 15 8h184v-393q0 -31 12.5 -41.5t51.5 -19.5q19 -3 11 -18l-8 -20q-5 -8 -17 -8h-246q-19 0 -13 17l6 17q3 10 19 14q51 10 51 59v286q0 31 -12 41.5t-49 18.5q-20 6 -14 19z" />
    <glyph glyph-name="Lslash" unicode="&#x141;" horiz-adv-x="599" 
d="M371 494l26 -44l-129 -79v-217q0 -62 15.5 -82.5t57.5 -20.5h81q27 0 49 9.5t34 23t20.5 27t13.5 22t9 7.5l25 -8q6 -2 6 -9v-98q0 -25 -46 -25h-469q-19 0 -13 17l6 17q3 10 19 14q51 10 51 59v178l-83 -50l-26 47l109 65v246q0 31 -12.5 41.5t-51.5 19.5q-19 3 -11 18
l8 20q5 8 17 8h254q19 0 13 -17l-6 -17q-3 -10 -19 -14q-51 -10 -51 -59v-161z" />
    <glyph glyph-name="lslash" unicode="&#x142;" horiz-adv-x="339" 
d="M28 707l9 20q3 8 15 8h159q25 0 25 -25v-231l74 51l24 -37l-98 -66v-320q0 -31 12.5 -41.5t51.5 -19.5q19 -3 11 -18l-8 -20q-5 -8 -17 -8h-246q-19 0 -13 17l6 17q3 10 19 14q51 10 51 59v233l-81 -56l-23 38l104 69v237q0 31 -12 41.5t-49 18.5q-20 6 -14 19z" />
    <glyph glyph-name="OE" unicode="&#x152;" horiz-adv-x="1074" 
d="M587 142v432q0 18 -5 31.5t-19 21t-24 12t-36.5 6.5t-38.5 2h-46q-63 0 -109 -27.5t-70 -71.5t-34.5 -87t-10.5 -85q0 -162 64.5 -242.5t179.5 -80.5q78 0 113.5 19t35.5 70zM728 644v-236h231q10 0 13.5 -4t-0.5 -11l-18 -31q-9 -14 -32 -14h-194v-194q0 -58 15.5 -78
t57.5 -20h81q33 0 58.5 13.5t36.5 30t19 29t12 11.5l25 -8q6 -2 6 -9v-98q0 -25 -46 -25h-254q-78 0 -180 -6q-100 -6 -141 -6q-158 0 -266.5 96t-108.5 256q0 164 112.5 268t272.5 104q48 2 133 -5q112 -7 170 -7h234q14 0 22.5 -7t6.5 -18v-80q0 -4 -5 -9l-18 -15
q-4 -3 -9 3t-12.5 17.5t-16.5 23.5t-24.5 20.5t-34.5 8.5h-146z" />
    <glyph glyph-name="oe" unicode="&#x153;" horiz-adv-x="914" 
d="M301 458q-61 0 -94.5 -55t-33.5 -128q0 -109 39 -171t91 -62q35 0 60.5 17.5t38.5 48.5t18.5 64t5.5 72q0 97 -35 155.5t-90 58.5zM859 246h-297q0 -79 39 -134t111 -55q41 0 69 15t57 46q8 7 22.5 -1t8.5 -19l-32 -65q-11 -19 -21 -25q-42 -20 -117 -20q-119 0 -207 82
q-79 -82 -205 -82q-116 0 -185.5 77.5t-69.5 174.5q0 118 79.5 195t201.5 77q112 0 181 -72q79 72 183 72q99 0 152 -61.5t53 -164.5q0 -15 -6.5 -27.5t-16.5 -12.5zM562 300h163q39 0 39 44q0 62 -26 90.5t-63 28.5q-51 0 -82 -48.5t-31 -114.5z" />
    <glyph glyph-name="Scaron" unicode="&#x160;" horiz-adv-x="537" 
d="M453 569l-29 -21q-5 -5 -18 18q-6 10 -18 34q-3 5 -4 8q-28 55 -91 55q-33 0 -62.5 -20.5t-35.5 -56.5q-8 -49 21 -82t102 -82q92 -62 134 -109t44 -112q2 -70 -35 -119.5t-95.5 -71.5t-130.5 -22q-88 0 -142 18q-39 12 -45.5 17.5t-6.5 25.5v97q0 2 -0.5 8.5t-0.5 9.5
t1.5 7t5.5 5l32 12q3 1 6 -3t6 -12.5t6.5 -18t9.5 -23t12 -24.5q31 -61 102 -61q56 0 93 33t39 85q1 18 -2.5 34.5t-14.5 32.5t-19.5 27t-28.5 27t-29.5 23.5t-35 25t-33.5 22.5q-8 6 -30 20.5t-32.5 22.5t-28 24t-25.5 30.5t-15 36t-7 46.5q0 73 64 124.5t178 51.5
q71 0 121 -20q25 -10 35 -18t9 -20v-74q0 -3 -6 -11zM268 818l126 94q11 5 25.5 3.5t16.5 -11.5l-132 -153h-72l-132 153q2 10 16.5 11.5t25.5 -3.5z" />
    <glyph glyph-name="scaron" unicode="&#x161;" horiz-adv-x="426" 
d="M30 39v97q0 22 5 24l20 7q5 2 8 -7t8.5 -27.5t13.5 -32.5q13 -28 38 -46t57 -18q39 0 64 21.5t24 54.5q0 8 -3.5 16.5t-7.5 15.5t-12.5 16t-14 14.5t-17 14.5t-16.5 13t-18.5 13.5t-16.5 12.5q-8 6 -27 19t-29.5 20.5t-25.5 21.5t-23.5 25.5t-14.5 28.5t-6 35
q0 57 49 95.5t143 38.5q59 0 115 -12q26 -6 26 -28v-75q0 -2 -5 -9l-17 -14q-3 -3 -8 5t-14 23.5t-14 23.5q-25 39 -81 39q-25 0 -45 -18.5t-19 -34.5q1 -17 13.5 -31t46 -37.5t50.5 -37.5q73 -60 97.5 -94t24.5 -77q0 -73 -60 -110t-139 -37q-94 0 -143 28q-26 17 -26 23z
M213 639l126 94q11 5 25.5 3.5t16.5 -11.5l-132 -153h-72l-132 153q2 10 16.5 11.5t25.5 -3.5z" />
    <glyph glyph-name="Ydieresis" unicode="&#x178;" horiz-adv-x="667" 
d="M354 337l143 259q18 35 -15 53q-4 3 -10 6l-9 4.5t-6.5 4.5t-2.5 5t1 6l9 17q5 7 11 7h166q15 0 11 -14l-5 -18q-2 -4 -7 -7.5t-14 -7.5t-10 -4q-33 -12 -59 -61l-147 -267q-21 -39 -21 -96v-117q0 -31 12.5 -41.5t51.5 -19.5q19 -3 11 -18l-8 -20q-5 -8 -17 -8h-254
q-19 0 -13 17l6 17q3 10 19 14q51 10 51 59v163l-155 316q-11 23 -21.5 36.5t-16.5 17t-19 10.5q-24 10 -19 20l8 21q3 9 18 9h226q5 0 9 -3.5t2 -9.5l-8 -22q-2 -5 -14 -11.5t-18 -13.5q-18 -16 -8 -50zM223 864q23 0 40 -16.5t17 -39.5t-17 -40t-40 -17q-22 0 -39 17
t-17 40q0 21 17 38.5t39 17.5zM441 864q23 0 40 -16.5t17 -39.5t-17 -40t-40 -17q-22 0 -39 17t-17 40q0 21 17 38.5t39 17.5z" />
    <glyph glyph-name="Zcaron" unicode="&#x17d;" horiz-adv-x="630" 
d="M581 700v-35l-384 -604h268q25 0 44 9.5t29 22.5t17 26.5t11.5 22t8.5 7.5l25 -9q6 -2 6 -10v-101q0 -29 -46 -29h-512l-23 40l386 601h-208q-19 0 -34.5 -11.5t-24.5 -27t-16.5 -31t-12.5 -23.5t-9 -4l-18 20q-5 7 -5 12v88q0 36 32 36h466zM330 818l126 94
q11 5 25.5 3.5t16.5 -11.5l-132 -153h-72l-132 153q2 10 16.5 11.5t25.5 -3.5z" />
    <glyph glyph-name="zcaron" unicode="&#x17e;" horiz-adv-x="519" 
d="M119 500h356v-47l-283 -396h155q30 0 52 12t31 26t16 25t11 10l25 -8q6 -2 6 -8v-91q0 -23 -46 -23h-394l-17 37l309 410h-130q-19 0 -34.5 -9t-24.5 -21t-16.5 -24t-12.5 -18.5t-9 -3.5l-18 15q-5 5 -5 9v80q-2 11 6.5 18t22.5 7zM274 639l126 94q11 5 25.5 3.5
t16.5 -11.5l-132 -153h-72l-132 153q2 10 16.5 11.5t25.5 -3.5z" />
    <glyph glyph-name="florin" unicode="&#x192;" 
d="M495 469l-6 -27l-23 -23h-132q-43 -243 -98 -382t-163 -210q-35 -25 -90 -34q-29 -5 -43 5l-51 41q-7 6 0 19l17 26q6 7 17 2l42 -15q35 -14 70 -14t56.5 68t64.5 274q28 136 46 220h-97l11 50h94l19 79q21 99 161 153q71 32 103 34q42 2 52 -11l35 -52q4 -6 -8 -16
l-32 -27q-7 -6 -19 1l-33 22q-4 3 -14 9t-15.5 9.5t-14.5 6.5t-17 3q-37 0 -52 -69l-27 -142h147z" />
    <glyph glyph-name="circumflex" unicode="&#x2c6;" horiz-adv-x="481" 
d="M240 672l-126 -94q-11 -5 -25.5 -3.5t-16.5 11.5l132 153h72l132 -153q-2 -10 -16.5 -11.5t-25.5 3.5z" />
    <glyph glyph-name="caron" unicode="&#x2c7;" horiz-adv-x="481" 
d="M240 639l126 94q11 5 25.5 3.5t16.5 -11.5l-132 -153h-72l-132 153q2 10 16.5 11.5t25.5 -3.5z" />
    <glyph glyph-name="uni02C9" unicode="&#x2c9;" horiz-adv-x="519" 
d="M456 612h-393v68h393v-68z" />
    <glyph glyph-name="breve" unicode="&#x2d8;" horiz-adv-x="500" 
d="M261 572h-14q-85 0 -134.5 57t-46.5 138q3 9 19 10t21 -8q10 -47 55.5 -83t92.5 -36t92.5 36t55.5 83q5 9 21 8t19 -10q3 -81 -46.5 -138t-134.5 -57z" />
    <glyph glyph-name="dotaccent" unicode="&#x2d9;" horiz-adv-x="259" 
d="M128 710q31 0 50.5 -18.5t19.5 -50.5q0 -31 -19 -50t-49 -19t-50 19.5t-20 49.5q0 29 19.5 49t48.5 20z" />
    <glyph glyph-name="ring" unicode="&#x2da;" horiz-adv-x="333" 
d="M166 715q-22 0 -38 -16t-16 -38q0 -21 16.5 -37t37.5 -16t37.5 16t16.5 37t-16 37.5t-38 16.5zM166 562q-40 0 -70 29.5t-30 69.5t30.5 70t70.5 30t69.5 -29.5t29.5 -70.5t-29.5 -70t-70.5 -29z" />
    <glyph glyph-name="ogonek" unicode="&#x2db;" horiz-adv-x="315" 
d="M120 10h54q-16 -17 -23 -24.5t-14.5 -21t-7.5 -25.5q0 -18 10 -30t28 -12q16 0 33.5 8t22.5 15q6 7 13.5 4t9.5 -10t-2 -12q-51 -47 -116 -47q-29 0 -48.5 19t-19.5 46q0 44 60 90z" />
    <glyph glyph-name="tilde" unicode="&#x2dc;" horiz-adv-x="519" 
d="M188 689q27 0 75 -25q4 -2 13.5 -7.5t15 -8.5t14 -6.5t17 -5t18.5 -1.5q27 0 47 16.5t23 34.5q7 8 20 6t15 -12q-2 -38 -36.5 -73t-80.5 -35t-88 27q-40 26 -73 26q-22 0 -40.5 -15t-21.5 -29q-5 -7 -19 -5.5t-15 11.5q9 42 39.5 72t76.5 30z" />
    <glyph glyph-name="hungarumlaut" unicode="&#x2dd;" horiz-adv-x="556" 
d="M244 659l-140 -79q-31 4 -26 36l111 104q46 44 74 44q15 0 27.5 -12.5t12.5 -29.5q0 -12 -10.5 -24.5t-18.5 -18.5t-30 -20zM430 659l-140 -79q-31 4 -26 36l111 104q46 44 74 44q15 0 27.5 -12.5t12.5 -29.5q0 -12 -10.5 -24.5t-18.5 -18.5t-30 -20z" />
    <glyph glyph-name="uni03A9" unicode="&#x3a9;" horiz-adv-x="751" 
d="M717 168l-28 -168h-258l-9 22q4 9 26.5 58.5t32.5 75t26 70.5t23 84.5t7 77.5q-1 147 -46 214.5t-118 67.5q-160 0 -160 -286q0 -60 20.5 -132.5t38.5 -114t54 -115.5l-10 -22h-257l-25 168l33 1q16 -45 31.5 -58.5t49.5 -13.5h97q-29 22 -46.5 37.5t-45.5 45t-44 58
t-28.5 69.5t-12.5 86q0 142 87.5 228.5t221.5 86.5q135 0 219.5 -83.5t84.5 -225.5q0 -50 -15.5 -94.5t-46.5 -84t-55.5 -64t-65.5 -59.5h108q32 0 46.5 13t30.5 59z" />
    <glyph glyph-name="uni03BC" unicode="&#x3bc;" horiz-adv-x="667" 
d="M231 473v-260q0 -80 18.5 -110t60.5 -30q24 0 48.5 19t40.5 49q30 53 30 195v57q0 26 -11.5 39t-44.5 21q-20 6 -14 19l9 20q3 8 10 8h160q24 0 24 -27v-369q0 -26 14 -40q6 -6 17.5 -10t21 -5t18.5 -4t10.5 -7.5t-2.5 -14.5l-6 -14q-5 -9 -30 -9h-152q-8 0 -11.5 0.5
t-8 5t-4.5 14.5v55l-38 -29q-74 -58 -141 -58q-30 0 -67 30q-7 -16 -7 -49q0 -9 6 -37l53 -113q16 -41 -20 -48q-25 -5 -33 -6.5t-27 -3.5t-28.5 1t-14.5 10q-14 22 -14 74v547q0 31 -12 41.5t-49 18.5q-20 6 -14 19l9 20q3 8 15 8h160q24 0 24 -27z" />
    <glyph glyph-name="pi" unicode="&#x3c0;" horiz-adv-x="598" 
d="M542 486l30 -9q-4 -31 -16 -66.5t-23 -49.5q-20 -6 -66 -6q-6 -76 -4 -202q0 -89 41 -89q19 0 45 23l14 -27q-19 -32 -53 -52.5t-67 -20.5q-105 0 -105 137q0 82 10 234q-28 0 -71.5 1t-61.5 1v-12q0 -82 -7.5 -148t-20 -104.5t-21.5 -59t-18 -30.5q-33 -15 -71 -19
l-8 22q50 68 73 166t23 186q-43 1 -68.5 -7.5t-60.5 -31.5l-17 30q37 49 58 65q50 39 126 38q240 -3 278 -3q25 0 37.5 7t23.5 27z" />
    <glyph glyph-name="uni2010" unicode="&#x2010;" horiz-adv-x="336" 
d="M291 195h-249v86h249v-86z" />
    <glyph glyph-name="endash" unicode="&#x2013;" horiz-adv-x="500" 
d="M500 200h-500v76h500v-76z" />
    <glyph glyph-name="emdash" unicode="&#x2014;" horiz-adv-x="1000" 
d="M1000 200h-1000v76h1000v-76z" />
    <glyph glyph-name="quoteleft" unicode="&#x2018;" horiz-adv-x="296" 
d="M113 426q-33 0 -46 25t-13 53q0 44 132 226q12 5 23 5q10 0 15 -10t4 -23q-49 -52 -56 -120q-3 -23 6 -92q3 -28 -18 -46t-47 -18z" />
    <glyph glyph-name="quoteright" unicode="&#x2019;" horiz-adv-x="296" 
d="M183 735q33 0 46 -25t13 -53q0 -45 -132 -226q-12 -5 -23 -5q-10 0 -15 10t-4 23q49 52 56 120q3 23 -6 92q-3 28 18 46t47 18z" />
    <glyph glyph-name="quotesinglbase" unicode="&#x201a;" horiz-adv-x="296" 
d="M162 147q33 0 46 -25t13 -53q0 -45 -132 -226q-12 -5 -23 -5q-10 0 -15 10t-4 23q49 52 56 120q3 23 -6 92q-3 28 18 46t47 18z" />
    <glyph glyph-name="quotedblleft" unicode="&#x201c;" horiz-adv-x="537" 
d="M128 426q-33 0 -46 25t-13 53q0 44 132 226q12 5 23 5q10 0 15 -10t4 -23q-49 -52 -56 -120q-3 -23 6 -92q3 -28 -18 -46t-47 -18zM339 426q-33 0 -46 25t-13 53q0 44 132 226q12 5 23 5q10 0 15 -10t4 -23q-49 -52 -56 -120q-3 -23 6 -92q3 -28 -18 -46t-47 -18z" />
    <glyph glyph-name="quotedblright" unicode="&#x201d;" horiz-adv-x="537" 
d="M198 735q33 0 46 -25t13 -53q0 -45 -132 -226q-12 -5 -23 -5q-10 0 -15 10t-4 23q49 52 56 120q3 23 -6 92q-3 28 18 46t47 18zM409 735q33 0 46 -25t13 -53q0 -45 -132 -226q-12 -5 -23 -5q-10 0 -15 10t-4 23q49 52 56 120q3 23 -6 92q-3 28 18 46t47 18z" />
    <glyph glyph-name="quotedblbase" unicode="&#x201e;" horiz-adv-x="519" 
d="M170 147q33 0 46 -25t13 -53q0 -45 -132 -226q-12 -5 -23 -5q-10 0 -15 10t-4 23q49 52 56 120q3 23 -6 92q-3 28 18 46t47 18zM363 147q33 0 46 -25t13 -53q0 -45 -132 -226q-12 -5 -23 -5q-10 0 -15 10t-4 23q49 52 56 120q3 23 -6 92q-3 28 18 46t47 18z" />
    <glyph glyph-name="dagger" unicode="&#x2020;" horiz-adv-x="556" 
d="M308 -172h-60v186q0 144 -64 250q33 25 50.5 60.5t20 59t2.5 60.5q-55 0 -104 -33q-35 -22 -54 -22q-22 0 -30 2.5t-14 19.5t-6 55q0 29 2 44.5t10 22t14 7.5t24 1q20 0 54 -21q49 -33 104 -33q0 65 -34 120q-21 32 -21 51v8q0 20 2.5 27.5t19.5 13t55 5.5q12 0 22 -0.5
t17.5 -1t13 -3t9.5 -3t6.5 -5t4 -5.5t2 -7.5t0.5 -8v-10v-10.5q0 -19 -21 -51q-34 -55 -34 -120q54 0 105 33q32 21 53 21q18 0 24 -1t14 -7.5t10 -22.5t2 -45q0 -38 -6 -54.5t-13.5 -19t-30.5 -2.5q-20 0 -53 22q-51 33 -105 33q0 -37 2.5 -60.5t20 -59t50.5 -60.5
q-64 -106 -64 -250v-186z" />
    <glyph glyph-name="daggerdbl" unicode="&#x2021;" horiz-adv-x="556" 
d="M278 -181q-37 0 -54 5.5t-19.5 13t-2.5 27.5v8q0 19 21 51q34 55 34 120q-55 0 -104 -33q-34 -21 -54 -21q-22 0 -30 2.5t-14 19.5t-6 55q0 37 6 53.5t14 19t30 2.5t54 -22q47 -31 104 -33q0 36 -2.5 59t-19.5 58.5t-50 61.5q33 25 50 60.5t19.5 58.5t2.5 59
q-55 0 -104 -33q-35 -22 -54 -22q-22 0 -30 2.5t-14 19.5t-6 55q0 29 2 44.5t10 22t14 7.5t24 1q20 0 54 -21q49 -33 104 -33q0 65 -34 120q-21 32 -21 51v8q0 20 2.5 27.5t19.5 13t55 5.5q12 0 22 -0.5t17.5 -1t13 -3t9.5 -3t6.5 -5t4 -5.5t2 -7.5t0.5 -8v-10v-10.5
q0 -19 -21 -51q-34 -55 -34 -120q54 0 105 33q32 21 53 21q18 0 24 -1t14 -7.5t10 -22.5t2 -45q0 -38 -6 -54.5t-13.5 -19t-30.5 -2.5q-20 0 -53 22q-51 33 -105 33q1 -35 4 -58.5t20 -59t48 -60.5q-33 -26 -50 -62t-19 -57.5t-3 -59.5q57 2 105 33q30 22 53 22t30.5 -2.5
t13.5 -19t6 -55.5q0 -38 -6 -54t-13.5 -18.5t-30.5 -2.5q-21 0 -53 21q-51 33 -105 33q0 -65 34 -120q21 -32 21 -51v-8q0 -20 -2.5 -27.5t-19.5 -13t-54 -5.5z" />
    <glyph glyph-name="bullet" unicode="&#x2022;" horiz-adv-x="500" 
d="M425 350q0 -73 -51 -124t-124 -51t-124 51t-51 124q-1 73 50 124t125 51q73 0 124 -51t51 -124z" />
    <glyph glyph-name="ellipsis" unicode="&#x2026;" horiz-adv-x="1000" 
d="M92 63q0 31 22.5 53t52.5 22q31 0 53 -22.5t22 -52.5t-22.5 -52.5t-52.5 -22.5t-52.5 22.5t-22.5 52.5zM425 63q0 31 22.5 53t52.5 22q31 0 53 -22.5t22 -52.5t-22.5 -52.5t-52.5 -22.5t-52.5 22.5t-22.5 52.5zM758 63q0 31 22.5 53t52.5 22q31 0 53 -22.5t22 -52.5
t-22.5 -52.5t-52.5 -22.5t-52.5 22.5t-22.5 52.5z" />
    <glyph glyph-name="perthousand" unicode="&#x2030;" horiz-adv-x="1352" 
d="M216 673q-15 0 -26 -4.5t-24.5 -19.5t-21 -51.5t-7.5 -92.5q0 -64 7.5 -105t21 -57.5t24.5 -21t26 -4.5t25.5 4.5t24.5 21t21 57.5t7 105q0 56 -7.5 92.5t-20.5 51.5t-24 19.5t-26 4.5zM216 278q-82 0 -133 62.5t-51 168.5q0 77 48 140t136 63t135.5 -63t47.5 -140
q0 -106 -50.5 -168.5t-132.5 -62.5zM722 383q-15 0 -26 -4.5t-24.5 -19.5t-21 -51.5t-7.5 -93.5q0 -51 5.5 -87.5t13 -55.5t19.5 -29.5t20.5 -12.5t20.5 -2q15 0 26 5t24.5 21.5t20.5 57t7 103.5q0 57 -7.5 93.5t-20.5 51.5t-24 19.5t-26 4.5zM722 -12q-81 0 -132.5 62.5
t-51.5 167.5q0 77 48 140.5t136 63.5t135.5 -63t47.5 -141q0 -105 -51 -167.5t-132 -62.5zM1136 -12q-81 0 -132.5 62.5t-51.5 167.5q0 77 48 140.5t136 63.5t135.5 -63t47.5 -141q0 -105 -51 -167.5t-132 -62.5zM1136 383q-15 0 -26 -4.5t-24.5 -19.5t-21 -51.5t-7.5 -93.5
q0 -51 5.5 -87.5t13 -55.5t19.5 -29.5t20.5 -12.5t20.5 -2q15 0 26 5t24.5 21.5t20.5 57t7 103.5q0 57 -7.5 93.5t-20.5 51.5t-24 19.5t-26 4.5zM292 0h-70l418 700h69z" />
    <glyph glyph-name="guilsinglleft" unicode="&#x2039;" horiz-adv-x="278" 
d="M33 238l163 152q27 27 36 27t9 -13q0 -14 -40 -77t-61 -89q19 -25 60 -88t44 -77q0 -14 -12 -14q-10 0 -40 32z" />
    <glyph glyph-name="guilsinglright" unicode="&#x203a;" horiz-adv-x="278" 
d="M244 238l-163 -152q-27 -27 -36 -27t-9 13q0 14 40 77t61 89q-19 25 -60 88t-44 77q0 14 12 14q10 0 40 -32z" />
    <glyph glyph-name="fraction" unicode="&#x2044;" horiz-adv-x="111" 
d="M-115 0h-76l418 700h75z" />
    <glyph glyph-name="Euro" unicode="&#x20ac;" 
d="M440 278h-210q13 -112 58.5 -170t117.5 -58q73 0 122 67q8 11 19 11q16 0 16 -13q0 -1 -0.5 -3t-2 -5t-1.5 -4l-24 -61q-9 -22 -15 -26q-42 -28 -141 -28q-115 0 -195 78t-99 212h-79v46h75q-1 10 -1 32q0 25 1 37h-75v46h81q21 122 95 197.5t183 75.5q44 0 81.5 -10.5
t53.5 -19.5t41 -26q6 -4 6 -17v-69q0 -7 -5 -10l-22 -16q-1 -1 -3 -2q-5 -4 -6 -4q-3 0 -9.5 11.5t-17 28t-25 33t-39 28t-54.5 11.5q-60 0 -94.5 -56.5t-43.5 -154.5h212v-46h-215v-29q0 -27 1 -40h214v-46z" />
    <glyph glyph-name="afii61289" unicode="&#x2113;" horiz-adv-x="452" 
d="M411 142l25 -22q-70 -130 -190 -130q-79 0 -116 40q-20 25 -29 56.5t-9 95.5v68l-58 -39l-14 31l72 53v138q0 110 11.5 162.5t43.5 92.5q48 63 113 63q52 0 79.5 -40t27.5 -102q0 -82 -37.5 -148t-115.5 -140v-82q0 -95 19.5 -134t65.5 -39q61 0 112 76zM214 489v-111
q83 95 83 229q0 107 -42 107q-25 0 -33 -45t-8 -180z" />
    <glyph glyph-name="trademark" unicode="&#x2122;" horiz-adv-x="1093" 
d="M295 656v-296q0 -13 4 -19.5t11 -9.5t24 -7q13 -3 7 -11l-5 -13q-3 -4 -11 -4h-168q-11 0 -8 10l4 11q2 6 11 8q31 6 31 35v296h-147q-19 0 -8 12l20 26q6 6 21 6h357q19 0 8 -12l-20 -26q-6 -6 -21 -6h-110zM635 676l131 -260l143 266q10 18 26 18h111q12 0 9 -10
l-4 -12q-2 -6 -15 -10q-16 -3 -23.5 -11t-7.5 -26v-271q0 -13 4 -19.5t11 -9.5t24 -7q10 -3 6 -11l-5 -13q-1 -4 -10 -4h-168q-11 0 -8 10l3 11q2 5 11 8q32 6 32 35v223h-2l-142 -275q-8 -12 -12 -12h-20q-6 0 -13 18l-132 269h-2v-223q0 -13 4 -19.5t11 -9.5t24 -7
q11 -3 7 -11l-5 -13q-3 -4 -11 -4h-112q-11 0 -8 10l4 11q2 6 11 8q31 6 31 35v269q-25 36 -48 42q-15 4 -10 12l4 13q4 4 10 4h106q15 0 21 -4t14 -20z" />
    <glyph glyph-name="Omega" unicode="&#x2126;" horiz-adv-x="751" 
d="M717 168l-28 -168h-258l-9 22q4 9 26.5 58.5t32.5 75t26 70.5t23 84.5t7 77.5q-1 147 -46 214.5t-118 67.5q-160 0 -160 -286q0 -60 20.5 -132.5t38.5 -114t54 -115.5l-10 -22h-257l-25 168l33 1q16 -45 31.5 -58.5t49.5 -13.5h97q-29 22 -46.5 37.5t-45.5 45t-44 58
t-28.5 69.5t-12.5 86q0 142 87.5 228.5t221.5 86.5q135 0 219.5 -83.5t84.5 -225.5q0 -50 -15.5 -94.5t-46.5 -84t-55.5 -64t-65.5 -59.5h108q32 0 46.5 13t30.5 59z" />
    <glyph glyph-name="estimated" unicode="&#x212e;" horiz-adv-x="872" 
d="M837 339h-650q-6 0 -6 -4v-197q0 -11 9 -22q104 -107 246 -107q155 0 259 120h57q-54 -65 -138 -102.5t-179 -37.5q-166 0 -283.5 105.5t-117.5 254.5q0 150 117 255.5t284 105.5t284.5 -105.5t117.5 -255.5v-10zM689 365v198q0 14 -9 23q-105 103 -244 103
q-141 0 -245 -106q-10 -10 -10 -24v-194q0 -6 6 -6h498q4 0 4 6z" />
    <glyph glyph-name="partialdiff" unicode="&#x2202;" horiz-adv-x="565" 
d="M275 440h1q35 0 69 -16t56 -45q9 60 12 112q4 92 -25 153q-15 32 -45.5 52t-70.5 20q-70 0 -149 -66q-15 -1 -31.5 32.5t-8.5 53.5q70 41 150 41q148 0 227 -146q55 -101 55 -239q0 -148 -52 -248q-74 -154 -226 -154q-89 0 -142 54t-53 148q0 102 63 172q66 76 170 76z
M306 391h-1q-59 0 -94 -57q-45 -78 -45 -206q-1 -47 18.5 -74t55.5 -27q56 0 101 106q34 78 50 197q-10 22 -33.5 41.5t-51.5 19.5z" />
    <glyph glyph-name="uni2206" unicode="&#x2206;" horiz-adv-x="669" 
d="M633 0h-598v36l266 657l56 14l276 -671v-36zM476 62l-188 471l-184 -471h372z" />
    <glyph glyph-name="product" unicode="&#x220f;" horiz-adv-x="735" 
d="M706 704v-33q-65 -5 -80 -20t-15 -73v-530q0 -62 15 -78t79 -22v-33h-301v33q56 5 67.5 20t11.5 79v578q0 24 -7 30.5t-32 6.5h-158q-23 0 -29 -5.5t-6 -27.5v-582q0 -64 10 -79t61 -20v-33h-294v33q63 5 78 21t15 78v531q0 59 -15 73.5t-81 19.5v33h681z" />
    <glyph glyph-name="summation" unicode="&#x2211;" horiz-adv-x="582" 
d="M558 126l-48 -219h-483v33l224 323l-219 408v33h478q2 -36 12 -178l-34 -8q-15 67 -38 107q-13 23 -33.5 31t-75.5 8h-155l173 -313l-228 -337h243q70 0 93.5 18t55.5 103z" />
    <glyph glyph-name="minus" unicode="&#x2212;" 
d="M539 214h-504v78h504v-78z" />
    <glyph glyph-name="uni2215" unicode="&#x2215;" horiz-adv-x="111" 
d="M-115 0h-76l418 700h75z" />
    <glyph glyph-name="uni2219" unicode="&#x2219;" horiz-adv-x="287" 
d="M68 253q0 31 22.5 53t52.5 22q31 0 53 -22.5t22 -52.5t-22.5 -52.5t-52.5 -22.5t-52.5 22.5t-22.5 52.5z" />
    <glyph glyph-name="radical" unicode="&#x221a;" horiz-adv-x="576" 
d="M565 881l-180 -1046l-29 -13l-218 549l-89 -41l-14 41l187 83l151 -401h2l140 839z" />
    <glyph glyph-name="infinity" unicode="&#x221e;" horiz-adv-x="773" 
d="M725 288v-1q0 -79 -48 -126.5t-113 -47.5q-94 0 -177 112q-44 -55 -86 -83.5t-97 -28.5q-64 0 -111 47.5t-47 121.5q0 76 47.5 124.5t119.5 48.5q94 0 178 -109q50 57 76 76q48 33 102 33q67 -1 111.5 -47t44.5 -120zM213 186h2q25 0 51 15.5t41.5 32t39.5 45.5
q-27 37 -40.5 53.5t-40.5 33.5t-56 17q-41 0 -65 -28t-24 -74q0 -39 26.5 -67t65.5 -28zM562 383h-1q-14 0 -28.5 -5.5t-24.5 -11t-24.5 -19t-20 -19.5t-20 -23t-15.5 -19q46 -58 74 -79t64 -21q38 0 61 30t23 66q0 45 -24.5 73t-63.5 28z" />
    <glyph glyph-name="integral" unicode="&#x222b;" horiz-adv-x="412" 
d="M165 -8l-21 402q-6 107 3 189.5t27 130.5t44.5 78t51.5 40.5t53 10.5t52 -15.5t24 -42.5q0 -28 -17.5 -43.5t-41.5 -15.5q-17 0 -27 16t-16 31.5t-15 15.5q-36 0 -29 -153l20 -373q7 -127 -5.5 -221.5t-40 -148.5t-62.5 -79.5t-77 -25.5q-31 0 -53 17.5t-22 41.5
q-1 26 20.5 44.5t47.5 18.5q15 0 24 -17t15.5 -34.5t15.5 -17.5q39 0 29 151z" />
    <glyph glyph-name="approxequal" unicode="&#x2248;" horiz-adv-x="546" 
d="M459 454l50 -45q-57 -103 -138 -103q-49 0 -110 38q-50 34 -84 34q-21 0 -39 -12t-27.5 -23.5t-26.5 -35.5l-50 44q23 45 63 74t86 29q45 0 103 -35q25 -16 33.5 -20.5t23 -10t27.5 -5.5q26 0 46 17.5t43 53.5zM459 267l50 -45q-57 -103 -139 -103q-47 0 -109 38
q-54 34 -84 34q-21 0 -39.5 -12t-28 -24t-25.5 -36l-50 45q22 45 62.5 73.5t85.5 28.5q9 0 18 -1t15.5 -2t14.5 -4t12.5 -4.5t12.5 -5.5l11 -5.5t11 -6t9 -5.5q5 -3 16.5 -10.5t17 -10.5t15 -7.5t18 -6t17.5 -1.5q26 0 45.5 17t43.5 54z" />
    <glyph glyph-name="notequal" unicode="&#x2260;" horiz-adv-x="546" 
d="M404 511l-37 -85h131v-77h-161l-57 -132h218v-78h-248l-49 -111l-61 25l38 86h-131v78h161l57 132h-218v77h248l48 110z" />
    <glyph glyph-name="lessequal" unicode="&#x2264;" horiz-adv-x="546" 
d="M496 104l-444 220v84l444 220v-89l-367 -171v-2l367 -172v-90zM500 -12h-451v79h451v-79z" />
    <glyph glyph-name="greaterequal" unicode="&#x2265;" horiz-adv-x="546" 
d="M54 628l444 -220v-84l-444 -220v89l366 172v3l-366 171v89zM498 -12h-449v79h449v-79z" />
    <glyph glyph-name="lozenge" unicode="&#x25ca;" horiz-adv-x="585" 
d="M537 337l-198 -409h-95l-197 409l200 412h93zM449 337l-154 331h-4l-156 -330l157 -333h3z" />
    <glyph glyph-name="fi" unicode="&#xfb01;" horiz-adv-x="678" 
d="M103 500v47q0 55 37.5 96.5t87.5 64.5q60 27 146 27q71 0 118 -15l39 -61q6 -8 -6 -16l-53 -32q-10 -6 -24 4l-42 30q-47 33 -88 33q-40 0 -61 -29t-21 -81v-68h339v-393q0 -31 12.5 -41.5t51.5 -19.5q19 -3 11 -18l-8 -20q-5 -8 -17 -8h-246q-19 0 -13 17l6 17
q3 10 19 14q51 10 51 59v286q0 31 -13 40.5t-52 9.5h-141v-336q0 -31 12.5 -41.5t51.5 -19.5q19 -3 11 -18l-8 -20q-5 -8 -17 -8h-246q-19 0 -13 17l6 17q3 10 19 14q51 10 51 59v336h-68v57h68z" />
    <glyph glyph-name="fl" unicode="&#xfb02;" horiz-adv-x="680" 
d="M103 500v48q0 98 129 154q70 31 96 33q41 2 55 -10q5 10 17 10h159q25 0 25 -25v-603q0 -31 11.5 -41.5t46.5 -19.5q18 -3 10 -18l-7 -20q-5 -8 -15 -8h-242q-19 0 -13 17l6 17q3 10 19 14q51 10 51 59v521q0 40 -27 51l-2 -2l6 -5q5 -7 -4 -16l-27 -27q-6 -6 -19 1
l-38 22q-5 3 -15.5 9t-17 9.5t-16 6.5t-17.5 3q-38 0 -38 -69v-111h137v-37l-20 -20h-117v-336q0 -31 12.5 -41.5t51.5 -19.5q19 -3 11 -18l-8 -20q-5 -8 -17 -8h-246q-19 0 -13 17l6 17q3 10 19 14q51 10 51 59v336h-68v57h68z" />
    <glyph glyph-name="a.superior" horiz-adv-x="444" 
d="M209 677q-38 0 -61 -37.5t-23 -84.5q0 -43 15.5 -71.5t41.5 -28.5q24 0 43.5 21.5t27.5 55.5q11 37 11 56q0 89 -55 89zM364 645v-173q0 -18 7 -24.5t27 -11.5q17 -7 17 -11q0 -2 -1 -4l-5 -12q-3 -5 -13 -5h-114q-9 -1 -13.5 4t-4.5 15v48h-2q-15 -31 -49 -52.5
t-70 -21.5q-56 0 -90 41t-34 98q0 73 55.5 124.5t144.5 51.5q59 0 107 -17q1 0 6 -2t6 -2.5l5 -2.5t5.5 -3t4.5 -3.5t4 -4.5t3 -5.5t2.5 -7t1 -8.5t0.5 -11z" />
    <glyph glyph-name="o.superior" horiz-adv-x="407" 
d="M194 397q-78 0 -124 46.5t-46 104.5q0 67 51.5 115.5t136.5 48.5q78 0 124.5 -46t46.5 -106q0 -65 -51 -114t-138 -49zM206 430q71 0 71 119q0 59 -20.5 94.5t-51.5 35.5q-37 0 -56 -34.5t-19 -76.5q0 -64 23 -101t53 -37z" />
    <glyph glyph-name="one.superior" horiz-adv-x="407" 
d="M263 712v-350q0 -22 14 -30q10 -7 55 -11q14 -4 13 -8l-10 -20q-4 -8 -24 -8h-217h-2h-7.5t-5.5 2.5t0 7.5l7 20q3 4 27 7t29 6q21 16 21 34v260q0 9 -1.5 15.5t-5.5 9t-8 3t-11 -1t-12 -3.5t-14 -5t-14 -5l-13 -4q-8 -3 -10 5l-4 12q-4 10 4 13z" />
    <glyph glyph-name="two.superior" horiz-adv-x="407" 
d="M33 285v51q14 13 51.5 41.5t55.5 46.5q112 109 112 168q0 33 -19.5 49.5t-41.5 16.5q-52 0 -78 -45l-18 -29q-3 -6 -8 -4l-19 8q-4 4 -4 8v57q0 2 0.5 4.5t2.5 4.5l3.5 3.5t4.5 4t5 4t6.5 4.5t6.5 4q16 11 47.5 20.5t62.5 9.5q63 0 109.5 -27t46.5 -78q0 -75 -137 -179
l-102 -76v-2h153q19 0 37 18.5t29 35.5t16 15l20 -10q6 -3 4 -10l-39 -99q-5 -15 -34 -15h-273z" />
    <glyph glyph-name="three.superior" horiz-adv-x="407" 
d="M128 487v34q50 5 83 29t33 65q0 33 -18 46t-39 13q-57 0 -82 -57l-9 -18q-3 -7 -9 -3l-15 7q-4 2 -4 7v52q0 6 23 22q44 28 121 28q51 0 96.5 -23t45.5 -72q0 -34 -35.5 -64t-79.5 -39v-2q59 -2 97.5 -32.5t38.5 -75.5q0 -57 -54 -91.5t-140 -34.5q-83 0 -119 25l-23 51
q-1 7 5 13l19 16q9 7 14 1l35 -40q28 -32 63 -32q39 0 64.5 22.5t25.5 61.5q0 84 -137 91z" />
    </font>
</defs>
</svg>
