<?xml version="1.0" standalone="no"?>
<!DOCTYPE svg PUBLIC "-//W3C//DTD SVG 1.1//EN" "http://www.w3.org/Graphics/SVG/1.1/DTD/svg11.dtd" >
<svg xmlns="http://www.w3.org/2000/svg" xmlns:xlink="http://www.w3.org/1999/xlink" version="1.1">
<metadata>
Created by FontForge 20161003 at Thu May 18 22:38:51 2017
 By www-data
Copyright (c) 1987, 1990, 1992 Adobe Systems Incorporated.  All Rights Reserved.ITC Stone is a registered trademark of International Typeface Corporation.
</metadata>
<defs>
<font id="itcstoneinformal" horiz-adv-x="574" >
  <font-face 
    font-family="itcstoneinformal"
    font-weight="500"
    font-stretch="normal"
    units-per-em="1000"
    panose-1="0 0 0 0 0 0 0 0 0 0"
    ascent="800"
    descent="-200"
    x-height="500"
    cap-height="700"
    bbox="-130 -250 1299 941"
    underline-thickness="50"
    underline-position="-150"
    unicode-range="U+0020-FB02"
  />
<missing-glyph horiz-adv-x="287" 
 />
    <glyph glyph-name=".notdef" horiz-adv-x="287" 
 />
    <glyph glyph-name=".null" horiz-adv-x="0" 
 />
    <glyph glyph-name="nonmarkingreturn" horiz-adv-x="333" 
 />
    <glyph glyph-name="space" unicode=" " horiz-adv-x="287" 
 />
    <glyph glyph-name="exclam" unicode="!" horiz-adv-x="296" 
d="M174 196h-52q-17 411 -28 510q-5 29 54 29t54 -29q-11 -99 -28 -510zM84 53q0 25 19.5 44t44.5 19q26 0 45 -19t19 -44q0 -27 -19 -46t-45 -19t-45 19t-19 46z" />
    <glyph glyph-name="quotedbl" unicode="&#x22;" horiz-adv-x="370" 
d="M151 654l-23 -204q0 -1 -0.5 -5t-0.5 -6.5t-1.5 -6.5t-3 -6.5t-4.5 -4.5t-7 -2t-7 2t-4.5 4.5t-2.5 6.5t-1 6.5t-0.5 6.5t-0.5 5l-24 204q-10 81 40 81t40 -81zM298 654l-23 -204q0 -1 -0.5 -5t-0.5 -6.5t-1.5 -6.5t-3 -6.5t-4.5 -4.5t-7 -2t-7 2t-4.5 4.5t-2.5 6.5
t-1 6.5t-0.5 6.5t-0.5 5l-23 204q-1 14 -2 32t9.5 33.5t31.5 15.5q50 0 40 -81z" />
    <glyph glyph-name="numbersign" unicode="#" 
d="M507 284v-58h-108l-31 -226h-59l31 226h-134l-32 -226h-59l32 226h-106v58h116l20 146h-109v58h118l30 212h59l-30 -212h132l30 212h59l-30 -212h96v-58h-104l-20 -146h99zM369 430h-133l-20 -146h133z" />
    <glyph glyph-name="dollar" unicode="$" 
d="M258 708v28h56v-24q54 -1 102 -20q25 -10 35 -18t9 -20v-74q0 -3 -6 -11l-23 -18q-5 -5 -18 18q-6 10 -18 34q-3 5 -4 8q-24 50 -77 54v-255q59 -40 91 -67t55 -68.5t25 -92.5q2 -74 -47 -122.5t-124 -63.5v-94h-56v87q-2 -1 -6 -1q-71 0 -129 18q-39 12 -45.5 17.5
t-6.5 25.5v97q0 2 -0.5 8.5t-0.5 9.5t1.5 7t5.5 5l27 9q6 2 10 -9t11.5 -33.5t17.5 -39.5q28 -64 112 -64h3v308q-6 5 -18 13q-6 4 -30.5 21t-35 25t-30 25.5t-28.5 32.5t-17 36.5t-8 45.5q0 50 46.5 99.5t120.5 62.5zM258 450v211q-27 -8 -47 -28t-24 -47q-6 -41 11 -72.5
t60 -63.5zM314 304v-253q34 14 53.5 44t21.5 69q5 71 -75 140z" />
    <glyph glyph-name="percent" unicode="%" horiz-adv-x="926" 
d="M116 501q0 -54 9 -92.5t19.5 -55.5t27.5 -26.5t23 -10t15 -0.5q10 0 16 0.5t22.5 10t27 26.5t19.5 55.5t9 92.5q0 50 -9 86t-19.5 52t-27 25t-23 9.5t-15.5 0.5t-15.5 -0.5t-23 -9.5t-27 -25t-19.5 -52t-9 -86zM33 508q0 77 46 140.5t131 63.5q58 0 100 -33t59.5 -78
t17.5 -93q0 -105 -49 -167.5t-128 -62.5q-78 0 -127.5 62.5t-49.5 167.5zM622 211q0 -54 9 -92.5t19.5 -55.5t27.5 -26.5t23 -10t15 -0.5q10 0 16 0.5t22.5 10t27 26.5t19.5 55.5t9 92.5q0 50 -9 86t-19.5 52t-27 25t-23 9.5t-15.5 0.5t-15.5 -0.5t-23 -9.5t-27 -25
t-19.5 -52t-9 -86zM539 218q0 77 46 140.5t131 63.5q58 0 100 -33t59.5 -78t17.5 -93q0 -105 -49 -167.5t-128 -62.5q-78 0 -127.5 62.5t-49.5 167.5zM202 0l452 700h63l-451 -700h-64z" />
    <glyph glyph-name="ampersand" unicode="&#x26;" horiz-adv-x="815" 
d="M502 136l-235 218q-32 -9 -55 -27.5t-33 -41.5t-14 -42.5t-4 -39.5q0 -76 48 -120t114 -44q61 0 108 27.5t71 69.5zM587 169l123 -102q6 -6 18.5 -15t20.5 -16t8 -11v-23h-84q-29 0 -55 23l-72 67q-98 -104 -239 -104q-122 0 -187.5 60.5t-65.5 145.5q0 69 44.5 122.5
t129.5 72.5l-26 26t-29.5 31.5t-20.5 28.5t-19 38.5t-5 40.5q0 69 47.5 113.5t135.5 44.5q55 0 104 -19q19 -8 28 -15t8 -16v-69q0 -3 -6 -9l-21 -15q-7 -4 -10 4l-19 37q-29 59 -96 59q-39 0 -63 -25t-24 -60q0 -64 104 -163l229 -216q20 52 23.5 116t-20.5 104h-108
q-32 0 -14 19l21 21q12 11 38 11h291q13 0 17.5 -4t-3.5 -15l-20 -21q-12 -11 -38 -11h-109q12 -161 -36 -256z" />
    <glyph glyph-name="quotesingle" unicode="'" horiz-adv-x="204" 
d="M142 654l-23 -204q0 -1 -0.5 -5t-0.5 -6.5t-1.5 -6.5t-3 -6.5t-4.5 -4.5t-7 -2t-7 2t-4.5 4.5t-2.5 6.5t-1 6.5t-0.5 6.5t-0.5 5l-24 204q-10 81 40 81t40 -81z" />
    <glyph glyph-name="parenleft" unicode="(" horiz-adv-x="352" 
d="M75 284q0 141 61 257t168 186q20 3 28 -4t6 -22q-85 -57 -129.5 -166t-44.5 -242q0 -299 168 -446q9 -33 -24 -36q-102 74 -167.5 192.5t-65.5 280.5z" />
    <glyph glyph-name="parenright" unicode=")" horiz-adv-x="352" 
d="M277 254q0 -141 -61 -257t-168 -186q-20 -3 -28 4t-6 22q85 57 129.5 166t44.5 242q0 299 -168 446q-9 33 24 36q102 -74 167.5 -192.5t65.5 -280.5z" />
    <glyph glyph-name="asterisk" unicode="*" horiz-adv-x="426" 
d="M254 700l-9 -130l122 48l25 -77l-127 -32l84 -101l-66 -48l-70 111l-70 -111l-66 48l84 101l-127 32l26 77l121 -48l-8 130h81z" />
    <glyph glyph-name="plus" unicode="+" 
d="M254 286v220h66v-220h219v-66h-219v-220h-66v220h-219v66h219z" />
    <glyph glyph-name="comma" unicode="," horiz-adv-x="287" 
d="M143 132q23 0 38 -21.5t15 -47.5q0 -29 -42.5 -102.5t-73.5 -118.5q-37 -18 -40 24q54 57 54 140q0 13 -7 64q-3 27 14.5 44.5t41.5 17.5z" />
    <glyph glyph-name="hyphen" unicode="-" horiz-adv-x="333" 
d="M291 197h-249v82h249v-82z" />
    <glyph glyph-name="period" unicode="." horiz-adv-x="287" 
d="M79 52q0 26 19 45t45 19q25 0 44.5 -19t19.5 -45q0 -25 -19.5 -44.5t-44.5 -19.5q-26 0 -45 19t-19 45z" />
    <glyph glyph-name="slash" unicode="/" horiz-adv-x="389" 
d="M96 -108h-64l262 843h63z" />
    <glyph glyph-name="zero" unicode="0" 
d="M287 -12q-118 0 -191.5 104t-73.5 280q0 46 9.5 93t30.5 91.5t51.5 79t75.5 55.5t98 21t98 -21t75.5 -55.5t51.5 -79t30.5 -91.5t9.5 -93q0 -176 -73.5 -280t-191.5 -104zM287 52h16.5t24.5 5.5t31.5 15.5t30.5 33t29 54.5t19 83t8 116.5q0 61 -8 109.5t-19 78t-29 50.5
t-30.5 30.5t-31.5 14.5t-24.5 5h-16.5h-16t-24.5 -5t-32 -14.5t-30.5 -30.5t-29 -50.5t-19 -78t-8 -109.5q0 -65 8 -116.5t19 -83t29 -54.5t30.5 -33t31.5 -15.5t24.5 -5.5h16.5z" />
    <glyph glyph-name="one" unicode="1" 
d="M115 627l236 85v-607q0 -33 22 -46q9 -6 84 -16q19 -3 11 -18l-8 -18q-5 -7 -17 -7h-302q-19 0 -13 15l6 16q3 10 19 14q5 2 36.5 7.5t38.5 9.5q26 17 26 46v454q0 18 -4.5 28.5t-10 14.5t-17 2.5t-20.5 -4.5t-25 -9.5t-25 -9.5l-22 -8q-12 -3 -16 9l-6 20q-6 17 7 22z
" />
    <glyph glyph-name="two" unicode="2" 
d="M47 0v64q16 15 74 68t88 85q190 204 190 313q0 60 -34.5 90t-74.5 30q-52 0 -86.5 -23.5t-48.5 -51.5l-25 -44q-5 -10 -12 -5l-16 15q-7 9 -7 12v70q0 3 0.5 5t2 4.5t2.5 4.5t4 4.5t4.5 4t6 4.5t6.5 4.5t7.5 5t7.5 5.5q25 18 69 32.5t91 14.5q97 0 151.5 -45t54.5 -133
q0 -23 -6.5 -47t-20.5 -49.5t-25.5 -44.5t-33.5 -45.5t-32 -38t-32.5 -36t-24.5 -26.5l-161 -164h236q22 0 43.5 18t33.5 39t22.5 37t15.5 14l25 -13q10 -5 6 -16l-48 -136q-10 -26 -59 -26h-394z" />
    <glyph glyph-name="three" unicode="3" 
d="M191 333v53q83 15 133 55.5t50 108.5q0 57 -30.5 85.5t-67.5 28.5q-79 0 -121 -87l-17 -35q-3 -12 -10 -5l-16 8q-6 4 -6 11v73q0 9 34 37q55 46 151 46q93 0 138 -43t45 -111q0 -55 -44.5 -108.5t-110.5 -77.5v-2q80 -1 137 -49.5t57 -127.5q0 -95 -74.5 -150
t-168.5 -55q-57 0 -106 12.5t-67 24.5l-35 76q-4 9 4 17l24 18q14 14 20 5l54 -59q38 -42 106 -42q60 0 98.5 40t38.5 108q0 38 -16.5 66t-37.5 42t-55.5 23t-55.5 11t-51 3z" />
    <glyph glyph-name="four" unicode="4" 
d="M415 700v-427h70q16 0 25 -3t5 -12l-27 -54h-73v-99q0 -30 27 -46q14 -9 68 -16q19 -3 11 -18l-8 -18q-5 -7 -17 -7h-286q-19 0 -13 15l6 16q3 10 19 14q5 2 36.5 7.5t38.5 9.5q26 17 26 46v96h-251q-31 0 -35 8l-18 35q60 84 183.5 247.5t154.5 205.5h58zM119 273h204
v282h-2q-126 -162 -202 -282z" />
    <glyph glyph-name="five" unicode="5" 
d="M199 700h264q16 0 26 -3.5t6 -12.5l-32 -67h-216l-44 -155q85 -5 146.5 -29.5t93 -62t45.5 -76.5t14 -82q0 -96 -78.5 -160t-175.5 -64q-54 0 -107 15t-78 33l-32 79q-6 13 1 22l22 26q10 15 17 4l63 -78q19 -23 43 -35t69 -12q69 0 110.5 41.5t42.5 114.5q0 83 -71 139
t-222 52z" />
    <glyph glyph-name="six" unicode="6" 
d="M471 686l-19 -42q-102 -3 -188 -81t-106 -174q70 47 148 47q87 0 147.5 -58.5t59.5 -162.5q-1 -95 -66.5 -161t-162.5 -66q-108 0 -176.5 73.5t-67.5 202.5q1 64 25.5 133t72 135t129.5 114.5t185 62.5q13 1 18.5 -5.5t0.5 -17.5zM143 243q-5 -98 34 -151t109 -53
q61 0 95 46.5t34 108.5q0 81 -36.5 132t-104.5 51q-57 0 -94 -35.5t-37 -98.5z" />
    <glyph glyph-name="seven" unicode="7" 
d="M406 625h-195q-23 0 -41 -12.5t-26.5 -27t-16.5 -23.5t-14 -5l-14 11q-5 7 -5 14l-1 96q0 13 6 17.5t22 4.5h388v-44q-1 -3 -138.5 -285t-178.5 -371h-95q6 12 55 104t73 138.5t64.5 127t69 143t47.5 112.5z" />
    <glyph glyph-name="eight" unicode="8" 
d="M289 41q25 0 54 10.5t55.5 40t26.5 71.5q0 43 -28.5 79.5t-66 57.5t-91.5 42q-96 -55 -96 -157q0 -63 40 -103.5t106 -40.5zM287 -12q-106 0 -172 54.5t-66 139.5q0 21 4 40t8 32.5t15.5 29.5t17 23.5t22 21.5t21.5 17.5t24 17t21 15.5q-118 61 -118 158q0 76 64.5 125.5
t154.5 49.5q88 0 144.5 -40.5t56.5 -119.5q0 -55 -40 -95.5t-91 -65.5q37 -18 61 -33t53 -39.5t43.5 -57t14.5 -71.5q0 -91 -68 -146.5t-170 -55.5zM283 656q-55 0 -87 -29.5t-32 -66.5q0 -46 38 -81t89 -56q23 11 39 20.5t33.5 25t27 36.5t9.5 46q0 43 -34.5 74t-82.5 31z
" />
    <glyph glyph-name="nine" unicode="9" 
d="M94 14l21 46q92 1 181 80.5t111 170.5q-68 -47 -147 -47q-87 0 -148 58t-60 164q1 94 68.5 160t176.5 66q102 0 165 -66t62 -188q-1 -51 -15.5 -107t-47 -115.5t-78.5 -109t-116 -87t-154 -48.5q-13 -1 -18.5 5.5t-0.5 17.5zM423 477q0 85 -35.5 134.5t-94.5 49.5
q-70 0 -106.5 -52t-36.5 -117q0 -79 36 -124t105 -45q59 0 95.5 38.5t36.5 115.5z" />
    <glyph glyph-name="colon" unicode=":" horiz-adv-x="287" 
d="M207 52q0 -26 -19 -45t-45 -19q-25 0 -44.5 19t-19.5 45t19 45t45 19q25 0 44.5 -19t19.5 -45zM79 417q0 25 19 44.5t45 19.5t45 -19t19 -45t-19 -45t-45 -19q-25 0 -44.5 19t-19.5 45z" />
    <glyph glyph-name="semicolon" unicode=";" horiz-adv-x="287" 
d="M143 132q23 0 38 -21.5t15 -47.5q0 -29 -42.5 -102.5t-73.5 -118.5q-37 -18 -40 24q54 57 54 140q0 13 -7 64q-3 27 14.5 44.5t41.5 17.5zM79 417q0 25 19 44.5t45 19.5t45 -19t19 -45t-19 -45t-45 -19q-25 0 -44.5 19t-19.5 45z" />
    <glyph glyph-name="less" unicode="&#x3c;" 
d="M531 56v-64l-509 234v54l509 234v-64l-424 -197z" />
    <glyph glyph-name="equal" unicode="=" 
d="M539 383v-66h-504v66h504zM539 189v-66h-504v66h504z" />
    <glyph glyph-name="greater" unicode="&#x3e;" 
d="M43 56l424 197l-424 197v64l509 -234v-54l-509 -234v64z" />
    <glyph glyph-name="question" unicode="?" horiz-adv-x="463" 
d="M227 200h-63q-2 65 12.5 106.5t68.5 115.5q32 45 45.5 78.5t13.5 70.5q0 57 -24.5 87.5t-59.5 30.5q-49 0 -76 -27l-44 -47q-7 -7 -16 -3l-30 21q-8 4 -3 13l34 64q15 9 58.5 17t80.5 8q80 0 134.5 -48t54.5 -127q0 -30 -9.5 -56.5t-30.5 -51.5t-36 -40t-45 -40
q-39 -34 -51.5 -70t-13.5 -102zM130 53q0 25 19.5 44t44.5 19q26 0 45 -19t19 -44q0 -27 -19 -46t-45 -19t-45 19t-19 46z" />
    <glyph glyph-name="at" unicode="@" horiz-adv-x="778" 
d="M528 521h76l-70 -273q-2 -6 -2.5 -15t2 -21t14 -20t32.5 -8q34 0 58 21t36 55t17 67.5t5 68.5q0 110 -72.5 190t-213.5 80q-42 0 -83.5 -12t-81.5 -38.5t-70 -64.5t-48.5 -94.5t-18.5 -124.5q0 -127 81.5 -212.5t216.5 -85.5q116 0 216 42l18 -36q-123 -52 -231 -52
q-81 0 -148 22.5t-110.5 58.5t-73.5 82t-43 91.5t-13 88.5q0 166 112.5 273.5t274.5 107.5q83 0 147 -23t101 -57t60.5 -79t31.5 -84.5t8 -78.5q0 -101 -49 -175.5t-139 -74.5q-51 0 -79 31t-27 53q-68 -63 -121 -67q-14 -1 -28.5 2.5t-33.5 14.5t-31 40t-12 73
q0 81 58.5 164t142.5 83q24 0 41 -9.5t23 -18.5t16 -27zM436 477q-42 0 -79.5 -52t-37.5 -132q0 -38 15.5 -55.5t37.5 -17.5q40 0 79 53t47 144q0 30 -14 45t-48 15z" />
    <glyph glyph-name="A" unicode="A" horiz-adv-x="741" 
d="M239 267h234l-116 302zM732 30l-12 -22q-5 -8 -23 -8h-198q-21 0 -13 14l9 19q2 4 18.5 10t23 15t-0.5 40l-42 115h-274l-49 -125q-6 -16 1.5 -26.5t20 -14t21 -9t4.5 -12.5l-6 -10q0 -1 -1.5 -3.5t-3 -4.5t-3.5 -4t-5 -3t-7 -1h-150h-6h-6.5h-6t-5.5 0.5t-4 1.5t-3 2
t-2 3t0 5l2 6l5 13q3 8 26 14q32 7 43 17t27 44l184 462q4 9 5.5 17t0.5 15t-2 11.5t-5 9.5t-5.5 6.5l-6.5 6.5l-5 4q-9 8 -27 13t-26.5 9.5t-2.5 15.5l5 14q4 10 24 10h144q19 0 25 -28q66 -192 220 -566q4 -10 7 -16.5t5.5 -12t7 -9t6 -5.5t9 -4.5l10.5 -3.5t15 -4t18 -5
q18 -5 14 -16z" />
    <glyph glyph-name="B" unicode="B" horiz-adv-x="630" 
d="M211 349v-215q0 -97 119 -97q64 0 103.5 46.5t37.5 114.5q-1 73 -50 112t-132 39h-78zM57 700h272q196 0 203 -155q2 -51 -36.5 -92t-104.5 -62v-2q51 -7 90 -28t60.5 -49.5t31.5 -56.5t10 -55q0 -54 -23.5 -96.5t-62 -67t-82.5 -36.5t-90 -12q-113 0 -184 24
q-27 10 -27 53v529q0 28 -15 42t-48 19q-13 3 -17.5 6t-1.5 11l8 17q5 11 17 11zM211 646v-243h80q66 0 101 37t35 90q0 59 -32 87.5t-81 28.5h-103z" />
    <glyph glyph-name="C" unicode="C" horiz-adv-x="704" 
d="M674 79l-16 -30q-21 -36 -27 -40q-42 -21 -179 -21q-184 0 -294 101.5t-110 266.5q0 148 109.5 252t270.5 104q139 0 233 -52q10 -4 10 -19v-67q0 -4 -5 -9l-19 -16q-3 -3 -8.5 7t-18 27t-33 33.5t-63 29t-99.5 12.5q-126 0 -197 -83.5t-71 -210.5q0 -146 88 -234
t219 -88q55 0 105 16.5t79 36.5q16 12 25.5 6.5t0.5 -22.5z" />
    <glyph glyph-name="D" unicode="D" horiz-adv-x="778" 
d="M337 646h-125v-494q0 -72 32 -91t113 -19q31 0 58 4t68 22.5t69.5 50.5t50 96t21.5 151q0 145 -71 212.5t-216 67.5zM115 65v529q0 28 -15 42t-48 19q-13 3 -17.5 6t-1.5 11l8 17q5 11 17 11h287q110 0 187 -23.5t121 -69t63.5 -105t19.5 -140.5q0 -47 -12.5 -95.5
t-43 -99t-75.5 -90t-117.5 -64.5t-162.5 -25q-125 0 -183 20q-27 10 -27 57z" />
    <glyph glyph-name="E" unicode="E" horiz-adv-x="537" 
d="M203 646v-239h231q21 0 13 -15l-14 -25q-8 -14 -32 -14h-198v-206q0 -59 13 -76t48 -17h88q35 0 61.5 13t37.5 28t19.5 27t12.5 11l25 -8q6 -1 6 -9v-91q0 -25 -46 -25h-309q-15 0 -22 1t-15.5 7t-12 21t-3.5 40v525q0 28 -15 42t-48 19q-13 3 -17.5 6t-1.5 11l8 17
q5 11 17 11h391q14 0 22.5 -7t6.5 -18v-73q0 -4 -5 -9l-18 -15q-5 -4 -12.5 5.5t-16.5 24t-27 26.5t-41 12h-146z" />
    <glyph glyph-name="F" unicode="F" horiz-adv-x="500" 
d="M220 646v-278h231q21 0 13 -15l-14 -25q-8 -14 -32 -14h-198v-216q0 -28 12.5 -37.5t51.5 -17.5q19 -3 11 -18l-8 -18q-5 -7 -17 -7h-210q-19 0 -13 15l6 16q3 10 19 14q51 8 51 53v496q0 28 -15 42t-48 19q-13 3 -17.5 6t-1.5 11l8 17q5 11 17 11h391q14 0 22.5 -7
t6.5 -18v-73q0 -4 -5 -9l-18 -15q-5 -4 -12.5 5.5t-16.5 24t-27 26.5t-41 12h-146z" />
    <glyph glyph-name="G" unicode="G" horiz-adv-x="759" 
d="M712 289v-234q0 -27 -5 -40.5t-22 -13.5h-49q-18 0 -18 38v2v2v26h-2q-19 -33 -81.5 -57t-110.5 -24q-165 0 -270.5 102.5t-105.5 265.5q0 148 109.5 252t270.5 104q139 0 233 -52q10 -4 10 -19v-67q0 -4 -5 -9l-19 -16q-3 -3 -8.5 7t-18 27t-33 33.5t-63 29t-99.5 12.5
q-126 -1 -197 -84t-71 -210q0 -143 81 -232.5t184 -89.5q96 0 146.5 40.5t50.5 97.5q0 51 -28 72q-11 10 -30 15.5t-28.5 9.5t-4.5 14l7 15q5 9 29 9h124q8 0 12.5 -1t7 -5.5t3 -7.5t1.5 -12z" />
    <glyph glyph-name="H" unicode="H" horiz-adv-x="778" 
d="M218 602v-185h341v185q0 28 -12.5 37.5t-51.5 17.5q-19 3 -11 18l8 18q5 7 17 7h210q19 0 13 -15l-6 -16q-3 -10 -19 -14q-51 -8 -51 -53v-504q0 -28 12.5 -37.5t51.5 -17.5q19 -3 11 -18l-8 -18q-5 -7 -17 -7h-210q-19 0 -13 15l6 16q3 10 19 14q51 8 51 53v262h-341
v-262q0 -28 12.5 -37.5t51.5 -17.5q19 -3 11 -18l-8 -18q-5 -7 -17 -7h-210q-19 0 -13 15l6 16q3 10 19 14q51 8 51 53v504q0 28 -12.5 37.5t-51.5 17.5q-19 3 -11 18l8 18q5 7 17 7h210q19 0 13 -15l-6 -16q-3 -10 -19 -14q-51 -8 -51 -53z" />
    <glyph glyph-name="I" unicode="I" horiz-adv-x="352" 
d="M127 98v504q0 28 -12.5 37.5t-51.5 17.5q-19 3 -11 18l8 18q5 7 17 7h210q19 0 13 -15l-6 -16q-3 -10 -19 -14q-51 -8 -51 -53v-504q0 -28 12.5 -37.5t51.5 -17.5q19 -3 11 -18l-8 -18q-5 -7 -17 -7h-210q-19 0 -13 15l6 16q3 10 19 14q51 8 51 53z" />
    <glyph glyph-name="J" unicode="J" horiz-adv-x="352" 
d="M224 602v-576q0 -117 -47.5 -167t-117.5 -50v41q33 8 50 43q18 38 18 108v601q0 28 -12.5 37.5t-51.5 17.5q-19 3 -11 18l8 18q5 7 17 7h210q19 0 13 -15l-6 -16q-3 -10 -19 -14q-51 -8 -51 -53z" />
    <glyph glyph-name="K" unicode="K" horiz-adv-x="648" 
d="M219 602v-225h2l265 323h106v-21q0 -12 -10 -19t-24.5 -11t-38 -19.5t-45.5 -40.5l-171 -198q222 -262 286 -326q6 -6 18.5 -15t20.5 -16t8 -11v-23h-85q-8 0 -15 1.5t-12.5 3.5t-13 7.5t-11.5 9t-13 12.5t-12.5 13.5t-14.5 17.5t-16 19l-222 269h-2v-255
q0 -28 12.5 -37.5t51.5 -17.5q19 -3 11 -18l-8 -18q-5 -7 -17 -7h-210q-19 0 -13 15l6 16q3 10 19 14q51 8 51 53v504q0 28 -12.5 37.5t-51.5 17.5q-19 3 -11 18l8 18q5 7 17 7h210q19 0 13 -15l-6 -16q-3 -10 -19 -14q-51 -8 -51 -53z" />
    <glyph glyph-name="L" unicode="L" horiz-adv-x="556" 
d="M49 15l6 16q3 10 19 14q51 8 51 53v504q0 28 -12.5 37.5t-51.5 17.5q-19 3 -11 18l8 18q5 7 17 7h210q19 0 13 -15l-6 -16q-3 -10 -19 -14q-51 -8 -51 -53v-455q0 -59 13 -76t48 -17h88q35 0 61.5 13t37.5 28t19.5 27t12.5 11l25 -8q6 -1 6 -9v-91q0 -25 -46 -25h-425
q-19 0 -13 15z" />
    <glyph glyph-name="M" unicode="M" horiz-adv-x="944" 
d="M828 594v-496q0 -28 12.5 -37.5t51.5 -17.5q19 -3 11 -18l-8 -18q-5 -7 -17 -7h-210q-19 0 -13 15l6 16q3 10 19 14q51 8 51 53v432h-2l-244 -508q-11 -22 -19 -22h-20q-8 0 -22 32l-230 498h-2v-432q0 -28 12.5 -37.5t51.5 -17.5q19 -3 11 -18l-8 -18q-5 -7 -17 -7h-175
q-19 0 -13 15l6 16q3 10 19 14q51 8 51 53v502q-43 46 -89 55q-25 5 -18 20l8 18q5 7 17 7h133q25 0 34.5 -7t22.5 -34l243 -523l258 532q15 32 42 32h115q20 0 14 -16l-6 -18q-4 -9 -25 -15q-25 -5 -38 -17t-13 -40z" />
    <glyph glyph-name="N" unicode="N" horiz-adv-x="796" 
d="M636 152v450q0 28 -12.5 37.5t-51.5 17.5q-19 3 -11 18l8 18q5 7 17 7h175q19 0 13 -15l-6 -16q-3 -10 -19 -14q-51 -8 -51 -53v-569q0 -33 -22 -33h-37q-5 0 -42 45l-405 497h-2v-444q0 -28 12.5 -37.5t51.5 -17.5q19 -3 11 -18l-8 -18q-5 -7 -17 -7h-175q-19 0 -13 15
l6 16q3 10 19 14q51 8 51 53v503q-42 45 -91 54q-24 5 -17 20l8 18q5 7 17 7h120q12 -1 23 -8.5t15 -11.5t18 -21l413 -507h2z" />
    <glyph glyph-name="O" unicode="O" horiz-adv-x="815" 
d="M390 -12q-59 0 -119 23t-110 65.5t-81.5 110.5t-31.5 149q0 154 103.5 265t273.5 111q147 0 244.5 -101t97.5 -247q0 -164 -108.5 -270t-268.5 -106zM416 42q60 0 108.5 28.5t77.5 74.5t44 99.5t15 108.5q0 140 -70.5 222.5t-186.5 82.5q-109 0 -179.5 -79t-70.5 -212
q0 -143 70 -234t192 -91z" />
    <glyph glyph-name="P" unicode="P" 
d="M228 646v-548q0 -28 12.5 -37.5t51.5 -17.5q19 -3 11 -18l-8 -18q-5 -7 -17 -7h-210q-19 0 -13 15l6 16q3 10 19 14q51 8 51 53v496q0 28 -15 42t-48 19q-13 3 -17.5 6t-1.5 11l8 17q5 11 17 11h271q87 0 147 -47t59 -139q-1 -112 -78.5 -166t-181.5 -47l-14 23
q-8 13 9 13q81 0 124.5 44.5t43.5 120.5q0 72 -39.5 108t-101.5 36h-85z" />
    <glyph glyph-name="Q" unicode="Q" horiz-adv-x="815" 
d="M864 -112v-20l-79 -20q-29 -8 -52 4l-285 140q-15 -3 -31 -3q-10 -1 -27 -1q-59 0 -119 23t-110 65.5t-81.5 110.5t-31.5 149q0 154 103.5 265t273.5 111q147 0 244.5 -101t97.5 -247q1 -67 -18.5 -126t-54.5 -102t-74.5 -73.5t-83.5 -49.5q156 -78 328 -125zM404 658
q-109 0 -179.5 -79t-70.5 -212q0 -143 70 -234t192 -91q60 0 108.5 28.5t77.5 74.5t44 99.5t15 108.5q0 140 -70.5 222.5t-186.5 82.5z" />
    <glyph glyph-name="R" unicode="R" horiz-adv-x="630" 
d="M225 646v-287h69q62 -2 102.5 39t39.5 119q-1 71 -33 100t-89 29h-89zM623 29v-29h-115q-15 0 -27 24l-152 281h-104v-207q0 -28 12.5 -37.5t51.5 -17.5q19 -3 11 -18l-8 -18q-5 -7 -17 -7h-210q-19 0 -13 15l6 16q3 10 19 14q51 8 51 53v496q0 28 -15 42t-48 19
q-13 3 -17.5 6t-1.5 11l8 17q5 11 17 11h263q94 0 146 -42.5t53 -131.5q0 -56 -34.5 -108.5t-88.5 -83.5q48 -81 69 -116t54 -85.5t53.5 -73t36.5 -30.5z" />
    <glyph glyph-name="S" unicode="S" horiz-adv-x="500" 
d="M422 569l-23 -18q-5 -5 -18 18q-6 10 -18 34q-3 5 -4 8q-27 56 -95 56q-39 0 -71 -22t-38 -59q-8 -50 21.5 -85t101.5 -83q93 -62 132.5 -110t42.5 -126q3 -90 -68.5 -142t-164.5 -52q-71 0 -129 18q-39 12 -45.5 17.5t-6.5 25.5v97q0 2 -0.5 8.5t-0.5 9.5t1.5 7t5.5 5
l27 9q6 2 10 -9t11.5 -33.5t17.5 -39.5q28 -64 112 -64q59 0 95.5 35.5t38.5 89.5q1 16 -3 32.5t-9 29t-19 28.5t-21 24.5t-27 24.5t-26 20t-28 20t-24 17q-5 3 -22.5 15.5l-24.5 17.5t-23 18t-23 21.5t-18.5 22.5t-16.5 26.5t-9 29.5t-4 35q0 58 60.5 112t152.5 54
q62 0 112 -20q25 -10 35 -18t9 -20v-74q0 -3 -6 -11z" />
    <glyph glyph-name="T" unicode="T" horiz-adv-x="593" 
d="M345 638v-540q0 -28 12.5 -37.5t51.5 -17.5q19 -3 11 -18l-8 -18q-5 -7 -17 -7h-210q-19 0 -13 15l6 16q3 10 19 14q51 8 51 53v540h-224q-13 0 -17.5 4.5t3.5 16.5l19 29q12 12 38 12h502q13 0 17.5 -4.5t-3.5 -16.5l-19 -29q-12 -12 -38 -12h-181z" />
    <glyph glyph-name="U" unicode="U" horiz-adv-x="722" 
d="M203 602v-332q0 -54 15 -100t54.5 -80t98.5 -34q97 0 141 52.5t44 159.5v334q0 28 -12.5 37.5t-51.5 17.5q-19 3 -11 18l8 18q5 7 17 7h175q19 0 13 -15l-6 -16q-3 -10 -19 -14q-51 -8 -51 -53v-332q0 -148 -70.5 -215t-178.5 -67q-263 0 -263 279v335q0 28 -12.5 37.5
t-51.5 17.5q-19 3 -11 18l8 18q5 7 17 7h210q19 0 13 -15l-6 -16q-3 -10 -19 -14q-51 -8 -51 -53z" />
    <glyph glyph-name="V" unicode="V" horiz-adv-x="688" 
d="M344 0h-18q-4 0 -7 1.5t-6 6.5t-4.5 8t-4.5 12l-4 12l-218 554q-11 27 -25 41t-39 20q-18 4 -13 17l9 17q6 11 26 11h192q21 0 15 -15l-9 -19q-4 -8 -21.5 -15t-27.5 -18.5t-2 -33.5l169 -437l172 440q9 24 3 36.5t-18.5 15.5t-21 7.5t-3.5 12.5l8 14q8 12 16 12h141h7
h10.5t8.5 -1t4.5 -4t-0.5 -8l-5 -15q-2 -6 -7.5 -10t-16.5 -8.5t-16 -7.5q-28 -17 -48 -70l-218 -536q-15 -40 -28 -40z" />
    <glyph glyph-name="W" unicode="W" horiz-adv-x="1026" 
d="M309 0h-21q-14 0 -25 32l-191 562q-11 32 -20 42t-30 20q-21 9 -17 19l8 18q2 7 16 7h198q20 0 21 -4q0 -1 -1 -3l-8 -22q-3 -8 -24.5 -15.5t-36.5 -20.5t-7 -36l141 -440h2l164 510q1 2 2 6.5t2 6.5t2 5.5t2 5.5t2.5 3.5t3.5 2.5t4 1h46q7 0 16 -29l164 -512h2l135 431
q9 21 2.5 35.5t-14 20t-18.5 10.5q-2 1 -3 1q-5 2 -15.5 5.5t-13.5 5.5t0 7l11 19q4 6 12 6h190q16 0 11 -11l-8 -22q-1 -5 -25 -13q-26 -7 -37 -18t-21 -41l-181 -563q-1 -3 -3 -8.5t-2.5 -7.5t-2.5 -6t-4 -5.5t-5 -3t-7 -1.5h-32q-9 0 -13.5 7t-10.5 25l-163 508h-2
l-171 -510q-1 -2 -2.5 -8.5t-3 -9t-4 -6t-6 -5t-8.5 -1.5z" />
    <glyph glyph-name="X" unicode="X" horiz-adv-x="704" 
d="M637 690l-7 -20q-2 -6 -26 -15q-17 -6 -28.5 -16.5t-32.5 -38.5l-149 -213l184 -279q22 -34 34.5 -43t46.5 -13q8 -1 13.5 -2t10.5 -3t5 -4.5t-1 -7.5l-13 -26q-4 -9 -26 -9h-210q-19 0 -13 17l5 15q1 3 36 18q26 13 14 34l-145 230l-159 -235q-9 -20 -5.5 -26t17.5 -11
q2 -1 8 -2.5t7.5 -2t5.5 -2.5t3 -4.5t-1 -6.5l-7 -11q-6 -13 -16 -13h-152q-6 0 -10.5 0.5t-7.5 3.5t-1 9l7 22q1 3 3.5 4.5t4.5 2t8 1.5t9 2q48 13 70 47l185 271l-153 233q-22 35 -33 43t-41 11q-12 2 -17.5 8.5t-1.5 14.5l10 20q4 7 18 7h220q8 0 12 -3t1 -9l-7 -15
q-3 -6 -9.5 -10t-18 -8t-18.5 -7q-29 -16 -16 -38l114 -176l129 177q10 11 7 19.5t-8.5 12.5t-17.5 9q-3 1 -7.5 3t-7.5 3t-7 3t-5 3.5t-3.5 3.5t-1.5 3.5t1 4.5l9 15q4 9 13 9h160q6 0 9.5 -2.5t2.5 -7.5z" />
    <glyph glyph-name="Y" unicode="Y" horiz-adv-x="611" 
d="M14 673l9 19q3 8 17 8h183q15 0 11 -12l-8 -20q-2 -5 -14 -11.5t-18 -11.5q-18 -16 -8 -46l121 -259l143 263q10 13 7.5 23.5t-6.5 15t-14 10.5q-4 3 -10 6t-8.5 4t-6 4t-3 4.5t1.5 5.5l8 15q5 7 11 7h155q14 0 10 -13l-5 -16q-1 -4 -6 -7.5t-13.5 -7t-9.5 -3.5
q-32 -12 -56 -56l-151 -275q-4 -8 -7 -15.5t-5 -15.5t-3 -13t-1.5 -13.5t-0.5 -12.5v-13.5v-12.5v-126q0 -28 12.5 -37.5t51.5 -17.5q19 -3 11 -18l-8 -18q-5 -7 -17 -7h-210q-19 0 -13 15l6 16q3 10 19 14q51 8 51 53v181l-153 316q-4 9 -8.5 16.5l-7.5 12.5t-7 9t-6 6.5
t-6.5 5t-5.5 3t-6.5 3t-6.5 3.5q-23 8 -19 19z" />
    <glyph glyph-name="Z" unicode="Z" horiz-adv-x="611" 
d="M549 700v-22l-398 -628h286q30 0 52 12.5t31 27t16 26t11 10.5l25 -8q6 -2 6 -9v-85q0 -24 -46 -24h-482l-17 30l398 620h-240q-19 0 -34.5 -10t-24.5 -24t-16.5 -27.5t-12.5 -21t-9 -3.5l-18 16q-5 7 -5 11v81q0 28 29 28h449z" />
    <glyph glyph-name="bracketleft" unicode="[" horiz-adv-x="333" 
d="M117 735h216v-41h-76q-36 0 -48 -11t-12 -45v-726q0 -39 13 -51.5t51 -12.5h72v-41h-216v928z" />
    <glyph glyph-name="backslash" unicode="\" 
d="M450 -108h-64l-261 843h63z" />
    <glyph glyph-name="bracketright" unicode="]" horiz-adv-x="333" 
d="M0 735h216v-928h-216v41h72q39 0 51.5 12.5t12.5 51.5v726q0 34 -11.5 45t-48.5 11h-76v41z" />
    <glyph glyph-name="asciicircum" unicode="^" 
d="M138 335h-65l184 365h63l182 -365h-65l-150 296z" />
    <glyph glyph-name="underscore" unicode="_" horiz-adv-x="500" 
d="M500 -125h-500v50h500v-50z" />
    <glyph glyph-name="grave" unicode="`" horiz-adv-x="352" 
d="M30 708q-2 15 7.5 26.5t28.5 11.5q11 0 29 -10.5t28 -23.5l106 -105q9 -9 8 -13q-4 -13 -18 -18q-3 -1 -14 6l-129 80q-43 26 -46 46z" />
    <glyph glyph-name="a" unicode="a" horiz-adv-x="605" 
d="M307 469q-79 0 -126 -70.5t-47 -160.5q0 -83 31 -137t84 -54q61 0 114.5 73.5t53.5 179.5q0 31 -2 53t-8.5 45.5t-18 38t-32 23.5t-49.5 9zM507 401v-296q0 -39 28 -52q6 -3 18 -5.5t17 -5.5t3 -9l-8 -24q-4 -9 -23 -9h-97q-15 -1 -21.5 7t-6.5 24v98h-2
q-24 -63 -76.5 -102t-109.5 -39q-86 0 -138.5 68.5t-52.5 163.5q0 119 80 205.5t194 86.5q67 0 140 -27q20 -8 28.5 -12.5t17.5 -23t9 -48.5z" />
    <glyph glyph-name="b" unicode="b" horiz-adv-x="592" 
d="M81 99v538q0 28 -12 37.5t-49 16.5q-20 6 -14 19l9 18q3 7 15 7h115q26 0 26 -31v-304h2q26 50 78 81t109 31q91 0 142.5 -64.5t51.5 -167.5q0 -126 -82.5 -209t-194.5 -83q-67 0 -140 27q-4 2 -13.5 6.5t-13 6.5t-9.5 7t-8.5 9.5t-6 12.5t-4.5 18t-1 24zM281 30
q80 0 127 72.5t47 169.5q0 75 -33.5 128.5t-97.5 53.5q-65 0 -109.5 -64t-44.5 -190q0 -83 24 -126.5t87 -43.5z" />
    <glyph glyph-name="c" unicode="c" horiz-adv-x="463" 
d="M441 473v-69q0 -2 -4 -10l-18 -14q-3 -2 -7.5 4t-13 22t-11.5 21q-24 41 -92 41q-76 0 -118.5 -61.5t-42.5 -150.5q0 -85 46 -147.5t124 -62.5q65 0 121 46q4 3 14.5 -4.5t8.5 -11.5l-27 -50q-10 -17 -20 -21q-36 -17 -107 -17q-118 0 -187 75.5t-69 186.5q0 116 72 189
t188 73q68 0 116 -10q30 -8 27 -29z" />
    <glyph glyph-name="d" unicode="d" horiz-adv-x="587" 
d="M307 469q-79 0 -126 -70.5t-47 -160.5q0 -81 37 -136t94 -55q73 0 112.5 59t39.5 167q0 107 -22.5 151.5t-87.5 44.5zM416 491v146q0 28 -12 37.5t-49 16.5q-20 6 -14 19l9 18q3 7 15 7h114q28 0 28 -31v-599q0 -39 28 -52q6 -3 18 -5.5t17 -5.5t3 -9l-8 -24
q-4 -9 -23 -9h-97q-15 -1 -21.5 7t-6.5 24v58h-2q-25 -43 -68 -72t-94 -29q-87 0 -151 66.5t-64 178.5q0 110 79.5 194.5t189.5 84.5q53 0 109 -21z" />
    <glyph glyph-name="e" unicode="e" horiz-adv-x="500" 
d="M439 246h-305q0 -81 42.5 -140.5t118.5 -59.5q64 0 120 46q6 5 16 -2.5t7 -13.5l-27 -50q-10 -17 -19 -21q-37 -17 -108 -17q-110 0 -178 74.5t-68 178.5q0 125 66 198t167 73q90 0 140.5 -62t50.5 -164q0 -15 -6.5 -27.5t-16.5 -12.5zM134 293h193q48 0 48 44
q0 67 -31 98.5t-75 31.5q-61 0 -98 -51.5t-37 -122.5z" />
    <glyph glyph-name="f" unicode="f" horiz-adv-x="330" 
d="M336 500v-30l-20 -20h-117v-352q0 -28 12.5 -37.5t51.5 -17.5q19 -3 11 -18l-8 -18q-5 -7 -17 -7h-203q-19 0 -13 15l6 16q3 10 19 14q51 8 51 53v352h-68v50h68v57q0 74 72 126q62 47 99 52q51 8 74 -11l43 -37q5 -5 -2 -16l-16 -24q-5 -5 -19 -1l-37 12q-48 16 -78 16
q-19 0 -32.5 -16t-13.5 -52v-106h137z" />
    <glyph glyph-name="g" unicode="g" horiz-adv-x="567" 
d="M51 -169l23 41q15 26 26 10q23 -36 65.5 -55.5t90.5 -19.5q72 0 116.5 49t44.5 161v112h-2q-24 -63 -76.5 -102t-109.5 -39q-86 0 -138.5 68.5t-52.5 163.5q0 119 80 205.5t194 86.5q67 0 140 -27q20 -8 28.5 -12.5t17.5 -23t9 -48.5v-357q0 -294 -251 -294
q-99 0 -185 43q-17 9 -21.5 15t1.5 23zM307 470q-79 0 -126 -70.5t-47 -160.5q0 -83 31 -137t84 -54q61 0 114.5 73.5t53.5 179.5q0 31 -2 53t-8.5 45.5t-18 38t-32 23.5t-49.5 9z" />
    <glyph glyph-name="h" unicode="h" horiz-adv-x="649" 
d="M199 715v-316h2q65 113 194 113q145 0 145 -171v-243q0 -28 12.5 -37.5t51.5 -17.5q19 -3 11 -18l-8 -18q-5 -7 -17 -7h-202q-19 0 -13 15l6 16q3 10 19 14q21 3 35.5 16.5t14.5 36.5v189q0 88 -20 124.5t-74 36.5q-68 0 -112.5 -68t-44.5 -216v-66q0 -28 12.5 -37.5
t50.5 -17.5q19 -3 11 -18l-8 -18q-5 -7 -17 -7h-202q-19 0 -13 15l6 16q3 10 19 14q51 8 51 53v539q0 28 -12 37.5t-49 16.5q-20 6 -14 19l9 18q3 7 15 7h117q8 0 11.5 -0.5t8 -5t4.5 -14.5z" />
    <glyph glyph-name="i" unicode="i" horiz-adv-x="308" 
d="M109 98v304q0 28 -12 37.5t-49 16.5q-20 6 -14 19l9 18q3 7 15 7h141v-402q0 -28 12.5 -37.5t51.5 -17.5q19 -3 11 -18l-8 -18q-5 -7 -17 -7h-203q-19 0 -13 15l6 16q3 10 19 14q51 8 51 53zM91 639q0 25 17.5 42t41.5 17q23 0 40.5 -17.5t17.5 -41.5q0 -23 -17.5 -40.5
t-39.5 -17.5q-25 0 -42.5 17t-17.5 41z" />
    <glyph glyph-name="j" unicode="j" horiz-adv-x="292" 
d="M109 -56v458q0 28 -12 37.5t-49 16.5q-20 6 -14 19l9 18q3 7 15 7h141v-536q0 -60 -14 -104t-38 -66.5t-50.5 -33t-55.5 -10.5v37q39 9 56 42q12 34 12 115zM92 639q0 25 17 42t41 17t41.5 -17.5t17.5 -41.5q0 -23 -17.5 -40.5t-40.5 -17.5q-24 0 -41.5 17t-17.5 41z" />
    <glyph glyph-name="k" unicode="k" horiz-adv-x="557" 
d="M550 33v-33h-125l-224 283h-2v-185q0 -28 12.5 -37.5t50.5 -17.5q19 -3 11 -18l-8 -18q-5 -7 -17 -7h-202q-19 0 -13 15l6 16q3 10 19 14q51 8 51 53v539q0 28 -12 37.5t-49 16.5q-20 6 -14 19l9 18q3 7 15 7h117q8 0 11.5 -0.5t8 -5t4.5 -14.5v-408q123 115 188 193h96
q10 0 12 -6t2 -22q0 -11 -19.5 -18.5t-48.5 -18t-45 -26.5l-98 -97q21 -24 63.5 -75.5t75 -88.5t59.5 -65q35 -38 66 -50z" />
    <glyph glyph-name="l" unicode="l" horiz-adv-x="307" 
d="M199 705v-607q0 -28 12.5 -37.5t50.5 -17.5q19 -3 11 -18l-8 -18q-5 -7 -17 -7h-202q-19 0 -13 15l6 16q3 10 19 14q51 8 51 53v539q0 28 -12 37.5t-49 16.5q-20 6 -14 19l9 18q3 7 15 7h115q26 0 26 -30z" />
    <glyph glyph-name="m" unicode="m" horiz-adv-x="954" 
d="M199 172v-74q0 -28 12 -37.5t51 -17.5q17 -3 11 -18l-8 -18q-5 -7 -17 -7h-202q-19 0 -13 15l6 16q3 10 19 14q51 8 51 53v304q0 28 -12 37.5t-49 16.5q-20 6 -14 19l9 18q3 7 15 7h118q8 0 11.5 -0.5t8 -5t4.5 -14.5v-72h2q33 54 80 79t91 25q74 0 106 -28.5t43 -74.5
q56 103 172 103q151 0 151 -158v-256q0 -28 12.5 -37.5t51.5 -17.5q19 -3 11 -18l-8 -18q-5 -7 -17 -7h-202q-19 0 -13 15l6 16q3 10 19 14q21 3 35.5 16.5t14.5 36.5v227q0 61 -20 92t-71 31q-54 0 -98 -70t-44 -206v-74q0 -28 12.5 -37.5t50.5 -17.5q19 -3 11 -18l-8 -18
q-5 -7 -16 -7h-202q-19 0 -13 15l6 16q3 10 19 14q50 8 50 53v227q0 61 -20 92t-71 31q-54 0 -98 -69.5t-44 -206.5z" />
    <glyph glyph-name="n" unicode="n" horiz-adv-x="649" 
d="M199 480v-81h2q65 113 194 113q145 0 145 -171v-243q0 -28 12.5 -37.5t51.5 -17.5q19 -3 11 -18l-8 -18q-5 -7 -17 -7h-202q-19 0 -13 15l6 16q3 10 19 14q21 3 35.5 16.5t14.5 36.5v189q0 88 -20 124.5t-74 36.5q-68 0 -112.5 -68t-44.5 -216v-66q0 -28 12.5 -37.5
t50.5 -17.5q19 -3 11 -18l-8 -18q-5 -7 -17 -7h-202q-19 0 -13 15l6 16q3 10 19 14q51 8 51 53v304q0 28 -12 37.5t-49 16.5q-20 6 -14 19l9 18q3 7 15 7h117q8 0 11.5 -0.5t8 -5t4.5 -14.5z" />
    <glyph glyph-name="o" unicode="o" horiz-adv-x="573" 
d="M299 512q104 0 170 -73t66 -179q0 -118 -75 -195t-186 -77q-108 0 -172 77t-64 175q0 130 78 201t183 71zM287 465q-69 0 -111 -53.5t-42 -132.5q0 -114 47 -179t109 -65q54 0 88 30t47.5 75.5t13.5 106.5q0 97 -42 157.5t-110 60.5z" />
    <glyph glyph-name="p" unicode="p" horiz-adv-x="610" 
d="M345 454q-65 0 -109.5 -64t-44.5 -190q0 -83 24 -126.5t87 -43.5q80 0 127 72.5t47 169.5q0 75 -33.5 128.5t-97.5 53.5zM191 9v-161q0 -28 16.5 -37.5t67.5 -17.5q25 -3 15 -18l-11 -18q-7 -7 -22 -7h-219q-19 0 -13 15l6 16q3 10 19 14q51 8 51 53v554q0 28 -12 37.5
t-49 16.5q-20 6 -14 19l9 18q3 7 15 7h115q27 0 27 -31v-69h2q26 50 78 81t109 31q91 0 141 -64t50 -168q0 -127 -81 -209.5t-194 -82.5q-61 0 -106 21z" />
    <glyph glyph-name="q" unicode="q" horiz-adv-x="588" 
d="M507 401v-553q0 -28 12.5 -37.5t51.5 -17.5q19 -3 11 -18l-8 -18q-5 -7 -17 -7h-223q-11 0 -16.5 3t-0.5 12l8 16q5 10 25 14q67 8 67 53v241h-2q-25 -43 -68 -72t-94 -29q-87 0 -151 66.5t-64 178.5q0 110 79.5 194.5t189.5 84.5q72 0 145 -27q4 -2 13.5 -6.5t12.5 -6.5
t9.5 -7t9 -9.5t5.5 -12.5t4 -18t1 -24zM307 469q-79 0 -126 -70.5t-47 -160.5q0 -81 37 -136t94 -55q73 0 112.5 59.5t39.5 166.5t-22.5 151.5t-87.5 44.5z" />
    <glyph glyph-name="r" unicode="r" horiz-adv-x="389" 
d="M200 480v-64q81 96 135 96q27 0 41 -27l27 -54q2 -5 -2 -9l-25 -29q-4 -5 -18.5 2t-36 17.5t-37.5 10.5q-34 0 -59.5 -33.5t-25.5 -99.5v-192q0 -27 18 -40q10 -8 32 -11t33 -7.5t3 -17.5l-8 -14q-4 -8 -31 -8h-187q-24 0 -26 5q-2 4 1 12l5 14q3 10 23.5 14t30.5 13
q16 14 16 40v304q0 28 -12 37.5t-49 16.5q-20 6 -14 19l9 18q3 7 15 7h118q8 0 11.5 -0.5t8 -5t4.5 -14.5z" />
    <glyph glyph-name="s" unicode="s" horiz-adv-x="407" 
d="M32 47v92q0 18 4 20l19 6q6 2 9.5 -6.5t9 -27t13.5 -32.5q14 -34 41.5 -51.5t60.5 -17.5q42 0 72.5 24.5t28.5 69.5q-1 18 -16 37t-29 29t-45 29.5t-37 23.5q-7 5 -38.5 25t-42 29t-23.5 31.5t-13 49.5q0 62 55.5 98t116.5 36q57 0 104 -10q26 -6 26 -28v-69q0 -3 -4 -9
l-17 -14q-2 -2 -4.5 0t-6 8t-6.5 11.5t-7.5 14t-7.5 13.5q-25 40 -83 40q-34 0 -58.5 -18.5t-23.5 -48.5q1 -20 20.5 -36t69.5 -47l15 -9q56 -37 79.5 -55.5t42.5 -48t19 -65.5q0 -77 -56.5 -115t-127.5 -38q-88 0 -133 28l-7 4q-6 4 -7.5 5.5t-5.5 5t-5.5 7.5t-1.5 9z" />
    <glyph glyph-name="t" unicode="t" horiz-adv-x="342" 
d="M340 500v-30l-20 -20h-127v-301q0 -95 51 -95q38 0 55 14q8 6 12 0l15 -22q4 -7 -2 -11l-26 -19q-41 -28 -82 -28q-58 0 -85.5 39t-27.5 120v303h-85v50h85v100l52 46q8 8 23 7.5t15 -9.5v-144h147z" />
    <glyph glyph-name="u" unicode="u" horiz-adv-x="630" 
d="M433 79l-39 -30q-82 -61 -140 -61q-152 0 -152 171v243q0 28 -12 37.5t-49 16.5q-20 6 -14 19l9 18q3 7 15 7h116q25 0 25 -33v-254q0 -88 20 -125t75 -37q51 0 103 57q43 48 43 228v66q0 27 -12 37t-48 17q-20 6 -14 19l9 18q3 7 14 7h116q25 0 25 -33v-363
q0 -26 14 -40q6 -6 17.5 -10t21 -5t18.5 -4t10.5 -7.5t-2.5 -14.5l-6 -14q-4 -9 -30 -9h-109q-8 0 -11.5 0.5t-8 5t-4.5 14.5v59z" />
    <glyph glyph-name="v" unicode="v" horiz-adv-x="550" 
d="M268 0h-22q-5 -1 -10 6t-7 14l-159 374q-20 46 -44 55q-22 9 -22 14q0 2 1 4l9 22q4 11 19 11h189q21 0 15 -15l-8 -19q-3 -6 -24.5 -12.5t-36 -18.5t-5.5 -34l113 -281l135 286q8 19 -2.5 30.5t-27.5 15t-30 9t-8 13.5l6 10q10 16 17 16h165q20 0 14 -18l-5 -16
q-3 -9 -19.5 -14.5t-26.5 -15.5t-26 -42l-180 -366q-13 -28 -20 -28z" />
    <glyph glyph-name="w" unicode="w" horiz-adv-x="775" 
d="M700 394l-140 -375q-8 -19 -15 -19h-23q-8 0 -15 20l-119 328l-141 -329q-8 -19 -15 -19h-23q-8 0 -15 20l-130 374q-15 42 -39 54q-20 10 -21 14q0 2 1 5l9 22q4 11 19 11h195q19 0 11 -18l-7 -16q-3 -6 -25.5 -10.5t-38 -17.5t-6.5 -40l80 -240l134 322q7 20 15 20h23
q8 0 14 -20l116 -326l97 242q8 20 -3.5 33t-29.5 18.5t-31 12t-9 14.5l7 11q9 15 19 15h159q22 0 17 -17l-5 -17q-3 -9 -15.5 -14t-23.5 -16q-15 -15 -26 -42z" />
    <glyph glyph-name="x" unicode="x" horiz-adv-x="611" 
d="M397 84l-114 130l-108 -130q-14 -16 -6.5 -24.5t23 -11t27.5 -7t7 -12.5l-13 -23q-5 -6 -17 -6h-162q-10 0 -13.5 1.5t-2.5 6.5l8 25q2 6 28.5 13t42.5 25l157 182l-123 145q-18 20 -37 35q-10 7 -27.5 11t-24 9t-0.5 18l11 22q2 7 15 7h200q5 0 8 -3t1 -5l-10 -24
q-2 -6 -15.5 -12.5t-24.5 -11t-16.5 -13.5t6.5 -21l91 -100l93 108q16 23 1.5 29t-33.5 11.5t-13 14.5l13 22q3 5 11 5h160q6 0 9.5 -2.5t2.5 -8.5l-8 -22q-3 -9 -25 -16t-30 -13q-20 -15 -38 -36l-112 -130l145 -170q29 -31 50 -39q5 -2 14 -3.5t16.5 -2.5t15.5 -3t10 -5
t0 -9l-11 -28q-6 -12 -27 -12h-185q-9 0 -12.5 3t-1.5 10l6 21q2 7 18.5 13.5t23.5 12t-4 24.5z" />
    <glyph glyph-name="y" unicode="y" horiz-adv-x="550" 
d="M48 -236l-12 27q-3 7 0 10t13 5q1 1 1.5 1h1.5l48 11q16 4 36.5 24.5t38.5 61.5l53 120l-158 370q-20 46 -44 55q-22 9 -22 14q0 2 1 4l9 22q4 11 19 11h189q21 0 15 -15l-8 -19q-3 -6 -24.5 -12.5t-36 -18.5t-5.5 -34l113 -281l135 286q8 19 -2.5 30.5t-27.5 15t-30 9
t-8 13.5l6 10q10 16 17 16h165q20 0 14 -18l-5 -16q-3 -9 -19.5 -14.5t-26.5 -15.5t-26 -42l-268 -572q-16 -36 -34.5 -54t-48.5 -18h-37q-25 0 -32 14z" />
    <glyph glyph-name="z" unicode="z" horiz-adv-x="463" 
d="M112 500h316v-47l-288 -403h160q30 0 52 12t31 26t16 25t11 10l25 -8q6 -1 6 -8v-84q0 -23 -46 -23h-354l-17 37l313 417h-134q-19 0 -34.5 -9t-24.5 -21t-16.5 -24t-12.5 -18.5t-9 -3.5l-18 15q-5 5 -5 9v73q-2 11 6.5 18t22.5 7z" />
    <glyph glyph-name="braceleft" unicode="{" horiz-adv-x="333" 
d="M220 116v-181q0 -59 19 -91.5t64 -41.5v-2q-89 -3 -123.5 30.5t-34.5 132.5v176q0 59 -14.5 85.5t-61.5 40.5v2q45 14 60.5 41t15.5 82v193q0 92 37 122t121 30v-2q-47 -12 -65 -43.5t-18 -90.5v-193q0 -63 -16 -94.5t-65 -44.5v-2q50 -14 65.5 -48t15.5 -101z" />
    <glyph glyph-name="bar" unicode="|" horiz-adv-x="259" 
d="M96 -250v1000h66v-1000h-66z" />
    <glyph glyph-name="braceright" unicode="}" horiz-adv-x="333" 
d="M113 419v181q0 59 -19 91.5t-64 41.5v2q89 3 123.5 -30.5t34.5 -132.5v-176q0 -59 14.5 -85.5t61.5 -40.5v-2q-45 -14 -60.5 -41t-15.5 -82v-193q0 -92 -37 -122t-121 -30v2q47 12 65 43.5t18 90.5v193q0 63 16 94.5t65 44.5v2q-50 14 -65.5 48t-15.5 101z" />
    <glyph glyph-name="asciitilde" unicode="~" 
d="M483 321l42 -35q-30 -45 -57.5 -68t-69.5 -23q-38 0 -102 31q-68 30 -112 30q-22 0 -40.5 -11.5t-28.5 -23.5t-25 -35l-41 37q31 47 61 71.5t76 24.5q35 0 111 -30q72 -31 99 -31q29 0 48 16.5t39 46.5z" />
    <glyph glyph-name="exclamdown" unicode="&#xa1;" horiz-adv-x="296" 
d="M121 304h52q17 -411 28 -510q5 -29 -54 -29t-54 29q11 99 28 510zM83 448q0 26 19 45t45 19q25 0 44.5 -19t19.5 -45q0 -25 -19 -44.5t-44 -19.5q-26 0 -45.5 19t-19.5 45z" />
    <glyph glyph-name="cent" unicode="&#xa2;" 
d="M333 512l15 68l43 -6l-14 -64q38 -1 70 -8q30 -8 27 -29v-69q0 -2 -4 -10l-18 -14q-3 -2 -7.5 4t-13 22t-11.5 21q-16 27 -54 36l-89 -404q25 -13 60 -13q65 0 121 46q11 9 20.5 3.5t2.5 -19.5l-27 -50q-10 -17 -20 -21q-36 -17 -107 -17q-34 0 -64 8l-17 -78l-42 10
l18 80q-72 29 -113 94.5t-41 147.5q0 116 73.5 189t189.5 73h2zM239 83l84 385q-74 -3 -116 -64t-42 -148q0 -52 19.5 -98.5t54.5 -74.5z" />
    <glyph glyph-name="sterling" unicode="&#xa3;" 
d="M12 0v32q26 4 60 44t41 83q5 31 10 90.5t12 99.5h-103v45h106l15 105q13 88 63.5 150.5t130.5 62.5q41 0 106 -23q18 -6 26 -33l20 -60q1 -5 -6 -7l-39 -9q-7 -2 -11 4q-8 8 -23.5 27.5t-25.5 30.5t-27.5 20.5t-36.5 9.5q-71 0 -89 -148l-13 -130h150v-44h-154l-5 -62
q2 -50 -21 -115.5t-64 -100.5l2 -2q68 15 131 15q50 0 109.5 -5.5t75.5 -5.5q17 0 22.5 10.5t1.5 42.5l-5 40q-3 15 3 18l28 13q10 7 17 -2l29 -55q6 -15 -3 -41q-9 -25 -58.5 -68.5t-78.5 -43.5q-23 0 -73.5 11t-97 20.5t-109.5 6.5t-116 -26z" />
    <glyph glyph-name="currency" unicode="&#xa4;" 
d="M34 143l55 56q-50 64 -50 148q0 94 51 151l-57 58l44 45l59 -56q63 51 154 51q85 0 147 -51l56 56l45 -45l-53 -55q50 -60 50 -152q0 -90 -50 -150l55 -55l-43 -46l-57 56q-62 -54 -151 -54q-92 0 -155 54l-57 -56zM290 527q-76 0 -129 -52t-53 -128q0 -75 53 -126.5
t128 -51.5q74 0 125.5 53t51.5 127q0 72 -52 125t-124 53z" />
    <glyph glyph-name="yen" unicode="&#xa5;" 
d="M16 673l9 19q3 8 17 8h183q15 0 11 -12l-8 -20q-2 -5 -14 -11.5t-18 -11.5q-18 -16 -8 -46l121 -259l143 263q10 13 7.5 23.5t-6.5 15t-14 10.5q-4 3 -10 6t-8.5 4t-6 4t-3 4.5t1.5 5.5l8 15q5 7 11 7h155q14 0 10 -13l-5 -16q-1 -4 -6 -7.5t-13.5 -7t-9.5 -3.5
q-32 -12 -56 -56l-141 -257h144v-40h-163q-8 -22 -8 -74v-6h171v-40h-171v-80q0 -28 12.5 -37.5t51.5 -17.5q19 -3 11 -18l-8 -18q-5 -7 -17 -7h-210q-19 0 -13 15l6 16q3 10 19 14q51 8 51 53v80h-158v40h158v61l-9 19h-149v40h130l-125 257q-4 9 -8.5 16.5l-7.5 12.5t-7 9
t-6 6.5t-6.5 5t-5.5 3t-6.5 3t-6.5 3.5q-23 8 -19 19z" />
    <glyph glyph-name="brokenbar" unicode="&#xa6;" horiz-adv-x="259" 
d="M96 -175v350h66v-350h-66zM96 325v350h66v-350h-66z" />
    <glyph glyph-name="section" unicode="&#xa7;" horiz-adv-x="463" 
d="M175 390q-27 0 -45 -19t-18 -47q0 -40 59 -94l9 -8q9 -8 11 -9.5t10.5 -8.5t12 -9t11.5 -7.5t13 -7.5t12 -5t13.5 -4t12.5 -1q31 0 49 18.5t18 49.5q0 35 -64 91q-59 61 -104 61zM186 427l2 2q-54 44 -78.5 78t-24.5 79q0 60 43.5 93t105.5 33q25 0 66 -8.5t55 -16.5
l33 -61q5 -16 -10 -25l-11 -7q-19 -13 -32 0l-46 52q-29 31 -76 31q-25 0 -42.5 -20.5t-17.5 -47.5q0 -38 44 -77l118 -98q104 -87 104 -169q0 -62 -39 -97.5t-100 -29.5l-2 -2q33 -28 49.5 -45t31.5 -47.5t15 -65.5q0 -69 -68 -108q-41 -18 -95 -18q-25 0 -65.5 8.5
t-55.5 16.5l-33 61q-5 15 10 24l11 7q19 14 33 0l45 -51q26 -30 77 -30q31 0 52 15.5t21 49.5q0 35 -27 67.5t-65.5 59.5t-77 56.5t-65.5 72t-27 92.5q0 64 40 98t102 28z" />
    <glyph glyph-name="dieresis" unicode="&#xa8;" horiz-adv-x="426" 
d="M112 683q21 0 36 -15.5t15 -35.5q0 -21 -15 -35.5t-36 -14.5q-20 0 -35 15t-15 35q0 19 15.5 35t34.5 16zM313 683q21 0 36 -15.5t15 -35.5q0 -21 -15 -35.5t-36 -14.5q-20 0 -35 15t-15 35q0 19 15.5 35t34.5 16z" />
    <glyph glyph-name="copyright" unicode="&#xa9;" horiz-adv-x="796" 
d="M398 712q143 0 252.5 -107.5t109.5 -254.5t-109.5 -254.5t-252.5 -107.5q-152 0 -257 106t-105 256t105 256t257 106zM398 660q-127 0 -218.5 -92.5t-91.5 -217.5q0 -126 91.5 -218t218.5 -92q118 0 214 93.5t96 216.5t-95.5 216.5t-214.5 93.5zM561 518v-38q0 -2 -3 -6
l-26 -9q-2 -2 -5 3t-9 14t-17 18t-34.5 15.5t-56.5 6.5q-62 0 -97 -45t-35 -117q0 -83 42.5 -127.5t111.5 -44.5q33 0 63.5 7t40.5 16q13 12 26 2q5 -5 3 -10l-18 -32q-9 -12 -12 -13q-26 -14 -115 -14q-117 0 -177 61t-60 151q0 85 66.5 144.5t164.5 59.5q86 0 142 -31
q5 -3 5 -11z" />
    <glyph glyph-name="ordfeminine" unicode="&#xaa;" horiz-adv-x="389" 
d="M195 682q-45 0 -72.5 -40.5t-27.5 -91.5q0 -47 18.5 -77.5t49.5 -30.5q28 0 51.5 23.5t32.5 58.5q12 46 12 62q0 47 -12.5 71.5t-51.5 24.5zM334 645v-176q0 -23 21 -30q5 -3 14.5 -5.5t14 -5t1.5 -9.5l-5 -10q-2 -5 -16 -5h-86q-9 -1 -14 4.5t-5 14.5v54h-2
q-14 -35 -48 -57.5t-70 -22.5q-56 0 -90 41t-34 98q0 72 53.5 124t133.5 52q48 0 96 -17q14 -5 19 -7.5t11 -13.5t6 -29z" />
    <glyph glyph-name="guillemotleft" unicode="&#xab;" horiz-adv-x="500" 
d="M59 238l163 151q2 2 10 9.5t13.5 12.5t8.5 5q6 0 6 -9q0 -17 -42 -74t-75 -95q23 -27 72 -92.5t49 -75.5t-7 -10t-36 29zM236 238l163 151q2 2 10 9.5t13.5 12.5t8.5 5q6 0 6 -9q0 -17 -42 -74t-75 -95q23 -27 72 -92.5t49 -75.5t-7 -10t-36 29z" />
    <glyph glyph-name="logicalnot" unicode="&#xac;" 
d="M473 112v205h-438v66h504v-271h-66z" />
    <glyph glyph-name="registered" unicode="&#xae;" horiz-adv-x="796" 
d="M398 712q143 0 252.5 -107.5t109.5 -254.5t-109.5 -254.5t-252.5 -107.5q-152 0 -257 106t-105 256t105 256t257 106zM398 660q-127 0 -218.5 -92.5t-91.5 -217.5q0 -126 91.5 -218t218.5 -92q118 0 214 93.5t96 216.5t-95.5 216.5t-214.5 93.5zM272 228v271q0 28 -40 34
q-7 1 -10.5 3t-0.5 6l5 10q4 6 10 6h198q44 0 76 -25.5t32 -76.5q0 -28 -22.5 -57t-57.5 -46q49 -76 78.5 -116.5t48.5 -48.5v-17h-80q-4 0 -7 2.5t-6 6.5t-4 5l-94 151h-49v-108q0 -17 7 -22t32 -11q12 0 7 -9l-5 -10q-3 -5 -11 -5h-147q-12 0 -7 9l4 9q1 2 10 8
q33 4 33 31zM349 522v-150h33q37 -1 61.5 20.5t23.5 63.5q-1 39 -19.5 52.5t-53.5 13.5h-45z" />
    <glyph glyph-name="macron" unicode="&#xaf;" horiz-adv-x="444" 
d="M383 612h-323v56h323v-56z" />
    <glyph glyph-name="degree" unicode="&#xb0;" horiz-adv-x="370" 
d="M185 662q-38 0 -66 -28t-28 -66q0 -37 29 -65t65 -28t64.5 28.5t28.5 64.5q0 37 -27.5 65.5t-65.5 28.5zM185 425q-59 0 -101.5 42.5t-42.5 100.5t43 101t101 43t100.5 -42.5t42.5 -101.5q0 -58 -42 -100.5t-101 -42.5z" />
    <glyph glyph-name="plusminus" unicode="&#xb1;" 
d="M254 389v220h66v-220h219v-66h-219v-220h-66v220h-219v66h219zM35 0v66h504v-66h-504z" />
    <glyph glyph-name="twosuperior" unicode="&#xb2;" horiz-adv-x="370" 
d="M22 285v44q11 10 49 40.5t57 49.5q118 118 118 180q0 35 -21 51.5t-45 16.5q-56 0 -84 -48l-17 -28q-3 -6 -8 -3l-14 9q-4 4 -4 7v53q0 2 1 4.5t2.5 4.5t4.5 4.5t5.5 4t7 4.5l7.5 5q41 28 108 28q64 0 104.5 -26.5t40.5 -77.5q0 -67 -119 -171l-2 -2t-2.5 -2t-2.5 -2
l-103 -90h151q19 0 36 18t27.5 34t14.5 14l18 -8q6 -3 4 -10l-34 -89q-6 -15 -37 -15h-263z" />
    <glyph glyph-name="threesuperior" unicode="&#xb3;" horiz-adv-x="370" 
d="M120 486v32q52 7 84.5 31.5t32.5 65.5q0 33 -18.5 47.5t-39.5 14.5q-57 0 -82 -57l-10 -20q-2 -5 -8 -3l-12 6q-4 2 -4 7v52q0 6 23 22q39 28 107 28q56 0 94 -25t38 -66q0 -38 -32 -67.5t-78 -42.5v-2q55 -2 93.5 -31t38.5 -76q0 -58 -52.5 -91t-127.5 -33
q-73 0 -110 23l-23 48q-1 6 4 11l17 13q9 9 13 2l35 -37q28 -28 67 -28t64 23.5t25 63.5q0 83 -139 89z" />
    <glyph glyph-name="acute" unicode="&#xb4;" horiz-adv-x="352" 
d="M277 662l-124 -77q-16 -9 -20 -9q-5 0 -11 8q-7 9 -7 13q3 5 15 17l100 98q36 34 62 34q9 0 18.5 -11t9.5 -22q0 -25 -43 -51z" />
    <glyph glyph-name="mu" unicode="&#xb5;" horiz-adv-x="648" 
d="M198 467v-254q0 -88 20 -125t75 -37q51 0 103 57q43 48 43 228v66q0 27 -12 37t-48 17q-20 6 -14 19l9 18q3 7 14 7h116q25 0 25 -33v-363q0 -26 14 -40q6 -6 17.5 -10t21 -5t18.5 -4t10.5 -7.5t-2.5 -14.5l-6 -14q-4 -9 -30 -9h-109q-8 0 -11.5 0.5t-8 5t-4.5 14.5v59
l-39 -30q-82 -61 -140 -61q-46 0 -84 30q15 -100 16 -105q6 -48 6 -91q0 -10 -22.5 -20t-45 -7.5t-22.5 21.5v586q0 28 -12 37.5t-49 16.5q-20 6 -14 19l9 18q3 7 15 7h116q25 0 25 -33z" />
    <glyph glyph-name="paragraph" unicode="&#xb6;" horiz-adv-x="537" 
d="M236 -73v354q-107 -1 -165.5 56t-58.5 147q0 41 11 76.5t35 68.5t69.5 52t108.5 19h241q19 0 13 -15l-6 -16q-3 -9 -19 -13q-51 -8 -51 -53v-676q0 -28 12.5 -37.5t51.5 -17.5q18 -3 11 -17l-8 -18q-5 -7 -17 -7h-108v827h-62v-827h-121q-19 0 -13 15l6 16q3 9 19 13
q51 8 51 53zM236 326v331q-71 0 -102 -41t-31 -128q0 -84 36.5 -123t96.5 -39z" />
    <glyph glyph-name="periodcentered" unicode="&#xb7;" horiz-adv-x="287" 
d="M79 253q0 26 19 45t45 19q25 0 44.5 -19.5t19.5 -44.5t-19 -44.5t-44 -19.5q-26 0 -45.5 19t-19.5 45z" />
    <glyph glyph-name="cedilla" unicode="&#xb8;" horiz-adv-x="333" 
d="M107 -99l47 109h36l-31 -75q13 3 29 3q35 0 59 -17.5t24 -51.5q0 -38 -39 -61t-90 -23q-38 0 -70 13q-7 19 10 32q23 -10 55 -10q58 0 58 42q0 36 -36 38q-16 2 -45 -4z" />
    <glyph glyph-name="onesuperior" unicode="&#xb9;" horiz-adv-x="370" 
d="M68 661l169 51v-351q0 -18 14 -27q10 -6 54 -9q19 -1 18 -7q0 -1 -1 -2l-10 -21q-5 -10 -30 -10h-190q-30 0 -30 9q0 2 1 4l10 20q2 6 32.5 9t34.5 6q19 12 19 28v261q0 9 -2 15.5t-5.5 9t-8 3t-11.5 -1t-12 -3.5t-14 -5t-14 -5l-14 -4q-7 -3 -10 5l-4 12q-4 10 4 13z
" />
    <glyph glyph-name="ordmasculine" unicode="&#xba;" horiz-adv-x="370" 
d="M188 712q72 0 116.5 -44.5t44.5 -106.5q0 -69 -49.5 -116.5t-127.5 -47.5q-74 0 -117.5 46t-43.5 105q0 74 51 119t126 45zM181 682q-42 0 -66 -33t-24 -78q0 -67 27.5 -105.5t63.5 -38.5q47 0 67 35.5t20 88.5q0 59 -24.5 95t-63.5 36z" />
    <glyph glyph-name="guillemotright" unicode="&#xbb;" horiz-adv-x="500" 
d="M441 238l-163 -151q-27 -27 -32 -27q-6 0 -6 9q0 17 44 76t74 93q-21 23 -71 90t-51 78q0 10 8 10q9 0 35 -29zM264 238l-163 -151q-27 -27 -32 -27q-6 0 -6 9q0 17 44 76t74 93q-21 23 -71 90t-51 78q0 10 8 10q9 0 35 -29z" />
    <glyph glyph-name="onequarter" unicode="&#xbc;" horiz-adv-x="889" 
d="M766 169h50q9 0 14 -2.5t2 -8.5l-19 -36h-47v-46q0 -18 14 -27q10 -6 54 -9q19 -1 18 -7q0 -1 -1 -2l-10 -21q-5 -10 -30 -10h-190q-30 0 -30 9q0 2 1 4l10 20q2 6 32.5 9t34.5 6q19 12 19 28v46h-163q-20 0 -23 5l-13 23q34 45 217 270h60v-251zM259 0h-66l452 700h65z
M558 169h130v166q-69 -77 -130 -166zM149 361v261q0 9 -2 15.5t-5.5 9t-8 3t-11.5 -1t-12 -3.5t-14 -5t-14 -5l-14 -4q-7 -3 -10 5l-4 12q-4 10 4 13l169 51v-351q0 -18 14 -27q10 -6 54 -9q19 -1 18 -7q0 -1 -1 -2l-10 -21q-5 -10 -30 -10h-190q-30 0 -30 9q0 2 1 4l10 20
q2 6 32.5 9t34.5 6q19 12 19 28z" />
    <glyph glyph-name="onehalf" unicode="&#xbd;" horiz-adv-x="889" 
d="M227 0h-66l452 700h65zM522 0v44q11 10 49 40.5t57 49.5q118 118 118 180q0 35 -21 51.5t-45 16.5q-56 0 -84 -48l-17 -28q-3 -6 -8 -3l-14 9q-4 4 -4 7v53q0 2 1 4.5t2.5 4.5t4.5 4.5t5.5 4t7 4.5l7.5 5q42 29 108 29q64 0 104.5 -26.5t40.5 -78.5q0 -67 -119 -171
q-5 -4 -7 -6l-103 -90h151q19 0 36 18t27.5 34t14.5 14l18 -8q6 -3 4 -10l-34 -89q-6 -15 -37 -15h-263zM129 361v261q0 9 -2 15.5t-5.5 9t-8 3t-11.5 -1t-12 -3.5t-14 -5t-14 -5l-14 -4q-7 -3 -10 5l-4 12q-4 10 4 13l169 51v-351q0 -18 14 -27q10 -6 54 -9q19 -1 18 -7
q0 -1 -1 -2l-10 -21q-5 -10 -30 -10h-190q-30 0 -30 9q0 2 1 4l10 20q2 6 32.5 9t34.5 6q19 12 19 28z" />
    <glyph glyph-name="threequarters" unicode="&#xbe;" horiz-adv-x="889" 
d="M568 169h130v166q-69 -77 -130 -166zM280 0h-66l452 700h65zM776 169h50q9 0 14 -2.5t2 -8.5l-19 -36h-47v-46q0 -18 14 -27q10 -6 54 -9q19 -1 18 -7q0 -1 -1 -2l-10 -21q-5 -10 -30 -10h-190q-30 0 -30 9q0 2 1 4l10 20q2 6 32.5 9t34.5 6q19 12 19 28v46h-163
q-20 0 -23 5l-13 23q35 45 217 270h60v-251zM127 486v32q52 7 84.5 31.5t32.5 65.5q0 33 -18.5 47.5t-39.5 14.5q-57 0 -82 -57l-10 -20q-2 -5 -8 -3l-12 6q-4 2 -4 7v52q0 6 23 22q39 28 107 28q56 0 94 -25t38 -66q0 -38 -32 -67.5t-78 -42.5v-2q55 -2 93.5 -31t38.5 -76
q0 -58 -52.5 -91t-127.5 -33q-73 0 -110 23l-23 48q-1 6 4 11l17 13q9 9 13 2l35 -37q28 -28 67 -28t64 23.5t25 63.5q0 83 -139 89z" />
    <glyph glyph-name="questiondown" unicode="&#xbf;" horiz-adv-x="463" 
d="M235 300h63q2 -65 -12.5 -106.5t-68.5 -115.5q-32 -45 -45.5 -78.5t-13.5 -70.5q0 -57 24.5 -87.5t59.5 -30.5q49 0 76 27l44 47q7 7 16 3l30 -21q8 -4 3 -13l-34 -64q-15 -9 -58.5 -17t-80.5 -8q-80 0 -134.5 48t-54.5 127q0 30 9.5 56.5t30.5 51.5t36 40t45 40
q39 34 51.5 70t13.5 102zM203 448q0 26 19 45t45 19q25 0 44.5 -19t19.5 -45q0 -25 -19 -44.5t-44 -19.5q-26 0 -45.5 19t-19.5 45z" />
    <glyph glyph-name="Agrave" unicode="&#xc0;" horiz-adv-x="741" 
d="M239 267h234l-116 302zM732 30l-12 -22q-5 -8 -23 -8h-198q-21 0 -13 14l9 19q2 4 18.5 10t23 15t-0.5 40l-42 115h-274l-49 -125q-6 -16 1.5 -26.5t20 -14t21 -9t4.5 -12.5l-6 -10q0 -1 -1.5 -3.5t-3 -4.5t-3.5 -4t-5 -3t-7 -1h-150h-6h-6.5h-6t-5.5 0.5t-4 1.5t-3 2
t-2 3t0 5l2 6l5 13q3 8 26 14q32 7 43 17t27 44l184 462q4 9 5.5 17t0.5 15t-2 11.5t-5 9.5t-5.5 6.5l-6.5 6.5l-5 4q-9 8 -27 13t-26.5 9.5t-2.5 15.5l5 14q4 10 24 10h144q19 0 25 -28q66 -192 220 -566q4 -10 7 -16.5t5.5 -12t7 -9t6 -5.5t9 -4.5l10.5 -3.5t15 -4t18 -5
q18 -5 14 -16zM205 888q-2 15 7.5 26.5t28.5 11.5q11 0 29 -10.5t28 -23.5l106 -105q9 -9 8 -13q-4 -13 -18 -18q-3 -1 -14 6l-129 80q-43 26 -46 46z" />
    <glyph glyph-name="Aacute" unicode="&#xc1;" horiz-adv-x="741" 
d="M239 267h234l-116 302zM732 30l-12 -22q-5 -8 -23 -8h-198q-21 0 -13 14l9 19q2 4 18.5 10t23 15t-0.5 40l-42 115h-274l-49 -125q-6 -16 1.5 -26.5t20 -14t21 -9t4.5 -12.5l-6 -10q0 -1 -1.5 -3.5t-3 -4.5t-3.5 -4t-5 -3t-7 -1h-150h-6h-6.5h-6t-5.5 0.5t-4 1.5t-3 2
t-2 3t0 5l2 6l5 13q3 8 26 14q32 7 43 17t27 44l184 462q4 9 5.5 17t0.5 15t-2 11.5t-5 9.5t-5.5 6.5l-6.5 6.5l-5 4q-9 8 -27 13t-26.5 9.5t-2.5 15.5l5 14q4 10 24 10h144q19 0 25 -28q66 -192 220 -566q4 -10 7 -16.5t5.5 -12t7 -9t6 -5.5t9 -4.5l10.5 -3.5t15 -4t18 -5
q18 -5 14 -16zM448 842l-124 -77q-16 -9 -20 -9q-5 0 -11 8q-7 9 -7 13q3 5 15 17l100 98q36 34 62 34q9 0 18.5 -11t9.5 -22q0 -25 -43 -51z" />
    <glyph glyph-name="Acircumflex" unicode="&#xc2;" horiz-adv-x="741" 
d="M239 267h234l-116 302zM732 30l-12 -22q-5 -8 -23 -8h-198q-21 0 -13 14l9 19q2 4 18.5 10t23 15t-0.5 40l-42 115h-274l-49 -125q-6 -16 1.5 -26.5t20 -14t21 -9t4.5 -12.5l-6 -10q0 -1 -1.5 -3.5t-3 -4.5t-3.5 -4t-5 -3t-7 -1h-150h-6h-6.5h-6t-5.5 0.5t-4 1.5t-3 2
t-2 3t0 5l2 6l5 13q3 8 26 14q32 7 43 17t27 44l184 462q4 9 5.5 17t0.5 15t-2 11.5t-5 9.5t-5.5 6.5l-6.5 6.5l-5 4q-9 8 -27 13t-26.5 9.5t-2.5 15.5l5 14q4 10 24 10h144q19 0 25 -28q66 -192 220 -566q4 -10 7 -16.5t5.5 -12t7 -9t6 -5.5t9 -4.5l10.5 -3.5t15 -4t18 -5
q18 -5 14 -16zM309 919h63l115 -150q8 -12 6 -15q-7 -3 -29 -1l-18 12l-106 89l-105 -89q-2 -1 -5.5 -4t-6.5 -5t-6 -3q-22 -2 -29 1q-2 3 6 15z" />
    <glyph glyph-name="Atilde" unicode="&#xc3;" horiz-adv-x="741" 
d="M239 267h234l-116 302zM732 30l-12 -22q-5 -8 -23 -8h-198q-21 0 -13 14l9 19q2 4 18.5 10t23 15t-0.5 40l-42 115h-274l-49 -125q-6 -16 1.5 -26.5t20 -14t21 -9t4.5 -12.5l-6 -10q0 -1 -1.5 -3.5t-3 -4.5t-3.5 -4t-5 -3t-7 -1h-150h-6h-6.5h-6t-5.5 0.5t-4 1.5t-3 2
t-2 3t0 5l2 6l5 13q3 8 26 14q32 7 43 17t27 44l184 462q4 9 5.5 17t0.5 15t-2 11.5t-5 9.5t-5.5 6.5l-6.5 6.5l-5 4q-9 8 -27 13t-26.5 9.5t-2.5 15.5l5 14q4 10 24 10h144q19 0 25 -28q66 -192 220 -566q4 -10 7 -16.5t5.5 -12t7 -9t6 -5.5t9 -4.5l10.5 -3.5t15 -4t18 -5
q18 -5 14 -16zM292 855q17 0 63 -22q6 -3 21 -11.5t26.5 -12.5t23.5 -4q24 0 41 17t24 35q16 5 26 -4q-2 -38 -33 -69.5t-72 -31.5q-40 0 -76 23q-36 24 -67 24q-20 0 -38 -15q-12 -11 -21 -29q-17 -7 -24 8q7 38 34.5 65t71.5 27z" />
    <glyph glyph-name="Adieresis" unicode="&#xc4;" horiz-adv-x="741" 
d="M239 267h234l-116 302zM732 30l-12 -22q-5 -8 -23 -8h-198q-21 0 -13 14l9 19q2 4 18.5 10t23 15t-0.5 40l-42 115h-274l-49 -125q-6 -16 1.5 -26.5t20 -14t21 -9t4.5 -12.5l-6 -10q0 -1 -1.5 -3.5t-3 -4.5t-3.5 -4t-5 -3t-7 -1h-150h-6h-6.5h-6t-5.5 0.5t-4 1.5t-3 2
t-2 3t0 5l2 6l5 13q3 8 26 14q32 7 43 17t27 44l184 462q4 9 5.5 17t0.5 15t-2 11.5t-5 9.5t-5.5 6.5l-6.5 6.5l-5 4q-9 8 -27 13t-26.5 9.5t-2.5 15.5l5 14q4 10 24 10h144q19 0 25 -28q66 -192 220 -566q4 -10 7 -16.5t5.5 -12t7 -9t6 -5.5t9 -4.5l10.5 -3.5t15 -4t18 -5
q18 -5 14 -16zM246 863q21 0 36 -15.5t15 -35.5q0 -21 -15 -35.5t-36 -14.5q-20 0 -35 15t-15 35q0 19 15.5 35t34.5 16zM447 863q21 0 36 -15.5t15 -35.5q0 -21 -15 -35.5t-36 -14.5q-20 0 -35 15t-15 35q0 19 15.5 35t34.5 16z" />
    <glyph glyph-name="Aring" unicode="&#xc5;" horiz-adv-x="741" 
d="M239 267h234l-116 302zM732 30l-12 -22q-5 -8 -23 -8h-198q-21 0 -13 14l9 19q2 4 18.5 10t23 15t-0.5 40l-42 115h-274l-49 -125q-6 -16 1.5 -26.5t20 -14t21 -9t4.5 -12.5l-6 -10q0 -1 -1.5 -3.5t-3 -4.5t-3.5 -4t-5 -3t-7 -1h-150h-6h-6.5h-6t-5.5 0.5t-4 1.5t-3 2
t-2 3t0 5l2 6l5 13q3 8 26 14q32 7 43 17t27 44l184 462q4 9 5.5 17t0.5 15t-2 11.5t-5 9.5t-5.5 6.5l-6.5 6.5l-5 4q-9 8 -27 13t-26.5 9.5t-2.5 15.5l5 14q4 10 24 10h144q19 0 25 -28q66 -192 220 -566q4 -10 7 -16.5t5.5 -12t7 -9t6 -5.5t9 -4.5l10.5 -3.5t15 -4t18 -5
q18 -5 14 -16zM351 902q-24 0 -42.5 -18.5t-18.5 -42.5t18.5 -42t42.5 -18t42 18.5t18 41.5q0 24 -18 42.5t-42 18.5zM351 742q-41 0 -70.5 29.5t-29.5 69.5t30 70t70 30t69.5 -29.5t29.5 -70.5t-29 -70t-70 -29z" />
    <glyph glyph-name="AE" unicode="&#xc6;" horiz-adv-x="907" 
d="M275 268h209v384h-2zM484 214h-239l-72 -127q-6 -16 1.5 -26.5t20 -14t21 -9t4.5 -12.5l-6 -10q-9 -15 -20 -15h-174q-13 0 -17 2.5t0 14.5l5 13q3 8 26 14q26 5 35.5 9t22.5 16t27 36l256 462q15 27 20 38t4 21t-11 19q-5 5 -20.5 7.5t-24.5 6.5t-4 13l8 17q4 11 24 11
h447q14 0 22.5 -7t6.5 -18v-73q0 -4 -5 -9l-18 -15q-5 -4 -12.5 5.5t-16.5 24t-27 26.5t-41 12h-146v-239h231q21 0 13 -15l-14 -25q-8 -14 -32 -14h-198v-206q0 -59 13 -76t48 -17h88q35 0 61.5 13t37.5 28t19.5 27t12.5 11l25 -8q6 -1 6 -9v-91q0 -25 -46 -25h-401
q-11 0 -16 2.5t-1 10.5l9 19q2 5 15 9.5t22.5 17t9.5 38.5v117z" />
    <glyph glyph-name="Ccedilla" unicode="&#xc7;" horiz-adv-x="704" 
d="M674 79l-16 -30q-21 -36 -27 -40q-42 -21 -179 -21q-43 0 -82 6l-25 -59q13 3 29 3q35 0 59 -17.5t24 -51.5q0 -38 -39 -61t-90 -23q-38 0 -70 13q-7 19 10 32q23 -10 55 -10q58 0 58 42q0 36 -36 38q-16 2 -45 -4l-7 5l43 101q-135 29 -211.5 123t-76.5 231
q0 148 109.5 252t270.5 104q139 0 233 -52q10 -4 10 -19v-67q0 -4 -5 -9l-19 -16q-3 -3 -8.5 7t-18 27t-33 33.5t-63 29t-99.5 12.5q-126 0 -197 -83.5t-71 -210.5q0 -146 88 -234t219 -88q55 0 105 16.5t79 36.5q16 12 25.5 6.5t0.5 -22.5z" />
    <glyph glyph-name="Egrave" unicode="&#xc8;" horiz-adv-x="537" 
d="M203 646v-239h231q21 0 13 -15l-14 -25q-8 -14 -32 -14h-198v-206q0 -59 13 -76t48 -17h88q35 0 61.5 13t37.5 28t19.5 27t12.5 11l25 -8q6 -1 6 -9v-91q0 -25 -46 -25h-309q-15 0 -22 1t-15.5 7t-12 21t-3.5 40v525q0 28 -15 42t-48 19q-13 3 -17.5 6t-1.5 11l8 17
q5 11 17 11h391q14 0 22.5 -7t6.5 -18v-73q0 -4 -5 -9l-18 -15q-5 -4 -12.5 5.5t-16.5 24t-27 26.5t-41 12h-146zM123 888q-2 15 7.5 26.5t28.5 11.5q11 0 29 -10.5t28 -23.5l106 -105q9 -9 8 -13q-4 -13 -18 -18q-3 -1 -14 6l-129 80q-43 26 -46 46z" />
    <glyph glyph-name="Eacute" unicode="&#xc9;" horiz-adv-x="537" 
d="M203 646v-239h231q21 0 13 -15l-14 -25q-8 -14 -32 -14h-198v-206q0 -59 13 -76t48 -17h88q35 0 61.5 13t37.5 28t19.5 27t12.5 11l25 -8q6 -1 6 -9v-91q0 -25 -46 -25h-309q-15 0 -22 1t-15.5 7t-12 21t-3.5 40v525q0 28 -15 42t-48 19q-13 3 -17.5 6t-1.5 11l8 17
q5 11 17 11h391q14 0 22.5 -7t6.5 -18v-73q0 -4 -5 -9l-18 -15q-5 -4 -12.5 5.5t-16.5 24t-27 26.5t-41 12h-146zM370 842l-124 -77q-16 -9 -20 -9q-5 0 -11 8q-7 9 -7 13q3 5 15 17l100 98q36 34 62 34q9 0 18.5 -11t9.5 -22q0 -25 -43 -51z" />
    <glyph glyph-name="Ecircumflex" unicode="&#xca;" horiz-adv-x="537" 
d="M203 646v-239h231q21 0 13 -15l-14 -25q-8 -14 -32 -14h-198v-206q0 -59 13 -76t48 -17h88q35 0 61.5 13t37.5 28t19.5 27t12.5 11l25 -8q6 -1 6 -9v-91q0 -25 -46 -25h-309q-15 0 -22 1t-15.5 7t-12 21t-3.5 40v525q0 28 -15 42t-48 19q-13 3 -17.5 6t-1.5 11l8 17
q5 11 17 11h391q14 0 22.5 -7t6.5 -18v-73q0 -4 -5 -9l-18 -15q-5 -4 -12.5 5.5t-16.5 24t-27 26.5t-41 12h-146zM237 919h63l115 -150q8 -12 6 -15q-7 -3 -29 -1q-3 1 -6 3t-6.5 5t-5.5 4l-106 89l-105 -89q-2 -1 -5.5 -4t-6.5 -5t-6 -3q-22 -2 -29 1q-2 3 6 15z" />
    <glyph glyph-name="Edieresis" unicode="&#xcb;" horiz-adv-x="537" 
d="M203 646v-239h231q21 0 13 -15l-14 -25q-8 -14 -32 -14h-198v-206q0 -59 13 -76t48 -17h88q35 0 61.5 13t37.5 28t19.5 27t12.5 11l25 -8q6 -1 6 -9v-91q0 -25 -46 -25h-309q-15 0 -22 1t-15.5 7t-12 21t-3.5 40v525q0 28 -15 42t-48 19q-13 3 -17.5 6t-1.5 11l8 17
q5 11 17 11h391q14 0 22.5 -7t6.5 -18v-73q0 -4 -5 -9l-18 -15q-5 -4 -12.5 5.5t-16.5 24t-27 26.5t-41 12h-146zM168 863q21 0 36 -15.5t15 -35.5q0 -21 -15 -35.5t-36 -14.5q-20 0 -35 15t-15 35q0 19 15.5 35t34.5 16zM369 863q21 0 36 -15.5t15 -35.5q0 -21 -15 -35.5
t-36 -14.5q-20 0 -35 15t-15 35q0 19 15.5 35t34.5 16z" />
    <glyph glyph-name="Igrave" unicode="&#xcc;" horiz-adv-x="352" 
d="M127 98v504q0 28 -12.5 37.5t-51.5 17.5q-19 3 -11 18l8 18q5 7 17 7h210q19 0 13 -15l-6 -16q-3 -10 -19 -14q-51 -8 -51 -53v-504q0 -28 12.5 -37.5t51.5 -17.5q19 -3 11 -18l-8 -18q-5 -7 -17 -7h-210q-19 0 -13 15l6 16q3 10 19 14q51 8 51 53zM30 888
q-2 15 7.5 26.5t28.5 11.5q11 0 29 -10.5t28 -23.5l106 -105q9 -9 8 -13q-4 -13 -18 -18q-3 -1 -14 6l-129 80q-43 26 -46 46z" />
    <glyph glyph-name="Iacute" unicode="&#xcd;" horiz-adv-x="352" 
d="M127 98v504q0 28 -12.5 37.5t-51.5 17.5q-19 3 -11 18l8 18q5 7 17 7h210q19 0 13 -15l-6 -16q-3 -10 -19 -14q-51 -8 -51 -53v-504q0 -28 12.5 -37.5t51.5 -17.5q19 -3 11 -18l-8 -18q-5 -7 -17 -7h-210q-19 0 -13 15l6 16q3 10 19 14q51 8 51 53zM277 842l-124 -77
q-16 -9 -20 -9q-5 0 -11 8q-7 9 -7 13q3 5 15 17l100 98q36 34 62 34q9 0 18.5 -11t9.5 -22q0 -25 -43 -51z" />
    <glyph glyph-name="Icircumflex" unicode="&#xce;" horiz-adv-x="352" 
d="M127 98v504q0 28 -12.5 37.5t-51.5 17.5q-19 3 -11 18l8 18q5 7 17 7h210q19 0 13 -15l-6 -16q-3 -10 -19 -14q-51 -8 -51 -53v-504q0 -28 12.5 -37.5t51.5 -17.5q19 -3 11 -18l-8 -18q-5 -7 -17 -7h-210q-19 0 -13 15l6 16q3 10 19 14q51 8 51 53zM144 919h63l115 -150
q8 -12 6 -15q-7 -3 -29 -1q-3 1 -6 3t-6.5 5t-5.5 4l-106 89l-105 -89q-2 -1 -5.5 -4t-6.5 -5t-6 -3q-22 -2 -29 1q-2 3 6 15z" />
    <glyph glyph-name="Idieresis" unicode="&#xcf;" horiz-adv-x="352" 
d="M127 98v504q0 28 -12.5 37.5t-51.5 17.5q-19 3 -11 18l8 18q5 7 17 7h210q19 0 13 -15l-6 -16q-3 -10 -19 -14q-51 -8 -51 -53v-504q0 -28 12.5 -37.5t51.5 -17.5q19 -3 11 -18l-8 -18q-5 -7 -17 -7h-210q-19 0 -13 15l6 16q3 10 19 14q51 8 51 53zM75 863q21 0 36 -15.5
t15 -35.5q0 -21 -15 -35.5t-36 -14.5q-20 0 -35 15t-15 35q0 19 15.5 35t34.5 16zM276 863q21 0 36 -15.5t15 -35.5q0 -21 -15 -35.5t-36 -14.5q-20 0 -35 15t-15 35q0 19 15.5 35t34.5 16z" />
    <glyph glyph-name="Eth" unicode="&#xd0;" horiz-adv-x="778" 
d="M406 402v-54h-194v-196q0 -72 32 -91t113 -19q31 0 58 4t68 22.5t69.5 50.5t50 96t21.5 151q0 145 -71 212.5t-216 67.5h-125v-244h194zM115 65v283h-117v54h117v192q0 28 -15 42t-48 19q-13 3 -17.5 6t-1.5 11l8 17q5 11 17 11h287q110 0 187 -23.5t121 -69t63.5 -105
t19.5 -140.5q0 -47 -12.5 -95.5t-43 -99t-75.5 -90t-117.5 -64.5t-162.5 -25q-125 0 -183 20q-27 10 -27 57z" />
    <glyph glyph-name="Ntilde" unicode="&#xd1;" horiz-adv-x="796" 
d="M636 152v450q0 28 -12.5 37.5t-51.5 17.5q-19 3 -11 18l8 18q5 7 17 7h175q19 0 13 -15l-6 -16q-3 -10 -19 -14q-51 -8 -51 -53v-569q0 -33 -22 -33h-37q-5 0 -42 45l-405 497h-2v-444q0 -28 12.5 -37.5t51.5 -17.5q19 -3 11 -18l-8 -18q-5 -7 -17 -7h-175q-19 0 -13 15
l6 16q3 10 19 14q51 8 51 53v503q-42 45 -91 54q-24 5 -17 20l8 18q5 7 17 7h120q12 -1 23 -8.5t15 -11.5t18 -21l413 -507h2zM340 855q17 0 63 -22q6 -3 21 -11.5t26.5 -12.5t23.5 -4q24 0 41 17t24 35q16 5 26 -4q-2 -38 -33 -69.5t-72 -31.5q-40 0 -76 23q-36 24 -67 24
q-20 0 -38 -15q-12 -11 -21 -29q-17 -7 -24 8q7 38 34.5 65t71.5 27z" />
    <glyph glyph-name="Ograve" unicode="&#xd2;" horiz-adv-x="815" 
d="M390 -12q-59 0 -119 23t-110 65.5t-81.5 110.5t-31.5 149q0 154 103.5 265t273.5 111q147 0 244.5 -101t97.5 -247q0 -164 -108.5 -270t-268.5 -106zM416 42q60 0 108.5 28.5t77.5 74.5t44 99.5t15 108.5q0 140 -70.5 222.5t-186.5 82.5q-109 0 -179.5 -79t-70.5 -212
q0 -143 70 -234t192 -91zM262 888q-2 15 7.5 26.5t28.5 11.5q11 0 29 -10.5t28 -23.5l106 -105q9 -9 8 -13q-4 -13 -18 -18q-3 -1 -14 6l-129 80q-43 26 -46 46z" />
    <glyph glyph-name="Oacute" unicode="&#xd3;" horiz-adv-x="815" 
d="M390 -12q-59 0 -119 23t-110 65.5t-81.5 110.5t-31.5 149q0 154 103.5 265t273.5 111q147 0 244.5 -101t97.5 -247q0 -164 -108.5 -270t-268.5 -106zM416 42q60 0 108.5 28.5t77.5 74.5t44 99.5t15 108.5q0 140 -70.5 222.5t-186.5 82.5q-109 0 -179.5 -79t-70.5 -212
q0 -143 70 -234t192 -91zM509 842l-124 -77q-16 -9 -20 -9q-5 0 -11 8q-7 9 -7 13q3 5 15 17l100 98q36 34 62 34q9 0 18.5 -11t9.5 -22q0 -25 -43 -51z" />
    <glyph glyph-name="Ocircumflex" unicode="&#xd4;" horiz-adv-x="815" 
d="M390 -12q-59 0 -119 23t-110 65.5t-81.5 110.5t-31.5 149q0 154 103.5 265t273.5 111q147 0 244.5 -101t97.5 -247q0 -164 -108.5 -270t-268.5 -106zM416 42q60 0 108.5 28.5t77.5 74.5t44 99.5t15 108.5q0 140 -70.5 222.5t-186.5 82.5q-109 0 -179.5 -79t-70.5 -212
q0 -143 70 -234t192 -91zM376 919h63l115 -150q8 -12 6 -15q-7 -3 -29 -1q-3 1 -6 3t-6.5 5t-5.5 4l-106 89l-105 -89q-2 -1 -5.5 -4t-6.5 -5t-6 -3q-22 -2 -29 1q-2 3 6 15z" />
    <glyph glyph-name="Otilde" unicode="&#xd5;" horiz-adv-x="815" 
d="M390 -12q-59 0 -119 23t-110 65.5t-81.5 110.5t-31.5 149q0 154 103.5 265t273.5 111q147 0 244.5 -101t97.5 -247q0 -164 -108.5 -270t-268.5 -106zM416 42q60 0 108.5 28.5t77.5 74.5t44 99.5t15 108.5q0 140 -70.5 222.5t-186.5 82.5q-109 0 -179.5 -79t-70.5 -212
q0 -143 70 -234t192 -91zM349 855q17 0 63 -22q6 -3 21 -11.5t26.5 -12.5t23.5 -4q24 0 41 17t24 35q16 5 26 -4q-2 -38 -33 -69.5t-72 -31.5q-40 0 -76 23q-36 24 -67 24q-20 0 -38 -15q-12 -11 -21 -29q-17 -7 -24 8q7 38 34.5 65t71.5 27z" />
    <glyph glyph-name="Odieresis" unicode="&#xd6;" horiz-adv-x="815" 
d="M390 -12q-59 0 -119 23t-110 65.5t-81.5 110.5t-31.5 149q0 154 103.5 265t273.5 111q147 0 244.5 -101t97.5 -247q0 -164 -108.5 -270t-268.5 -106zM416 42q60 0 108.5 28.5t77.5 74.5t44 99.5t15 108.5q0 140 -70.5 222.5t-186.5 82.5q-109 0 -179.5 -79t-70.5 -212
q0 -143 70 -234t192 -91zM307 863q21 0 36 -15.5t15 -35.5q0 -21 -15 -35.5t-36 -14.5q-20 0 -35 15t-15 35q0 19 15.5 35t34.5 16zM508 863q21 0 36 -15.5t15 -35.5q0 -21 -15 -35.5t-36 -14.5q-20 0 -35 15t-15 35q0 19 15.5 35t34.5 16z" />
    <glyph glyph-name="multiply" unicode="&#xd7;" 
d="M239 254l-168 169l46 46l168 -169l172 169l46 -46l-170 -169l170 -171l-46 -46l-172 170l-168 -170l-46 46z" />
    <glyph glyph-name="Oslash" unicode="&#xd8;" horiz-adv-x="815" 
d="M627 651l71 81l44 -30l-75 -86q96 -99 100 -252q0 -164 -108.5 -270t-268.5 -106q-52 0 -112 19.5t-95 49.5l-3 3l-88 -100l-40 32l91 104q-95 98 -95 240q0 154 103.5 265t273.5 111q108 0 202 -61zM204 165l373 428q-65 65 -185 65q-101 0 -169.5 -79.5t-68.5 -211.5
q0 -52 8.5 -94.5t17.5 -61.5t24 -46zM611 551l-377 -430q63 -79 182 -79q60 0 108.5 28.5t77.5 74.5t44 99.5t15 108.5q0 49 -7.5 86.5t-16 57.5t-26.5 54z" />
    <glyph glyph-name="Ugrave" unicode="&#xd9;" horiz-adv-x="722" 
d="M203 602v-332q0 -54 15 -100t54.5 -80t98.5 -34q97 0 141 52.5t44 159.5v334q0 28 -12.5 37.5t-51.5 17.5q-19 3 -11 18l8 18q5 7 17 7h175q19 0 13 -15l-6 -16q-3 -10 -19 -14q-51 -8 -51 -53v-332q0 -148 -70.5 -215t-178.5 -67q-263 0 -263 279v335q0 28 -12.5 37.5
t-51.5 17.5q-19 3 -11 18l8 18q5 7 17 7h210q19 0 13 -15l-6 -16q-3 -10 -19 -14q-51 -8 -51 -53zM235 888q-2 15 7.5 26.5t28.5 11.5q11 0 29 -10.5t28 -23.5l106 -105q9 -9 8 -13q-4 -13 -18 -18q-3 -1 -14 6l-129 80q-43 26 -46 46z" />
    <glyph glyph-name="Uacute" unicode="&#xda;" horiz-adv-x="722" 
d="M203 602v-332q0 -54 15 -100t54.5 -80t98.5 -34q97 0 141 52.5t44 159.5v334q0 28 -12.5 37.5t-51.5 17.5q-19 3 -11 18l8 18q5 7 17 7h175q19 0 13 -15l-6 -16q-3 -10 -19 -14q-51 -8 -51 -53v-332q0 -148 -70.5 -215t-178.5 -67q-263 0 -263 279v335q0 28 -12.5 37.5
t-51.5 17.5q-19 3 -11 18l8 18q5 7 17 7h210q19 0 13 -15l-6 -16q-3 -10 -19 -14q-51 -8 -51 -53zM462 842l-124 -77q-16 -9 -20 -9q-5 0 -11 8q-7 9 -7 13q3 5 15 17l100 98q36 34 62 34q9 0 18.5 -11t9.5 -22q0 -25 -43 -51z" />
    <glyph glyph-name="Ucircumflex" unicode="&#xdb;" horiz-adv-x="722" 
d="M203 602v-332q0 -54 15 -100t54.5 -80t98.5 -34q97 0 141 52.5t44 159.5v334q0 28 -12.5 37.5t-51.5 17.5q-19 3 -11 18l8 18q5 7 17 7h175q19 0 13 -15l-6 -16q-3 -10 -19 -14q-51 -8 -51 -53v-332q0 -148 -70.5 -215t-178.5 -67q-263 0 -263 279v335q0 28 -12.5 37.5
t-51.5 17.5q-19 3 -11 18l8 18q5 7 17 7h210q19 0 13 -15l-6 -16q-3 -10 -19 -14q-51 -8 -51 -53zM329 919h63l115 -150q8 -12 6 -15q-7 -3 -29 -1l-18 12l-106 89l-105 -89q-2 -1 -5.5 -4t-6.5 -5t-6 -3q-22 -2 -29 1q-2 3 6 15z" />
    <glyph glyph-name="Udieresis" unicode="&#xdc;" horiz-adv-x="722" 
d="M203 602v-332q0 -54 15 -100t54.5 -80t98.5 -34q97 0 141 52.5t44 159.5v334q0 28 -12.5 37.5t-51.5 17.5q-19 3 -11 18l8 18q5 7 17 7h175q19 0 13 -15l-6 -16q-3 -10 -19 -14q-51 -8 -51 -53v-332q0 -148 -70.5 -215t-178.5 -67q-263 0 -263 279v335q0 28 -12.5 37.5
t-51.5 17.5q-19 3 -11 18l8 18q5 7 17 7h210q19 0 13 -15l-6 -16q-3 -10 -19 -14q-51 -8 -51 -53zM260 863q21 0 36 -15.5t15 -35.5q0 -21 -15 -35.5t-36 -14.5q-20 0 -35 15t-15 35q0 19 15.5 35t34.5 16zM461 863q21 0 36 -15.5t15 -35.5q0 -21 -15 -35.5t-36 -14.5
q-20 0 -35 15t-15 35q0 19 15.5 35t34.5 16z" />
    <glyph glyph-name="Yacute" unicode="&#xdd;" horiz-adv-x="611" 
d="M14 673l9 19q3 8 17 8h183q15 0 11 -12l-8 -20q-2 -5 -14 -11.5t-18 -11.5q-18 -16 -8 -46l121 -259l143 263q10 13 7.5 23.5t-6.5 15t-14 10.5q-4 3 -10 6t-8.5 4t-6 4t-3 4.5t1.5 5.5l8 15q5 7 11 7h155q14 0 10 -13l-5 -16q-1 -4 -6 -7.5t-13.5 -7t-9.5 -3.5
q-32 -12 -56 -56l-151 -275q-4 -8 -7 -15.5t-5 -15.5t-3 -13t-1.5 -13.5t-0.5 -12.5v-13.5v-12.5v-126q0 -28 12.5 -37.5t51.5 -17.5q19 -3 11 -18l-8 -18q-5 -7 -17 -7h-210q-19 0 -13 15l6 16q3 10 19 14q51 8 51 53v181l-153 316q-4 9 -8.5 16.5l-7.5 12.5t-7 9t-6 6.5
t-6.5 5t-5.5 3t-6.5 3t-6.5 3.5q-23 8 -19 19zM407 842l-124 -77q-16 -9 -20 -9q-5 0 -11 8q-7 9 -7 13q3 5 15 17l100 98q36 34 62 34q9 0 18.5 -11t9.5 -22q0 -25 -43 -51z" />
    <glyph glyph-name="Thorn" unicode="&#xde;" horiz-adv-x="556" 
d="M125 98v504q0 28 -12.5 37.5t-51.5 17.5q-19 3 -11 18l8 18q5 7 17 7h210q19 0 13 -15l-6 -16q-3 -10 -19 -14q-51 -8 -51 -53v-48h80q56 0 97.5 -12t64.5 -29t37 -41.5t18 -44t4 -41.5q0 -77 -58.5 -132t-155.5 -55h-87v-101q0 -28 12.5 -37.5t51.5 -17.5q19 -3 11 -18
l-8 -18q-5 -7 -17 -7h-210q-19 0 -13 15l6 16q3 10 19 14q51 8 51 53zM222 500v-247h76q52 0 88.5 30t36.5 98q0 63 -35 91t-109 28h-57z" />
    <glyph glyph-name="germandbls" unicode="&#xdf;" horiz-adv-x="665" 
d="M205 566v-469q0 -28 12.5 -37.5t51.5 -17.5q18 -3 11 -17l-8 -18q-5 -7 -17 -7h-203q-19 0 -13 15l6 16q3 9 19 13q51 8 51 53v325h-58v27l58 21v88q0 67 55 124.5t152 57.5q83 0 131 -35.5t48 -97.5q0 -35 -16.5 -67.5t-35.5 -52.5t-35.5 -45t-16.5 -47q0 -23 37.5 -51
t82 -53t82 -69t37.5 -94q0 -57 -47 -98.5t-129 -41.5q-90 0 -140 33l-25 89q-3 11 5 17l24 19q12 10 16 2l35 -64q1 -1 9 -12.5t15.5 -19t24 -15t37.5 -7.5q37 0 63 23t26 64q0 28 -24 53.5t-58.5 46.5t-69.5 42.5t-59 52t-24 65.5q0 32 18 63t39 52t39 51t18 60
q0 42 -33 63t-77 21q-47 0 -80.5 -27.5t-33.5 -93.5z" />
    <glyph glyph-name="agrave" unicode="&#xe0;" horiz-adv-x="605" 
d="M307 469q-79 0 -126 -70.5t-47 -160.5q0 -83 31 -137t84 -54q61 0 114.5 73.5t53.5 179.5q0 31 -2 53t-8.5 45.5t-18 38t-32 23.5t-49.5 9zM507 401v-296q0 -39 28 -52q6 -3 18 -5.5t17 -5.5t3 -9l-8 -24q-4 -9 -23 -9h-97q-15 -1 -21.5 7t-6.5 24v98h-2
q-24 -63 -76.5 -102t-109.5 -39q-86 0 -138.5 68.5t-52.5 163.5q0 119 80 205.5t194 86.5q67 0 140 -27q20 -8 28.5 -12.5t17.5 -23t9 -48.5zM157 708q-2 15 7.5 26.5t28.5 11.5q11 0 29 -10.5t28 -23.5l106 -105q9 -9 8 -13q-4 -13 -18 -18q-3 -1 -14 6l-129 80
q-43 26 -46 46z" />
    <glyph glyph-name="aacute" unicode="&#xe1;" horiz-adv-x="605" 
d="M307 469q-79 0 -126 -70.5t-47 -160.5q0 -83 31 -137t84 -54q61 0 114.5 73.5t53.5 179.5q0 31 -2 53t-8.5 45.5t-18 38t-32 23.5t-49.5 9zM507 401v-296q0 -39 28 -52q6 -3 18 -5.5t17 -5.5t3 -9l-8 -24q-4 -9 -23 -9h-97q-15 -1 -21.5 7t-6.5 24v98h-2
q-24 -63 -76.5 -102t-109.5 -39q-86 0 -138.5 68.5t-52.5 163.5q0 119 80 205.5t194 86.5q67 0 140 -27q20 -8 28.5 -12.5t17.5 -23t9 -48.5zM404 662l-124 -77q-16 -9 -20 -9q-5 0 -11 8q-7 9 -7 13q3 5 15 17l100 98q36 34 62 34q9 0 18.5 -11t9.5 -22q0 -25 -43 -51z" />
    <glyph glyph-name="acircumflex" unicode="&#xe2;" horiz-adv-x="605" 
d="M307 469q-79 0 -126 -70.5t-47 -160.5q0 -83 31 -137t84 -54q61 0 114.5 73.5t53.5 179.5q0 31 -2 53t-8.5 45.5t-18 38t-32 23.5t-49.5 9zM507 401v-296q0 -39 28 -52q6 -3 18 -5.5t17 -5.5t3 -9l-8 -24q-4 -9 -23 -9h-97q-15 -1 -21.5 7t-6.5 24v98h-2
q-24 -63 -76.5 -102t-109.5 -39q-86 0 -138.5 68.5t-52.5 163.5q0 119 80 205.5t194 86.5q67 0 140 -27q20 -8 28.5 -12.5t17.5 -23t9 -48.5zM271 739h63l115 -150q8 -12 6 -15q-7 -3 -29 -1q-3 1 -6 3t-6.5 5t-5.5 4l-106 89l-105 -89q-2 -1 -5.5 -4t-6.5 -5t-6 -3
q-22 -2 -29 1q-2 3 6 15z" />
    <glyph glyph-name="atilde" unicode="&#xe3;" horiz-adv-x="605" 
d="M307 469q-79 0 -126 -70.5t-47 -160.5q0 -83 31 -137t84 -54q61 0 114.5 73.5t53.5 179.5q0 31 -2 53t-8.5 45.5t-18 38t-32 23.5t-49.5 9zM507 401v-296q0 -39 28 -52q6 -3 18 -5.5t17 -5.5t3 -9l-8 -24q-4 -9 -23 -9h-97q-15 -1 -21.5 7t-6.5 24v98h-2
q-24 -63 -76.5 -102t-109.5 -39q-86 0 -138.5 68.5t-52.5 163.5q0 119 80 205.5t194 86.5q67 0 140 -27q20 -8 28.5 -12.5t17.5 -23t9 -48.5zM244 675q17 0 63 -22q6 -3 21 -11.5t26.5 -12.5t23.5 -4q24 0 41 17t24 35q16 5 26 -4q-2 -38 -33 -69.5t-72 -31.5q-40 0 -76 23
q-36 24 -67 24q-20 0 -38 -15q-12 -11 -21 -29q-17 -7 -24 8q7 38 34.5 65t71.5 27z" />
    <glyph glyph-name="adieresis" unicode="&#xe4;" horiz-adv-x="605" 
d="M307 469q-79 0 -126 -70.5t-47 -160.5q0 -83 31 -137t84 -54q61 0 114.5 73.5t53.5 179.5q0 31 -2 53t-8.5 45.5t-18 38t-32 23.5t-49.5 9zM507 401v-296q0 -39 28 -52q6 -3 18 -5.5t17 -5.5t3 -9l-8 -24q-4 -9 -23 -9h-97q-15 -1 -21.5 7t-6.5 24v98h-2
q-24 -63 -76.5 -102t-109.5 -39q-86 0 -138.5 68.5t-52.5 163.5q0 119 80 205.5t194 86.5q67 0 140 -27q20 -8 28.5 -12.5t17.5 -23t9 -48.5zM202 683q21 0 36 -15.5t15 -35.5q0 -21 -15 -35.5t-36 -14.5q-20 0 -35 15t-15 35q0 19 15.5 35t34.5 16zM403 683q21 0 36 -15.5
t15 -35.5q0 -21 -15 -35.5t-36 -14.5q-20 0 -35 15t-15 35q0 19 15.5 35t34.5 16z" />
    <glyph glyph-name="aring" unicode="&#xe5;" horiz-adv-x="605" 
d="M307 469q-79 0 -126 -70.5t-47 -160.5q0 -83 31 -137t84 -54q61 0 114.5 73.5t53.5 179.5q0 31 -2 53t-8.5 45.5t-18 38t-32 23.5t-49.5 9zM507 401v-296q0 -39 28 -52q6 -3 18 -5.5t17 -5.5t3 -9l-8 -24q-4 -9 -23 -9h-97q-15 -1 -21.5 7t-6.5 24v98h-2
q-24 -63 -76.5 -102t-109.5 -39q-86 0 -138.5 68.5t-52.5 163.5q0 119 80 205.5t194 86.5q67 0 140 -27q20 -8 28.5 -12.5t17.5 -23t9 -48.5zM303 722q-24 0 -42.5 -18.5t-18.5 -42.5t18.5 -42t42.5 -18t42 18.5t18 41.5q0 24 -18 42.5t-42 18.5zM303 562q-41 0 -70.5 29.5
t-29.5 69.5t30 70t70 30t69.5 -29.5t29.5 -70.5t-29 -70t-70 -29z" />
    <glyph glyph-name="ae" unicode="&#xe6;" horiz-adv-x="783" 
d="M417 293h193q48 0 48 44q0 67 -31 98.5t-75 31.5q-61 0 -98 -51.5t-37 -122.5zM319 216v78q-35 -13 -54.5 -21t-49.5 -24t-46 -30.5t-28.5 -36.5t-12.5 -47q0 -36 21.5 -60.5t55.5 -24.5q47 0 80.5 38t33.5 128zM115 382l-34 8q-9 3 -8 13l15 53q8 24 29 31q64 25 124 25
q115 0 149 -70q64 70 164 70q90 0 140.5 -62t50.5 -164q0 -15 -6.5 -27.5t-16.5 -12.5h-305q0 -81 42.5 -140.5t118.5 -59.5q64 0 120 46q6 5 16 -2.5t7 -13.5l-27 -50q-10 -17 -19 -21q-37 -17 -108 -17q-65 0 -130 38t-85 76q-63 -114 -166 -114q-68 0 -108 37.5t-40 93.5
q0 66 36.5 100.5t129.5 76.5l112 50q5 121 -82 121q-13 0 -23.5 -2t-20 -8t-16 -10.5t-14 -14t-11 -14t-11.5 -17t-10 -15.5q-3 -6 -13 -4z" />
    <glyph glyph-name="ccedilla" unicode="&#xe7;" horiz-adv-x="463" 
d="M441 473v-69q0 -2 -4 -10l-18 -14q-3 -2 -7.5 4t-13 22t-11.5 21q-24 41 -92 41q-76 0 -118.5 -61.5t-42.5 -150.5q0 -85 46 -147.5t124 -62.5q65 0 121 46q4 3 14.5 -4.5t8.5 -11.5l-27 -50q-10 -17 -20 -21q-36 -17 -107 -17q-26 0 -46 4l-24 -57q13 3 29 3
q35 0 59 -17.5t24 -51.5q0 -38 -39 -61t-90 -23q-37 0 -70 13q-7 19 10 32q23 -10 55 -10q58 0 58 42q0 36 -36 38q-16 2 -45 -4l-7 5l43 99q-84 23 -130.5 91.5t-46.5 158.5q0 116 72 189t188 73q68 0 116 -10q30 -8 27 -29z" />
    <glyph glyph-name="egrave" unicode="&#xe8;" horiz-adv-x="500" 
d="M439 246h-305q0 -81 42.5 -140.5t118.5 -59.5q64 0 120 46q6 5 16 -2.5t7 -13.5l-27 -50q-10 -17 -19 -21q-37 -17 -108 -17q-110 0 -178 74.5t-68 178.5q0 125 66 198t167 73q90 0 140.5 -62t50.5 -164q0 -15 -6.5 -27.5t-16.5 -12.5zM134 293h193q48 0 48 44
q0 67 -31 98.5t-75 31.5q-61 0 -98 -51.5t-37 -122.5zM104 708q-2 15 7.5 26.5t28.5 11.5q11 0 29 -10.5t28 -23.5l106 -105q9 -9 8 -13q-4 -13 -18 -18q-3 -1 -14 6l-129 80q-43 26 -46 46z" />
    <glyph glyph-name="eacute" unicode="&#xe9;" horiz-adv-x="500" 
d="M439 246h-305q0 -81 42.5 -140.5t118.5 -59.5q64 0 120 46q6 5 16 -2.5t7 -13.5l-27 -50q-10 -17 -19 -21q-37 -17 -108 -17q-110 0 -178 74.5t-68 178.5q0 125 66 198t167 73q90 0 140.5 -62t50.5 -164q0 -15 -6.5 -27.5t-16.5 -12.5zM134 293h193q48 0 48 44
q0 67 -31 98.5t-75 31.5q-61 0 -98 -51.5t-37 -122.5zM351 662l-124 -77q-16 -9 -20 -9q-5 0 -11 8q-7 9 -7 13q3 5 15 17l100 98q36 34 62 34q9 0 18.5 -11t9.5 -22q0 -25 -43 -51z" />
    <glyph glyph-name="ecircumflex" unicode="&#xea;" horiz-adv-x="500" 
d="M439 246h-305q0 -81 42.5 -140.5t118.5 -59.5q64 0 120 46q6 5 16 -2.5t7 -13.5l-27 -50q-10 -17 -19 -21q-37 -17 -108 -17q-110 0 -178 74.5t-68 178.5q0 125 66 198t167 73q90 0 140.5 -62t50.5 -164q0 -15 -6.5 -27.5t-16.5 -12.5zM134 293h193q48 0 48 44
q0 67 -31 98.5t-75 31.5q-61 0 -98 -51.5t-37 -122.5zM218 739h63l115 -150q8 -12 6 -15q-7 -3 -29 -1l-18 12l-106 89l-105 -89l-7 -5q-7 -5 -11 -7q-22 -2 -29 1q-2 3 6 15z" />
    <glyph glyph-name="edieresis" unicode="&#xeb;" horiz-adv-x="500" 
d="M439 246h-305q0 -81 42.5 -140.5t118.5 -59.5q64 0 120 46q6 5 16 -2.5t7 -13.5l-27 -50q-10 -17 -19 -21q-37 -17 -108 -17q-110 0 -178 74.5t-68 178.5q0 125 66 198t167 73q90 0 140.5 -62t50.5 -164q0 -15 -6.5 -27.5t-16.5 -12.5zM134 293h193q48 0 48 44
q0 67 -31 98.5t-75 31.5q-61 0 -98 -51.5t-37 -122.5zM149 683q21 0 36 -15.5t15 -35.5q0 -21 -15 -35.5t-36 -14.5q-20 0 -35 15t-15 35q0 19 15.5 35t34.5 16zM350 683q21 0 36 -15.5t15 -35.5q0 -21 -15 -35.5t-36 -14.5q-20 0 -35 15t-15 35q0 19 15.5 35t34.5 16z" />
    <glyph glyph-name="igrave" unicode="&#xec;" horiz-adv-x="308" 
d="M109 98v304q0 28 -12 37.5t-49 16.5q-20 6 -14 19l9 18q3 7 15 7h141v-402q0 -28 12.5 -37.5t51.5 -17.5q19 -3 11 -18l-8 -18q-5 -7 -17 -7h-203q-19 0 -13 15l6 16q3 10 19 14q51 8 51 53zM8 708q-2 15 7.5 26.5t28.5 11.5q11 0 29 -10.5t28 -23.5l106 -105q9 -9 8 -13
q-4 -13 -18 -18q-3 -1 -14 6l-129 80q-43 26 -46 46z" />
    <glyph glyph-name="iacute" unicode="&#xed;" horiz-adv-x="308" 
d="M109 98v304q0 28 -12 37.5t-49 16.5q-20 6 -14 19l9 18q3 7 15 7h141v-402q0 -28 12.5 -37.5t51.5 -17.5q19 -3 11 -18l-8 -18q-5 -7 -17 -7h-203q-19 0 -13 15l6 16q3 10 19 14q51 8 51 53zM255 662l-124 -77q-16 -9 -20 -9q-5 0 -11 8q-7 9 -7 13q3 5 15 17l100 98
q36 34 62 34q9 0 18.5 -11t9.5 -22q0 -25 -43 -51z" />
    <glyph glyph-name="icircumflex" unicode="&#xee;" horiz-adv-x="308" 
d="M109 98v304q0 28 -12 37.5t-49 16.5q-20 6 -14 19l9 18q3 7 15 7h141v-402q0 -28 12.5 -37.5t51.5 -17.5q19 -3 11 -18l-8 -18q-5 -7 -17 -7h-203q-19 0 -13 15l6 16q3 10 19 14q51 8 51 53zM122 739h63l115 -150q8 -12 6 -15q-7 -3 -29 -1q-3 1 -6 3t-6.5 5t-5.5 4
l-106 89l-105 -89q-2 -1 -5.5 -4t-6.5 -5t-6 -3q-22 -2 -29 1q-2 3 6 15z" />
    <glyph glyph-name="idieresis" unicode="&#xef;" horiz-adv-x="308" 
d="M109 98v304q0 28 -12 37.5t-49 16.5q-20 6 -14 19l9 18q3 7 15 7h141v-402q0 -28 12.5 -37.5t51.5 -17.5q19 -3 11 -18l-8 -18q-5 -7 -17 -7h-203q-19 0 -13 15l6 16q3 10 19 14q51 8 51 53zM53 683q21 0 36 -15.5t15 -35.5q0 -21 -15 -35.5t-36 -14.5q-20 0 -35 15
t-15 35q0 19 15.5 35t34.5 16zM254 683q21 0 36 -15.5t15 -35.5q0 -21 -15 -35.5t-36 -14.5q-20 0 -35 15t-15 35q0 19 15.5 35t34.5 16z" />
    <glyph glyph-name="eth" unicode="&#xf0;" horiz-adv-x="573" 
d="M290 35q54 0 88 30t47.5 75.5t13.5 106.5q0 97 -42 157.5t-110 60.5q-69 0 -111 -53.5t-42 -132.5q0 -114 47 -179t109 -65zM491 673l-121 -46q165 -149 165 -355q0 -126 -74.5 -205t-186.5 -79q-108 0 -172 77t-64 175q0 139 98.5 217.5t229.5 42.5q-34 56 -78 96
l-132 -50l-45 41l129 49q-36 26 -78 46q-15 7 -15 17t23.5 20.5t41.5 10.5q13 0 20 -4q51 -29 90 -59l124 47z" />
    <glyph glyph-name="ntilde" unicode="&#xf1;" horiz-adv-x="649" 
d="M199 480v-81h2q65 113 194 113q145 0 145 -171v-243q0 -28 12.5 -37.5t51.5 -17.5q19 -3 11 -18l-8 -18q-5 -7 -17 -7h-202q-19 0 -13 15l6 16q3 10 19 14q21 3 35.5 16.5t14.5 36.5v189q0 88 -20 124.5t-74 36.5q-68 0 -112.5 -68t-44.5 -216v-66q0 -28 12.5 -37.5
t50.5 -17.5q19 -3 11 -18l-8 -18q-5 -7 -17 -7h-202q-19 0 -13 15l6 16q3 10 19 14q51 8 51 53v304q0 28 -12 37.5t-49 16.5q-20 6 -14 19l9 18q3 7 15 7h117q8 0 11.5 -0.5t8 -5t4.5 -14.5zM266 675q17 0 63 -22q6 -3 21 -11.5t26.5 -12.5t23.5 -4q24 0 41 17t24 35
q16 5 26 -4q-2 -38 -33 -69.5t-72 -31.5q-40 0 -76 23q-36 24 -67 24q-20 0 -38 -15q-12 -11 -21 -29q-17 -7 -24 8q7 38 34.5 65t71.5 27z" />
    <glyph glyph-name="ograve" unicode="&#xf2;" horiz-adv-x="573" 
d="M299 512q104 0 170 -73t66 -179q0 -118 -75 -195t-186 -77q-108 0 -172 77t-64 175q0 130 78 201t183 71zM287 465q-69 0 -111 -53.5t-42 -132.5q0 -114 47 -179t109 -65q54 0 88 30t47.5 75.5t13.5 106.5q0 97 -42 157.5t-110 60.5zM141 708q-2 15 7.5 26.5t28.5 11.5
q11 0 29 -10.5t28 -23.5l106 -105q9 -9 8 -13q-4 -13 -18 -18q-3 -1 -14 6l-129 80q-43 26 -46 46z" />
    <glyph glyph-name="oacute" unicode="&#xf3;" horiz-adv-x="573" 
d="M299 512q104 0 170 -73t66 -179q0 -118 -75 -195t-186 -77q-108 0 -172 77t-64 175q0 130 78 201t183 71zM287 465q-69 0 -111 -53.5t-42 -132.5q0 -114 47 -179t109 -65q54 0 88 30t47.5 75.5t13.5 106.5q0 97 -42 157.5t-110 60.5zM388 662l-124 -77q-16 -9 -20 -9
q-5 0 -11 8q-7 9 -7 13q3 5 15 17l100 98q36 34 62 34q9 0 18.5 -11t9.5 -22q0 -25 -43 -51z" />
    <glyph glyph-name="ocircumflex" unicode="&#xf4;" horiz-adv-x="573" 
d="M299 512q104 0 170 -73t66 -179q0 -118 -75 -195t-186 -77q-108 0 -172 77t-64 175q0 130 78 201t183 71zM287 465q-69 0 -111 -53.5t-42 -132.5q0 -114 47 -179t109 -65q54 0 88 30t47.5 75.5t13.5 106.5q0 97 -42 157.5t-110 60.5zM255 739h63l115 -150q8 -12 6 -15
q-7 -3 -29 -1q-3 1 -6 3t-6.5 5t-5.5 4l-106 89l-105 -89q-2 -1 -5.5 -4t-6.5 -5t-6 -3q-22 -2 -29 1q-2 3 6 15z" />
    <glyph glyph-name="otilde" unicode="&#xf5;" horiz-adv-x="573" 
d="M299 512q104 0 170 -73t66 -179q0 -118 -75 -195t-186 -77q-108 0 -172 77t-64 175q0 130 78 201t183 71zM287 465q-69 0 -111 -53.5t-42 -132.5q0 -114 47 -179t109 -65q54 0 88 30t47.5 75.5t13.5 106.5q0 97 -42 157.5t-110 60.5zM228 675q17 0 63 -22q6 -3 21 -11.5
t26.5 -12.5t23.5 -4q24 0 41 17t24 35q16 5 26 -4q-2 -38 -33 -69.5t-72 -31.5q-40 0 -76 23q-36 24 -67 24q-20 0 -38 -15q-12 -11 -21 -29q-17 -7 -24 8q7 38 34.5 65t71.5 27z" />
    <glyph glyph-name="odieresis" unicode="&#xf6;" horiz-adv-x="573" 
d="M299 512q104 0 170 -73t66 -179q0 -118 -75 -195t-186 -77q-108 0 -172 77t-64 175q0 130 78 201t183 71zM287 465q-69 0 -111 -53.5t-42 -132.5q0 -114 47 -179t109 -65q54 0 88 30t47.5 75.5t13.5 106.5q0 97 -42 157.5t-110 60.5zM186 683q21 0 36 -15.5t15 -35.5
q0 -21 -15 -35.5t-36 -14.5q-20 0 -35 15t-15 35q0 19 15.5 35t34.5 16zM387 683q21 0 36 -15.5t15 -35.5q0 -21 -15 -35.5t-36 -14.5q-20 0 -35 15t-15 35q0 19 15.5 35t34.5 16z" />
    <glyph glyph-name="divide" unicode="&#xf7;" 
d="M539 220h-504v66h504v-66zM223 424q0 26 19 45t45 19q25 0 44.5 -19t19.5 -45q0 -25 -19 -44.5t-44 -19.5q-26 0 -45.5 19t-19.5 45zM223 82q0 26 19 45t45 19q25 0 44.5 -19t19.5 -45q0 -25 -19 -44.5t-44 -19.5q-26 0 -45.5 19t-19.5 45z" />
    <glyph glyph-name="oslash" unicode="&#xf8;" horiz-adv-x="573" 
d="M418 366l-237 -264q45 -67 109 -67q54 0 88 30t47.5 75.5t13.5 106.5q0 66 -21 119zM446 460l60 66l32 -26l-63 -70q60 -69 60 -170q0 -118 -75 -195t-186 -77q-86 0 -147 53l-69 -77l-30 29l70 78q-60 72 -60 169q0 130 78 201t183 71q87 0 147 -52zM160 140l237 265
q-43 60 -110 60q-69 0 -111 -53.5t-42 -132.5q0 -80 26 -139z" />
    <glyph glyph-name="ugrave" unicode="&#xf9;" horiz-adv-x="630" 
d="M433 79l-39 -30q-82 -61 -140 -61q-152 0 -152 171v243q0 28 -12 37.5t-49 16.5q-20 6 -14 19l9 18q3 7 15 7h116q25 0 25 -33v-254q0 -88 20 -125t75 -37q51 0 103 57q43 48 43 228v66q0 27 -12 37t-48 17q-20 6 -14 19l9 18q3 7 14 7h116q25 0 25 -33v-363
q0 -26 14 -40q6 -6 17.5 -10t21 -5t18.5 -4t10.5 -7.5t-2.5 -14.5l-6 -14q-4 -9 -30 -9h-109q-8 0 -11.5 0.5t-8 5t-4.5 14.5v59zM169 708q-2 15 7.5 26.5t28.5 11.5q11 0 29 -10.5t28 -23.5l106 -105q9 -9 8 -13q-4 -13 -18 -18q-3 -1 -14 6l-129 80q-43 26 -46 46z" />
    <glyph glyph-name="uacute" unicode="&#xfa;" horiz-adv-x="630" 
d="M433 79l-39 -30q-82 -61 -140 -61q-152 0 -152 171v243q0 28 -12 37.5t-49 16.5q-20 6 -14 19l9 18q3 7 15 7h116q25 0 25 -33v-254q0 -88 20 -125t75 -37q51 0 103 57q43 48 43 228v66q0 27 -12 37t-48 17q-20 6 -14 19l9 18q3 7 14 7h116q25 0 25 -33v-363
q0 -26 14 -40q6 -6 17.5 -10t21 -5t18.5 -4t10.5 -7.5t-2.5 -14.5l-6 -14q-4 -9 -30 -9h-109q-8 0 -11.5 0.5t-8 5t-4.5 14.5v59zM416 662l-124 -77q-16 -9 -20 -9q-5 0 -11 8q-7 9 -7 13q3 5 15 17l100 98q36 34 62 34q9 0 18.5 -11t9.5 -22q0 -25 -43 -51z" />
    <glyph glyph-name="ucircumflex" unicode="&#xfb;" horiz-adv-x="630" 
d="M433 79l-39 -30q-82 -61 -140 -61q-152 0 -152 171v243q0 28 -12 37.5t-49 16.5q-20 6 -14 19l9 18q3 7 15 7h116q25 0 25 -33v-254q0 -88 20 -125t75 -37q51 0 103 57q43 48 43 228v66q0 27 -12 37t-48 17q-20 6 -14 19l9 18q3 7 14 7h116q25 0 25 -33v-363
q0 -26 14 -40q6 -6 17.5 -10t21 -5t18.5 -4t10.5 -7.5t-2.5 -14.5l-6 -14q-4 -9 -30 -9h-109q-8 0 -11.5 0.5t-8 5t-4.5 14.5v59zM283 739h63l115 -150q8 -12 6 -15q-7 -3 -29 -1q-3 1 -6 3t-6.5 5t-5.5 4l-106 89l-105 -89q-2 -1 -5.5 -4t-6.5 -5t-6 -3q-22 -2 -29 1
q-2 3 6 15z" />
    <glyph glyph-name="udieresis" unicode="&#xfc;" horiz-adv-x="630" 
d="M433 79l-39 -30q-82 -61 -140 -61q-152 0 -152 171v243q0 28 -12 37.5t-49 16.5q-20 6 -14 19l9 18q3 7 15 7h116q25 0 25 -33v-254q0 -88 20 -125t75 -37q51 0 103 57q43 48 43 228v66q0 27 -12 37t-48 17q-20 6 -14 19l9 18q3 7 14 7h116q25 0 25 -33v-363
q0 -26 14 -40q6 -6 17.5 -10t21 -5t18.5 -4t10.5 -7.5t-2.5 -14.5l-6 -14q-4 -9 -30 -9h-109q-8 0 -11.5 0.5t-8 5t-4.5 14.5v59zM214 683q21 0 36 -15.5t15 -35.5q0 -21 -15 -35.5t-36 -14.5q-20 0 -35 15t-15 35q0 19 15.5 35t34.5 16zM415 683q21 0 36 -15.5t15 -35.5
q0 -21 -15 -35.5t-36 -14.5q-20 0 -35 15t-15 35q0 19 15.5 35t34.5 16z" />
    <glyph glyph-name="yacute" unicode="&#xfd;" horiz-adv-x="550" 
d="M48 -236l-12 27q-3 7 0 10t13 5q1 1 1.5 1h1.5l48 11q16 4 36.5 24.5t38.5 61.5l53 120l-158 370q-20 46 -44 55q-22 9 -22 14q0 2 1 4l9 22q4 11 19 11h189q21 0 15 -15l-8 -19q-3 -6 -24.5 -12.5t-36 -18.5t-5.5 -34l113 -281l135 286q8 19 -2.5 30.5t-27.5 15t-30 9
t-8 13.5l6 10q10 16 17 16h165q20 0 14 -18l-5 -16q-3 -9 -19.5 -14.5t-26.5 -15.5t-26 -42l-268 -572q-16 -36 -34.5 -54t-48.5 -18h-37q-25 0 -32 14zM376 662l-124 -77q-16 -9 -20 -9q-5 0 -11 8q-7 9 -7 13q3 5 15 17l100 98q36 34 62 34q9 0 18.5 -11t9.5 -22
q0 -25 -43 -51z" />
    <glyph glyph-name="thorn" unicode="&#xfe;" horiz-adv-x="610" 
d="M191 9v-161q0 -28 16.5 -37.5t67.5 -17.5q25 -3 15 -18l-11 -18q-7 -7 -22 -7h-219q-19 0 -13 15l6 16q3 10 19 14q51 8 51 53v789q0 28 -12 37.5t-49 16.5q-20 6 -14 19l9 18q3 7 15 7h115q27 0 27 -31v-304h2q26 50 78 81t109 31q86 0 138.5 -68.5t52.5 -163.5
q0 -127 -81 -209.5t-194 -82.5q-61 0 -106 21zM340 454q-70 0 -109.5 -71.5t-39.5 -182.5q0 -36 4 -61.5t15 -51t35.5 -39t61.5 -13.5q79 0 124 68.5t45 158.5q0 73 -36 132.5t-100 59.5z" />
    <glyph glyph-name="ydieresis" unicode="&#xff;" horiz-adv-x="550" 
d="M48 -236l-12 27q-3 7 0 10t13 5q1 1 1.5 1h1.5l48 11q16 4 36.5 24.5t38.5 61.5l53 120l-158 370q-20 46 -44 55q-22 9 -22 14q0 2 1 4l9 22q4 11 19 11h189q21 0 15 -15l-8 -19q-3 -6 -24.5 -12.5t-36 -18.5t-5.5 -34l113 -281l135 286q8 19 -2.5 30.5t-27.5 15t-30 9
t-8 13.5l6 10q10 16 17 16h165q20 0 14 -18l-5 -16q-3 -9 -19.5 -14.5t-26.5 -15.5t-26 -42l-268 -572q-16 -36 -34.5 -54t-48.5 -18h-37q-25 0 -32 14zM174 683q21 0 36 -15.5t15 -35.5q0 -21 -15 -35.5t-36 -14.5q-20 0 -35 15t-15 35q0 19 15.5 35t34.5 16zM375 683
q21 0 36 -15.5t15 -35.5q0 -21 -15 -35.5t-36 -14.5q-20 0 -35 15t-15 35q0 19 15.5 35t34.5 16z" />
    <glyph glyph-name="dotlessi" unicode="&#x131;" horiz-adv-x="308" 
d="M109 98v304q0 28 -12 37.5t-49 16.5q-20 6 -14 19l9 18q3 7 15 7h141v-402q0 -28 12.5 -37.5t51.5 -17.5q19 -3 11 -18l-8 -18q-5 -7 -17 -7h-203q-19 0 -13 15l6 16q3 10 19 14q51 8 51 53z" />
    <glyph glyph-name="Lslash" unicode="&#x141;" horiz-adv-x="556" 
d="M49 15l6 16q3 10 19 14q51 8 51 53v194l-95 -56l-24 40l119 71v255q0 28 -12.5 37.5t-51.5 17.5q-19 3 -11 18l8 18q5 7 17 7h210q19 0 13 -15l-6 -16q-3 -10 -19 -14q-51 -8 -51 -53v-198l108 64l26 -40l-134 -79v-202q0 -59 13 -76t48 -17h88q35 0 61.5 13t37.5 28
t19.5 27t12.5 11l25 -8q6 -1 6 -9v-91q0 -25 -46 -25h-425q-19 0 -13 15z" />
    <glyph glyph-name="lslash" unicode="&#x142;" horiz-adv-x="307" 
d="M248 0h-202q-19 0 -13 15l6 16q3 10 19 14q51 8 51 53v266l-87 -63l-22 31l109 78v227q0 28 -12 37.5t-49 16.5q-20 6 -14 19l9 18q3 7 15 7h115q26 0 26 -30v-235l85 62l20 -29l-105 -79v-326q0 -28 12.5 -37.5t50.5 -17.5q19 -3 11 -18l-8 -18q-5 -7 -17 -7z" />
    <glyph glyph-name="OE" unicode="&#x152;" horiz-adv-x="1019" 
d="M687 646v-239h231q21 0 13 -15l-14 -25q-8 -14 -32 -14h-198v-206q0 -59 13 -76t48 -17h88q35 0 61.5 13t37.5 28t19.5 27t12.5 11l25 -8q6 -1 6 -9v-91q0 -25 -46 -25h-257q-38 0 -136 -6q-96 -6 -169 -6q-59 0 -119 23t-110 65.5t-81.5 110.5t-31.5 149
q0 154 103.5 265t273.5 111q44 0 128 -6q86 -6 130 -6h241q14 0 22.5 -7t6.5 -18v-73q0 -4 -5 -9l-18 -15q-5 -4 -12.5 5.5t-16.5 24t-27 26.5t-41 12h-146zM590 112v472q0 80 -186 80q-109 0 -179.5 -81.5t-70.5 -214.5q0 -145 72 -237.5t201 -92.5q163 0 163 74z" />
    <glyph glyph-name="oe" unicode="&#x153;" horiz-adv-x="900" 
d="M287 464q-69 0 -111 -53t-42 -132q0 -114 47 -179t109 -65q78 0 113 58.5t35 153.5q0 97 -41.5 157t-109.5 60zM839 246h-305q0 -81 42.5 -140.5t118.5 -59.5q64 0 120 46q6 5 16 -2.5t7 -13.5l-27 -50q-10 -17 -19 -21q-37 -17 -108 -17q-68 0 -125.5 32t-75.5 77
q-20 -44 -82 -76.5t-127 -32.5q-108 0 -172 77t-64 175q0 130 78 201t183 71q60 0 113 -28t74 -70q15 33 65 65.5t120 32.5q90 0 140.5 -62t50.5 -164q0 -15 -6.5 -27.5t-16.5 -12.5zM534 293h193q48 0 48 44q0 67 -31 98.5t-75 31.5q-61 0 -98 -51.5t-37 -122.5z" />
    <glyph glyph-name="Scaron" unicode="&#x160;" horiz-adv-x="500" 
d="M422 569l-23 -18q-5 -5 -18 18q-6 10 -18 34q-3 5 -4 8q-27 56 -95 56q-39 0 -71 -22t-38 -59q-8 -50 21.5 -85t101.5 -83q93 -62 132.5 -110t42.5 -126q3 -90 -68.5 -142t-164.5 -52q-71 0 -129 18q-39 12 -45.5 17.5t-6.5 25.5v97q0 2 -0.5 8.5t-0.5 9.5t1.5 7t5.5 5
l27 9q6 2 10 -9t11.5 -33.5t17.5 -39.5q28 -64 112 -64q59 0 95.5 35.5t38.5 89.5q1 16 -3 32.5t-9 29t-19 28.5t-21 24.5t-27 24.5t-26 20t-28 20t-24 17q-5 3 -22.5 15.5l-24.5 17.5t-23 18t-23 21.5t-18.5 22.5t-16.5 26.5t-9 29.5t-4 35q0 58 60.5 112t152.5 54
q62 0 112 -20q25 -10 35 -18t9 -20v-74q0 -3 -6 -11zM250 817l105 89l18 12q22 2 29 -1q2 -3 -6 -15l-115 -150h-63l-115 150q-8 12 -6 15q7 3 29 1l18 -12z" />
    <glyph glyph-name="scaron" unicode="&#x161;" horiz-adv-x="407" 
d="M32 47v92q0 18 4 20l19 6q6 2 9.5 -6.5t9 -27t13.5 -32.5q14 -34 41.5 -51.5t60.5 -17.5q42 0 72.5 24.5t28.5 69.5q-1 18 -16 37t-29 29t-45 29.5t-37 23.5q-7 5 -38.5 25t-42 29t-23.5 31.5t-13 49.5q0 62 55.5 98t116.5 36q57 0 104 -10q26 -6 26 -28v-69q0 -3 -4 -9
l-17 -14q-2 -2 -4.5 0t-6 8t-6.5 11.5t-7.5 14t-7.5 13.5q-25 40 -83 40q-34 0 -58.5 -18.5t-23.5 -48.5q1 -20 20.5 -36t69.5 -47l15 -9q56 -37 79.5 -55.5t42.5 -48t19 -65.5q0 -77 -56.5 -115t-127.5 -38q-88 0 -133 28l-7 4q-6 4 -7.5 5.5t-5.5 5t-5.5 7.5t-1.5 9z
M204 637l105 89q2 1 5.5 4t6.5 5t6 3q22 2 29 -1q2 -3 -6 -15l-115 -150h-63l-115 150q-8 12 -6 15q7 3 29 1q3 -1 6 -3t6.5 -5t5.5 -4z" />
    <glyph glyph-name="Ydieresis" unicode="&#x178;" horiz-adv-x="611" 
d="M14 673l9 19q3 8 17 8h183q15 0 11 -12l-8 -20q-2 -5 -14 -11.5t-18 -11.5q-18 -16 -8 -46l121 -259l143 263q10 13 7.5 23.5t-6.5 15t-14 10.5q-4 3 -10 6t-8.5 4t-6 4t-3 4.5t1.5 5.5l8 15q5 7 11 7h155q14 0 10 -13l-5 -16q-1 -4 -6 -7.5t-13.5 -7t-9.5 -3.5
q-32 -12 -56 -56l-151 -275q-4 -8 -7 -15.5t-5 -15.5t-3 -13t-1.5 -13.5t-0.5 -12.5v-13.5v-12.5v-126q0 -28 12.5 -37.5t51.5 -17.5q19 -3 11 -18l-8 -18q-5 -7 -17 -7h-210q-19 0 -13 15l6 16q3 10 19 14q51 8 51 53v181l-153 316q-4 9 -8.5 16.5l-7.5 12.5t-7 9t-6 6.5
t-6.5 5t-5.5 3t-6.5 3t-6.5 3.5q-23 8 -19 19zM205 863q21 0 36 -15.5t15 -35.5q0 -21 -15 -35.5t-36 -14.5q-20 0 -35 15t-15 35q0 19 15.5 35t34.5 16zM406 863q21 0 36 -15.5t15 -35.5q0 -21 -15 -35.5t-36 -14.5q-20 0 -35 15t-15 35q0 19 15.5 35t34.5 16z" />
    <glyph glyph-name="Zcaron" unicode="&#x17d;" horiz-adv-x="611" 
d="M549 700v-22l-398 -628h286q30 0 52 12.5t31 27t16 26t11 10.5l25 -8q6 -2 6 -9v-85q0 -24 -46 -24h-482l-17 30l398 620h-240q-19 0 -34.5 -10t-24.5 -24t-16.5 -27.5t-12.5 -21t-9 -3.5l-18 16q-5 7 -5 11v81q0 28 29 28h449zM306 817l105 89q2 1 5.5 4t6.5 5t6 3
q22 2 29 -1q2 -3 -6 -15l-115 -150h-63l-115 150q-8 12 -6 15q7 3 29 1q3 -1 6 -3t6.5 -5t5.5 -4z" />
    <glyph glyph-name="zcaron" unicode="&#x17e;" horiz-adv-x="463" 
d="M112 500h316v-47l-288 -403h160q30 0 52 12t31 26t16 25t11 10l25 -8q6 -1 6 -8v-84q0 -23 -46 -23h-354l-17 37l313 417h-134q-19 0 -34.5 -9t-24.5 -21t-16.5 -24t-12.5 -18.5t-9 -3.5l-18 15q-5 5 -5 9v73q-2 11 6.5 18t22.5 7zM232 637l105 89l7 5q7 5 11 7
q22 2 29 -1q2 -3 -6 -15l-115 -150h-63l-115 150q-8 12 -6 15q7 3 29 1q3 -1 6 -3t6.5 -5t5.5 -4z" />
    <glyph glyph-name="florin" unicode="&#x192;" 
d="M480 469l-4 -21l-24 -21h-130q-18 -94 -35.5 -169.5t-44.5 -163.5t-62.5 -155.5t-77.5 -106.5q-33 -30 -88 -38q-28 -5 -40 4l-47 38q-6 5 0 17l16 24q4 6 18 1l36 -12q28 -10 59 -10q11 0 20 5t17.5 18t15 28.5t15 44.5t15.5 58.5t17.5 76.5t20.5 92.5t25.5 114
t30.5 133.5h-96l10 42h94l19 88q15 73 98 126q72 47 110 52q30 5 41 -5l38 -40q5 -6 -5 -16l-21 -24q-6 -5 -19 -1l-33 15q-23 10 -54 10q-16 0 -32 -16.5t-23 -51.5l-26 -137h146z" />
    <glyph glyph-name="circumflex" unicode="&#x2c6;" horiz-adv-x="444" 
d="M190 739h63l115 -150q8 -12 6 -15q-7 -3 -29 -1q-3 1 -6 3t-6.5 5t-5.5 4l-106 89l-105 -89q-2 -1 -5.5 -4t-6.5 -5t-6 -3q-22 -2 -29 1q-2 3 6 15z" />
    <glyph glyph-name="caron" unicode="&#x2c7;" horiz-adv-x="444" 
d="M222 637l105 89l18 12q22 2 29 -1q2 -3 -6 -15l-115 -150h-63l-115 150q-8 12 -6 15q7 3 29 1l18 -12z" />
    <glyph glyph-name="breve" unicode="&#x2d8;" horiz-adv-x="500" 
d="M247 572q-85 0 -134.5 57.5t-46.5 138.5q20 12 39 0q11 -46 56.5 -82t92.5 -36q55 0 90.5 33t49.5 85q20 12 39 0q-7 -85 -53.5 -140.5t-132.5 -55.5z" />
    <glyph glyph-name="dotaccent" unicode="&#x2d9;" horiz-adv-x="222" 
d="M110 686q24 0 38.5 -14t14.5 -39t-14 -38.5t-39 -13.5q-23 0 -37.5 14.5t-14.5 37.5q0 24 14.5 38.5t37.5 14.5z" />
    <glyph glyph-name="ring" unicode="&#x2da;" horiz-adv-x="333" 
d="M167 722q-24 0 -42.5 -18.5t-18.5 -42.5t18.5 -42t42.5 -18t42 18.5t18 41.5q0 24 -18 42.5t-42 18.5zM167 562q-41 0 -70.5 29.5t-29.5 69.5t30 70t70 30t69.5 -29.5t29.5 -70.5t-29 -70t-70 -29z" />
    <glyph glyph-name="ogonek" unicode="&#x2db;" horiz-adv-x="315" 
d="M127 10h40q-49 -44 -49 -73q0 -17 11.5 -29t29.5 -12q17 0 36.5 10t28.5 20q20 -2 14 -20q-49 -51 -106 -51q-27 0 -45.5 18.5t-18.5 46.5q0 47 59 90z" />
    <glyph glyph-name="tilde" unicode="&#x2dc;" horiz-adv-x="463" 
d="M173 675q17 0 63 -22q6 -3 21 -11.5t26.5 -12.5t23.5 -4q24 0 41 17t24 35q16 5 26 -4q-2 -38 -33 -69.5t-72 -31.5q-40 0 -76 23q-36 24 -67 24q-20 0 -38 -15q-12 -11 -21 -29q-17 -7 -24 8q7 38 34.5 65t71.5 27z" />
    <glyph glyph-name="hungarumlaut" unicode="&#x2dd;" horiz-adv-x="500" 
d="M227 662l-124 -77q-16 -9 -20 -9q-5 0 -11 8q-7 9 -7 13q3 5 15 17l100 98q36 34 62 34q9 0 18.5 -11t9.5 -22q0 -25 -43 -51zM397 662l-124 -77q-16 -9 -20 -9q-5 0 -11 8q-7 9 -7 13q3 5 15 17l100 98q36 34 62 34q9 0 18.5 -11t9.5 -22q0 -25 -43 -51z" />
    <glyph glyph-name="endash" unicode="&#x2013;" horiz-adv-x="500" 
d="M500 207h-500v62h500v-62z" />
    <glyph glyph-name="emdash" unicode="&#x2014;" horiz-adv-x="1000" 
d="M1000 207h-1000v62h1000v-62z" />
    <glyph glyph-name="quoteleft" unicode="&#x2018;" horiz-adv-x="278" 
d="M107 441q-51 0 -51 68q0 29 42.5 102.5t73.5 118.5q12 5 20 5q18 0 20 -29q-54 -57 -54 -140q0 -13 7 -64q3 -29 -15.5 -45t-42.5 -16z" />
    <glyph glyph-name="quoteright" unicode="&#x2019;" horiz-adv-x="278" 
d="M171 735q51 0 51 -68q0 -29 -42.5 -102.5t-73.5 -118.5q-12 -5 -20 -5q-18 0 -20 29q54 57 54 140q0 13 -7 64q-3 29 15.5 45t42.5 16z" />
    <glyph glyph-name="quotesinglbase" unicode="&#x201a;" horiz-adv-x="278" 
d="M139 132q51 0 51 -68q0 -29 -42.5 -102.5t-73.5 -118.5q-12 -5 -20 -5q-18 0 -20 29q54 57 54 140q0 13 -7 64q-3 29 15.5 45t42.5 16z" />
    <glyph glyph-name="quotedblleft" unicode="&#x201c;" horiz-adv-x="500" 
d="M122 441q-51 0 -51 68q0 29 42.5 102.5t73.5 118.5q12 5 20 5q18 0 20 -29q-54 -57 -54 -140q0 -13 7 -64q3 -29 -15.5 -45t-42.5 -16zM314 441q-51 0 -51 68q0 29 42.5 102.5t73.5 118.5q12 5 20 5q18 0 20 -29q-54 -57 -54 -140q0 -13 7 -64q3 -29 -15.5 -45t-42.5 -16
z" />
    <glyph glyph-name="quotedblright" unicode="&#x201d;" horiz-adv-x="500" 
d="M378 735q51 0 51 -68q0 -29 -42.5 -102.5t-73.5 -118.5q-12 -5 -20 -5q-18 0 -20 29q54 57 54 140q0 13 -7 64q-3 29 15.5 45t42.5 16zM186 735q51 0 51 -68q0 -29 -42.5 -102.5t-73.5 -118.5q-12 -5 -20 -5q-18 0 -20 29q54 57 54 140q0 13 -7 64q-3 29 15.5 45t42.5 16
z" />
    <glyph glyph-name="quotedblbase" unicode="&#x201e;" horiz-adv-x="500" 
d="M170 132q51 0 51 -68q0 -29 -42.5 -102.5t-73.5 -118.5q-12 -5 -20 -5q-18 0 -20 29q54 57 54 140q0 13 -7 64q-3 29 15.5 45t42.5 16zM362 132q51 0 51 -68q0 -29 -42.5 -102.5t-73.5 -118.5q-12 -5 -20 -5q-18 0 -20 29q54 57 54 140q0 13 -7 64q-3 29 15.5 45t42.5 16
z" />
    <glyph glyph-name="dagger" unicode="&#x2020;" horiz-adv-x="537" 
d="M295 -149h-53v186q0 152 -42 250q24 25 35.5 61.5t12.5 57t1 60.5q-53 0 -92 -19q-40 -16 -56 -16q-29 0 -38 9.5t-9 46.5t9.5 46.5t37.5 9.5q22 0 56 -16q38 -18 92 -19q0 73 -22 122q-15 36 -15 51q0 35 6 42q11 12 51 12q23 0 34.5 -2t16.5 -12.5t5 -14v-25.5
q0 -15 -15 -51q-21 -49 -21 -122q53 1 92 19q32 16 55 16q29 0 38 -9.5t9 -46.5q0 -38 -9 -47t-38 -9q-18 0 -55 16q-40 19 -92 19q0 -42 1 -61t12.5 -56t35.5 -62q-43 -97 -43 -250v-186z" />
    <glyph glyph-name="daggerdbl" unicode="&#x2021;" horiz-adv-x="537" 
d="M335 290q-8 -9 -14.5 -18.5t-11 -21t-7.5 -19.5t-5.5 -21.5t-4 -19.5t-2 -21t-1 -18.5t-0.5 -19.5v-17q53 0 92 19q37 16 56 16q28 0 37 -9t9 -47q0 -37 -9 -46.5t-37 -9.5q-24 0 -56 16q-38 18 -92 19q0 -73 21 -122q15 -32 15 -51v-8q0 -15 -1 -21.5t-6 -13.5t-16.5 -9
t-32.5 -2q-23 0 -35 2t-16.5 12t-5 14t-0.5 26q0 15 15 51q22 49 22 122q-54 -1 -92 -19q-34 -16 -56 -16q-28 0 -37.5 9.5t-9.5 46.5t9 46.5t38 9.5q16 0 56 -16q39 -19 92 -19q-2 85 -16 124q-11 29 -31 52q21 24 32 57t12.5 55t2.5 54v10q-53 0 -92 -19q-40 -16 -56 -16
q-29 0 -38 9.5t-9 46.5t9.5 46.5t37.5 9.5q22 0 56 -16q38 -18 92 -19q0 73 -22 122q-15 36 -15 51q0 35 6 42q11 12 51 12q23 0 34.5 -2t16.5 -12.5t5 -14v-25.5q0 -19 -15 -51q-21 -49 -21 -122q54 1 92 19q32 16 56 16q28 0 37 -9.5t9 -46.5q0 -38 -9 -47t-37 -9
q-19 0 -56 16q-39 19 -92 19q2 -119 46 -176z" />
    <glyph glyph-name="bullet" unicode="&#x2022;" horiz-adv-x="500" 
d="M425 350q0 -73 -51 -124t-124 -51t-124 51t-51 124q-1 73 50 124t125 51q73 0 124 -51t51 -124z" />
    <glyph glyph-name="ellipsis" unicode="&#x2026;" horiz-adv-x="1000" 
d="M103 52q0 26 19 45t45 19q25 0 44.5 -19t19.5 -45q0 -25 -19 -44.5t-44 -19.5q-26 0 -45.5 19t-19.5 45zM436 52q0 26 19 45t45 19t45 -19t19 -45q0 -25 -19 -44.5t-44 -19.5q-26 0 -45.5 19t-19.5 45zM769 52q0 26 19 45t45 19q25 0 44.5 -19t19.5 -45q0 -25 -19 -44.5
t-44 -19.5q-26 0 -45.5 19t-19.5 45z" />
    <glyph glyph-name="perthousand" unicode="&#x2030;" horiz-adv-x="1333" 
d="M117 501q0 -54 9 -92.5t19.5 -55.5t27.5 -26.5t23 -10t15 -0.5q10 0 16 0.5t22.5 10t27 26.5t19.5 55.5t9 92.5q0 50 -9 86t-19.5 52t-27 25t-23 9.5t-15.5 0.5t-15.5 -0.5t-23 -9.5t-27 -25t-19.5 -52t-9 -86zM34 508q0 77 46 140.5t131 63.5q58 0 100 -33t59.5 -78
t17.5 -93q0 -105 -49 -167.5t-128 -62.5q-78 0 -127.5 62.5t-49.5 167.5zM717 26q10 0 16 0.5t22.5 10t27 26.5t19.5 55.5t9 92.5q0 50 -9 86t-19.5 52t-27 25t-23 9.5t-15.5 0.5t-15.5 -0.5t-23 -9.5t-27 -25t-19.5 -52t-9 -86q0 -54 9 -92.5t19.5 -55.5t27.5 -26.5t23 -10
t15 -0.5zM717 -12q-78 0 -127.5 62.5t-49.5 167.5q0 77 46 140.5t131 63.5q58 0 100 -33t59.5 -78t17.5 -93q0 -105 -49 -167.5t-128 -62.5zM1122 -12q-78 0 -127.5 62.5t-49.5 167.5q0 77 46 140.5t131 63.5q58 0 100 -33t59.5 -78t17.5 -93q0 -105 -49 -167.5t-128 -62.5z
M1122 26q10 0 16 0.5t22.5 10t27 26.5t19.5 55.5t9 92.5q0 50 -9 86t-19.5 52t-27 25t-23 9.5t-15.5 0.5t-15.5 -0.5t-23 -9.5t-27 -25t-19.5 -52t-9 -86q0 -54 9 -92.5t19.5 -55.5t27.5 -26.5t23 -10t15 -0.5zM203 0l452 700h63l-451 -700h-64z" />
    <glyph glyph-name="guilsinglleft" unicode="&#x2039;" horiz-adv-x="278" 
d="M36 238l163 151q27 27 31 27q7 0 7 -9q0 -30 -118 -169q21 -23 71 -90t51 -78q0 -10 -8 -10q-7 0 -36 29z" />
    <glyph glyph-name="guilsinglright" unicode="&#x203a;" horiz-adv-x="278" 
d="M242 238l-163 -151q-2 -2 -10 -9.5t-13.5 -12.5t-8.5 -5q-6 0 -6 9q0 17 42 74t75 95q-23 27 -72 92.5t-49 75.5t7 10t36 -29z" />
    <glyph glyph-name="fraction" unicode="&#x2044;" horiz-adv-x="259" 
d="M-64 0h-66l452 700h65z" />
    <glyph glyph-name="trademark" unicode="&#x2122;" horiz-adv-x="1019" 
d="M65 700h330q7 0 10 -2.5t-2 -9.5l-12 -14q-6 -6 -22 -6h-117v-313q0 -17 7.5 -22.5t31.5 -11.5q12 -2 7 -10l-5 -11q-3 -4 -11 -4h-136q-11 0 -8 9l3 9q2 5 12 8q31 6 31 33v313h-145q-7 0 -10 2.5t2 9.5l12 14q6 6 22 6zM901 700h79q12 0 9 -10l-4 -10q-2 -5 -15 -9
q-31 -5 -31 -33v-283q0 -17 7.5 -22.5t31.5 -11.5q11 -1 6 -10l-4 -11q-3 -4 -10 -4h-138q-11 0 -8 9l4 9q2 6 12 8q31 7 31 33v243h-2l-147 -290q-6 -12 -12 -12h-13q-5 0 -14 18l-138 284h-1v-243q0 -17 7.5 -22.5t31.5 -11.5q9 -1 6 -10l-5 -11q-1 -4 -10 -4h-108
q-11 0 -8 9l3 9q2 6 12 8q31 6 31 33v284q-25 28 -53 35q-14 2 -11 11l5 11q4 4 11 4h86q15 0 21.5 -4t13.5 -20l144 -293l155 299q8 18 25 18z" />
    <glyph glyph-name="minus" unicode="&#x2212;" 
d="M539 220h-504v66h504v-66z" />
    <glyph glyph-name="fi" unicode="&#xfb01;" horiz-adv-x="629" 
d="M205 573v-73h309v-402q0 -28 12.5 -37.5t51.5 -17.5q19 -3 11 -18l-8 -18q-5 -7 -17 -7h-203q-19 0 -13 15l6 16q3 10 19 14q51 8 51 53v304q0 29 -13.5 38.5t-53.5 9.5h-152v-352q0 -28 12.5 -37.5t51.5 -17.5q19 -3 11 -18l-8 -18q-5 -7 -17 -7h-203q-19 0 -13 15l6 16
q3 10 19 14q51 8 51 53v352h-68v50h68v55q0 71 101 138q61 42 146 42q51 0 62 -12l43 -55q7 -7 -4 -18l-24 -26q-6 -6 -20 2l-35 23q-56 35 -91 35q-88 0 -88 -111z" />
    <glyph glyph-name="fl" unicode="&#xfb02;" horiz-adv-x="633" 
d="M115 500v57q0 74 72 126q62 47 99 52q9 2 33 0t32 -8l8 -7l4 8q3 7 15 7h115q26 0 26 -30v-607q0 -28 12.5 -37.5t50.5 -17.5q19 -3 11 -18l-8 -18q-5 -7 -17 -7h-202q-19 0 -13 15l6 16q3 10 19 14q51 8 51 53v539q0 21 -6.5 31t-22.5 15q2 -6 -4 -12l-16 -24
q-5 -5 -19 -1l-36 15q-33 13 -79 13q-16 0 -28.5 -16.5t-12.5 -51.5v-106h137v-30l-20 -20h-117v-352q0 -28 12.5 -37.5t51.5 -17.5q19 -3 11 -18l-8 -18q-5 -7 -17 -7h-203q-19 0 -13 15l6 16q3 10 19 14q51 8 51 53v352h-68v50h68z" />
    </font>
</defs>
</svg>
