<?xml version="1.0" standalone="no"?>
<!DOCTYPE svg PUBLIC "-//W3C//DTD SVG 1.1//EN" "http://www.w3.org/Graphics/SVG/1.1/DTD/svg11.dtd" >
<svg xmlns="http://www.w3.org/2000/svg" xmlns:xlink="http://www.w3.org/1999/xlink" version="1.1">
<metadata>
Created by FontForge 20161003 at Thu May 18 22:39:06 2017
 By www-data
Copyright (c) 1987, 1990, 1992 Adobe Systems Incorporated.  All Rights Reserved.ITC Stone is a registered trademark of International Typeface Corporation.
</metadata>
<defs>
<font id="itcstoneinformalbold" horiz-adv-x="630" >
  <font-face 
    font-family="itcstoneinformalbold"
    font-weight="700"
    font-stretch="normal"
    units-per-em="1000"
    panose-1="0 0 0 0 0 0 0 0 0 0"
    ascent="800"
    descent="-200"
    x-height="500"
    cap-height="700"
    bbox="-154 -250 1463 972"
    underline-thickness="50"
    underline-position="-150"
    unicode-range="U+0020-FB02"
  />
<missing-glyph horiz-adv-x="315" 
 />
    <glyph glyph-name=".notdef" horiz-adv-x="315" 
 />
    <glyph glyph-name=".null" horiz-adv-x="0" 
 />
    <glyph glyph-name="nonmarkingreturn" horiz-adv-x="333" 
 />
    <glyph glyph-name="space" unicode=" " horiz-adv-x="315" 
 />
    <glyph glyph-name="exclam" unicode="!" horiz-adv-x="370" 
d="M220 225h-70q-63 413 -69 442q-8 36 22.5 52t81.5 16t81.5 -16t22.5 -52q-6 -29 -69 -442zM92 81q0 38 28 65.5t65 27.5t65 -28t28 -65t-28 -65t-65 -28t-65 27.5t-28 65.5z" />
    <glyph glyph-name="quotedbl" unicode="&#x22;" horiz-adv-x="444" 
d="M177 654l-32 -204l-1 -4q0 -5 -0.5 -7.5t-2 -7t-3.5 -6.5t-6 -4t-9 -2q-8 0 -12.5 4t-6 8t-2.5 11t-1 8l-31 204q-13 81 53 81q67 0 54 -81zM374 654l-32 -204v-4l-1.5 -7.5t-2 -7t-3.5 -6.5t-6 -4t-9 -2q-8 0 -12.5 4t-6 8t-2.5 11t-1 8l-31 204q-13 81 53 81
q67 0 54 -81z" />
    <glyph glyph-name="numbersign" unicode="#" 
d="M535 304v-109h-98l-25 -195h-77l25 195h-123l-30 -195h-77l28 195h-89v109h103l16 104h-92v109h108l24 183h78l-25 -183h122l26 183h78l-26 -183h79v-109h-94l-14 -104h83zM389 408h-122l-16 -104h123z" />
    <glyph glyph-name="dollar" unicode="$" 
d="M324 268l-16 -200q67 36 70 94q2 60 -54 106zM362 746l-2 -34q78 -5 116 -20q25 -10 35 -18t9 -20v-74q0 -3 -6 -11l-39 -25q-5 -5 -18 18q-6 10 -18 34q-3 5 -4 8q-8 16 -32 31.5t-49 16.5l-15 -202q130 -88 180 -137.5t52 -111.5q3 -90 -73 -149t-196 -64l-7 -78h-58
l7 78q-94 6 -135 18q-39 12 -45.5 17.5t-6.5 25.5v97q0 2 -0.5 8.5t-0.5 9.5t1.5 7t5.5 5l39 15q2 1 4.5 -3t6.5 -12t8 -17t10.5 -22t12.5 -24q31 -53 105 -59l21 256q-50 34 -70 48q-5 4 -30.5 21.5t-35.5 25t-30 25t-29 31t-17 33t-8 39.5q0 73 66 124t187 55l3 34h56z
M286 492l12 154q-2 -1 -11.5 -7t-13.5 -8.5t-12 -9t-11.5 -11.5t-8 -13t-5.5 -17q-3 -9 -0.5 -19t3.5 -16t6.5 -14t8 -12t9.5 -9.5t9.5 -7.5l7.5 -6z" />
    <glyph glyph-name="percent" unicode="%" horiz-adv-x="1037" 
d="M284 502q0 71 -10.5 109.5t-18 43t-15.5 4.5h-1q-20 0 -32 -32q-14 -39 -14 -125q0 -48 4 -83t9 -51.5t13 -25.5t11.5 -10t7.5 -1h1q19 0 29 29q16 43 16 142zM239 278q-90 0 -145.5 62.5t-55.5 167.5q0 77 52 140.5t149 63.5q66 0 113 -33t67 -78t20 -93
q0 -105 -55.5 -167.5t-144.5 -62.5zM843 212q-1 157 -45 157q-20 0 -32 -32q-14 -41 -14 -125q1 -171 46 -171q19 0 29 29q16 44 16 142zM798 -12q-90 0 -145.5 62.5t-55.5 167.5q0 77 52 140.5t149 63.5q66 0 113 -33t67 -78t20 -93q0 -105 -55.5 -167.5t-144.5 -62.5z
M375 0h-84l365 700h83z" />
    <glyph glyph-name="ampersand" unicode="&#x26;" horiz-adv-x="852" 
d="M490 114l-205 211q-47 -59 -47 -127q0 -52 36 -90t104 -38q28 0 59.5 12.5t52.5 31.5zM575 25l-29 33q-32 -27 -90 -48.5t-118 -21.5q-77 0 -135 20.5t-87.5 52.5t-43.5 62.5t-14 58.5q0 62 37 115t125 74q-1 1 -13.5 14t-17 17.5t-16.5 18t-17 21t-15 20.5t-14.5 22.5
t-10 22t-8 24t-2.5 22.5q0 66 62.5 112.5t179.5 46.5q77 0 127 -19q34 -13 34 -29v-69q0 -7 -6 -9l-42 -17q-7 -2 -10 5l-19 37q-12 23 -35.5 35.5t-44.5 12.5q-30 0 -50.5 -16t-20.5 -51q0 -58 69 -131l240 -247q21 43 8.5 110.5t-52.5 100.5h-77q-32 0 -14 19l46 47
q12 11 38 11h268q13 0 17.5 -4t-3.5 -15l-45 -47q-12 -11 -38 -11h-82q21 -27 31.5 -69t2 -95.5t-39.5 -98.5l89 -89q4 -3 11.5 -10t12.5 -12t10.5 -11t8.5 -11t3 -10v-19h-155q-27 0 -55 25z" />
    <glyph glyph-name="quotesingle" unicode="'" horiz-adv-x="241" 
d="M174 654l-32 -204v-4l-1.5 -7.5t-2 -7t-3.5 -6.5t-6 -4t-9 -2q-8 0 -12.5 4t-6 8t-2.5 11t-1 8l-31 204q-13 81 53 81q67 0 54 -81z" />
    <glyph glyph-name="parenleft" unicode="(" horiz-adv-x="407" 
d="M392 -164l-24 -42q-291 159 -291 483q0 305 294 458l21 -36q-50 -30 -82 -74t-46.5 -103.5t-19 -113t-4.5 -133.5v-15q0 -47 0.5 -71t3 -66t8 -67t16.5 -60t27 -59.5t40.5 -51.5t56.5 -49z" />
    <glyph glyph-name="parenright" unicode=")" horiz-adv-x="407" 
d="M39 -206l-24 42q32 22 56.5 49t40.5 51.5t27 59.5t16.5 60t8 67.5t3 66t0.5 70.5v15q0 80 -4.5 133.5t-19 113t-46.5 103.5t-82 74l21 36q294 -153 294 -458q0 -324 -291 -483z" />
    <glyph glyph-name="asterisk" unicode="*" horiz-adv-x="444" 
d="M158 700h128l-32 -130l116 72l42 -122l-138 -11l104 -85l-104 -80l-52 127l-52 -127l-104 80l104 85l-138 11l42 122l116 -72z" />
    <glyph glyph-name="plus" unicode="+" 
d="M267 301v205h96v-205h204v-96h-204v-205h-96v205h-204v96h204z" />
    <glyph glyph-name="comma" unicode="," horiz-adv-x="315" 
d="M157 174q32 0 50.5 -24t18.5 -71q0 -21 -59.5 -104t-102.5 -135q-20 -14 -38 -5t-12 31q25 26 41.5 52.5t23.5 46t9 43t0.5 36t-5 34t-4.5 27.5q-4 31 20 50t58 19z" />
    <glyph glyph-name="hyphen" unicode="-" horiz-adv-x="333" 
d="M291 192h-249v92h249v-92z" />
    <glyph glyph-name="period" unicode="." horiz-adv-x="315" 
d="M64 81q0 38 28 65.5t65 27.5t65 -28t28 -65t-28 -65t-65 -28t-65 27.5t-28 65.5z" />
    <glyph glyph-name="slash" unicode="/" horiz-adv-x="574" 
d="M129 -108h-93l408 843h94z" />
    <glyph glyph-name="zero" unicode="0" 
d="M314 -12q-131 0 -212.5 104t-81.5 280q0 46 10.5 93t34 91.5t57 79t83.5 55.5t109 21q74 0 132.5 -31.5t93 -82.5t52 -109t17.5 -117q0 -175 -82 -279.5t-213 -104.5zM314 52q10 0 16.5 1t24 16.5t28.5 44.5t20.5 93t9.5 153q0 61 -5 109.5t-11.5 78t-18 50.5t-19 30.5
t-19.5 14.5t-15.5 5h-10.5q-10 0 -16.5 -1t-23.5 -15.5t-28 -41.5t-20.5 -86.5t-9.5 -143.5q0 -89 9.5 -153t20.5 -93t28 -44.5t23.5 -16.5t16.5 -1z" />
    <glyph glyph-name="one" unicode="1" 
d="M430 712v-580q0 -34 25 -54q10 -7 26.5 -11.5t32 -6t28.5 -3.5t19 -6t2 -11l-15 -26q-1 -3 -3.5 -5t-4 -3.5t-5 -2.5t-5.5 -2t-6.5 -1h-6.5h-7.5h-7.5h-349q-40 0 -45 4q-6 5 -2 15l11 28q4 8 41.5 13t45.5 12q36 25 36 60v418q0 19 -8.5 28t-25.5 9t-33 -3.5t-39 -11.5
l-22 -8q-12 -3 -16 9l-6 32q-6 17 7 22z" />
    <glyph glyph-name="two" unicode="2" 
d="M28 0v98q21 21 80.5 66.5t87.5 75.5q2 2 24 25t30.5 33t29 34.5t30.5 41t23 39.5t18.5 44t5.5 41q0 51 -28 78.5t-56 27.5q-72 0 -111 -69l-29 -51q-5 -12 -12 -7l-38 12q-7 9 -7 13v102q0 6 2 11.5t8 11.5t10 9.5t14 11l14 10.5q24 20 75 37t96 17q61 0 119 -18.5
t100.5 -60t42.5 -98.5q0 -142 -234 -304l-154 -103v-2h239q24 0 47 20t37.5 43t28 40.5t21.5 13.5l33 -17q10 -5 6 -16l-66 -186q-5 -15 -15.5 -19.5t-32.5 -4.5h-439z" />
    <glyph glyph-name="three" unicode="3" 
d="M173 339v58q74 6 123.5 45.5t49.5 107.5q0 39 -15 61.5t-30.5 27.5t-33.5 5q-35 0 -65 -19.5t-43 -38.5t-21 -37l-12 -28q-5 -11 -16 -6l-27 15q-6 4 -6 11v88q0 12 36 35q80 48 210 48q26 0 57.5 -5.5t75.5 -20.5t73 -52t29 -90q0 -49 -61 -99t-124 -56v-4
q99 -5 157.5 -56.5t58.5 -126.5q0 -95 -86.5 -154.5t-237.5 -59.5q-72 0 -124.5 14.5t-72.5 29.5l-35 94q-4 11 9 23l34 32q4 5 11 5.5t10 -5.5l54 -72q30 -38 48 -48q20 -11 43 -11q60 0 97.5 35t37.5 98q0 146 -204 156z" />
    <glyph glyph-name="four" unicode="4" 
d="M510 700v-393h105q18 0 6 -26l-38 -77h-73v-72q0 -39 19 -54q10 -7 25.5 -11t27.5 -4.5t24 -2.5t15 -5.5t-1 -12.5l-15 -26q-6 -12 -10 -14t-19 -2h-349q-40 0 -45 4q-6 5 -2 15l11 28q4 8 41.5 13t45.5 12q1 1 5.5 3.5t7 4.5t6.5 5.5t7 6.5t6 7.5t5 9t3.5 10.5t1.5 13
v72h-261q-31 0 -35 8l-29 46q50 75 99.5 143.5t128 174t92.5 124.5h195zM118 307h202v277q-94 -107 -202 -277z" />
    <glyph glyph-name="five" unicode="5" 
d="M212 700h298q16 0 26 -3.5t6 -12.5l-56 -115h-216l-29 -97q134 11 225 -58.5t87 -187.5q-2 -76 -49 -132t-113.5 -81t-138.5 -25q-48 0 -100 15t-76 33l-32 78q-5 14 1 23l35 43q10 10 22 -6l54 -67q43 -53 110 -53q45 0 80 27t38 79q3 74 -73 127.5t-208 49.5z" />
    <glyph glyph-name="six" unicode="6" 
d="M548 686l-19 -42q-63 -1 -113 -18.5t-80.5 -41.5t-52.5 -59t-32.5 -63t-17.5 -62q73 31 143 31q106 0 161.5 -59.5t54.5 -147.5q-1 -113 -80.5 -174.5t-191.5 -61.5q-123 0 -203 78.5t-79 222.5q1 74 31.5 145.5t88.5 132.5t154.5 100t216.5 43q13 1 18.5 -6t0.5 -18z
M223 237q-4 -87 24 -133.5t79 -46.5q44 0 67.5 41t23.5 96q0 72 -26 117t-74 45q-41 0 -67.5 -31.5t-26.5 -87.5z" />
    <glyph glyph-name="seven" unicode="7" 
d="M412 548h-178q-23 0 -41 -12.5t-26.5 -27t-16.5 -23.5t-14 -5l-14 11q-5 7 -5 14l-1 173q0 13 6 17.5t22 4.5h423v-67q-24 -54 -147 -309t-154 -324h-175q70 107 176 289.5t145 258.5z" />
    <glyph glyph-name="eight" unicode="8" 
d="M319 57q38 0 73.5 27t35.5 74q0 21 -9.5 40t-29 36t-35.5 28.5t-44 28.5t-40 25q-40 -30 -60.5 -62t-20.5 -84q0 -56 41 -84.5t89 -28.5zM315 -12q-140 0 -217 52t-77 144q0 68 53.5 115t114.5 64q-66 34 -105 77.5t-39 91.5q0 90 77 135t191 45q107 0 179.5 -39.5
t72.5 -113.5q0 -35 -14.5 -64t-38 -46.5t-44 -29t-40.5 -19.5q-4 -1 -6 -2q31 -14 52 -25.5t49 -31.5t45 -40t29 -49t12 -62q0 -83 -83.5 -142.5t-210.5 -59.5zM311 656q-46 0 -71 -26.5t-25 -62.5q0 -68 130 -129q69 53 69 128q0 35 -27 62.5t-76 27.5z" />
    <glyph glyph-name="nine" unicode="9" 
d="M82 14l21 46q97 3 183 78.5t104 156.5q-72 -31 -126 -31q-105 0 -165 56.5t-59 165.5q1 97 74 161.5t205 64.5q66 0 117.5 -20t80 -49t46.5 -66.5t23.5 -67t5.5 -56.5q-1 -72 -28 -144t-82 -140.5t-153.5 -117.5t-227.5 -61q-13 -1 -18.5 6t-0.5 18zM411 477
q0 76 -25 119.5t-67 43.5q-50 0 -75.5 -45.5t-25.5 -103.5q0 -71 25.5 -110.5t74.5 -39.5q41 0 67 34t26 102z" />
    <glyph glyph-name="colon" unicode=":" horiz-adv-x="315" 
d="M64 81q0 38 28 65.5t65 27.5t65 -28t28 -65t-28 -65t-65 -28t-65 27.5t-28 65.5zM64 425q0 38 28 65.5t65 27.5t65 -28t28 -65t-28 -65t-65 -28t-65 27.5t-28 65.5z" />
    <glyph glyph-name="semicolon" unicode=";" horiz-adv-x="315" 
d="M162 174q32 0 50.5 -24t18.5 -71q0 -21 -59.5 -104t-102.5 -135q-20 -14 -38 -5t-12 31q25 26 41.5 52.5t23.5 46t9 43t0.5 36t-5 34t-4.5 27.5q-4 31 20 50t58 19zM64 424q0 38 28 65.5t65 27.5t65 -28t28 -65t-28 -65t-65 -28t-65 27.5t-28 65.5z" />
    <glyph glyph-name="less" unicode="&#x3c;" 
d="M569 85v-93l-509 234v54l509 234v-93l-366 -168z" />
    <glyph glyph-name="equal" unicode="=" 
d="M567 398v-96h-504v96h504zM567 204v-96h-504v96h504z" />
    <glyph glyph-name="greater" unicode="&#x3e;" 
d="M60 85l365 168l-365 168v93l509 -234v-54l-509 -234v93z" />
    <glyph glyph-name="question" unicode="?" horiz-adv-x="519" 
d="M267 244h-86q-9 62 30 161q50 115 50 189q0 23 -13.5 63.5t-35.5 40.5q-11 0 -22.5 -10.5t-23.5 -26.5t-16 -19l-33 -29q-18 -10 -38 5l-13 8q-16 10 -11 26l33 58q37 25 152 25q98 0 161 -43.5t63 -121.5q0 -29 -14.5 -60t-29.5 -49.5t-43.5 -48.5t-36.5 -40
q-64 -76 -73 -128zM136 81q0 38 28 65.5t65 27.5t65 -28t28 -65t-28 -65t-65 -28t-65 27.5t-28 65.5z" />
    <glyph glyph-name="at" unicode="@" horiz-adv-x="833" 
d="M536 521h98l-61 -235q-25 -94 31 -94q46 0 80 53.5t34 162.5t-78.5 177.5t-205.5 68.5q-50 0 -100 -19t-94 -55t-71.5 -96.5t-27.5 -135.5q0 -144 81.5 -225t191.5 -81q126 0 226 52l30 -48q-49 -25 -121 -41.5t-135 -16.5q-92 0 -162.5 23.5t-110.5 58.5t-65.5 82
t-33.5 87t-8 81q0 168 116.5 280t287.5 112q149 0 254.5 -82.5t105.5 -220.5q0 -64 -19 -123t-67.5 -103.5t-117.5 -44.5q-49 0 -76 31.5t-26 54.5q-68 -63 -121 -67q-17 -1 -34.5 3t-39 16t-35 43t-13.5 77q0 62 17 109t40 70.5t52 38t46 17.5t30 3q61 0 91 -55zM458 475
q-30 0 -58 -50t-28 -137q0 -41 10.5 -54.5t31.5 -13.5q14 0 30 20t30.5 67.5t18.5 111.5q0 56 -35 56z" />
    <glyph glyph-name="A" unicode="A" horiz-adv-x="763" 
d="M245 273h163l-81 213zM757 35l-9 -21q-4 -9 -8.5 -11.5t-17.5 -2.5h-294q-21 0 -15 19l9 23q3 10 19 18.5t24.5 22.5t-0.5 42l-33 78h-209l-38 -95q-6 -20 0.5 -33t18 -17.5t19.5 -10.5t4 -15l-6 -12l-3 -6q-2 -5 -3 -7t-5 -4.5t-9 -2.5h-163h-8h-8t-6.5 0.5t-6 2t-3.5 4
t-1.5 6.5t2.5 9l5 15q3 11 26 17q31 8 42 20t28 54l153 410q4 11 5.5 21t0.5 18t-2 13.5t-5 11.5t-5.5 8.5t-6 7.5t-5.5 6q-9 9 -27 15t-26.5 11.5t-2.5 18.5l5 18q4 13 24 13h217q19 0 25 -29q93 -269 215 -541q14 -38 27.5 -53t43.5 -22q18 -5 13 -20z" />
    <glyph glyph-name="B" unicode="B" horiz-adv-x="755" 
d="M322 635v-230h34q46 0 77.5 35.5t31.5 87.5q0 59 -26 83t-87 24h-30zM322 340v-203q0 -84 68 -84q97 0 94 140q-2 65 -35.5 106t-94.5 41h-32zM54 700h406q87 0 143 -34t60 -110q4 -115 -144 -172v-2q99 -8 147 -64.5t48 -117.5q0 -108 -87.5 -160t-227.5 -52
q-190 0 -261 24q-27 10 -27 53v506q0 34 -15 51t-48 23q-9 2 -12.5 4t-7 6t0.5 10l8 22q5 13 17 13z" />
    <glyph glyph-name="C" unicode="C" horiz-adv-x="704" 
d="M671 148l-36 -94q-12 -27 -20 -32q-43 -34 -175 -34q-184 0 -294 101.5t-110 266.5q0 149 112 252.5t284 103.5q72 0 140 -18t96 -39q5 -4 5 -14v-75q0 -10 -8 -14l-40 -24q-4 -3 -14 7.5t-26 27.5t-36.5 34t-52 29.5t-66.5 12.5q-88 0 -132 -73.5t-44 -201.5
q0 -286 218 -286q39 0 87.5 20.5t76.5 61.5q6 7 14.5 5.5t15.5 -7.5t5 -10z" />
    <glyph glyph-name="D" unicode="D" horiz-adv-x="843" 
d="M322 635v-487q0 -51 31 -73t70 -22q84 0 125 86.5t41 221.5q0 146 -47.5 210t-141.5 64h-78zM111 65v506q0 34 -15 51t-48 23q-9 2 -12.5 4t-7 6t0.5 10l8 22q5 13 17 13h371q203 0 289 -86t86 -248q0 -158 -107.5 -268t-270.5 -110q-213 0 -284 24q-27 10 -27 53z" />
    <glyph glyph-name="E" unicode="E" horiz-adv-x="658" 
d="M322 630v-213h231q10 0 13.5 -4t-0.5 -10l-25 -42q-13 -14 -32 -14h-187v-174q0 -62 15.5 -82.5t57.5 -20.5h81q33 0 58.5 13t36.5 28.5t19 27.5t12 11l25 -8q6 -2 6 -9v-108q0 -25 -46 -25h-309q-115 0 -141 9.5t-26 59.5v502q0 34 -15 51t-48 23q-9 2 -12.5 4t-7 6
t0.5 10l8 22q5 13 17 13h505q14 0 22.5 -7t6.5 -18v-90q0 -4 -5 -9l-18 -15q-4 -3 -9 2.5t-12.5 16.5t-16.5 22t-24.5 19.5t-34.5 8.5h-146z" />
    <glyph glyph-name="F" unicode="F" horiz-adv-x="611" 
d="M330 630v-265h231q10 0 14 -4.5t-1 -9.5l-25 -42q-11 -14 -32 -14h-187v-175q0 -35 12.5 -46.5t51.5 -21.5q19 -3 11 -21l-8 -23q-5 -8 -17 -8h-324q-19 0 -13 19l6 19q4 12 19 16q51 10 51 66v451q0 34 -15 51t-48 23q-9 2 -12.5 4t-7 6t0.5 10l8 22q5 13 17 13h505
q14 0 22.5 -7t6.5 -18v-90q0 -4 -5 -9l-18 -15q-4 -3 -9 2.5t-12.5 16.5t-16.5 22t-24.5 19.5t-34.5 8.5h-146z" />
    <glyph glyph-name="G" unicode="G" horiz-adv-x="775" 
d="M451 279l8 22q6 14 14 14h228q8 0 12.5 -1t7 -5.5t3 -7.5t1.5 -12v-234q0 -27 -5 -41t-22 -14h-133q-18 0 -18 22v15q-56 -49 -147 -49q-157 0 -260.5 103t-103.5 265q0 149 112 252.5t284 103.5q72 0 140 -18t96 -39q5 -4 5 -14v-75q0 -10 -8 -14l-40 -24q-4 -3 -14 7.5
t-26 28t-36.5 35.5t-52 30.5t-66.5 12.5q-76 0 -126 -65.5t-50 -219.5q0 -128 51.5 -213.5t128.5 -85.5q42 0 77.5 37.5t35.5 82.5q0 34 -24 57t-63 29q-9 -1 -10.5 3t1.5 12z" />
    <glyph glyph-name="H" unicode="H" horiz-adv-x="872" 
d="M323 580v-166h226v166q0 35 -12.5 46.5t-51.5 21.5q-19 3 -11 21l8 23q5 8 17 8h324q19 0 13 -19l-6 -19q-4 -12 -19 -16q-51 -10 -51 -66v-460q0 -35 12.5 -46.5t51.5 -21.5q19 -3 11 -21l-8 -23q-5 -8 -17 -8h-324q-19 0 -13 19l6 19q4 12 19 16q51 10 51 66v224h-226
v-224q0 -35 12.5 -46.5t51.5 -21.5q19 -3 11 -21l-8 -23q-5 -8 -17 -8h-324q-19 0 -13 19l6 19q4 12 19 16q51 10 51 66v460q0 35 -12.5 46.5t-51.5 21.5q-19 3 -11 21l8 23q5 8 17 8h324q19 0 13 -19l-6 -19q-4 -12 -19 -16q-51 -10 -51 -66z" />
    <glyph glyph-name="I" unicode="I" horiz-adv-x="435" 
d="M112 120v460q0 35 -12.5 46.5t-51.5 21.5q-19 3 -11 21l8 23q5 8 17 8h324q19 0 13 -19l-6 -19q-4 -12 -19 -16q-51 -10 -51 -66v-460q0 -35 12.5 -46.5t51.5 -21.5q19 -3 11 -21l-8 -23q-5 -8 -17 -8h-324q-19 0 -13 19l6 19q4 12 19 16q51 10 51 66z" />
    <glyph glyph-name="J" unicode="J" horiz-adv-x="435" 
d="M323 580v-509q0 -61 -21.5 -109.5t-53.5 -76.5t-72 -46t-72.5 -24t-59.5 -6v64q37 27 50 54q18 38 18 108v545q0 35 -12.5 46.5t-51.5 21.5q-19 3 -11 21l8 23q5 8 17 8h324q19 0 13 -19l-6 -19q-4 -12 -19 -16q-51 -10 -51 -66z" />
    <glyph glyph-name="K" unicode="K" horiz-adv-x="788" 
d="M323 580v-203h2l265 323h137v-32q0 -11 -15.5 -21.5t-46 -32t-56.5 -52.5l-134 -160q58 -83 139.5 -188.5t112.5 -138.5q4 -4 15.5 -14.5t16.5 -16t5 -10.5v-34h-177q-8 0 -15 1.5t-12.5 3.5t-13 7.5t-11.5 9t-13 12.5t-12.5 13.5t-14.5 17.5t-16 19l-154 246h-2v-210
q0 -35 12.5 -46.5t51.5 -21.5q19 -3 11 -21l-8 -23q-5 -8 -17 -8h-324q-19 0 -13 19l6 19q4 12 19 16q51 10 51 66v460q0 35 -12.5 46.5t-51.5 21.5q-19 3 -11 21l8 23q5 8 17 8h324q19 0 13 -19l-6 -19q-4 -12 -19 -16q-51 -10 -51 -66z" />
    <glyph glyph-name="L" unicode="L" horiz-adv-x="659" 
d="M36 19l6 19q4 12 19 16q51 10 51 66v460q0 35 -12.5 46.5t-51.5 21.5q-19 3 -11 21l8 23q5 8 17 8h324q19 0 13 -19l-6 -19q-4 -12 -19 -16q-51 -10 -51 -66v-407q0 -62 15.5 -82.5t57.5 -20.5h81q33 0 58.5 13t36.5 28.5t19 27.5t12 11l25 -8q6 -2 6 -9v-108
q0 -25 -46 -25h-539q-19 0 -13 19z" />
    <glyph glyph-name="M" unicode="M" horiz-adv-x="1056" 
d="M1022 680l-6 -21q-3 -11 -25 -19q-25 -6 -38 -21t-13 -48v-451q0 -35 12.5 -46.5t51.5 -21.5q19 -3 11 -21l-8 -23q-5 -8 -17 -8h-324q-19 0 -13 19l6 19q4 12 19 16q51 10 51 66v366h-2q-67 -157 -227 -464q-11 -22 -19 -22h-42q-8 0 -22 32q-138 290 -209 480l-2 -2
l1 -390q0 -35 12.5 -46.5t51.5 -21.5q19 -3 11 -21l-8 -23q-5 -8 -17 -8h-197q-19 0 -13 19l6 19q4 12 19 16q51 10 51 66v441q-13 34 -32 57t-35 27q-25 6 -18 24l8 23q6 8 17 8h200q25 0 34.5 -7t22.5 -34l198 -401l219 410q15 32 42 32h229q20 0 14 -20z" />
    <glyph glyph-name="N" unicode="N" horiz-adv-x="815" 
d="M279 31l-8 -23q-5 -8 -17 -8h-197q-19 0 -13 19l6 19q4 12 19 16q51 10 51 66v458q-35 40 -92 65q-24 9 -17 26l8 23q6 8 17 8h251q12 -1 23 -8.5t15 -11.5t18 -21l305 -404h2v325q0 35 -12.5 46.5t-51.5 21.5q-19 3 -11 21l8 23q5 8 17 8h197q19 0 13 -19l-6 -19
q-4 -12 -19 -16q-51 -10 -51 -66v-547q0 -33 -27 -33h-116q-5 0 -42 45l-343 463h-2v-388q0 -35 12.5 -46.5t51.5 -21.5q19 -3 11 -21z" />
    <glyph glyph-name="O" unicode="O" horiz-adv-x="814" 
d="M389 -12q-63 0 -124.5 24t-112.5 67.5t-82.5 113t-31.5 153.5q0 161 113.5 263.5t273.5 102.5q151 0 251 -101t100 -247q0 -156 -108 -266t-279 -110zM419 58q43 4 76 51.5t48 112.5t15 135q0 135 -41 210t-116 75q-66 0 -105.5 -83t-39.5 -190q0 -158 43 -238t120 -73z
" />
    <glyph glyph-name="P" unicode="P" horiz-adv-x="733" 
d="M329 635v-515q0 -35 12.5 -46.5t51.5 -21.5q19 -3 11 -21l-8 -23q-5 -8 -17 -8h-324q-19 0 -13 19l6 19q4 12 19 16q51 10 51 66v451q0 34 -15 51t-48 23q-9 2 -12.5 4t-7 6t0.5 10l8 22q5 13 17 13h384q112 0 190 -47t77 -139q-1 -76 -52.5 -127.5t-125 -71
t-159.5 -14.5l-9 28q-7 17 11 17q33 0 66.5 42t33.5 109q0 58 -27.5 98t-75.5 40h-45z" />
    <glyph glyph-name="Q" unicode="Q" horiz-adv-x="815" 
d="M894 -75v-50l-114 -29q-24 -7 -30.5 -8t-32.5 7l-304 143q-101 0 -185 40.5t-137 123.5t-53 194q0 161 113.5 263.5t273.5 102.5q151 0 251 -101t100 -247q0 -67 -21 -127t-54 -101t-67.5 -67.5t-67.5 -39.5q69 -33 166 -65t162 -39zM419 58q43 4 76 51.5t48 112.5
t15 135q0 135 -41 210t-116 75q-66 0 -105.5 -83t-39.5 -190q0 -158 43 -238t120 -73z" />
    <glyph glyph-name="R" unicode="R" horiz-adv-x="788" 
d="M329 635v-279h52q46 -2 77.5 40t30.5 121q-3 118 -93 118h-67zM772 40v-40h-218q-4 0 -7.5 1.5t-6 3t-5 4.5t-3.5 5t-3.5 5.5t-2.5 4.5l-164 267h-33v-171q0 -35 12.5 -46.5t51.5 -21.5q19 -3 11 -21l-8 -23q-5 -8 -17 -8h-324q-19 0 -13 19l6 19q4 12 19 16q51 10 51 66
v451q0 34 -15 51t-48 23q-9 2 -12.5 4t-7 6t0.5 10l8 22q5 13 17 13h451q70 0 132 -44.5t63 -121.5q0 -162 -150 -211q64 -111 122.5 -187.5t92.5 -95.5z" />
    <glyph glyph-name="S" unicode="S" horiz-adv-x="593" 
d="M499 569l-39 -25q-5 -5 -18 18q-6 10 -18 34q-3 5 -4 8q-27 52 -84 52q-24 0 -50 -18t-31 -52q-4 -26 1.5 -46t28 -42t37.5 -32.5t58 -39.5q90 -60 132 -110t44 -115q4 -106 -78 -159.5t-220 -53.5q-105 0 -164 18q-39 12 -45.5 17.5t-6.5 25.5v97q0 2 -0.5 8.5t-0.5 9.5
t1.5 7t5.5 5l39 15q2 1 4.5 -3t6.5 -12t8 -17t10.5 -22t12.5 -24q34 -56 86 -56q51 0 88.5 28.5t39.5 78.5q1 20 -5.5 38t-14.5 30.5t-27.5 29t-33.5 26.5t-44.5 30t-48.5 33q-4 3 -25.5 17.5t-27.5 20t-23.5 20t-24 25t-16.5 26.5t-13.5 34t-3.5 39q0 77 73.5 128t215.5 51
q87 0 137 -20q25 -10 35 -18t9 -20v-74q0 -3 -6 -11z" />
    <glyph glyph-name="T" unicode="T" horiz-adv-x="725" 
d="M468 620v-500q0 -35 12.5 -46.5t51.5 -21.5q19 -3 11 -21l-8 -23q-5 -8 -17 -8h-324q-19 0 -13 19l6 19q4 12 19 16q51 10 51 66v500h-234q-30 0 -14 21l25 47q8 12 32 12h636q30 0 14 -21l-25 -47q-8 -12 -32 -12h-191z" />
    <glyph glyph-name="U" unicode="U" horiz-adv-x="784" 
d="M318 580v-310q0 -36 1.5 -59t9.5 -52t22.5 -46t41.5 -29t66 -12q51 0 89 50.5t38 152.5v305q0 35 -12.5 46.5t-51.5 21.5q-19 3 -11 21l8 23q5 8 17 8h208q19 0 13 -19l-6 -19q-4 -12 -19 -16q-51 -10 -51 -66v-310q0 -72 -20 -126t-48.5 -83t-67 -46.5t-67.5 -22
t-58 -4.5q-91 0 -155 21.5t-97 62t-47 87.5t-14 108v313q0 35 -12.5 46.5t-51.5 21.5q-19 3 -11 21l8 23q5 8 17 8h324q19 0 13 -19l-6 -19q-4 -12 -19 -16q-51 -10 -51 -66z" />
    <glyph glyph-name="V" unicode="V" horiz-adv-x="778" 
d="M6 665l9 22q5 13 26 13h306q21 0 15 -19l-9 -22q-3 -9 -19 -17.5t-24.5 -22.5t0.5 -43l134 -380l166 382q12 28 5.5 43.5t-20 20t-24 10.5t-5.5 15l8 17q0 1 2 4.5t2.5 4.5t2.5 3.5t4 3t5 0.5h152h7h7.5h6.5t5 -1.5t3.5 -3t1.5 -5t-1 -7.5l-5 -18q-2 -7 -7.5 -11.5
t-16.5 -10t-16 -9.5q-9 -6 -16.5 -16.5t-11.5 -19t-10.5 -25.5t-9.5 -24l-212 -509q-15 -40 -28 -40h-132q-4 0 -7 1.5t-6 6.5t-4.5 8t-4.5 12l-4 12l-190 531q-14 38 -27 52t-45 22q-18 4 -13 20z" />
    <glyph glyph-name="W" unicode="W" horiz-adv-x="1108" 
d="M893 700h187q7 0 12 -0.5t8 -3.5t2 -9l-8 -27q-2 -7 -25 -15q-27 -9 -39 -23t-19 -50l-137 -532q-11 -40 -33 -40h-147q-9 0 -20 13t-15 27l-113 396h-2l-132 -396q-13 -40 -33 -40h-135q-9 0 -20 13t-15 27l-130 531q-5 20 -9.5 32.5t-14.5 21.5t-13 10.5t-19 10.5
q-21 12 -17 23l8 22q2 9 16 9h299q12 0 19 -3t4 -11l-8 -25q-3 -10 -22 -19t-31 -24t-5 -42l96 -352h2l148 436q1 4 3 9.5t3 8.5t2.5 7t3 6.5t3 4.5t3 3t3.5 1h125q3 0 5 -2t3.5 -6.5l3 -9t3.5 -11.5t3 -11l134 -430h2l95 349q6 11 3 22.5t-4 17t-8.5 12t-10.5 8.5t-11 7
q-4 2 -10.5 5t-9 4.5t-6.5 4.5t-3 5t1 7l8 16q6 12 17 12z" />
    <glyph glyph-name="X" unicode="X" horiz-adv-x="815" 
d="M511 700h208q8 0 11.5 -3t1.5 -9l-7 -25q-1 -3 -7 -7t-11.5 -6t-14.5 -5l-8 -3q-9 -4 -20 -15.5t-24 -30t-14 -19.5l-134 -175l182 -271q42 -63 93 -68q11 -1 17.5 -3t10 -6.5t0.5 -11.5l-13 -31q-4 -11 -26 -11h-333q-19 0 -13 21l5 18q1 2 5 5t8 5l11 5.5t12 6.5
q28 16 14 41l-114 185l-145 -191q-20 -32 12 -45q3 -1 8 -3l7.5 -3t6 -3.5t3 -4.5t-1.5 -7l-7 -15q-7 -15 -16 -15h-187q-6 0 -10.5 0.5t-7.5 4.5t-1 10l7 27q1 4 3.5 6t4.5 2.5l8 2t9 2.5q43 13 70 58l186 241l-157 215q-47 64 -77 70l2 2q-11 1 -17 8t-2 17l10 25
q4 9 18 9h323q20 0 13 -16l-7 -18q-3 -7 -9.5 -11.5t-18 -9.5t-18.5 -9q-14 -9 -15.5 -17.5t13.5 -34.5l84 -116l97 122q20 32 -19 51q-3 2 -8 4.5t-7.5 3.5t-6.5 3.5t-5 4t-3.5 4t-1.5 4.5t1 5l9 19q4 11 13 11zM66 639z" />
    <glyph glyph-name="Y" unicode="Y" horiz-adv-x="741" 
d="M536 31l-8 -23q-5 -8 -17 -8h-324q-19 0 -13 19l6 19q4 12 19 16q51 10 51 66v136l-156 316q-26 54 -63 72q-26 11 -20 23l9 23q3 10 18 10h295q15 0 11 -14l-8 -25q-2 -6 -14 -13.5t-18 -14.5q-18 -19 -8 -57l118 -234l139 243q23 39 -10 60q-4 3 -11 6.5t-9.5 5t-7 5
t-3 5.5t1.5 7l9 18q4 8 13 8h183q15 0 11 -15l-5 -20q-2 -5 -7.5 -9t-15.5 -8l-10 -4q-36 -16 -63 -70l-141 -254q-9 -15 -18 -45t-9 -51v-104q0 -35 12.5 -46.5t51.5 -21.5q19 -3 11 -21z" />
    <glyph glyph-name="Z" unicode="Z" horiz-adv-x="685" 
d="M640 700v-56l-390 -569h270q21 0 38 8.5t27 21.5t18 27.5t12 27t8 20t7 6.5l25 -12q6 -2 6 -13v-125q0 -17 -12.5 -26.5t-33.5 -9.5h-558l-33 57l397 568h-239q-19 0 -34.5 -13.5t-24.5 -31.5t-16.5 -35.5t-12.5 -27t-9 -4.5l-18 25q-5 10 -5 15v99q0 48 35 48h543z" />
    <glyph glyph-name="bracketleft" unicode="[" horiz-adv-x="407" 
d="M97 735h295v-43h-48q-64 0 -85 -11t-21 -45v-722q0 -39 22.5 -51.5t90.5 -12.5h41v-43h-295v928z" />
    <glyph glyph-name="backslash" unicode="\" horiz-adv-x="593" 
d="M558 -108h-93l-409 843h94z" />
    <glyph glyph-name="bracketright" unicode="]" horiz-adv-x="407" 
d="M15 735h295v-928h-295v43h41q68 0 90.5 12.5t22.5 51.5v722q0 34 -21 45t-85 11h-48v43z" />
    <glyph glyph-name="asciicircum" unicode="^" 
d="M165 335h-94l183 365h120l185 -365h-95l-150 296z" />
    <glyph glyph-name="underscore" unicode="_" horiz-adv-x="500" 
d="M500 -125h-500v50h500v-50z" />
    <glyph glyph-name="grave" unicode="`" horiz-adv-x="426" 
d="M180 732l124 -108q0 -20 -9.5 -30.5t-32.5 -15.5l-148 76q-28 14 -43 23.5t-28.5 25.5t-13.5 34q0 24 17.5 39.5t39.5 15.5q13 0 27 -6.5t22 -13t24 -21t21 -19.5z" />
    <glyph glyph-name="a" unicode="a" horiz-adv-x="683" 
d="M410 31v70h-2q-25 -45 -78.5 -79t-107.5 -34q-87 0 -140.5 69t-53.5 163q0 123 91 207.5t243 84.5q111 0 184 -27q4 -2 14 -6t14 -6t11.5 -7t10.5 -10t7 -12.5t5.5 -18t1.5 -24.5v-283q0 -41 6.5 -51t44.5 -19q9 -2 5 -17l-8 -23q-2 -8 -15 -8h-205q-15 -1 -21.5 7
t-6.5 24zM339 444q-46 0 -74 -56t-28 -127q0 -63 19.5 -106t51.5 -43q30 0 54 32t34 82q14 65 14 85q0 133 -71 133z" />
    <glyph glyph-name="b" unicode="b" horiz-adv-x="678" 
d="M357 403q-33 0 -54.5 -35.5t-29 -80.5t-7.5 -96q0 -71 15.5 -106t52.5 -35q49 0 78 59t29 133q0 65 -20.5 113t-63.5 48zM2 704l9 23q3 8 20 8h211q24 0 24 -31v-281h2q32 42 81.5 65.5t106.5 23.5q87 0 140.5 -69t53.5 -163q0 -122 -92 -207t-251 -85q-112 0 -185 27
q-4 2 -13.5 6.5t-13 6.5t-9.5 7t-8.5 9.5t-6 12.5t-4.5 18t-1 24v516q0 37 -8 48t-42 19q-21 6 -14 22z" />
    <glyph glyph-name="c" unicode="c" horiz-adv-x="574" 
d="M522 461v-94q0 -4 -6 -12l-29 -14q-5 -2 -11.5 6t-15 24.5t-14.5 23.5q-34 46 -91 46q-41 0 -79.5 -47t-38.5 -138q0 -87 34 -134.5t90 -47.5q50 0 79 21.5t55 62.5q1 3 13 -1.5t22.5 -11.5t8.5 -11l-40 -90q-11 -24 -23 -32q-19 -10 -58.5 -17t-72.5 -7q-76 0 -135 19.5
t-92 48.5t-54.5 66.5t-28.5 68.5t-7 59q0 48 18 92.5t54.5 83.5t101 62.5t148.5 23.5q65 0 133 -17q20 -6 30.5 -14.5t8.5 -19.5z" />
    <glyph glyph-name="d" unicode="d" horiz-adv-x="683" 
d="M358 735h222q30 0 30 -31v-586q0 -41 6.5 -51t44.5 -19q9 -2 5 -17l-8 -23q-2 -8 -15 -8h-205q-28 0 -28 31v79h-2q-25 -49 -80.5 -85.5t-110.5 -36.5q-87 0 -138 69t-51 160q0 125 90.5 210.5t244.5 86.5v-2q2 0 8 0.5t17 1t21 0.5v101q0 35 -12 46.5t-49 20.5
q-21 6 -14 22l9 23q3 8 15 8zM339 444q-46 0 -74 -56t-28 -127q0 -64 18 -106.5t49 -42.5q14 0 30 9t34 30t30 64t12 102q0 127 -71 127z" />
    <glyph glyph-name="e" unicode="e" horiz-adv-x="566" 
d="M515 246h-278q0 -78 27.5 -126t86.5 -48q51 0 80 21.5t55 62.5q1 3 13 -1.5t22 -11.5t9 -11l-41 -90q-11 -25 -22 -32q-44 -22 -132 -22q-86 0 -149 24.5t-96 65.5t-47.5 84t-14.5 90t15.5 91t47.5 83t89 62.5t132 23.5q114 0 170 -60.5t56 -165.5q0 -15 -6.5 -27.5
t-16.5 -12.5zM237 310h108q26 0 26 44q0 55 -18 78.5t-43 23.5q-36 0 -54.5 -42.5t-18.5 -103.5z" />
    <glyph glyph-name="f" unicode="f" horiz-adv-x="444" 
d="M437 500v-50l-20 -20h-117v-310q0 -35 12.5 -46.5t51.5 -21.5q19 -3 11 -21l-8 -23q-5 -8 -38 -8h-282q-19 0 -13 19l6 19q4 12 19 16q41 8 41 66v310h-76v70h76v35q0 72 64.5 121.5t145.5 67.5q55 11 84 11q56 0 70 -14l51 -55q6 -10 -1 -16l-53 -48q-8 -8 -21 0l-32 20
q-6 3 -23.5 15.5t-29 18.5t-19.5 6q-36 0 -36 -76v-86h137z" />
    <glyph glyph-name="g" unicode="g" horiz-adv-x="667" 
d="M410 16v85h-2q-25 -45 -78.5 -79t-107.5 -34q-87 0 -140.5 69t-53.5 163q0 123 91 207.5t243 84.5q111 0 184 -27q4 -2 14 -6t14 -6t11.5 -7t10.5 -10t7 -12.5t5.5 -18t1.5 -24.5v-333q0 -156 -85.5 -237t-247.5 -81q-137 0 -213 42q-17 9 -21.5 15t1.5 23l23 41
q2 4 6 11t5.5 10t5 8t6 6.5t6.5 2.5t8.5 -0.5t9.5 -4.5q72 -44 148 -44q77 0 112.5 35t35.5 121zM339 444q-46 0 -74 -56t-28 -127q0 -63 19.5 -106t51.5 -43q30 0 54 32t34 82q14 65 14 85q0 133 -71 133z" />
    <glyph glyph-name="h" unicode="h" horiz-adv-x="720" 
d="M27 704l9 23q3 8 20 8h211q8 0 11.5 -0.5t8 -5t4.5 -14.5v-305h2q27 37 86 69.5t114 32.5q139 0 139 -171v-221q0 -38 7.5 -48.5t43.5 -19.5q19 -3 11 -21l-8 -23q-5 -8 -25 -8h-270q-11 0 -6 19l5 19q4 12 15 16q27 7 27 66v167q0 36 -6 58.5t-17 30.5t-16.5 9.5
t-15.5 1.5q-86 0 -86 -223v-44q0 -38 6 -48.5t34 -19.5q14 -3 8 -21l-7 -23q-2 -8 -12 -8h-282q-19 0 -13 19l6 19q4 12 19 16q41 8 41 66v495q0 37 -8 48t-42 19q-21 6 -14 22z" />
    <glyph glyph-name="i" unicode="i" horiz-adv-x="379" 
d="M91 120v260q0 37 -8 48t-42 19q-21 6 -14 22l9 23q3 8 20 8h211q8 0 11.5 -0.5t8 -5t4.5 -14.5v-360q0 -38 7.5 -48.5t43.5 -19.5q19 -3 11 -21l-8 -23q-5 -8 -25 -8h-282q-19 0 -13 19l6 19q4 12 19 16q41 8 41 66zM91 657q0 41 28.5 70t68.5 29t69 -29.5t29 -69.5
q0 -38 -29 -68t-67 -30q-41 0 -70 28.5t-29 69.5z" />
    <glyph glyph-name="j" unicode="j" horiz-adv-x="367" 
d="M91 14v378q0 37 -8 48t-42 19q-21 6 -14 22l9 23q3 8 20 8h211q8 0 11.5 -0.5t8 -5t4.5 -14.5v-472q0 -64 -21.5 -114t-52 -78.5t-69.5 -47t-69.5 -24.5t-55.5 -6v71q31 29 47 72q21 48 21 121zM91 657q0 41 28.5 70t68.5 29t69 -29.5t29 -69.5q0 -38 -29 -68t-67 -30
q-41 0 -70 28.5t-29 69.5z" />
    <glyph glyph-name="k" unicode="k" horiz-adv-x="704" 
d="M462 0l-168 260h-2v-140q0 -38 6 -48.5t34 -19.5q14 -3 8 -21l-7 -23q-2 -8 -12 -8h-282q-19 0 -13 19l6 19q4 12 19 16q41 8 41 66v495q0 37 -8 48t-42 19q-21 6 -14 22l9 23q3 8 20 8h211q8 0 11.5 -0.5t8 -5t4.5 -14.5v-408q104 83 188 193h169q20 0 20 -40
q0 -13 -12.5 -20.5t-29.5 -10.5t-39 -12t-36 -23l-89 -82q22 -29 58 -80.5t63 -88.5t49 -60q33 -33 50 -40v-43h-221z" />
    <glyph glyph-name="l" unicode="l" horiz-adv-x="379" 
d="M27 704l9 23q3 8 20 8h211h4h4h3.5t4 -1t3.5 -2t3 -3t1.5 -5t0.5 -7v-597q0 -38 7.5 -48.5t43.5 -19.5q19 -3 11 -21l-8 -23q-5 -8 -25 -8h-282q-19 0 -13 19l6 19q4 12 19 16q41 8 41 66v495q0 37 -8 48t-42 19q-21 6 -14 22z" />
    <glyph glyph-name="m" unicode="m" horiz-adv-x="1049" 
d="M290 480v-72h2q40 50 95 77t108 27q56 0 81.5 -18.5t49.5 -66.5q45 45 100 65t99 20q61 0 98.5 -40.5t37.5 -117.5v-234q0 -38 7.5 -48.5t43.5 -19.5q19 -3 11 -21l-8 -23q-5 -8 -17 -8h-274q-14 0 -10 19l5 19q4 12 15 16q27 7 27 66v182q0 85 -51 85q-84 0 -84 -215
v-52q0 -38 6 -48.5t34 -19.5q14 -3 8 -21l-7 -23q-2 -8 -12 -8h-270q-11 0 -6 19l5 19q4 12 15 16q27 7 27 66v182q0 85 -51 85q-84 0 -84 -215v-52q0 -38 6 -48.5t34 -19.5q14 -3 8 -21l-7 -23q-2 -8 -12 -8h-282q-19 0 -13 19l6 19q4 12 19 16q41 8 41 66v260q0 37 -8 48
t-42 19q-21 6 -14 22l9 23q3 8 20 8h211h8t6.5 -2t6.5 -6.5t2 -11.5z" />
    <glyph glyph-name="n" unicode="n" horiz-adv-x="720" 
d="M291 480v-70h2q27 37 86 69.5t114 32.5q139 0 139 -171v-221q0 -38 7.5 -48.5t43.5 -19.5q19 -3 11 -21l-8 -23q-5 -8 -25 -8h-270q-11 0 -6 19l5 19q4 12 15 16q27 7 27 66v167q0 36 -6 58.5t-17 30.5t-16.5 9.5t-15.5 1.5q-86 0 -86 -223v-44q0 -38 6 -48.5t34 -19.5
q14 -3 8 -21l-7 -23q-2 -8 -12 -8h-282q-19 0 -13 19l6 19q4 12 19 16q41 8 41 66v260q0 37 -8 48t-42 19q-21 6 -14 22l9 23q3 8 20 8h211q8 0 11.5 -0.5t8 -5t4.5 -14.5z" />
    <glyph glyph-name="o" unicode="o" horiz-adv-x="648" 
d="M340 512q67 0 122.5 -23.5t88.5 -60.5t51 -80.5t18 -87.5q0 -47 -19 -93.5t-55 -87t-97.5 -66t-137.5 -25.5q-129 0 -206 77.5t-77 174.5q0 46 19 92t55 87t98.5 67t139.5 26zM328 452q-35 0 -56.5 -33t-28 -71t-6.5 -80q0 -101 27.5 -160.5t62.5 -59.5q84 0 84 190
q0 99 -24 156.5t-59 57.5z" />
    <glyph glyph-name="p" unicode="p" horiz-adv-x="700" 
d="M379 403q-33 0 -54.5 -35.5t-29 -80.5t-7.5 -96q0 -143 67 -143q49 0 78.5 60t29.5 134q0 65 -20.5 113t-63.5 48zM288 480v-57h2q32 42 81.5 65.5t106.5 23.5q87 0 140.5 -69t53.5 -163q0 -122 -90 -207t-242 -85h-52v-118q0 -35 16.5 -46.5t67.5 -21.5q25 -3 15 -21
l-11 -23q-6 -8 -22 -8h-329q-19 0 -13 19l6 19q4 12 19 16q51 10 51 66v510q0 37 -8 48t-42 19q-21 6 -14 22l9 23q3 8 20 8h211q8 0 11.5 -0.5t8 -5t4.5 -14.5z" />
    <glyph glyph-name="q" unicode="q" horiz-adv-x="681" 
d="M610 401v-531q0 -35 12.5 -46.5t51.5 -21.5q19 -3 11 -21l-8 -23q-5 -8 -17 -8h-333q-25 0 -17 19l8 19q5 12 25 16q67 10 67 66v240h-2q-25 -49 -80.5 -85.5t-110.5 -36.5q-87 0 -138 69t-51 160q0 125 91 210t244 85q110 0 183 -27q2 -1 12 -5l12.5 -5t10.5 -5.5
t10 -7.5t7 -9.5t7 -13t3.5 -16.5t1.5 -22zM339 444q-46 0 -74 -56t-28 -127q0 -64 18 -106.5t49 -42.5q11 0 28 12.5t35 36t30.5 65t12.5 91.5q0 127 -71 127z" />
    <glyph glyph-name="r" unicode="r" horiz-adv-x="519" 
d="M28 469l9 23q3 8 20 8h211q8 0 11.5 -0.5t8 -5t4.5 -14.5v-53h2q62 85 133 85q41 0 55 -35l32 -75q3 -9 -3 -15l-68 -65q-7 -6 -25.5 0.5t-40 17t-30.5 10.5q-12 0 -15.5 -0.5t-13.5 -7t-14 -20t-8 -42.5t-4 -72v-88q0 -35 16.5 -46.5t67.5 -21.5q25 -3 15 -21l-11 -23
q-6 -8 -22 -8h-319q-19 0 -13 19l6 19q4 12 19 16q41 8 41 66v260q0 37 -8 48t-42 19q-21 6 -14 22z" />
    <glyph glyph-name="s" unicode="s" horiz-adv-x="481" 
d="M35 40v94q0 22 6 24l40 9q5 2 10 -6.5t13.5 -28t15.5 -32.5q0 -1 7.5 -12t11.5 -15.5t12.5 -12.5t18.5 -11.5t22 -3.5q29 0 46.5 19.5t17.5 41.5q0 14 -10 29t-19.5 23.5t-31.5 25t-29 22.5q-8 7 -31 24.5t-35.5 29t-29 29.5t-24.5 38t-8 43q-1 68 57 105t163 37
q69 0 145 -19q26 -6 26 -28v-84q0 -5 -6 -7l-36 -17q-3 -1 -11 9t-19.5 27t-18.5 25q-36 40 -70 40q-21 0 -37.5 -12t-15.5 -26q1 -15 10.5 -27t23.5 -21.5t47 -33.5t66 -52q90 -75 90 -140q0 -73 -67 -115.5t-170 -42.5q-109 0 -153 26q-27 15 -27 26z" />
    <glyph glyph-name="t" unicode="t" horiz-adv-x="444" 
d="M441 500v-50l-20 -20h-132v-281q0 -35 20.5 -57.5t51.5 -22.5q27 0 39 6q14 7 17 0l15 -43q4 -8 -3 -11l-20 -10q-46 -23 -131 -23q-100 0 -144.5 38.5t-44.5 120.5v283h-85v70h85v100l153 46q15 8 31 7.5t16 -9.5v-144h152z" />
    <glyph glyph-name="u" unicode="u" horiz-adv-x="685" 
d="M411 68l-38 -28q-30 -22 -69.5 -37t-71.5 -15q-152 0 -152 171v221q0 37 -8 48t-42 19q-21 6 -14 22l9 23q3 8 20 8h211q8 0 11.5 -0.5t8 -5t4.5 -14.5v-267q0 -36 5 -59.5t14 -33t16 -12t18 -2.5q24 0 45 27t23 58q10 74 10 145v44q0 37 -8 48t-42 19q-21 6 -14 22l9 23
q3 8 20 8h211q8 0 11.5 -0.5t8 -5t4.5 -14.5v-362q0 -41 6.5 -51t44.5 -19q9 -2 5 -17l-8 -23q-2 -8 -15 -8h-209q-8 0 -11.5 0.5t-8 5t-4.5 14.5v48z" />
    <glyph glyph-name="v" unicode="v" horiz-adv-x="610" 
d="M357 208l95 195q6 19 -3 30t-23.5 13.5t-26 7.5t-9.5 14l6 12q9 20 16 20h165q15 0 23 -5t5 -18l-5 -18q-3 -9 -8.5 -12t-15.5 -8.5t-20 -17.5q-5 -7 -26 -50l-165 -343q-13 -28 -20 -28h-90q-5 -1 -10 6t-7 14l-158 351q-17 50 -54 67l-10 5t-7.5 4.5t-4 5.5t0.5 7l9 27
q4 13 19 13h287q23 0 17 -19l-8 -22q-2 -7 -13 -13.5t-20 -12t-14 -19.5t4 -36z" />
    <glyph glyph-name="w" unicode="w" horiz-adv-x="949" 
d="M33 500h291q23 0 30.5 -5t-0.5 -18l-10 -18q-4 -7 -30.5 -14t-41 -22.5t-0.5 -48.5l61 -174l134 282q8 18 16 18h90q8 0 15 -16l104 -284l82 191q11 26 -1.5 40.5t-33.5 17t-34.5 7.5t-4.5 15l22 24q4 5 15 5h195q6 0 10 -2t3 -6l-13 -36q-2 -6 -17 -13t-18 -9
q-20 -16 -41 -63l-156 -355q-7 -16 -15 -16h-90q-8 0 -16 18l-107 284l-133 -286q-7 -16 -15 -16h-90q-8 0 -16 18l-138 353q-17 50 -54 67l-10 5t-7.5 4.5t-4 5.5t0.5 7l9 27q4 13 19 13z" />
    <glyph glyph-name="x" unicode="x" horiz-adv-x="648" 
d="M104 98l120 134l-108 148q-18 25 -50 50q-4 3 -18 10.5t-18 13t0 14.5l10 21q6 11 38 11h225q20 0 25.5 -3.5t0.5 -14.5l-6 -15q-2 -5 -10.5 -9t-14.5 -6.5t-5 -13.5t15 -30l49 -71l72 83q19 27 8.5 32t-26.5 9t-10 13l6 10q0 1 2 4.5t3.5 5.5t4.5 4t8 2h158h5.5h5.5h5.5
t5 -0.5t3.5 -1.5t3 -2t1.5 -3t0 -5t-1.5 -6l-5 -15q-3 -9 -25 -16t-30 -13q-12 -9 -36 -36l-115 -122l133 -178q28 -37 53 -39q6 -2 23 -3.5t23.5 -5.5t2.5 -13l-11 -28q-9 -12 -14 -13h-268q-15 0 -19.5 4t-1.5 15l4 15q1 4 10.5 11t11.5 13.5t-9 26.5l-64 89l-73 -88
q-18 -26 -5 -33t31.5 -13t12.5 -15l-6 -10q-8 -15 -20 -15h-190q-14 0 -18.5 3t-0.5 14l5 16q3 8 24.5 12.5t29.5 12.5q26 23 40 40z" />
    <glyph glyph-name="y" unicode="y" horiz-adv-x="610" 
d="M212 -103l43 87l-175 387q-17 50 -54 67l-10 5t-7.5 4.5t-4 5.5t0.5 7l9 27q4 13 19 13h287q23 0 17 -19l-8 -22q-2 -7 -13 -13.5t-20 -12t-14 -19.5t4 -36l72 -174l94 199q6 19 -3 30t-23.5 13.5t-26 7.5t-9.5 14l6 12q9 20 16 20h165q15 0 23 -5t5 -18l-5 -18
q-3 -9 -8.5 -12t-15.5 -8.5t-20 -17.5q-5 -7 -26 -50l-256 -549q-16 -36 -34.5 -54t-48.5 -18h-59q-9 0 -13.5 0.5t-10 4.5t-8.5 13l-12 32q-4 6 -0.5 10.5t6 5.5t10.5 3l49 21q35 13 59 57z" />
    <glyph glyph-name="z" unicode="z" horiz-adv-x="556" 
d="M525 500v-47l-276 -386h148q30 0 52 12t31 26t16 25t11 10l25 -8q6 -2 6 -8v-101q0 -23 -46 -23h-457l-17 37l302 400h-123q-19 0 -34.5 -9t-24.5 -21t-16.5 -24t-12.5 -18.5t-9 -3.5l-18 15q-5 5 -5 9v90q-2 11 6.5 18t22.5 7h419z" />
    <glyph glyph-name="braceleft" unicode="{" horiz-adv-x="407" 
d="M286 116v-181q0 -59 19 -91.5t64 -41.5v-2q-128 -3 -170.5 29.5t-42.5 133.5v176q0 59 -14.5 85.5t-61.5 40.5v2q45 14 60.5 41t15.5 82v193q0 94 44.5 123t168.5 29v-2q-47 -12 -65 -43.5t-18 -90.5v-193q0 -63 -16 -94.5t-65 -44.5v-2q50 -14 65.5 -48t15.5 -101z" />
    <glyph glyph-name="bar" unicode="|" horiz-adv-x="426" 
d="M165 -250v1000h96v-1000h-96z" />
    <glyph glyph-name="braceright" unicode="}" horiz-adv-x="407" 
d="M121 419v181q0 59 -19 91.5t-64 41.5v2q128 3 170.5 -29.5t42.5 -133.5v-176q0 -59 14.5 -85.5t61.5 -40.5v-2q-45 -14 -60.5 -41t-15.5 -82v-193q0 -94 -44.5 -123t-168.5 -29v2q47 12 65 43.5t18 90.5v193q0 63 16 94.5t65 44.5v2q-50 14 -65.5 48t-15.5 101z" />
    <glyph glyph-name="asciitilde" unicode="~" 
d="M496 326l66 -36q-37 -57 -65.5 -83t-71.5 -26q-39 0 -101 31q-64 30 -101 30q-17 0 -31 -5t-24.5 -14.5t-16.5 -16.5t-13 -18l-7 -10l-64 36q36 59 67.5 86.5t78.5 27.5q37 0 109 -30q70 -31 89 -31t34 5.5t25.5 17t14.5 17.5t11 19z" />
    <glyph glyph-name="exclamdown" unicode="&#xa1;" horiz-adv-x="370" 
d="M92 419q0 38 28 65.5t65 27.5t65 -28t28 -65t-28 -65t-65 -28t-65 27.5t-28 65.5zM185 -235q-51 0 -81.5 16t-22.5 52q6 29 69 442h70q63 -413 69 -442q8 -36 -22.5 -52t-81.5 -16z" />
    <glyph glyph-name="cent" unicode="&#xa2;" 
d="M307 105l66 335q-51 -6 -83 -56t-32 -128q0 -105 49 -151zM468 570l-13 -64q38 -6 57 -11q20 -6 30.5 -14.5t8.5 -19.5v-94q0 -4 -6 -12l-29 -14q-5 -2 -11.5 6t-15 24.5t-14.5 23.5q-17 22 -36 32l-72 -351q14 -2 23 -2q50 0 79 21.5t55 62.5q1 3 13 -1.5t22.5 -11.5
t8.5 -11l-40 -90q-11 -24 -23 -32q-19 -10 -58.5 -17t-72.5 -7q-18 0 -25 2l-20 -96l-62 12l18 91q-111 20 -167.5 89t-56.5 164q0 119 82.5 190.5t235.5 71.5q5 0 8 -1l14 69z" />
    <glyph glyph-name="sterling" unicode="&#xa3;" 
d="M521 210l61 23q12 4 16 -3l30 -54q7 -13 -3 -41q-10 -30 -63 -88.5t-94 -58.5q-20 0 -47.5 3t-68.5 8.5t-71 8.5q-153 14 -287 -8v32q25 4 51 40.5t35 86.5q5 30 10 86.5t12 92.5h-103v70h106l10 46q22 126 105 192t178 66q85 0 156 -25q17 -5 27 -33l16 -57
q3 -10 -8 -12l-52 -5q-11 -2 -14 5q-4 4 -21.5 24t-25 26.5t-24.5 14.5t-36 8q-40 0 -63.5 -38.5t-30.5 -95.5l-13 -116h150v-70h-154l-10 -52q-30 -133 -101 -188l6 -10q100 30 138 30q21 0 61.5 -3t62.5 -3q36 0 46.5 4.5t13.5 21.5l-5 54q0 16 4 18z" />
    <glyph glyph-name="currency" unicode="&#xa4;" 
d="M40 149l66 66q-38 47 -38 132q0 90 36 141l-61 61l71 73l63 -64q55 38 142 38q38 0 75.5 -11t57.5 -27l63 64l73 -71l-59 -59q35 -59 35 -143q0 -41 -11 -78t-29 -54l66 -66l-71 -75l-63 63q-52 -39 -138 -39q-92 0 -141 42l-63 -64zM319 491q-61 0 -103.5 -42
t-42.5 -102t42.5 -101t102.5 -41q59 0 100 42.5t41 101.5q0 58 -41 100t-99 42z" />
    <glyph glyph-name="yen" unicode="&#xa5;" 
d="M552 220h-151q-2 -10 -2 -20v-80q0 -35 11.5 -46.5t48.5 -21.5q18 -3 10 -21l-8 -23q-3 -8 -15 -8h-302q-18 0 -12 19l5 19q3 11 18 16q48 10 48 66v100h-153v54h142l-24 61h-118v54h89l-82 183q-15 34 -27.5 48t-30.5 24q-23 11 -19 23l9 23q2 10 16 10h275
q5 0 8.5 -3.5t1.5 -10.5l-7 -25q-2 -6 -13 -13.5t-17 -14.5q-17 -19 -8 -57l114 -243l130 252q18 38 -14 60q-4 3 -10 6.5t-9 5t-6.5 4.5t-2.5 5.5t1 7.5l9 18q4 8 12 8h170q14 0 10 -15l-4 -20q-2 -7 -31 -21q-33 -15 -59 -70l-93 -185h90v-54h-122l-7 -14q-9 -19 -13 -47
h142v-54z" />
    <glyph glyph-name="brokenbar" unicode="&#xa6;" horiz-adv-x="426" 
d="M165 -175v350h96v-350h-96zM165 325v350h96v-350h-96z" />
    <glyph glyph-name="section" unicode="&#xa7;" horiz-adv-x="648" 
d="M278 364q-73 -10 -71 -56q0 -17 10 -32.5t18 -22.5t23 -18q18 -13 26.5 -19t27.5 -13t38 -7q31 0 54.5 16t23.5 32t-6.5 30t-12 20.5t-19.5 19.5q-47 50 -112 50zM262 407l2 2q-42 33 -61 49t-42.5 40.5t-32 45.5t-8.5 45q0 60 64 91.5t156 31.5q38 0 93 -10.5t74 -21.5
l42 -72q7 -12 -23 -28l-29 -15q-21 -11 -32 0l-60 65q-36 34 -69 34q-26 0 -41 -11.5t-15 -32.5q0 -34 84 -102q13 -12 21 -18l44 -35q94 -74 125 -110q45 -53 45 -98q0 -71 -75 -100.5t-167 -7.5l-2 -2q97 -53 135 -91.5t38 -97.5q0 -29 -22 -56.5t-59 -45.5
q-49 -25 -169 -25q-45 0 -105.5 10t-79.5 20l-41 73q-7 11 11 22l48 28q22 13 32 2l67 -74q12 -13 18 -18.5t22 -11.5t36 -6q74 0 74 56q0 24 -24.5 52t-49.5 45.5t-74 49.5q-50 32 -79.5 54.5t-57 61t-27.5 78.5q0 74 68.5 113.5t145.5 20.5z" />
    <glyph glyph-name="dieresis" unicode="&#xa8;" horiz-adv-x="500" 
d="M128 559q-26 0 -45.5 19.5t-19.5 45.5q0 25 20 45.5t45 20.5q26 0 46 -19.5t20 -46.5q0 -26 -20 -45.5t-46 -19.5zM370 559q-26 0 -45.5 19.5t-19.5 45.5q0 25 20 45.5t45 20.5q26 0 46 -19.5t20 -46.5q0 -26 -20 -45.5t-46 -19.5z" />
    <glyph glyph-name="copyright" unicode="&#xa9;" horiz-adv-x="778" 
d="M389 712q149 0 255.5 -106.5t106.5 -255.5t-106.5 -255.5t-255.5 -106.5t-255.5 106.5t-106.5 255.5t106.5 255.5t255.5 106.5zM389 638q-118 0 -203 -85t-85 -203t84.5 -203t203.5 -85q118 0 203 85t85 203t-85 203t-203 85zM552 472l-40 -23q-7 3 -20 20t-31 31t-43 14
q-41 0 -66.5 -42.5t-25.5 -108.5q0 -157 114 -157q21 0 46 16t36 41q5 7 34 -8l-23 -63q-9 -18 -13 -21q-23 -21 -116 -21q-103 0 -166.5 58t-63.5 151q0 85 67.5 143t172.5 58q99 0 140 -41l1 -3q1 -2 1 -4v-32q0 -8 -4 -8z" />
    <glyph glyph-name="ordfeminine" unicode="&#xaa;" horiz-adv-x="463" 
d="M265 424v42h-2q-16 -27 -50.5 -47.5t-69.5 -20.5q-56 0 -91 41t-35 98q0 74 59 124.5t158 50.5q75 0 120 -16q2 -1 9 -3.5t9 -3.5t7 -4t7 -6t4.5 -7.5t3.5 -11t1 -14.5v-170q0 -22 9 -29.5t39 -13.5q5 2 2 -5l-2 -4l-5 -14q-5 -5 -10 -5h-145q-18 0 -18 19zM219 672
q-30 0 -48.5 -33.5t-18.5 -76.5q0 -38 13 -64t34 -26q19 0 35 19.5t22 49.5q9 37 9 51q0 80 -46 80z" />
    <glyph glyph-name="guillemotleft" unicode="&#xab;" horiz-adv-x="519" 
d="M50 238l162 153q2 2 9 8.5t10.5 9t10 5.5t12.5 3q14 0 14 -19q0 -10 -31 -75t-45 -85q13 -21 41 -80t35 -81q0 -19 -17 -19q-3 0 -5.5 1t-6 3t-6 3.5t-6.5 5.5l-6.5 6.5t-8 7.5t-8.5 8zM252 238l162 153q2 2 9 8.5t10.5 9t10 5.5t12.5 3q14 0 14 -19q0 -10 -31 -75
t-45 -85q13 -21 41 -80t35 -81q0 -19 -17 -19q-3 0 -5.5 1t-6 3t-6 3.5t-6.5 5.5l-6.5 6.5t-8 7.5t-8.5 8z" />
    <glyph glyph-name="logicalnot" unicode="&#xac;" 
d="M471 108v194h-408v96h504v-290h-96z" />
    <glyph glyph-name="registered" unicode="&#xae;" horiz-adv-x="778" 
d="M389 712q149 0 255.5 -106.5t106.5 -255.5t-106.5 -255.5t-255.5 -106.5t-255.5 106.5t-106.5 255.5t106.5 255.5t255.5 106.5zM389 638q-118 0 -203 -85t-85 -203t84.5 -203t203.5 -85q118 0 203 85t85 203t-85 203t-203 85zM236 230v241q0 21 -8 30.5t-26 12.5
q-12 5 -10 12l5 13q3 8 9 8h266q38 0 73.5 -25t35.5 -68q0 -94 -84 -117q58 -101 88 -126q4 -3 9 -7t7 -6t3.5 -4.5t1 -5t-3.5 -5.5l-8 -10q-11 -13 -20 -13h-94q-8 0 -16 14l-89 143h-6v-87q0 -20 6.5 -27.5t27.5 -12.5q9 -1 5 -12l-4 -13q-2 -5 -9 -5h-193q-11 0 -6 11
l3 12q1 4 9 8q28 8 28 39zM369 511v-158h24q22 -2 37 22t15 67q-1 69 -44 69h-32z" />
    <glyph glyph-name="macron" unicode="&#xaf;" 
d="M565 612h-501v86h501v-86z" />
    <glyph glyph-name="degree" unicode="&#xb0;" horiz-adv-x="389" 
d="M195 639q-29 0 -50 -21t-21 -50q0 -28 22 -49t49 -21q28 0 49 21.5t21 48.5q0 28 -21 49.5t-49 21.5zM195 425q-59 0 -101.5 42.5t-42.5 100.5t43 101t101 43t100.5 -42.5t42.5 -101.5q0 -58 -42 -100.5t-101 -42.5z" />
    <glyph glyph-name="plusminus" unicode="&#xb1;" 
d="M267 437v205h96v-205h204v-96h-204v-205h-96v205h-204v96h204zM63 0v96h504v-96h-504z" />
    <glyph glyph-name="twosuperior" unicode="&#xb2;" horiz-adv-x="426" 
d="M26 285v69q14 13 53.5 38.5t57.5 43.5q1 1 19 18t26.5 27t22.5 27.5t20.5 33.5t6.5 32q0 27 -16 44t-30 17q-43 0 -65 -37l-21 -33q-1 -7 -7 -4l-32 5q-4 6 -4 9v67q0 5 3.5 10t7 8t11 8.5t11.5 8.5q15 12 50.5 23.5t63.5 11.5q62 0 123.5 -29t61.5 -78
q0 -32 -19.5 -63.5t-49.5 -56t-54 -40t-46 -26.5l-97 -44v-2h157q20 0 39.5 20.5t33 38.5t20.5 14l25 -12q6 -3 4 -9l-49 -126q-4 -14 -28 -14h-299z" />
    <glyph glyph-name="threesuperior" unicode="&#xb3;" horiz-adv-x="426" 
d="M119 490v37q45 0 77 23.5t32 64.5q0 53 -47 53q-31 0 -53.5 -19.5t-30.5 -38.5l-7 -14q-3 -7 -12 -4l-21 11q-4 2 -4 7v52q0 7 24 21q56 29 155 29q130 0 159 -69q7 -16 7 -37q0 -24 -44 -54t-83 -29v-3q70 -4 108.5 -35.5t38.5 -75.5q0 -57 -59 -94t-173 -37
q-101 0 -139 29l-23 61q-1 8 8 15l25 24q2 2 7 2t7 -3l35 -48q2 -3 7.5 -11t9 -11.5t9 -8.5t12.5 -7t16 -2q40 0 64 19.5t24 56.5q0 89 -129 96z" />
    <glyph glyph-name="acute" unicode="&#xb4;" horiz-adv-x="426" 
d="M312 654l-146 -72q-46 4 -40 42l120 108q5 5 21 19.5t24 21t22 13t27 6.5q22 0 39.5 -15.5t17.5 -39.5q0 -18 -13.5 -34t-28.5 -25.5t-43 -23.5z" />
    <glyph glyph-name="mu" unicode="&#xb5;" horiz-adv-x="722" 
d="M293 483v-270q0 -36 5 -59.5t14 -33t16 -12t18 -2.5q24 0 45 27t23 58q10 74 10 145v44q0 52 -50 67q-21 6 -14 22l9 23q1 4 1 7q2 1 3 1h227h3q19 -4 21 -17v-379q0 -26 14 -40q6 -6 17.5 -10t21 -5t18.5 -4t10.5 -7.5t-2.5 -14.5l-6 -14q-5 -9 -30 -9h-219
q-8 0 -11.5 0.5t-8 5t-4.5 14.5v48l-38 -36q-59 -44 -98 -44q-59 0 -82 34q-9 -12 12 -48l46 -104q14 -32 8 -46.5t-35 -19.5q-116 -22 -131 -14q-3 1 -4 4q-9 36 -9 106v480q0 35 -12 46.5t-49 20.5q-21 6 -14 22l9 23q3 8 15 8h227h3q19 -4 21 -17z" />
    <glyph glyph-name="paragraph" unicode="&#xb6;" horiz-adv-x="722" 
d="M290 344v304q-88 -8 -88 -148q0 -79 21 -117.5t67 -38.5zM668 685l-6 -16q-3 -9 -19 -13q-51 -8 -51 -53v-676q0 -28 12.5 -37.5t51.5 -17.5q18 -3 11 -17l-8 -18q-5 -7 -17 -7h-176v818h-50v-818h-210q-19 0 -13 15l6 16q3 9 19 13q26 4 49 17t23 36v354
q-137 -1 -201 57t-64 159q0 108 57 155.5t187 47.5h386q19 0 13 -15z" />
    <glyph glyph-name="periodcentered" unicode="&#xb7;" horiz-adv-x="315" 
d="M64 253q0 38 28 65.5t65 27.5t65 -28t28 -65t-28 -65t-65 -28t-65 27.5t-28 65.5z" />
    <glyph glyph-name="cedilla" unicode="&#xb8;" horiz-adv-x="333" 
d="M107 -99l48 109h44l-32 -75q14 3 29 3q29 0 52 -18t23 -51q0 -38 -39 -61t-90 -23q-37 0 -68 12q-11 22 13 32q35 -8 46 -8q41 0 41 42q0 30 -21 36q-15 2 -39 -3z" />
    <glyph glyph-name="onesuperior" unicode="&#xb9;" horiz-adv-x="426" 
d="M302 712v-339q0 -21 14 -35q12 -8 47 -12q24 -2 24 -7q0 -1 -1 -3l-7 -16q-4 -8 -10 -11.5t-8.5 -3.5h-13.5h-259q-26 0 -29 5q-3 6 0 14l5 14q3 5 27.5 8.5t29.5 7.5q21 16 21 39v237q0 35 -67 13l-14 -4q-8 -3 -10 5l-4 24q-4 10 4 13z" />
    <glyph glyph-name="ordmasculine" unicode="&#xba;" horiz-adv-x="426" 
d="M222 712q85 0 134 -47t49 -104q0 -61 -53 -112t-149 -51q-84 0 -133 46.5t-49 104.5q0 61 52 112t149 51zM215 676q-32 0 -45.5 -34t-13.5 -76q0 -61 18 -96.5t41 -35.5q55 0 55 114q0 59 -16 93.5t-39 34.5z" />
    <glyph glyph-name="guillemotright" unicode="&#xbb;" horiz-adv-x="519" 
d="M470 237l-162 -153q-2 -2 -9 -8.5t-10.5 -9t-10 -5.5t-12.5 -3q-14 0 -14 19q0 10 31 75t45 85q-13 21 -41 80t-35 81q0 19 17 19q3 0 5.5 -1t6 -3t6 -3.5t6.5 -5.5l6.5 -6.5t8 -7.5t8.5 -8zM268 237l-162 -153q-2 -2 -9 -8.5t-10.5 -9t-10 -5.5t-12.5 -3q-14 0 -14 19
q0 10 31 75t45 85q-13 21 -41 80t-35 81q0 19 17 19q3 0 5.5 -1t6 -3t6 -3.5t6.5 -5.5l6.5 -6.5t8 -7.5t8.5 -8z" />
    <glyph glyph-name="onequarter" unicode="&#xbc;" horiz-adv-x="1074" 
d="M951 420v-226h80q3 -1 2.5 -4.5t-6.5 -14.5l-28 -53h-48v-34q0 -21 14 -35q11 -8 55 -13q16 -2 16 -6q0 -1 -1 -3l-7 -16q-4 -8 -10 -11.5t-8.5 -3.5h-13.5h-259q-26 0 -29 5q-3 4 0 14l5 14q3 5 27.5 8.5t29.5 7.5q21 16 21 39v34h-163q-20 0 -22 5l-23 31
q34 47 68 91.5t76.5 97.5t57.5 73h166zM395 0h-84l365 700h83zM670 194h121v149q-54 -51 -121 -149zM302 712v-339q0 -21 14 -35q12 -8 47 -12q24 -2 24 -7q0 -1 -1 -3l-7 -16q-4 -8 -10 -11.5t-8.5 -3.5h-13.5h-259q-26 0 -29 5q-3 6 0 14l5 14q3 5 27.5 8.5t29.5 7.5
q21 16 21 39v237q0 35 -67 13l-14 -4q-8 -3 -10 5l-4 24q-4 10 4 13z" />
    <glyph glyph-name="onehalf" unicode="&#xbd;" horiz-adv-x="1074" 
d="M412 0h-84l365 700h83zM644 0v69q14 13 53.5 38.5t57.5 43.5q1 1 19 18t26.5 27t22.5 27.5t20.5 33.5t6.5 32q0 27 -16 44t-30 17q-43 0 -65 -37l-21 -33q-1 -7 -7 -4l-32 5q-4 6 -4 9v67q0 5 3.5 10t7 8t11 8.5t11.5 8.5q15 13 53 23.5t77 10.5q68 0 118.5 -27.5
t50.5 -78.5q0 -32 -19.5 -63.5t-49.5 -56t-54 -40t-46 -26.5l-77 -44v-2h137q20 0 39.5 20.5t33 38.5t20.5 14l25 -12q6 -3 4 -9l-49 -126q-4 -14 -28 -14h-299zM312 712v-339q0 -21 14 -35q12 -8 47 -12q24 -2 24 -7q0 -1 -1 -3l-7 -16q-4 -8 -10 -11.5t-8.5 -3.5h-13.5
h-259q-26 0 -29 5q-3 6 0 14l5 14q3 5 27.5 8.5t29.5 7.5q21 16 21 39v237q0 35 -67 13l-14 -4q-8 -3 -10 5l-4 24q-4 10 4 13z" />
    <glyph glyph-name="threequarters" unicode="&#xbe;" horiz-adv-x="1074" 
d="M668 194h121v149q-54 -51 -121 -149zM398 0h-84l365 700h83zM949 420v-226h80q3 -1 2.5 -4.5t-6.5 -14.5l-28 -53h-48v-34q0 -21 14 -35q11 -8 55 -13q16 -2 16 -6q0 -1 -1 -3l-7 -16q-4 -8 -10 -11.5t-8.5 -3.5h-13.5h-259q-26 0 -29 5q-3 4 0 14l5 14q3 5 27.5 8.5
t29.5 7.5q21 16 21 39v34h-163q-20 0 -22 5l-23 31q34 47 68 91.5t76.5 97.5t57.5 73h166zM135 490v37q45 0 77 23.5t32 64.5q0 53 -47 53q-31 0 -53.5 -19.5t-30.5 -38.5l-7 -14q-3 -7 -12 -4l-21 11q-4 2 -4 7v52q0 7 24 21q56 29 155 29q130 0 159 -69q7 -16 7 -37
q0 -24 -44 -54t-83 -29v-3q70 -4 108.5 -35.5t38.5 -75.5q0 -57 -59 -94t-173 -37q-101 0 -139 29l-23 61q-1 8 8 15l25 24q2 2 7 2t7 -3l35 -48q2 -3 7.5 -11t9 -11.5t9 -8.5t12.5 -7t16 -2q40 0 64 19.5t24 56.5q0 89 -129 96z" />
    <glyph glyph-name="questiondown" unicode="&#xbf;" horiz-adv-x="519" 
d="M278 -235q-98 0 -161 43.5t-63 121.5q0 29 14.5 60t29.5 49.5t43.5 48.5t36.5 40q64 76 73 128h86q9 -62 -30 -161q-50 -115 -50 -189q0 -23 13.5 -63.5t35.5 -40.5q11 0 22.5 10.5t23.5 26.5t16 19l33 29q18 10 38 -5l13 -8q16 -10 11 -26l-33 -58q-37 -25 -152 -25z
M289 512q37 0 65 -28t28 -65t-28 -65t-65 -28t-65 27.5t-28 65.5t28 65.5t65 27.5z" />
    <glyph glyph-name="Agrave" unicode="&#xc0;" horiz-adv-x="763" 
d="M245 273h163l-81 213zM757 35l-9 -21q-4 -9 -8.5 -11.5t-17.5 -2.5h-294q-21 0 -15 19l9 23q3 10 19 18.5t24.5 22.5t-0.5 42l-33 78h-209l-38 -95q-6 -20 0.5 -33t18 -17.5t19.5 -10.5t4 -15l-6 -12l-3 -6q-2 -5 -3 -7t-5 -4.5t-9 -2.5h-163h-8h-8t-6.5 0.5t-6 2t-3.5 4
t-1.5 6.5t2.5 9l5 15q3 11 26 17q31 8 42 20t28 54l153 410q4 11 5.5 21t0.5 18t-2 13.5t-5 11.5t-5.5 8.5t-6 7.5t-5.5 6q-9 9 -27 15t-26.5 11.5t-2.5 18.5l5 18q4 13 24 13h217q19 0 25 -29q93 -269 215 -541q14 -38 27.5 -53t43.5 -22q18 -5 13 -20zM329 912l124 -108
q0 -20 -9.5 -30.5t-32.5 -15.5l-148 76q-28 14 -43 23.5t-28.5 25.5t-13.5 34q0 24 17.5 39.5t39.5 15.5q13 0 27 -6.5t22 -13t24 -21t21 -19.5z" />
    <glyph glyph-name="Aacute" unicode="&#xc1;" horiz-adv-x="763" 
d="M245 273h163l-81 213zM757 35l-9 -21q-4 -9 -8.5 -11.5t-17.5 -2.5h-294q-21 0 -15 19l9 23q3 10 19 18.5t24.5 22.5t-0.5 42l-33 78h-209l-38 -95q-6 -20 0.5 -33t18 -17.5t19.5 -10.5t4 -15l-6 -12l-3 -6q-2 -5 -3 -7t-5 -4.5t-9 -2.5h-163h-8h-8t-6.5 0.5t-6 2t-3.5 4
t-1.5 6.5t2.5 9l5 15q3 11 26 17q31 8 42 20t28 54l153 410q4 11 5.5 21t0.5 18t-2 13.5t-5 11.5t-5.5 8.5t-6 7.5t-5.5 6q-9 9 -27 15t-26.5 11.5t-2.5 18.5l5 18q4 13 24 13h217q19 0 25 -29q93 -269 215 -541q14 -38 27.5 -53t43.5 -22q18 -5 13 -20zM461 834l-146 -72
q-46 4 -40 42l120 108q5 5 21 19.5t24 21t22 13t27 6.5q22 0 39.5 -15.5t17.5 -39.5q0 -18 -13.5 -34t-28.5 -25.5t-43 -23.5z" />
    <glyph glyph-name="Acircumflex" unicode="&#xc2;" horiz-adv-x="763" 
d="M245 273h163l-81 213zM757 35l-9 -21q-4 -9 -8.5 -11.5t-17.5 -2.5h-294q-21 0 -15 19l9 23q3 10 19 18.5t24.5 22.5t-0.5 42l-33 78h-209l-38 -95q-6 -20 0.5 -33t18 -17.5t19.5 -10.5t4 -15l-6 -12l-3 -6q-2 -5 -3 -7t-5 -4.5t-9 -2.5h-163h-8h-8t-6.5 0.5t-6 2t-3.5 4
t-1.5 6.5t2.5 9l5 15q3 11 26 17q31 8 42 20t28 54l153 410q4 11 5.5 21t0.5 18t-2 13.5t-5 11.5t-5.5 8.5t-6 7.5t-5.5 6q-9 9 -27 15t-26.5 11.5t-2.5 18.5l5 18q4 13 24 13h217q19 0 25 -29q93 -269 215 -541q14 -38 27.5 -53t43.5 -22q18 -5 13 -20zM351 832l-141 -74
q-51 -9 -58 8l157 153h84l157 -153q-7 -17 -58 -8z" />
    <glyph glyph-name="Atilde" unicode="&#xc3;" horiz-adv-x="763" 
d="M245 273h163l-81 213zM757 35l-9 -21q-4 -9 -8.5 -11.5t-17.5 -2.5h-294q-21 0 -15 19l9 23q3 10 19 18.5t24.5 22.5t-0.5 42l-33 78h-209l-38 -95q-6 -20 0.5 -33t18 -17.5t19.5 -10.5t4 -15l-6 -12l-3 -6q-2 -5 -3 -7t-5 -4.5t-9 -2.5h-163h-8h-8t-6.5 0.5t-6 2t-3.5 4
t-1.5 6.5t2.5 9l5 15q3 11 26 17q31 8 42 20t28 54l153 410q4 11 5.5 21t0.5 18t-2 13.5t-5 11.5t-5.5 8.5t-6 7.5t-5.5 6q-9 9 -27 15t-26.5 11.5t-2.5 18.5l5 18q4 13 24 13h217q19 0 25 -29q93 -269 215 -541q14 -38 27.5 -53t43.5 -22q18 -5 13 -20zM270 889
q66 0 95 -25q3 -1 13.5 -6t16 -7t15.5 -5t20 -4.5t22 -1.5q26 0 45.5 14t23.5 32q41 15 60 -6q-1 -46 -41.5 -87t-95.5 -41q-60 0 -105 31q-33 22 -78 22q-36 0 -62 -45q-39 -14 -58 16q11 44 46 78.5t83 34.5z" />
    <glyph glyph-name="Adieresis" unicode="&#xc4;" horiz-adv-x="763" 
d="M245 273h163l-81 213zM757 35l-9 -21q-4 -9 -8.5 -11.5t-17.5 -2.5h-294q-21 0 -15 19l9 23q3 10 19 18.5t24.5 22.5t-0.5 42l-33 78h-209l-38 -95q-6 -20 0.5 -33t18 -17.5t19.5 -10.5t4 -15l-6 -12l-3 -6q-2 -5 -3 -7t-5 -4.5t-9 -2.5h-163h-8h-8t-6.5 0.5t-6 2t-3.5 4
t-1.5 6.5t2.5 9l5 15q3 11 26 17q31 8 42 20t28 54l153 410q4 11 5.5 21t0.5 18t-2 13.5t-5 11.5t-5.5 8.5t-6 7.5t-5.5 6q-9 9 -27 15t-26.5 11.5t-2.5 18.5l5 18q4 13 24 13h217q19 0 25 -29q93 -269 215 -541q14 -38 27.5 -53t43.5 -22q18 -5 13 -20zM230 759
q-26 0 -45.5 19.5t-19.5 45.5q0 25 20 45.5t45 20.5q26 0 46 -19.5t20 -46.5q0 -26 -20 -45.5t-46 -19.5zM472 759q-26 0 -45.5 19.5t-19.5 45.5q0 25 20 45.5t45 20.5q26 0 46 -19.5t20 -46.5q0 -26 -20 -45.5t-46 -19.5z" />
    <glyph glyph-name="Aring" unicode="&#xc5;" horiz-adv-x="763" 
d="M245 273h163l-81 213zM757 35l-9 -21q-4 -9 -8.5 -11.5t-17.5 -2.5h-294q-21 0 -15 19l9 23q3 10 19 18.5t24.5 22.5t-0.5 42l-33 78h-209l-38 -95q-6 -20 0.5 -33t18 -17.5t19.5 -10.5t4 -15l-6 -12l-3 -6q-2 -5 -3 -7t-5 -4.5t-9 -2.5h-163h-8h-8t-6.5 0.5t-6 2t-3.5 4
t-1.5 6.5t2.5 9l5 15q3 11 26 17q31 8 42 20t28 54l153 410q4 11 5.5 21t0.5 18t-2 13.5t-5 11.5t-5.5 8.5t-6 7.5t-5.5 6q-9 9 -27 15t-26.5 11.5t-2.5 18.5l5 18q4 13 24 13h217q19 0 25 -29q93 -269 215 -541q14 -38 27.5 -53t43.5 -22q18 -5 13 -20zM361 885
q-18 0 -30.5 -12.5t-12.5 -30.5q0 -16 13 -29.5t30 -13.5t30.5 13t13.5 30t-13 30t-31 13zM361 742q-39 0 -69.5 29.5t-30.5 69.5t30.5 70.5t71.5 30.5q40 0 69.5 -30t29.5 -71t-29.5 -70t-71.5 -29z" />
    <glyph glyph-name="AE" unicode="&#xc6;" horiz-adv-x="1036" 
d="M290 273h199v354h-2zM7 22l5 15q3 11 26 17q30 8 40.5 19t36.5 55l234 410q38 66 21 86q-9 9 -27 15t-26.5 11.5t-2.5 18.5l5 18q4 13 24 13h594q14 0 22.5 -7t6.5 -18v-90q0 -4 -5 -9l-18 -15q-4 -3 -9 2.5t-12.5 16.5t-16.5 22t-24.5 19.5t-34.5 8.5h-146v-213h231
q10 0 13.5 -4t-0.5 -10l-25 -42q-13 -14 -32 -14h-187v-174q0 -62 15.5 -82.5t57.5 -20.5h81q33 0 58.5 13t36.5 28.5t19 27.5t12 11l25 -8q6 -2 6 -9v-108q0 -25 -46 -25h-503q-26 0 -34.5 4t-4.5 15l9 23q3 9 13 16t19.5 12t17 19t7.5 36v78h-241l-58 -95q-11 -18 -4 -30
t20.5 -17.5t24 -12.5t6.5 -16l-6 -12l-3 -6q-2 -5 -3 -7t-5 -4.5t-9 -2.5h-173h-8h-8t-6.5 0.5t-6 2t-3.5 4t-1.5 6.5t2.5 9z" />
    <glyph glyph-name="Ccedilla" unicode="&#xc7;" horiz-adv-x="704" 
d="M671 148l-36 -94q-12 -27 -20 -32q-43 -34 -175 -34q-38 0 -63 4l-24 -57q14 3 29 3q29 0 52 -18t23 -51q0 -38 -39 -61t-90 -23q-37 0 -68 12q-11 22 13 32q35 -8 46 -8q41 0 41 42q0 30 -21 36q-15 2 -39 -3l-7 5l43 97q-140 27 -220 122.5t-80 235.5q0 149 112 252.5
t284 103.5q72 0 140 -18t96 -39q5 -4 5 -14v-75q0 -10 -8 -14l-40 -24q-4 -3 -14 7.5t-26 27.5t-36.5 34t-52 29.5t-66.5 12.5q-88 0 -132 -73.5t-44 -201.5q0 -286 218 -286q39 0 87.5 20.5t76.5 61.5q6 7 14.5 5.5t15.5 -7.5t5 -10z" />
    <glyph glyph-name="Egrave" unicode="&#xc8;" horiz-adv-x="658" 
d="M322 630v-213h231q10 0 13.5 -4t-0.5 -10l-25 -42q-13 -14 -32 -14h-187v-174q0 -62 15.5 -82.5t57.5 -20.5h81q33 0 58.5 13t36.5 28.5t19 27.5t12 11l25 -8q6 -2 6 -9v-108q0 -25 -46 -25h-309q-115 0 -141 9.5t-26 59.5v502q0 34 -15 51t-48 23q-9 2 -12.5 4t-7 6
t0.5 10l8 22q5 13 17 13h505q14 0 22.5 -7t6.5 -18v-90q0 -4 -5 -9l-18 -15q-4 -3 -9 2.5t-12.5 16.5t-16.5 22t-24.5 19.5t-34.5 8.5h-146zM296 912l124 -108q0 -20 -9.5 -30.5t-32.5 -15.5l-148 76q-28 14 -43 23.5t-28.5 25.5t-13.5 34q0 24 17.5 39.5t39.5 15.5
q13 0 27 -6.5t22 -13t24 -21t21 -19.5z" />
    <glyph glyph-name="Eacute" unicode="&#xc9;" horiz-adv-x="658" 
d="M322 630v-213h231q10 0 13.5 -4t-0.5 -10l-25 -42q-13 -14 -32 -14h-187v-174q0 -62 15.5 -82.5t57.5 -20.5h81q33 0 58.5 13t36.5 28.5t19 27.5t12 11l25 -8q6 -2 6 -9v-108q0 -25 -46 -25h-309q-115 0 -141 9.5t-26 59.5v502q0 34 -15 51t-48 23q-9 2 -12.5 4t-7 6
t0.5 10l8 22q5 13 17 13h505q14 0 22.5 -7t6.5 -18v-90q0 -4 -5 -9l-18 -15q-4 -3 -9 2.5t-12.5 16.5t-16.5 22t-24.5 19.5t-34.5 8.5h-146zM428 834l-146 -72q-46 4 -40 42l120 108q5 5 21 19.5t24 21t22 13t27 6.5q22 0 39.5 -15.5t17.5 -39.5q0 -18 -13.5 -34
t-28.5 -25.5t-43 -23.5z" />
    <glyph glyph-name="Ecircumflex" unicode="&#xca;" horiz-adv-x="658" 
d="M322 630v-213h231q10 0 13.5 -4t-0.5 -10l-25 -42q-13 -14 -32 -14h-187v-174q0 -62 15.5 -82.5t57.5 -20.5h81q33 0 58.5 13t36.5 28.5t19 27.5t12 11l25 -8q6 -2 6 -9v-108q0 -25 -46 -25h-309q-115 0 -141 9.5t-26 59.5v502q0 34 -15 51t-48 23q-9 2 -12.5 4t-7 6
t0.5 10l8 22q5 13 17 13h505q14 0 22.5 -7t6.5 -18v-90q0 -4 -5 -9l-18 -15q-4 -3 -9 2.5t-12.5 16.5t-16.5 22t-24.5 19.5t-34.5 8.5h-146zM328 832l-141 -74q-51 -9 -58 8l157 153h84l157 -153q-7 -17 -58 -8z" />
    <glyph glyph-name="Edieresis" unicode="&#xcb;" horiz-adv-x="658" 
d="M322 630v-213h231q10 0 13.5 -4t-0.5 -10l-25 -42q-13 -14 -32 -14h-187v-174q0 -62 15.5 -82.5t57.5 -20.5h81q33 0 58.5 13t36.5 28.5t19 27.5t12 11l25 -8q6 -2 6 -9v-108q0 -25 -46 -25h-309q-115 0 -141 9.5t-26 59.5v502q0 34 -15 51t-48 23q-9 2 -12.5 4t-7 6
t0.5 10l8 22q5 13 17 13h505q14 0 22.5 -7t6.5 -18v-90q0 -4 -5 -9l-18 -15q-4 -3 -9 2.5t-12.5 16.5t-16.5 22t-24.5 19.5t-34.5 8.5h-146zM207 759q-25 0 -45 19.5t-20 45.5q0 25 20 45.5t45 20.5q26 0 46 -19.5t20 -46.5q0 -26 -20 -45.5t-46 -19.5zM449 759
q-25 0 -45 19.5t-20 45.5q0 25 20 45.5t45 20.5q26 0 46 -19.5t20 -46.5q0 -26 -20 -45.5t-46 -19.5z" />
    <glyph glyph-name="Igrave" unicode="&#xcc;" horiz-adv-x="435" 
d="M112 120v460q0 35 -12.5 46.5t-51.5 21.5q-19 3 -11 21l8 23q5 8 17 8h324q19 0 13 -19l-6 -19q-4 -12 -19 -16q-51 -10 -51 -66v-460q0 -35 12.5 -46.5t51.5 -21.5q19 -3 11 -21l-8 -23q-5 -8 -17 -8h-324q-19 0 -13 19l6 19q4 12 19 16q51 10 51 66zM185 912l124 -108
q0 -20 -9.5 -30.5t-32.5 -15.5l-148 76q-28 14 -43 23.5t-28.5 25.5t-13.5 34q0 24 17.5 39.5t39.5 15.5q13 0 27 -6.5t22 -13t24 -21t21 -19.5z" />
    <glyph glyph-name="Iacute" unicode="&#xcd;" horiz-adv-x="435" 
d="M112 120v460q0 35 -12.5 46.5t-51.5 21.5q-19 3 -11 21l8 23q5 8 17 8h324q19 0 13 -19l-6 -19q-4 -12 -19 -16q-51 -10 -51 -66v-460q0 -35 12.5 -46.5t51.5 -21.5q19 -3 11 -21l-8 -23q-5 -8 -17 -8h-324q-19 0 -13 19l6 19q4 12 19 16q51 10 51 66zM317 834l-146 -72
q-46 4 -40 42l120 108q5 5 21 19.5t24 21t22 13t27 6.5q22 0 39.5 -15.5t17.5 -39.5q0 -18 -13.5 -34t-28.5 -25.5t-43 -23.5z" />
    <glyph glyph-name="Icircumflex" unicode="&#xce;" horiz-adv-x="435" 
d="M112 120v460q0 35 -12.5 46.5t-51.5 21.5q-19 3 -11 21l8 23q5 8 17 8h324q19 0 13 -19l-6 -19q-4 -12 -19 -16q-51 -10 -51 -66v-460q0 -35 12.5 -46.5t51.5 -21.5q19 -3 11 -21l-8 -23q-5 -8 -17 -8h-324q-19 0 -13 19l6 19q4 12 19 16q51 10 51 66zM217 832l-141 -74
q-51 -9 -58 8l157 153h84l157 -153q-7 -17 -58 -8z" />
    <glyph glyph-name="Idieresis" unicode="&#xcf;" horiz-adv-x="435" 
d="M112 120v460q0 35 -12.5 46.5t-51.5 21.5q-19 3 -11 21l8 23q5 8 17 8h324q19 0 13 -19l-6 -19q-4 -12 -19 -16q-51 -10 -51 -66v-460q0 -35 12.5 -46.5t51.5 -21.5q19 -3 11 -21l-8 -23q-5 -8 -17 -8h-324q-19 0 -13 19l6 19q4 12 19 16q51 10 51 66zM96 759
q-26 0 -45.5 19.5t-19.5 45.5q0 25 20 45.5t45 20.5q26 0 46 -19.5t20 -46.5q0 -26 -20 -45.5t-46 -19.5zM338 759q-26 0 -45.5 19.5t-19.5 45.5q0 25 20 45.5t45 20.5q26 0 46 -19.5t20 -46.5q0 -26 -20 -45.5t-46 -19.5z" />
    <glyph glyph-name="Eth" unicode="&#xd0;" horiz-adv-x="848" 
d="M472 406v-70h-140v-188q0 -51 31.5 -73t69.5 -22q57 0 95.5 42.5t54.5 109.5t16 156q0 146 -47.5 210t-141.5 64h-78v-229h140zM121 65v271h-119v70h119v165q0 34 -15 51t-48 23q-9 2 -12.5 4t-7 6t0.5 10l8 22q5 13 17 13h371q203 0 289 -86t86 -248q0 -158 -107.5 -268
t-270.5 -110q-213 0 -284 24q-27 10 -27 53z" />
    <glyph glyph-name="Ntilde" unicode="&#xd1;" horiz-adv-x="815" 
d="M279 31l-8 -23q-5 -8 -17 -8h-197q-19 0 -13 19l6 19q4 12 19 16q51 10 51 66v458q-35 40 -92 65q-24 9 -17 26l8 23q6 8 17 8h251q12 -1 23 -8.5t15 -11.5t18 -21l305 -404h2v325q0 35 -12.5 46.5t-51.5 21.5q-19 3 -11 21l8 23q5 8 17 8h197q19 0 13 -19l-6 -19
q-4 -12 -19 -16q-51 -10 -51 -66v-547q0 -33 -27 -33h-116q-5 0 -42 45l-343 463h-2v-388q0 -35 12.5 -46.5t51.5 -21.5q19 -3 11 -21zM316 889q66 0 95 -25q3 -1 13.5 -6t16 -7t15.5 -5t20 -4.5t22 -1.5q26 0 45.5 14t23.5 32q41 15 60 -6q-1 -46 -41.5 -87t-95.5 -41
q-60 0 -105 31q-33 22 -78 22q-36 0 -62 -45q-39 -14 -58 16q11 44 46 78.5t83 34.5z" />
    <glyph glyph-name="Ograve" unicode="&#xd2;" horiz-adv-x="814" 
d="M389 -12q-63 0 -124.5 24t-112.5 67.5t-82.5 113t-31.5 153.5q0 161 113.5 263.5t273.5 102.5q151 0 251 -101t100 -247q0 -156 -108 -266t-279 -110zM419 58q43 4 76 51.5t48 112.5t15 135q0 135 -41 210t-116 75q-66 0 -105.5 -83t-39.5 -190q0 -158 43 -238t120 -73z
M374 912l124 -108q0 -20 -9.5 -30.5t-32.5 -15.5l-148 76q-28 14 -43 23.5t-28.5 25.5t-13.5 34q0 24 17.5 39.5t39.5 15.5q13 0 27 -6.5t22 -13t24 -21t21 -19.5z" />
    <glyph glyph-name="Oacute" unicode="&#xd3;" horiz-adv-x="814" 
d="M389 -12q-63 0 -124.5 24t-112.5 67.5t-82.5 113t-31.5 153.5q0 161 113.5 263.5t273.5 102.5q151 0 251 -101t100 -247q0 -156 -108 -266t-279 -110zM419 58q43 4 76 51.5t48 112.5t15 135q0 135 -41 210t-116 75q-66 0 -105.5 -83t-39.5 -190q0 -158 43 -238t120 -73z
M506 834l-146 -72q-46 4 -40 42l120 108q5 5 21 19.5t24 21t22 13t27 6.5q22 0 39.5 -15.5t17.5 -39.5q0 -18 -13.5 -34t-28.5 -25.5t-43 -23.5z" />
    <glyph glyph-name="Ocircumflex" unicode="&#xd4;" horiz-adv-x="814" 
d="M389 -12q-63 0 -124.5 24t-112.5 67.5t-82.5 113t-31.5 153.5q0 161 113.5 263.5t273.5 102.5q151 0 251 -101t100 -247q0 -156 -108 -266t-279 -110zM419 58q43 4 76 51.5t48 112.5t15 135q0 135 -41 210t-116 75q-66 0 -105.5 -83t-39.5 -190q0 -158 43 -238t120 -73z
M406 832l-141 -74q-51 -9 -58 8l157 153h84l157 -153q-7 -17 -58 -8z" />
    <glyph glyph-name="Otilde" unicode="&#xd5;" horiz-adv-x="814" 
d="M389 -12q-63 0 -124.5 24t-112.5 67.5t-82.5 113t-31.5 153.5q0 161 113.5 263.5t273.5 102.5q151 0 251 -101t100 -247q0 -156 -108 -266t-279 -110zM419 58q43 4 76 51.5t48 112.5t15 135q0 135 -41 210t-116 75q-66 0 -105.5 -83t-39.5 -190q0 -158 43 -238t120 -73z
M315 889q66 0 95 -25q3 -1 13.5 -6t16 -7t15.5 -5t20 -4.5t22 -1.5q26 0 45.5 14t23.5 32q41 15 60 -6q-1 -46 -41.5 -87t-95.5 -41q-60 0 -105 31q-33 22 -78 22q-36 0 -62 -45q-39 -14 -58 16q11 44 46 78.5t83 34.5z" />
    <glyph glyph-name="Odieresis" unicode="&#xd6;" horiz-adv-x="814" 
d="M389 -12q-63 0 -124.5 24t-112.5 67.5t-82.5 113t-31.5 153.5q0 161 113.5 263.5t273.5 102.5q151 0 251 -101t100 -247q0 -156 -108 -266t-279 -110zM419 58q43 4 76 51.5t48 112.5t15 135q0 135 -41 210t-116 75q-66 0 -105.5 -83t-39.5 -190q0 -158 43 -238t120 -73z
M285 759q-25 0 -45 19.5t-20 45.5q0 25 20 45.5t45 20.5q26 0 46 -19.5t20 -46.5q0 -26 -20 -45.5t-46 -19.5zM527 759q-25 0 -45 19.5t-20 45.5q0 25 20 45.5t45 20.5q26 0 46 -19.5t20 -46.5q0 -26 -20 -45.5t-46 -19.5z" />
    <glyph glyph-name="multiply" unicode="&#xd7;" 
d="M246 253l-144 144l68 68l144 -144l144 144l68 -68l-144 -144l144 -144l-68 -68l-144 144l-144 -144l-68 68z" />
    <glyph glyph-name="Oslash" unicode="&#xd8;" horiz-adv-x="814" 
d="M253 250l290 277q-46 115 -142 115q-67 0 -112.5 -84.5t-45.5 -189.5q0 -69 10 -118zM564 447l-291 -275q22 -60 60 -89.5t86 -24.5q44 4 79.5 51.5t54 114t18.5 134.5q0 53 -7 89zM83 -8l-50 48l83 79q-78 94 -78 227q0 161 113.5 263.5t273.5 102.5q132 0 228 -80
l82 78l52 -52l-83 -79q72 -91 72 -215q0 -156 -108 -266t-279 -110q-126 0 -224 82z" />
    <glyph glyph-name="Ugrave" unicode="&#xd9;" horiz-adv-x="784" 
d="M318 580v-310q0 -36 1.5 -59t9.5 -52t22.5 -46t41.5 -29t66 -12q51 0 89 50.5t38 152.5v305q0 35 -12.5 46.5t-51.5 21.5q-19 3 -11 21l8 23q5 8 17 8h208q19 0 13 -19l-6 -19q-4 -12 -19 -16q-51 -10 -51 -66v-310q0 -72 -20 -126t-48.5 -83t-67 -46.5t-67.5 -22
t-58 -4.5q-91 0 -155 21.5t-97 62t-47 87.5t-14 108v313q0 35 -12.5 46.5t-51.5 21.5q-19 3 -11 21l8 23q5 8 17 8h324q19 0 13 -19l-6 -19q-4 -12 -19 -16q-51 -10 -51 -66zM371 912l124 -108q0 -20 -9.5 -30.5t-32.5 -15.5l-148 76q-28 14 -43 23.5t-28.5 25.5t-13.5 34
q0 24 17.5 39.5t39.5 15.5q13 0 27 -6.5t22 -13t24 -21t21 -19.5z" />
    <glyph glyph-name="Uacute" unicode="&#xda;" horiz-adv-x="784" 
d="M318 580v-310q0 -36 1.5 -59t9.5 -52t22.5 -46t41.5 -29t66 -12q51 0 89 50.5t38 152.5v305q0 35 -12.5 46.5t-51.5 21.5q-19 3 -11 21l8 23q5 8 17 8h208q19 0 13 -19l-6 -19q-4 -12 -19 -16q-51 -10 -51 -66v-310q0 -72 -20 -126t-48.5 -83t-67 -46.5t-67.5 -22
t-58 -4.5q-91 0 -155 21.5t-97 62t-47 87.5t-14 108v313q0 35 -12.5 46.5t-51.5 21.5q-19 3 -11 21l8 23q5 8 17 8h324q19 0 13 -19l-6 -19q-4 -12 -19 -16q-51 -10 -51 -66zM491 834l-146 -72q-46 4 -40 42l120 108q5 5 21 19.5t24 21t22 13t27 6.5q22 0 39.5 -15.5
t17.5 -39.5q0 -18 -13.5 -34t-28.5 -25.5t-43 -23.5z" />
    <glyph glyph-name="Ucircumflex" unicode="&#xdb;" horiz-adv-x="784" 
d="M318 580v-310q0 -36 1.5 -59t9.5 -52t22.5 -46t41.5 -29t66 -12q51 0 89 50.5t38 152.5v305q0 35 -12.5 46.5t-51.5 21.5q-19 3 -11 21l8 23q5 8 17 8h208q19 0 13 -19l-6 -19q-4 -12 -19 -16q-51 -10 -51 -66v-310q0 -72 -20 -126t-48.5 -83t-67 -46.5t-67.5 -22
t-58 -4.5q-91 0 -155 21.5t-97 62t-47 87.5t-14 108v313q0 35 -12.5 46.5t-51.5 21.5q-19 3 -11 21l8 23q5 8 17 8h324q19 0 13 -19l-6 -19q-4 -12 -19 -16q-51 -10 -51 -66zM401 832l-141 -74q-51 -9 -58 8l157 153h84l157 -153q-7 -17 -58 -8z" />
    <glyph glyph-name="Udieresis" unicode="&#xdc;" horiz-adv-x="784" 
d="M318 580v-310q0 -36 1.5 -59t9.5 -52t22.5 -46t41.5 -29t66 -12q51 0 89 50.5t38 152.5v305q0 35 -12.5 46.5t-51.5 21.5q-19 3 -11 21l8 23q5 8 17 8h208q19 0 13 -19l-6 -19q-4 -12 -19 -16q-51 -10 -51 -66v-310q0 -72 -20 -126t-48.5 -83t-67 -46.5t-67.5 -22
t-58 -4.5q-91 0 -155 21.5t-97 62t-47 87.5t-14 108v313q0 35 -12.5 46.5t-51.5 21.5q-19 3 -11 21l8 23q5 8 17 8h324q19 0 13 -19l-6 -19q-4 -12 -19 -16q-51 -10 -51 -66zM290 759q-26 0 -45.5 19.5t-19.5 45.5q0 25 20 45.5t45 20.5q26 0 46 -19.5t20 -46.5
q0 -26 -20 -45.5t-46 -19.5zM532 759q-26 0 -45.5 19.5t-19.5 45.5q0 25 20 45.5t45 20.5q26 0 46 -19.5t20 -46.5q0 -26 -20 -45.5t-46 -19.5z" />
    <glyph glyph-name="Yacute" unicode="&#xdd;" horiz-adv-x="741" 
d="M536 31l-8 -23q-5 -8 -17 -8h-324q-19 0 -13 19l6 19q4 12 19 16q51 10 51 66v136l-156 316q-26 54 -63 72q-26 11 -20 23l9 23q3 10 18 10h295q15 0 11 -14l-8 -25q-2 -6 -14 -13.5t-18 -14.5q-18 -19 -8 -57l118 -234l139 243q23 39 -10 60q-4 3 -11 6.5t-9.5 5t-7 5
t-3 5.5t1.5 7l9 18q4 8 13 8h183q15 0 11 -15l-5 -20q-2 -5 -7.5 -9t-15.5 -8l-10 -4q-36 -16 -63 -70l-141 -254q-9 -15 -18 -45t-9 -51v-104q0 -35 12.5 -46.5t51.5 -21.5q19 -3 11 -21zM482 834l-146 -72q-46 4 -40 42l120 108q5 5 21 19.5t24 21t22 13t27 6.5
q22 0 39.5 -15.5t17.5 -39.5q0 -18 -13.5 -34t-28.5 -25.5t-43 -23.5z" />
    <glyph glyph-name="Thorn" unicode="&#xde;" horiz-adv-x="695" 
d="M113 120l-1 460q0 35 -12.5 46.5t-51.5 21.5q-19 3 -11 21l8 23q5 8 17 8h324q19 0 13 -19l-6 -19q-4 -12 -19 -16q-51 -10 -51 -66v-30h79q270 0 270 -164q0 -84 -69 -133.5t-194 -49.5h-86l1 -83q0 -35 12.5 -46.5t51.5 -21.5q19 -3 11 -21l-8 -23q-5 -8 -17 -8h-324
q-19 0 -13 19l6 19q4 12 19 16q51 10 51 66zM323 490v-227h56q89 0 89 119q0 61 -22 84.5t-73 23.5h-50z" />
    <glyph glyph-name="germandbls" unicode="&#xdf;" horiz-adv-x="793" 
d="M91 120v302h-58v40l58 33v63q0 64 87.5 123t218.5 59q64 0 111.5 -14.5t72.5 -38.5t37 -49t12 -50q0 -27 -11.5 -51.5t-25 -39.5t-25 -36.5t-11.5 -44.5q0 -19 22 -41.5t53.5 -45t63.5 -47.5t54 -59t22 -70q0 -58 -37.5 -97t-85 -53.5t-99.5 -14.5q-130 0 -160 20l-25 89
q-2 7 5 17l29 25q12 10 16 2l36 -58q20 -38 67 -38q30 0 51.5 12.5t21.5 37.5q0 35 -33.5 67.5t-73.5 54.5t-73.5 58t-33.5 79q0 33 19 66.5t42.5 57t42.5 53.5t19 55q0 40 -22.5 66t-74.5 26q-46 0 -79 -29t-33 -83v-446q0 -38 6 -48.5t34 -19.5q14 -3 8 -21l-7 -23
q-2 -8 -12 -8h-282q-19 0 -13 19l6 19q4 12 19 16q41 8 41 66z" />
    <glyph glyph-name="agrave" unicode="&#xe0;" horiz-adv-x="683" 
d="M410 31v70h-2q-25 -45 -78.5 -79t-107.5 -34q-87 0 -140.5 69t-53.5 163q0 123 91 207.5t243 84.5q111 0 184 -27q4 -2 14 -6t14 -6t11.5 -7t10.5 -10t7 -12.5t5.5 -18t1.5 -24.5v-283q0 -41 6.5 -51t44.5 -19q9 -2 5 -17l-8 -23q-2 -8 -15 -8h-205q-15 -1 -21.5 7
t-6.5 24zM339 444q-46 0 -74 -56t-28 -127q0 -63 19.5 -106t51.5 -43q30 0 54 32t34 82q14 65 14 85q0 133 -71 133zM309 732l124 -108q0 -20 -9.5 -30.5t-32.5 -15.5l-148 76q-28 14 -43 23.5t-28.5 25.5t-13.5 34q0 24 17.5 39.5t39.5 15.5q13 0 27 -6.5t22 -13t24 -21
t21 -19.5z" />
    <glyph glyph-name="aacute" unicode="&#xe1;" horiz-adv-x="683" 
d="M410 31v70h-2q-25 -45 -78.5 -79t-107.5 -34q-87 0 -140.5 69t-53.5 163q0 123 91 207.5t243 84.5q111 0 184 -27q4 -2 14 -6t14 -6t11.5 -7t10.5 -10t7 -12.5t5.5 -18t1.5 -24.5v-283q0 -41 6.5 -51t44.5 -19q9 -2 5 -17l-8 -23q-2 -8 -15 -8h-205q-15 -1 -21.5 7
t-6.5 24zM339 444q-46 0 -74 -56t-28 -127q0 -63 19.5 -106t51.5 -43q30 0 54 32t34 82q14 65 14 85q0 133 -71 133zM441 654l-146 -72q-46 4 -40 42l120 108q5 5 21 19.5t24 21t22 13t27 6.5q22 0 39.5 -15.5t17.5 -39.5q0 -18 -13.5 -34t-28.5 -25.5t-43 -23.5z" />
    <glyph glyph-name="acircumflex" unicode="&#xe2;" horiz-adv-x="683" 
d="M410 31v70h-2q-25 -45 -78.5 -79t-107.5 -34q-87 0 -140.5 69t-53.5 163q0 123 91 207.5t243 84.5q111 0 184 -27q4 -2 14 -6t14 -6t11.5 -7t10.5 -10t7 -12.5t5.5 -18t1.5 -24.5v-283q0 -41 6.5 -51t44.5 -19q9 -2 5 -17l-8 -23q-2 -8 -15 -8h-205q-15 -1 -21.5 7
t-6.5 24zM339 444q-46 0 -74 -56t-28 -127q0 -63 19.5 -106t51.5 -43q30 0 54 32t34 82q14 65 14 85q0 133 -71 133zM341 652l-141 -74q-51 -9 -58 8l157 153h84l157 -153q-7 -17 -58 -8z" />
    <glyph glyph-name="atilde" unicode="&#xe3;" horiz-adv-x="683" 
d="M410 31v70h-2q-25 -45 -78.5 -79t-107.5 -34q-87 0 -140.5 69t-53.5 163q0 123 91 207.5t243 84.5q111 0 184 -27q4 -2 14 -6t14 -6t11.5 -7t10.5 -10t7 -12.5t5.5 -18t1.5 -24.5v-283q0 -41 6.5 -51t44.5 -19q9 -2 5 -17l-8 -23q-2 -8 -15 -8h-205q-15 -1 -21.5 7
t-6.5 24zM339 444q-46 0 -74 -56t-28 -127q0 -63 19.5 -106t51.5 -43q30 0 54 32t34 82q14 65 14 85q0 133 -71 133zM250 709q66 0 95 -25q3 -1 13.5 -6t16 -7t15.5 -5t20 -4.5t22 -1.5q26 0 45.5 14t23.5 32q41 15 60 -6q-1 -46 -41.5 -87t-95.5 -41q-60 0 -105 31
q-33 22 -78 22q-36 0 -62 -45q-39 -14 -58 16q11 44 46 78.5t83 34.5z" />
    <glyph glyph-name="adieresis" unicode="&#xe4;" horiz-adv-x="683" 
d="M410 31v70h-2q-25 -45 -78.5 -79t-107.5 -34q-87 0 -140.5 69t-53.5 163q0 123 91 207.5t243 84.5q111 0 184 -27q4 -2 14 -6t14 -6t11.5 -7t10.5 -10t7 -12.5t5.5 -18t1.5 -24.5v-283q0 -41 6.5 -51t44.5 -19q9 -2 5 -17l-8 -23q-2 -8 -15 -8h-205q-15 -1 -21.5 7
t-6.5 24zM339 444q-46 0 -74 -56t-28 -127q0 -63 19.5 -106t51.5 -43q30 0 54 32t34 82q14 65 14 85q0 133 -71 133zM220 559q-26 0 -45.5 19.5t-19.5 45.5q0 25 20 45.5t45 20.5q26 0 46 -19.5t20 -46.5q0 -26 -20 -45.5t-46 -19.5zM462 559q-26 0 -45.5 19.5t-19.5 45.5
q0 25 20 45.5t45 20.5q26 0 46 -19.5t20 -46.5q0 -26 -20 -45.5t-46 -19.5z" />
    <glyph glyph-name="aring" unicode="&#xe5;" horiz-adv-x="683" 
d="M410 31v70h-2q-25 -45 -78.5 -79t-107.5 -34q-87 0 -140.5 69t-53.5 163q0 123 91 207.5t243 84.5q111 0 184 -27q4 -2 14 -6t14 -6t11.5 -7t10.5 -10t7 -12.5t5.5 -18t1.5 -24.5v-283q0 -41 6.5 -51t44.5 -19q9 -2 5 -17l-8 -23q-2 -8 -15 -8h-205q-15 -1 -21.5 7
t-6.5 24zM339 444q-46 0 -74 -56t-28 -127q0 -63 19.5 -106t51.5 -43q30 0 54 32t34 82q14 65 14 85q0 133 -71 133zM341 705q-18 0 -30.5 -12.5t-12.5 -30.5q0 -16 13 -29.5t30 -13.5t30.5 13t13.5 30t-13 30t-31 13zM341 562q-39 0 -69.5 29.5t-30.5 69.5t30.5 70.5
t71.5 30.5q40 0 69.5 -30t29.5 -71t-29.5 -70t-71.5 -29z" />
    <glyph glyph-name="ae" unicode="&#xe6;" horiz-adv-x="896" 
d="M567 310h108q26 0 26 44q0 55 -18 78.5t-43 23.5q-36 0 -54.5 -42.5t-18.5 -103.5zM845 246h-278q0 -78 27.5 -126t86.5 -48q51 0 80 21.5t55 62.5q1 3 13 -1.5t22 -11.5t9 -11l-41 -90q-11 -25 -22 -32q-44 -22 -132 -22q-81 0 -146.5 25.5t-96.5 76.5
q-46 -49 -105 -75.5t-109 -26.5q-83 0 -131.5 39t-48.5 103q0 33 12 60t26.5 43.5t40.5 31.5t41 21.5t42 15.5l168 60q2 43 -19 68.5t-60 25.5q-37 0 -62 -21t-41 -76q-5 -17 -27 -12l-54 17q-19 10 -14 30l10 39q9 30 12 34.5t17 9.5q92 35 191 35q105 0 166 -42
q63 42 165 42q114 0 170 -60.5t56 -165.5q0 -15 -6.5 -27.5t-16.5 -12.5zM362 184v115q-65 -19 -102 -55t-37 -81q0 -76 57 -76q36 0 59 33.5t23 63.5z" />
    <glyph glyph-name="ccedilla" unicode="&#xe7;" horiz-adv-x="574" 
d="M522 461v-94q0 -4 -6 -12l-29 -14q-5 -2 -11.5 6t-15 24.5t-14.5 23.5q-34 46 -91 46q-41 0 -79.5 -47t-38.5 -138q0 -87 34 -134.5t90 -47.5q50 0 79 21.5t55 62.5q1 3 13 -1.5t22.5 -11.5t8.5 -11l-40 -90q-11 -24 -23 -32q-19 -10 -58.5 -17t-72.5 -7q-23 0 -34 2
l-23 -55q14 3 29 3q29 0 52 -18t23 -51q0 -38 -39 -61t-90 -23q-37 0 -68 12q-11 22 13 32q35 -8 46 -8q41 0 41 42q0 30 -21 36q-15 2 -39 -3l-7 5l41 94q-57 9 -101.5 31.5t-70 50t-42 61t-22 60.5t-5.5 52q0 48 18 92.5t54.5 83.5t101 62.5t148.5 23.5q65 0 133 -17
q20 -6 30.5 -14.5t8.5 -19.5z" />
    <glyph glyph-name="egrave" unicode="&#xe8;" horiz-adv-x="566" 
d="M515 246h-278q0 -78 27.5 -126t86.5 -48q51 0 80 21.5t55 62.5q1 3 13 -1.5t22 -11.5t9 -11l-41 -90q-11 -25 -22 -32q-44 -22 -132 -22q-86 0 -149 24.5t-96 65.5t-47.5 84t-14.5 90t15.5 91t47.5 83t89 62.5t132 23.5q114 0 170 -60.5t56 -165.5q0 -15 -6.5 -27.5
t-16.5 -12.5zM237 310h108q26 0 26 44q0 55 -18 78.5t-43 23.5q-36 0 -54.5 -42.5t-18.5 -103.5zM274 732l124 -108q0 -20 -9.5 -30.5t-32.5 -15.5l-148 76q-28 14 -43 23.5t-28.5 25.5t-13.5 34q0 24 17.5 39.5t39.5 15.5q13 0 27 -6.5t22 -13t24 -21t21 -19.5z" />
    <glyph glyph-name="eacute" unicode="&#xe9;" horiz-adv-x="566" 
d="M515 246h-278q0 -78 27.5 -126t86.5 -48q51 0 80 21.5t55 62.5q1 3 13 -1.5t22 -11.5t9 -11l-41 -90q-11 -25 -22 -32q-44 -22 -132 -22q-86 0 -149 24.5t-96 65.5t-47.5 84t-14.5 90t15.5 91t47.5 83t89 62.5t132 23.5q114 0 170 -60.5t56 -165.5q0 -15 -6.5 -27.5
t-16.5 -12.5zM237 310h108q26 0 26 44q0 55 -18 78.5t-43 23.5q-36 0 -54.5 -42.5t-18.5 -103.5zM382 654l-146 -72q-46 4 -40 42l120 108q5 5 21 19.5t24 21t22 13t27 6.5q22 0 39.5 -15.5t17.5 -39.5q0 -18 -13.5 -34t-28.5 -25.5t-43 -23.5z" />
    <glyph glyph-name="ecircumflex" unicode="&#xea;" horiz-adv-x="566" 
d="M515 246h-278q0 -78 27.5 -126t86.5 -48q51 0 80 21.5t55 62.5q1 3 13 -1.5t22 -11.5t9 -11l-41 -90q-11 -25 -22 -32q-44 -22 -132 -22q-86 0 -149 24.5t-96 65.5t-47.5 84t-14.5 90t15.5 91t47.5 83t89 62.5t132 23.5q114 0 170 -60.5t56 -165.5q0 -15 -6.5 -27.5
t-16.5 -12.5zM237 310h108q26 0 26 44q0 55 -18 78.5t-43 23.5q-36 0 -54.5 -42.5t-18.5 -103.5zM282 652l-141 -74q-51 -9 -58 8l157 153h84l157 -153q-7 -17 -58 -8z" />
    <glyph glyph-name="edieresis" unicode="&#xeb;" horiz-adv-x="566" 
d="M515 246h-278q0 -78 27.5 -126t86.5 -48q51 0 80 21.5t55 62.5q1 3 13 -1.5t22 -11.5t9 -11l-41 -90q-11 -25 -22 -32q-44 -22 -132 -22q-86 0 -149 24.5t-96 65.5t-47.5 84t-14.5 90t15.5 91t47.5 83t89 62.5t132 23.5q114 0 170 -60.5t56 -165.5q0 -15 -6.5 -27.5
t-16.5 -12.5zM237 310h108q26 0 26 44q0 55 -18 78.5t-43 23.5q-36 0 -54.5 -42.5t-18.5 -103.5zM161 559q-25 0 -45 19.5t-20 45.5q0 25 20 45.5t45 20.5q26 0 46 -19.5t20 -46.5q0 -26 -20 -45.5t-46 -19.5zM403 559q-25 0 -45 19.5t-20 45.5q0 25 20 45.5t45 20.5
q26 0 46 -19.5t20 -46.5q0 -26 -20 -45.5t-46 -19.5z" />
    <glyph glyph-name="igrave" unicode="&#xec;" horiz-adv-x="379" 
d="M27 469l9 23q3 8 20 8h211q8 0 11.5 -0.5t8 -5t4.5 -14.5v-360q0 -38 7.5 -48.5t43.5 -19.5q19 -3 11 -21l-8 -23q-5 -8 -25 -8h-282q-19 0 -13 19l6 19q4 12 19 16q41 8 41 66v260q0 37 -8 48t-42 19q-21 6 -14 22zM157 732l124 -108q0 -20 -9.5 -30.5t-32.5 -15.5
l-148 76q-28 14 -43 23.5t-28.5 25.5t-13.5 34q0 24 17.5 39.5t39.5 15.5q13 0 27 -6.5t22 -13t24 -21t21 -19.5z" />
    <glyph glyph-name="iacute" unicode="&#xed;" horiz-adv-x="379" 
d="M27 469l9 23q3 8 20 8h211q8 0 11.5 -0.5t8 -5t4.5 -14.5v-360q0 -38 7.5 -48.5t43.5 -19.5q19 -3 11 -21l-8 -23q-5 -8 -25 -8h-282q-19 0 -13 19l6 19q4 12 19 16q41 8 41 66v260q0 37 -8 48t-42 19q-21 6 -14 22zM274 654l-146 -72q-46 4 -40 42l120 108q5 5 21 19.5
t24 21t22 13t27 6.5q22 0 39.5 -15.5t17.5 -39.5q0 -18 -13.5 -34t-28.5 -25.5t-43 -23.5z" />
    <glyph glyph-name="icircumflex" unicode="&#xee;" horiz-adv-x="379" 
d="M27 469l9 23q3 8 20 8h211q8 0 11.5 -0.5t8 -5t4.5 -14.5v-360q0 -38 7.5 -48.5t43.5 -19.5q19 -3 11 -21l-8 -23q-5 -8 -25 -8h-282q-19 0 -13 19l6 19q4 12 19 16q41 8 41 66v260q0 37 -8 48t-42 19q-21 6 -14 22zM189 652l-141 -74q-51 -9 -58 8l157 153h84l157 -153
q-7 -17 -58 -8z" />
    <glyph glyph-name="idieresis" unicode="&#xef;" horiz-adv-x="379" 
d="M27 469l9 23q3 8 20 8h211q8 0 11.5 -0.5t8 -5t4.5 -14.5v-360q0 -38 7.5 -48.5t43.5 -19.5q19 -3 11 -21l-8 -23q-5 -8 -25 -8h-282q-19 0 -13 19l6 19q4 12 19 16q41 8 41 66v260q0 37 -8 48t-42 19q-21 6 -14 22zM68 559q-26 0 -45.5 19.5t-19.5 45.5q0 25 20 45.5
t45 20.5q26 0 46 -19.5t20 -46.5q0 -26 -20 -45.5t-46 -19.5zM310 559q-26 0 -45.5 19.5t-19.5 45.5q0 25 20 45.5t45 20.5q26 0 46 -19.5t20 -46.5q0 -26 -20 -45.5t-46 -19.5z" />
    <glyph glyph-name="eth" unicode="&#xf0;" horiz-adv-x="647" 
d="M328 452q-35 0 -56.5 -33t-28 -71t-6.5 -80q0 -101 27.5 -160.5t62.5 -59.5q84 0 84 190q0 99 -24 156.5t-59 57.5zM582 676l-112 -41q77 -68 114 -147.5t36 -195.5q-1 -51 -20 -102.5t-55 -97.5t-97 -75t-137 -29q-129 0 -206 77.5t-77 174.5q0 100 74 180q82 88 194 88
q43 0 78 -14q-17 50 -52 87l-111 -41l-64 52l120 44q-20 14 -74 48q-8 6 -8 16q0 14 33.5 29.5t62.5 15.5q23 0 35 -6q54 -27 87 -51l109 41z" />
    <glyph glyph-name="ntilde" unicode="&#xf1;" horiz-adv-x="720" 
d="M291 480v-70h2q27 37 86 69.5t114 32.5q139 0 139 -171v-221q0 -38 7.5 -48.5t43.5 -19.5q19 -3 11 -21l-8 -23q-5 -8 -25 -8h-270q-11 0 -6 19l5 19q4 12 15 16q27 7 27 66v167q0 36 -6 58.5t-17 30.5t-16.5 9.5t-15.5 1.5q-86 0 -86 -223v-44q0 -38 6 -48.5t34 -19.5
q14 -3 8 -21l-7 -23q-2 -8 -12 -8h-282q-19 0 -13 19l6 19q4 12 19 16q41 8 41 66v260q0 37 -8 48t-42 19q-21 6 -14 22l9 23q3 8 20 8h211q8 0 11.5 -0.5t8 -5t4.5 -14.5zM268 709q66 0 95 -25q3 -1 13.5 -6t16 -7t15.5 -5t20 -4.5t22 -1.5q26 0 45.5 14t23.5 32
q41 15 60 -6q-1 -46 -41.5 -87t-95.5 -41q-60 0 -105 31q-33 22 -78 22q-36 0 -62 -45q-39 -14 -58 16q11 44 46 78.5t83 34.5z" />
    <glyph glyph-name="ograve" unicode="&#xf2;" horiz-adv-x="648" 
d="M340 512q67 0 122.5 -23.5t88.5 -60.5t51 -80.5t18 -87.5q0 -47 -19 -93.5t-55 -87t-97.5 -66t-137.5 -25.5q-129 0 -206 77.5t-77 174.5q0 46 19 92t55 87t98.5 67t139.5 26zM328 452q-35 0 -56.5 -33t-28 -71t-6.5 -80q0 -101 27.5 -160.5t62.5 -59.5q84 0 84 190
q0 99 -24 156.5t-59 57.5zM291 732l124 -108q0 -20 -9.5 -30.5t-32.5 -15.5l-148 76q-28 14 -43 23.5t-28.5 25.5t-13.5 34q0 24 17.5 39.5t39.5 15.5q13 0 27 -6.5t22 -13t24 -21t21 -19.5z" />
    <glyph glyph-name="oacute" unicode="&#xf3;" horiz-adv-x="648" 
d="M340 512q67 0 122.5 -23.5t88.5 -60.5t51 -80.5t18 -87.5q0 -47 -19 -93.5t-55 -87t-97.5 -66t-137.5 -25.5q-129 0 -206 77.5t-77 174.5q0 46 19 92t55 87t98.5 67t139.5 26zM328 452q-35 0 -56.5 -33t-28 -71t-6.5 -80q0 -101 27.5 -160.5t62.5 -59.5q84 0 84 190
q0 99 -24 156.5t-59 57.5zM423 654l-146 -72q-46 4 -40 42l120 108q5 5 21 19.5t24 21t22 13t27 6.5q22 0 39.5 -15.5t17.5 -39.5q0 -18 -13.5 -34t-28.5 -25.5t-43 -23.5z" />
    <glyph glyph-name="ocircumflex" unicode="&#xf4;" horiz-adv-x="648" 
d="M340 512q67 0 122.5 -23.5t88.5 -60.5t51 -80.5t18 -87.5q0 -47 -19 -93.5t-55 -87t-97.5 -66t-137.5 -25.5q-129 0 -206 77.5t-77 174.5q0 46 19 92t55 87t98.5 67t139.5 26zM328 452q-35 0 -56.5 -33t-28 -71t-6.5 -80q0 -101 27.5 -160.5t62.5 -59.5q84 0 84 190
q0 99 -24 156.5t-59 57.5zM323 652l-141 -74q-51 -9 -58 8l157 153h84l157 -153q-7 -17 -58 -8z" />
    <glyph glyph-name="otilde" unicode="&#xf5;" horiz-adv-x="648" 
d="M340 512q67 0 122.5 -23.5t88.5 -60.5t51 -80.5t18 -87.5q0 -47 -19 -93.5t-55 -87t-97.5 -66t-137.5 -25.5q-129 0 -206 77.5t-77 174.5q0 46 19 92t55 87t98.5 67t139.5 26zM328 452q-35 0 -56.5 -33t-28 -71t-6.5 -80q0 -101 27.5 -160.5t62.5 -59.5q84 0 84 190
q0 99 -24 156.5t-59 57.5zM232 709q66 0 95 -25q3 -1 13.5 -6t16 -7t15.5 -5t20 -4.5t22 -1.5q26 0 45.5 14t23.5 32q41 15 60 -6q-1 -46 -41.5 -87t-95.5 -41q-60 0 -105 31q-33 22 -78 22q-36 0 -62 -45q-39 -14 -58 16q11 44 46 78.5t83 34.5z" />
    <glyph glyph-name="odieresis" unicode="&#xf6;" horiz-adv-x="648" 
d="M340 512q67 0 122.5 -23.5t88.5 -60.5t51 -80.5t18 -87.5q0 -47 -19 -93.5t-55 -87t-97.5 -66t-137.5 -25.5q-129 0 -206 77.5t-77 174.5q0 46 19 92t55 87t98.5 67t139.5 26zM328 452q-35 0 -56.5 -33t-28 -71t-6.5 -80q0 -101 27.5 -160.5t62.5 -59.5q84 0 84 190
q0 99 -24 156.5t-59 57.5zM202 559q-26 0 -45.5 19.5t-19.5 45.5q0 25 20 45.5t45 20.5q26 0 46 -19.5t20 -46.5q0 -26 -20 -45.5t-46 -19.5zM444 559q-26 0 -45.5 19.5t-19.5 45.5q0 25 20 45.5t45 20.5q26 0 46 -19.5t20 -46.5q0 -26 -20 -45.5t-46 -19.5z" />
    <glyph glyph-name="divide" unicode="&#xf7;" 
d="M567 205h-504v96h504v-96zM222 27q0 38 28 65t66 27q37 0 64.5 -28t27.5 -64q0 -37 -27.5 -65.5t-63.5 -28.5q-38 0 -66.5 28t-28.5 66zM222 481q0 38 28 65t66 27q37 0 64.5 -28t27.5 -64q0 -37 -27.5 -65.5t-63.5 -28.5q-38 0 -66.5 28t-28.5 66z" />
    <glyph glyph-name="oslash" unicode="&#xf8;" horiz-adv-x="648" 
d="M240 221l159 134q-23 97 -71 97q-35 0 -56.5 -33t-28 -71t-6.5 -80q0 -24 3 -47zM409 278l-157 -133q12 -46 32.5 -71.5t42.5 -25.5q84 0 84 190q0 28 -2 40zM71 -8l-44 48l57 49q-56 70 -56 151q0 46 19 92t55 87t98.5 67t139.5 26q105 0 178 -57l63 53l46 -48l-62 -50
q55 -70 55 -150q0 -47 -19 -93.5t-55 -87t-97.5 -66t-137.5 -25.5q-107 0 -180 55z" />
    <glyph glyph-name="ugrave" unicode="&#xf9;" horiz-adv-x="685" 
d="M411 68l-38 -28q-30 -22 -69.5 -37t-71.5 -15q-152 0 -152 171v221q0 37 -8 48t-42 19q-21 6 -14 22l9 23q3 8 20 8h211q8 0 11.5 -0.5t8 -5t4.5 -14.5v-267q0 -36 5 -59.5t14 -33t16 -12t18 -2.5q24 0 45 27t23 58q10 74 10 145v44q0 37 -8 48t-42 19q-21 6 -14 22l9 23
q3 8 20 8h211q8 0 11.5 -0.5t8 -5t4.5 -14.5v-362q0 -41 6.5 -51t44.5 -19q9 -2 5 -17l-8 -23q-2 -8 -15 -8h-209q-8 0 -11.5 0.5t-8 5t-4.5 14.5v48zM310 732l124 -108q0 -20 -9.5 -30.5t-32.5 -15.5l-148 76q-28 14 -43 23.5t-28.5 25.5t-13.5 34q0 24 17.5 39.5
t39.5 15.5q13 0 27 -6.5t22 -13t24 -21t21 -19.5z" />
    <glyph glyph-name="uacute" unicode="&#xfa;" horiz-adv-x="685" 
d="M411 68l-38 -28q-30 -22 -69.5 -37t-71.5 -15q-152 0 -152 171v221q0 37 -8 48t-42 19q-21 6 -14 22l9 23q3 8 20 8h211q8 0 11.5 -0.5t8 -5t4.5 -14.5v-267q0 -36 5 -59.5t14 -33t16 -12t18 -2.5q24 0 45 27t23 58q10 74 10 145v44q0 37 -8 48t-42 19q-21 6 -14 22l9 23
q3 8 20 8h211q8 0 11.5 -0.5t8 -5t4.5 -14.5v-362q0 -41 6.5 -51t44.5 -19q9 -2 5 -17l-8 -23q-2 -8 -15 -8h-209q-8 0 -11.5 0.5t-8 5t-4.5 14.5v48zM442 654l-146 -72q-46 4 -40 42l120 108q5 5 21 19.5t24 21t22 13t27 6.5q22 0 39.5 -15.5t17.5 -39.5q0 -18 -13.5 -34
t-28.5 -25.5t-43 -23.5z" />
    <glyph glyph-name="ucircumflex" unicode="&#xfb;" horiz-adv-x="685" 
d="M411 68l-38 -28q-30 -22 -69.5 -37t-71.5 -15q-152 0 -152 171v221q0 37 -8 48t-42 19q-21 6 -14 22l9 23q3 8 20 8h211q8 0 11.5 -0.5t8 -5t4.5 -14.5v-267q0 -36 5 -59.5t14 -33t16 -12t18 -2.5q24 0 45 27t23 58q10 74 10 145v44q0 37 -8 48t-42 19q-21 6 -14 22l9 23
q3 8 20 8h211q8 0 11.5 -0.5t8 -5t4.5 -14.5v-362q0 -41 6.5 -51t44.5 -19q9 -2 5 -17l-8 -23q-2 -8 -15 -8h-209q-8 0 -11.5 0.5t-8 5t-4.5 14.5v48zM342 652l-141 -74q-51 -9 -58 8l157 153h84l157 -153q-7 -17 -58 -8z" />
    <glyph glyph-name="udieresis" unicode="&#xfc;" horiz-adv-x="685" 
d="M411 68l-38 -28q-30 -22 -69.5 -37t-71.5 -15q-152 0 -152 171v221q0 37 -8 48t-42 19q-21 6 -14 22l9 23q3 8 20 8h211q8 0 11.5 -0.5t8 -5t4.5 -14.5v-267q0 -36 5 -59.5t14 -33t16 -12t18 -2.5q24 0 45 27t23 58q10 74 10 145v44q0 37 -8 48t-42 19q-21 6 -14 22l9 23
q3 8 20 8h211q8 0 11.5 -0.5t8 -5t4.5 -14.5v-362q0 -41 6.5 -51t44.5 -19q9 -2 5 -17l-8 -23q-2 -8 -15 -8h-209q-8 0 -11.5 0.5t-8 5t-4.5 14.5v48zM221 559q-25 0 -45 19.5t-20 45.5q0 25 20 45.5t45 20.5q26 0 46 -19.5t20 -46.5q0 -26 -20 -45.5t-46 -19.5zM463 559
q-25 0 -45 19.5t-20 45.5q0 25 20 45.5t45 20.5q26 0 46 -19.5t20 -46.5q0 -26 -20 -45.5t-46 -19.5z" />
    <glyph glyph-name="yacute" unicode="&#xfd;" horiz-adv-x="610" 
d="M212 -103l43 87l-175 387q-17 50 -54 67l-10 5t-7.5 4.5t-4 5.5t0.5 7l9 27q4 13 19 13h287q23 0 17 -19l-8 -22q-2 -7 -13 -13.5t-20 -12t-14 -19.5t4 -36l72 -174l94 199q6 19 -3 30t-23.5 13.5t-26 7.5t-9.5 14l6 12q9 20 16 20h165q15 0 23 -5t5 -18l-5 -18
q-3 -9 -8.5 -12t-15.5 -8.5t-20 -17.5q-5 -7 -26 -50l-256 -549q-16 -36 -34.5 -54t-48.5 -18h-59q-9 0 -13.5 0.5t-10 4.5t-8.5 13l-12 32q-4 6 -0.5 10.5t6 5.5t10.5 3l49 21q35 13 59 57zM404 654l-146 -72q-46 4 -40 42l120 108q5 5 21 19.5t24 21t22 13t27 6.5
q22 0 39.5 -15.5t17.5 -39.5q0 -18 -13.5 -34t-28.5 -25.5t-43 -23.5z" />
    <glyph glyph-name="thorn" unicode="&#xfe;" horiz-adv-x="701" 
d="M380 403q-33 0 -54.5 -35.5t-29 -80.5t-7.5 -96q0 -143 67 -143q49 0 78.5 60t29.5 134q0 65 -20.5 113t-63.5 48zM25 704l9 23q3 8 20 8h211h4h4h3.5t4 -1t3.5 -2t3 -3t1.5 -5t0.5 -7v-294h2q32 42 81.5 65.5t106.5 23.5q87 0 140.5 -69t53.5 -163q0 -123 -92.5 -207.5
t-254.5 -84.5h-37v-118q0 -35 16.5 -46.5t67.5 -21.5q25 -3 15 -21l-11 -23q-6 -8 -22 -8h-329q-19 0 -13 19l6 19q4 12 19 16q51 10 51 66v745q0 37 -8 48t-42 19q-21 6 -14 22z" />
    <glyph glyph-name="ydieresis" unicode="&#xff;" horiz-adv-x="610" 
d="M212 -103l43 87l-175 387q-17 50 -54 67l-10 5t-7.5 4.5t-4 5.5t0.5 7l9 27q4 13 19 13h287q23 0 17 -19l-8 -22q-2 -7 -13 -13.5t-20 -12t-14 -19.5t4 -36l72 -174l94 199q6 19 -3 30t-23.5 13.5t-26 7.5t-9.5 14l6 12q9 20 16 20h165q15 0 23 -5t5 -18l-5 -18
q-3 -9 -8.5 -12t-15.5 -8.5t-20 -17.5q-5 -7 -26 -50l-256 -549q-16 -36 -34.5 -54t-48.5 -18h-59q-9 0 -13.5 0.5t-10 4.5t-8.5 13l-12 32q-4 6 -0.5 10.5t6 5.5t10.5 3l49 21q35 13 59 57zM183 559q-25 0 -45 19.5t-20 45.5q0 25 20 45.5t45 20.5q26 0 46 -19.5t20 -46.5
q0 -26 -20 -45.5t-46 -19.5zM425 559q-25 0 -45 19.5t-20 45.5q0 25 20 45.5t45 20.5q26 0 46 -19.5t20 -46.5q0 -26 -20 -45.5t-46 -19.5z" />
    <glyph glyph-name="dotlessi" unicode="&#x131;" horiz-adv-x="379" 
d="M27 469l9 23q3 8 20 8h211q8 0 11.5 -0.5t8 -5t4.5 -14.5v-360q0 -38 7.5 -48.5t43.5 -19.5q19 -3 11 -21l-8 -23q-5 -8 -25 -8h-282q-19 0 -13 19l6 19q4 12 19 16q41 8 41 66v260q0 37 -8 48t-42 19q-21 6 -14 22z" />
    <glyph glyph-name="Lslash" unicode="&#x141;" horiz-adv-x="659" 
d="M36 19l6 19q4 12 19 16q51 10 51 66v156l-66 -40l-30 48l96 59v237q0 35 -12.5 46.5t-51.5 21.5q-19 3 -11 21l8 23q5 8 17 8h324q19 0 13 -19l-6 -19q-4 -12 -19 -16q-51 -10 -51 -66v-108l95 58l34 -48l-129 -78v-231q0 -62 15.5 -82.5t57.5 -20.5h81q33 0 58.5 13
t36.5 28.5t19 27.5t12 11l25 -8q6 -2 6 -9v-108q0 -25 -46 -25h-539q-19 0 -13 19z" />
    <glyph glyph-name="lslash" unicode="&#x142;" horiz-adv-x="379" 
d="M27 704l9 23q3 8 20 8h211q8 0 11.5 -0.5t8 -5t4.5 -14.5v-227l64 33l27 -47l-91 -48v-306q0 -38 7.5 -48.5t43.5 -19.5q19 -3 11 -21l-8 -23q-5 -8 -25 -8h-282q-19 0 -13 19l6 19q4 12 19 16q41 8 41 66v177l-69 -36l-28 44l97 51v259q0 37 -8 48t-42 19q-21 6 -14 22z
" />
    <glyph glyph-name="OE" unicode="&#x152;" horiz-adv-x="1127" 
d="M580 124v468q0 28 -46 46.5t-97 18.5q-97 0 -144.5 -99t-35.5 -250q9 -120 52.5 -191.5t123.5 -71.5q147 0 147 79zM791 630v-213h231q10 0 13.5 -4t-0.5 -10l-25 -42q-13 -14 -32 -14h-187v-174q0 -62 15.5 -82.5t57.5 -20.5h81q33 0 58.5 13t36.5 28.5t19 27.5t12 11
l25 -8q6 -2 6 -9v-108q0 -25 -46 -25h-317q-38 0 -158 -6q-118 -6 -192 -6q-63 0 -124.5 24t-112.5 67.5t-82.5 113t-31.5 153.5q0 161 113.5 263.5t273.5 102.5q55 0 181 -6q128 -6 181 -6h241q14 0 22.5 -7t6.5 -18v-90q0 -4 -5 -9l-18 -15q-4 -3 -9 2.5t-12.5 16.5
t-16.5 22t-24.5 19.5t-34.5 8.5h-146z" />
    <glyph glyph-name="oe" unicode="&#x153;" horiz-adv-x="946" 
d="M328 452q-35 0 -56.5 -33t-28 -71t-6.5 -80q0 -101 27.5 -160.5t62.5 -59.5q84 0 84 190q0 99 -24 156.5t-59 57.5zM895 246h-286q0 -78 27.5 -126t86.5 -48q51 0 80 21.5t55 62.5q1 3 13 -1.5t22 -11.5t9 -11l-41 -90q-11 -25 -22 -32q-44 -22 -132 -22q-116 0 -197 60
q-81 -60 -199 -60q-129 0 -206 77.5t-77 174.5q0 46 19 92t55 87t98.5 67t139.5 26q99 0 171 -50q72 50 181 50q114 0 170 -60.5t56 -165.5q0 -15 -6.5 -27.5t-16.5 -12.5zM609 310h116q26 0 26 44q0 55 -18 78.5t-43 23.5q-37 0 -59 -43.5t-22 -102.5z" />
    <glyph glyph-name="Scaron" unicode="&#x160;" horiz-adv-x="593" 
d="M499 569l-39 -25q-5 -5 -18 18q-6 10 -18 34q-3 5 -4 8q-27 52 -84 52q-24 0 -50 -18t-31 -52q-4 -26 1.5 -46t28 -42t37.5 -32.5t58 -39.5q90 -60 132 -110t44 -115q4 -106 -78 -159.5t-220 -53.5q-105 0 -164 18q-39 12 -45.5 17.5t-6.5 25.5v97q0 2 -0.5 8.5t-0.5 9.5
t1.5 7t5.5 5l39 15q2 1 4.5 -3t6.5 -12t8 -17t10.5 -22t12.5 -24q34 -56 86 -56q51 0 88.5 28.5t39.5 78.5q1 20 -5.5 38t-14.5 30.5t-27.5 29t-33.5 26.5t-44.5 30t-48.5 33q-4 3 -25.5 17.5t-27.5 20t-23.5 20t-24 25t-16.5 26.5t-13.5 34t-3.5 39q0 77 73.5 128t215.5 51
q87 0 137 -20q25 -10 35 -18t9 -20v-74q0 -3 -6 -11zM297 839l141 74q51 9 58 -8l-157 -153h-85l-157 153q7 17 58 8l141 -74h1z" />
    <glyph glyph-name="scaron" unicode="&#x161;" horiz-adv-x="481" 
d="M35 40v94q0 22 6 24l40 9q5 2 10 -6.5t13.5 -28t15.5 -32.5q0 -1 7.5 -12t11.5 -15.5t12.5 -12.5t18.5 -11.5t22 -3.5q29 0 46.5 19.5t17.5 41.5q0 14 -10 29t-19.5 23.5t-31.5 25t-29 22.5q-8 7 -31 24.5t-35.5 29t-29 29.5t-24.5 38t-8 43q-1 68 57 105t163 37
q69 0 145 -19q26 -6 26 -28v-84q0 -5 -6 -7l-36 -17q-3 -1 -11 9t-19.5 27t-18.5 25q-36 40 -70 40q-21 0 -37.5 -12t-15.5 -26q1 -15 10.5 -27t23.5 -21.5t47 -33.5t66 -52q90 -75 90 -140q0 -73 -67 -115.5t-170 -42.5q-109 0 -153 26q-27 15 -27 26zM241 659l141 74
q51 9 58 -8l-157 -153h-85l-157 153q7 17 58 8l141 -74h1z" />
    <glyph glyph-name="Ydieresis" unicode="&#x178;" horiz-adv-x="741" 
d="M536 31l-8 -23q-5 -8 -17 -8h-324q-19 0 -13 19l6 19q4 12 19 16q51 10 51 66v136l-156 316q-26 54 -63 72q-26 11 -20 23l9 23q3 10 18 10h295q15 0 11 -14l-8 -25q-2 -6 -14 -13.5t-18 -14.5q-18 -19 -8 -57l118 -234l139 243q23 39 -10 60q-4 3 -11 6.5t-9.5 5t-7 5
t-3 5.5t1.5 7l9 18q4 8 13 8h183q15 0 11 -15l-5 -20q-2 -5 -7.5 -9t-15.5 -8l-10 -4q-36 -16 -63 -70l-141 -254q-9 -15 -18 -45t-9 -51v-104q0 -35 12.5 -46.5t51.5 -21.5q19 -3 11 -21zM261 759q-25 0 -45 19.5t-20 45.5q0 25 20 45.5t45 20.5q26 0 46 -19.5t20 -46.5
q0 -26 -20 -45.5t-46 -19.5zM503 759q-25 0 -45 19.5t-20 45.5q0 25 20 45.5t45 20.5q26 0 46 -19.5t20 -46.5q0 -26 -20 -45.5t-46 -19.5z" />
    <glyph glyph-name="Zcaron" unicode="&#x17d;" horiz-adv-x="685" 
d="M640 700v-56l-390 -569h270q21 0 38 8.5t27 21.5t18 27.5t12 27t8 20t7 6.5l25 -12q6 -2 6 -13v-125q0 -17 -12.5 -26.5t-33.5 -9.5h-558l-33 57l397 568h-239q-19 0 -34.5 -13.5t-24.5 -31.5t-16.5 -35.5t-12.5 -27t-9 -4.5l-18 25q-5 10 -5 15v99q0 48 35 48h543z
M343 839l141 74q51 9 58 -8l-157 -153h-85l-157 153q7 17 58 8l141 -74h1z" />
    <glyph glyph-name="zcaron" unicode="&#x17e;" horiz-adv-x="556" 
d="M525 500v-47l-276 -386h148q30 0 52 12t31 26t16 25t11 10l25 -8q6 -2 6 -8v-101q0 -23 -46 -23h-457l-17 37l302 400h-123q-19 0 -34.5 -9t-24.5 -21t-16.5 -24t-12.5 -18.5t-9 -3.5l-18 15q-5 5 -5 9v90q-2 11 6.5 18t22.5 7h419zM278 659l141 74q51 9 58 -8l-157 -153
h-85l-157 153q7 17 58 8l141 -74h1z" />
    <glyph glyph-name="florin" unicode="&#x192;" 
d="M550 469l-9 -36l-21 -27h-135q-33 -197 -66.5 -305.5t-80 -168t-124.5 -96.5q-98 -46 -151 -46q-32 0 -39 6l-61 69q-12 8 0 20l19 30q6 9 16 4l49 -21q50 -20 78 -20q43 0 73 106t89 422h-101l15 63h100l14 66q12 72 86.5 121.5t159.5 67.5q56 11 86 11q56 0 68 -13
l47 -51q2 -7 -5 -16l-34 -35q-7 -7 -22 -3l-40 25q-51 30 -82 30q-15 0 -30.5 -15.5t-19.5 -37.5l-33 -150h154z" />
    <glyph glyph-name="circumflex" unicode="&#x2c6;" horiz-adv-x="556" 
d="M277 652l-141 -74q-51 -9 -58 8l157 153h84l157 -153q-7 -17 -58 -8z" />
    <glyph glyph-name="caron" unicode="&#x2c7;" horiz-adv-x="556" 
d="M278 659l141 74q51 9 58 -8l-157 -153h-85l-157 153q7 17 58 8l141 -74h1z" />
    <glyph glyph-name="breve" unicode="&#x2d8;" horiz-adv-x="500" 
d="M250 665q45 0 79 27.5t43 69.5q34 21 62 -2q3 -76 -47.5 -132t-136.5 -56t-136.5 56t-47.5 132q28 23 62 2q9 -42 43 -69.5t79 -27.5z" />
    <glyph glyph-name="dotaccent" unicode="&#x2d9;" horiz-adv-x="315" 
d="M152 748q43 0 72 -25.5t29 -69.5q0 -39 -28.5 -66.5t-67.5 -27.5q-41 0 -68.5 27t-27.5 67q0 39 26.5 67t64.5 28z" />
    <glyph glyph-name="ring" unicode="&#x2da;" horiz-adv-x="333" 
d="M166 705q-18 0 -30.5 -12.5t-12.5 -30.5q0 -16 13.5 -29.5t29.5 -13.5q17 0 30.5 13t13.5 30t-13 30t-31 13zM166 562q-39 0 -69.5 29.5t-30.5 69.5t30.5 70.5t71.5 30.5q40 0 69.5 -30t29.5 -71t-29.5 -70t-71.5 -29z" />
    <glyph glyph-name="ogonek" unicode="&#x2db;" horiz-adv-x="352" 
d="M137 10h77q-2 -2 -9 -8.5t-9 -8.5l-8 -8t-7.5 -9t-5.5 -8t-5.5 -9t-2.5 -8.5t-1 -9.5q0 -44 35 -44q14 0 30 7t22 15q11 7 18 -0.5t0 -17.5q-46 -46 -131 -46q-32 0 -52 19t-20 46q0 45 69 90z" />
    <glyph glyph-name="tilde" unicode="&#x2dc;" horiz-adv-x="574" 
d="M195 709q66 0 95 -25q3 -1 13.5 -6t16 -7t15.5 -5t20 -4.5t22 -1.5q26 0 45.5 14t23.5 32q41 15 60 -6q-1 -46 -41.5 -87t-95.5 -41q-60 0 -105 31q-33 22 -78 22q-36 0 -62 -45q-39 -14 -58 16q11 44 46 78.5t83 34.5z" />
    <glyph glyph-name="hungarumlaut" unicode="&#x2dd;" horiz-adv-x="648" 
d="M265 653l-146 -72q-46 4 -40 42l120 108q5 4 17 16t18.5 17.5t16.5 13t20 11t20 3.5q25 0 42 -15t17 -41q0 -25 -22 -43.5t-64 -38.5zM500 653l-146 -72q-46 4 -40 42l120 108q5 4 17 16t18.5 17.5t16.5 13t20 11t20 3.5q25 0 42 -15t17 -41q0 -25 -22 -43.5t-64 -38.5z
" />
    <glyph glyph-name="endash" unicode="&#x2013;" horiz-adv-x="500" 
d="M500 190h-500v96h500v-96z" />
    <glyph glyph-name="emdash" unicode="&#x2014;" horiz-adv-x="1000" 
d="M1000 190h-1000v96h1000v-96z" />
    <glyph glyph-name="quoteleft" unicode="&#x2018;" horiz-adv-x="333" 
d="M114 392q-32 0 -52 26t-20 59q0 56 162 250q12 8 26 8q15 0 21 -10.5t3 -23.5q-25 -26 -41.5 -52.5t-23.5 -46t-9 -43t-0.5 -36t5 -34t4.5 -27.5q2 -26 -23 -48t-52 -22z" />
    <glyph glyph-name="quoteright" unicode="&#x2019;" horiz-adv-x="333" 
d="M219 735q32 0 52 -26t20 -59q0 -56 -162 -250q-12 -8 -26 -8q-15 0 -21 10.5t-3 23.5q25 26 41.5 52.5t23.5 46t9 43t0.5 36t-5 34t-4.5 27.5q-2 26 23 48t52 22z" />
    <glyph glyph-name="quotesinglbase" unicode="&#x201a;" horiz-adv-x="333" 
d="M192 174q32 0 52 -26t20 -59q0 -56 -162 -250q-12 -8 -26 -8q-15 0 -21 10.5t-3 23.5q25 26 41.5 52.5t23.5 46t9 43t0.5 36t-5 34t-4.5 27.5q-2 26 23 48t52 22z" />
    <glyph glyph-name="quotedblleft" unicode="&#x201c;" horiz-adv-x="611" 
d="M146 392q-32 0 -52 26t-20 59q0 56 162 250q12 8 26 8q15 0 21 -10.5t3 -23.5q-25 -26 -41.5 -52.5t-23.5 -46t-9 -43t-0.5 -36t5 -34t4.5 -27.5q2 -26 -23 -48t-52 -22zM387 392q-32 0 -52 26t-20 59q0 56 162 250q12 8 26 8q15 0 21 -10.5t3 -23.5q-25 -26 -41.5 -52.5
t-23.5 -46t-9 -43t-0.5 -36t5 -34t4.5 -27.5q2 -26 -23 -48t-52 -22z" />
    <glyph glyph-name="quotedblright" unicode="&#x201d;" horiz-adv-x="611" 
d="M224 735q32 0 52 -26t20 -59q0 -56 -162 -250q-12 -8 -26 -8q-15 0 -21 10.5t-3 23.5q25 26 41.5 52.5t23.5 46t9 43t0.5 36t-5 34t-4.5 27.5q-2 26 23 48t52 22zM465 735q32 0 52 -26t20 -59q0 -56 -162 -250q-12 -8 -26 -8q-15 0 -21 10.5t-3 23.5q25 26 41.5 52.5
t23.5 46t9 43t0.5 36t-5 34t-4.5 27.5q-2 26 23 48t52 22z" />
    <glyph glyph-name="quotedblbase" unicode="&#x201e;" horiz-adv-x="611" 
d="M194 174q32 0 52 -26t20 -59q0 -56 -162 -250q-12 -8 -26 -8q-15 0 -21 10.5t-3 23.5q25 26 41.5 52.5t23.5 46t9 43t0.5 36t-5 34t-4.5 27.5q-2 26 23 48t52 22zM435 174q32 0 52 -26t20 -59q0 -56 -162 -250q-12 -8 -26 -8q-15 0 -21 10.5t-3 23.5q25 26 41.5 52.5
t23.5 46t9 43t0.5 36t-5 34t-4.5 27.5q-2 26 23 48t52 22z" />
    <glyph glyph-name="dagger" unicode="&#x2020;" horiz-adv-x="593" 
d="M332 -149h-71v186q0 139 -98 250q38 20 62 43t33.5 49t12.5 44.5t3 45.5q-63 0 -124 -55q-30 -30 -50 -30h-12h-10.5t-8.5 1.5t-8 4t-5.5 8t-5 13.5t-2.5 19t-2.5 26.5t-0.5 35.5t0.5 35t2.5 26t2.5 19t5 13t6 8t8 4t8 1h10.5h12q20 0 50 -30q61 -55 124 -55
q0 59 -54 117q-31 33 -31 51q0 30 5 37q16 17 104 17q17 0 31 -0.5t24.5 -1t18.5 -3t13.5 -3.5t9 -5t5.5 -5t3 -7.5t1 -8v-10v-10.5q0 -20 -31 -51q-54 -58 -54 -117q63 0 124 55q30 30 50 30h12h10.5t8.5 -1.5t8 -4t5.5 -8t5 -13.5t2.5 -19t2.5 -26.5t0.5 -35.5t-0.5 -35
t-2.5 -26t-2.5 -19t-5 -13t-6 -8t-8 -4t-8 -1h-10.5h-12q-20 0 -50 30q-61 55 -124 55q0 -27 3 -45.5t12.5 -44.5t33.5 -49t62 -43q-98 -111 -98 -250v-186z" />
    <glyph glyph-name="daggerdbl" unicode="&#x2021;" horiz-adv-x="593" 
d="M430 287q-38 -20 -62 -43t-34 -49t-13 -45t-3 -46q63 0 124 55q32 30 50 30h12h11t8.5 -1t8 -4t6 -8t5 -13t2.5 -19t2.5 -26t0.5 -35t-0.5 -35.5t-2.5 -26.5t-2.5 -19t-5 -13.5t-6 -8t-8 -4t-8.5 -1.5h-11h-12q-18 0 -50 30q-61 55 -124 55q0 -57 54 -117q31 -31 31 -51
v-8q0 -15 -1.5 -21.5t-11 -13.5t-31.5 -9t-62 -2q-18 0 -32 0.5t-24.5 1t-18.5 3t-14 3t-9.5 5t-5.5 5.5t-3 7.5t-1 8v10v10.5q0 20 31 51q54 60 54 117q-63 0 -124 -55q-32 -30 -50 -30h-12h-11t-8.5 1t-8 4t-6 8t-5 13t-2.5 19t-2.5 26t-0.5 35t0.5 35.5t2.5 26.5t2.5 19
t5 13.5t6 8t8 4t8.5 1.5h11h12q18 0 50 -30q61 -55 124 -55q0 27 -3 46t-13 45t-34 49t-62 43q38 19 62 42t34 49t13 45.5t3 45.5q-63 0 -124 -55q-32 -30 -50 -30h-12h-11t-8.5 1.5t-8 4t-6 8t-5 13.5t-2.5 19t-2.5 26.5t-0.5 35.5t0.5 35t2.5 26t2.5 19t5 13t6 8t8 4
t8.5 1h11h12q18 0 50 -30q61 -55 124 -55q0 57 -54 117q-31 31 -31 51v8q0 15 1.5 21.5t11.5 13.5t32.5 9t62.5 2q17 0 31 -0.5t24.5 -1t18.5 -3t13.5 -3.5t9 -5t5.5 -5t3 -7.5t1 -8v-10v-10.5q0 -20 -31 -51q-54 -60 -54 -117q63 0 124 55q32 30 50 30h12h11t8.5 -1.5t8 -4
t6 -8t5 -13.5t2.5 -19t2.5 -26.5t0.5 -35.5t-0.5 -35t-2.5 -26t-2.5 -19t-5 -13t-6 -8t-8 -4t-8.5 -1h-11h-12q-18 0 -50 30q-61 55 -124 55q0 -37 4.5 -62t31 -60t76.5 -60z" />
    <glyph glyph-name="bullet" unicode="&#x2022;" horiz-adv-x="519" 
d="M434 350q0 -73 -51 -124t-124 -51t-124 51t-51 124q-1 73 50.5 124t124.5 51t124 -51t51 -124z" />
    <glyph glyph-name="ellipsis" unicode="&#x2026;" horiz-adv-x="1000" 
d="M167 174q37 0 65 -28t28 -66q0 -36 -28 -64t-65 -28t-65 27t-28 65t28 66t65 28zM500 174q37 0 65 -28t28 -66q0 -36 -28 -64t-65 -28t-65 27t-28 65t28 66t65 28zM833 174q37 0 65 -28t28 -66q0 -36 -28 -64t-65 -28t-65 27t-28 65t28 66t65 28z" />
    <glyph glyph-name="perthousand" unicode="&#x2030;" horiz-adv-x="1500" 
d="M283 502q0 71 -10.5 109.5t-18 43t-15.5 4.5h-1q-20 0 -32 -32q-14 -39 -14 -125q0 -48 4 -83t9 -51.5t13 -25.5t11.5 -10t7.5 -1h1q19 0 29 29q16 43 16 142zM238 278q-90 0 -145.5 62.5t-55.5 167.5q0 77 52 140.5t149 63.5q66 0 113 -33t67 -78t20 -93
q0 -105 -55.5 -167.5t-144.5 -62.5zM842 212q-1 157 -45 157q-20 0 -32 -32q-14 -41 -14 -125q1 -171 46 -171q19 0 29 29q16 44 16 142zM797 -12q-90 0 -145.5 62.5t-55.5 167.5q0 77 52 140.5t149 63.5q66 0 113 -33t67 -78t20 -93q0 -105 -55.5 -167.5t-144.5 -62.5z
M1263 -12q-90 0 -145.5 62.5t-55.5 167.5q0 77 52 140.5t149 63.5q66 0 113 -33t67 -78t20 -93q0 -105 -55.5 -167.5t-144.5 -62.5zM1308 212q0 45 -4 77t-9 47t-12.5 23t-11 9t-7.5 1h-1q-20 0 -32 -32q-14 -39 -14 -125q1 -171 46 -171q19 0 29 29q16 43 16 142zM374 0
h-84l365 700h83z" />
    <glyph glyph-name="guilsinglleft" unicode="&#x2039;" horiz-adv-x="296" 
d="M39 238l162 153q2 2 9 8.5t10.5 9t10 5.5t12.5 3q14 0 14 -19q0 -10 -31 -75t-45 -85q13 -21 41 -80t35 -81q0 -19 -17 -19q-3 0 -5.5 1t-6 3t-6 3.5t-6.5 5.5l-6.5 6.5t-8 7.5t-8.5 8z" />
    <glyph glyph-name="guilsinglright" unicode="&#x203a;" horiz-adv-x="296" 
d="M257 237l-162 -153q-2 -2 -9 -8.5t-10.5 -9t-10 -5.5t-12.5 -3q-14 0 -14 19q0 10 31 75t45 85q-13 21 -41 80t-35 81q0 19 17 19q3 0 5.5 -1t6 -3t6 -3.5t6.5 -5.5l6.5 -6.5t8 -7.5t8.5 -8z" />
    <glyph glyph-name="fraction" unicode="&#x2044;" horiz-adv-x="148" 
d="M-70 0h-84l365 700h83z" />
    <glyph glyph-name="trademark" unicode="&#x2122;" horiz-adv-x="1185" 
d="M722 676l111 -208l127 214q8 18 25 18h161q12 0 9 -12l-4 -14q-1 -5 -15 -11q-16 -3 -23.5 -12t-7.5 -30v-252q0 -21 7.5 -28t31.5 -13q12 -3 6 -13l-4 -14q-2 -5 -10 -5h-220q-11 0 -8 11l4 13q2 8 12 8q30 9 30 41v190h-2l-134 -251q-6 -12 -11 -12h-30q-5 0 -14 18
l-122 245h-2v-190q0 -21 8 -28t32 -13q11 -3 7 -13l-6 -14q-1 -5 -10 -5h-120q-11 0 -8 11l3 13q2 8 12 8q31 8 31 41v244q-19 48 -41 53q-14 5 -11 15l6 14q2 5 10 5h135q15 0 21 -4t14 -20zM497 686l-23 -30q-5 -7 -18 -7h-114v-280q0 -21 7.5 -28t31.5 -13q12 -3 6 -13
l-4 -14q-3 -5 -11 -5h-219q-11 0 -8 11l4 13q2 8 11 8q31 8 31 41v280h-150q-17 0 -13 14l23 30q5 7 18 7h415q16 0 13 -14z" />
    <glyph glyph-name="minus" unicode="&#x2212;" 
d="M567 205h-504v96h504v-96z" />
    <glyph glyph-name="fi" unicode="&#xfb01;" horiz-adv-x="760" 
d="M300 430v-310q0 -38 6 -48.5t34 -19.5q14 -3 8 -21l-7 -23q-2 -8 -12 -8h-282q-19 0 -13 19l6 19q4 12 19 16q41 8 41 66v310h-76v70h76v35q0 73 63.5 123t147.5 68q54 9 98 9q45 0 102 -7.5t63 -15.5l32 -70q2 -6 -9 -13l-59 -38q-15 -7 -28 6l-55 42q-1 1 -9 8t-11 9
t-11 7.5t-13.5 7.5t-14 4t-17.5 2q-26 0 -52.5 -28.5t-26.5 -87.5v-61h372v-380q0 -38 7.5 -48.5t43.5 -19.5q19 -3 11 -21l-8 -23q-5 -8 -25 -8h-270q-11 0 -6 19l5 19q4 12 15 16q27 7 27 66v260q0 31 -9.5 40.5t-36.5 9.5h-126z" />
    <glyph glyph-name="fl" unicode="&#xfb02;" horiz-adv-x="760" 
d="M422 500v-50l-20 -20h-102v-310q0 -38 6 -48.5t34 -19.5q14 -3 8 -21l-7 -23q-2 -8 -12 -8h-282q-19 0 -13 19l6 19q4 12 19 16q41 8 41 66v310h-76v70h76v35q0 72 64.5 121.5t145.5 67.5q55 11 123 11h216h3.5h4h4t3.5 -1t3 -2t3 -3t1.5 -5t0.5 -7v-597q0 -38 7.5 -48.5
t43.5 -19.5q19 -3 11 -21l-8 -23q-5 -8 -25 -8h-270q-11 0 -6 19l5 19q4 12 15 16q27 7 27 66v497q-2 2 -14 11t-21 15t-23 13.5t-29 11.5t-31 4q-25 0 -39.5 -15t-14.5 -38v-119h122z" />
    </font>
</defs>
</svg>
