<?xml version="1.0" encoding="utf-8"?>
<!-- Generator: Adobe Illustrator 19.1.0, SVG Export Plug-In . SVG Version: 6.00 Build 0)  -->
<svg version="1.1" id="Layer_1" xmlns="http://www.w3.org/2000/svg" xmlns:xlink="http://www.w3.org/1999/xlink" x="0px" y="0px"
	 viewBox="0 0 100 100" style="enable-background:new 0 0 100 100;" xml:space="preserve">
<style type="text/css">
	.st0{fill:#F15623;}
	.st1{fill:#2B3A42;}
	.st2{fill:#3F5765;}
	.st3{fill:#EFEFEF;}
	.st4{fill:#EF4336;}
	.st5{fill:#7ECED1;}
	.st6{fill:#BDD4DE;}
	.st7{fill:#58CBF5;}
	.st8{fill:#DAEBF0;}
</style>
<circle class="st0" cx="50" cy="49.8" r="49.2"/>
<g>
	<rect x="27.5" y="22.8" class="st1" width="44.1" height="54.1"/>
	<rect x="27.5" y="22.8" class="st2" width="44.1" height="4"/>
	<circle class="st0" cx="69.4" cy="24.8" r="0.8"/>
	<circle class="st3" cx="67.3" cy="24.8" r="0.8"/>
	<rect x="29.5" y="30.4" class="st4" width="5.3" height="1.1"/>
	<rect x="29.5" y="32.5" class="st5" width="6.3" height="1.1"/>
	<rect x="33.5" y="34.4" class="st6" width="9.2" height="1.1"/>
	<rect x="43.6" y="34.4" class="st6" width="7.8" height="1.1"/>
	<rect x="52.5" y="34.4" class="st6" width="9.2" height="1.1"/>
	<rect x="35.1" y="36.5" class="st4" width="5.2" height="1.1"/>
	<rect x="37" y="38.4" class="st7" width="5.2" height="1.1"/>
	<rect x="41.6" y="36.5" class="st6" width="13.8" height="1.1"/>
	<rect x="43.6" y="38.4" class="st6" width="20.3" height="1.1"/>
	<rect x="35" y="40.6" class="st6" width="5.2" height="1.1"/>
	<rect x="41.6" y="40.6" class="st6" width="20.3" height="1.1"/>
	<rect x="57.1" y="36.5" class="st6" width="6" height="1.1"/>
	<rect x="32.7" y="45.4" class="st5" width="6.3" height="1.1"/>
	<rect x="31.1" y="43.4" class="st5" width="4.7" height="1.1"/>
	<rect x="33.5" y="47.2" class="st6" width="9.2" height="1.1"/>
	<rect x="43.6" y="47.2" class="st4" width="7.8" height="1.1"/>
	<rect x="35.1" y="49.3" class="st7" width="5.2" height="1.1"/>
	<rect x="37" y="51.3" class="st8" width="5.2" height="1.1"/>
	<rect x="41.6" y="49.3" class="st6" width="13.8" height="1.1"/>
	<rect x="43.6" y="51.3" class="st6" width="20.3" height="1.1"/>
	<rect x="35" y="53.5" class="st6" width="5.2" height="1.1"/>
	<rect x="41.6" y="53.5" class="st6" width="20.3" height="1.1"/>
	<rect x="32.7" y="57.9" class="st4" width="6.3" height="1.1"/>
	<rect x="33.5" y="59.7" class="st6" width="19" height="1.1"/>
	<rect x="35.1" y="61.8" class="st8" width="5.2" height="1.1"/>
	<rect x="41.6" y="61.8" class="st7" width="13.8" height="1.1"/>
	<rect x="43" y="63.8" class="st6" width="20.9" height="1.1"/>
	<rect x="45.1" y="66" class="st4" width="20.8" height="1.1"/>
</g>
</svg>
