<svg id="Layer_1" xmlns="http://www.w3.org/2000/svg" viewBox="0 0 120 120"><style>.st0{fill:#fff}</style><path class="st0" d="M24.5 59.3c0-16.3 10.6-28.5 24.9-31.8 2.5-.6 5.1-.9 7.8-.9 8.1 0 14.8 2.2 19.9 6.4v8.2c-4.2-5.8-10.9-8.4-19.9-8.4-15 0-25.8 11.4-25.8 26.6S42.2 86 57.2 86c2.8 0 5.4-.3 7.8-1l5-2.8V90c-1.5.6-3.4 1.1-5 1.5-2.5.6-5.1.8-7.8.8-18.1-.3-32.7-13.7-32.7-33z"/><path class="st0" d="M95 88h-8.3l-8.3-12.1c-1.2.1-2.6.2-3.9.2h-4.3V88H63V41.7h11.6c12.8 0 20 6.7 20 17.3 0 7.2-3.2 12-9.3 14.8L95 88zM74.2 70C83.4 70 87 66 87 59.1s-3.9-11-12.8-11h-4.1V70h4.1z"/></svg>