<svg id="Layer_1" xmlns="http://www.w3.org/2000/svg" viewBox="0 0 100 100"><style>.st0{fill:#f15623}.st1{fill:#2b3a42}.st2{fill:#3f5765}.st3{fill:#efefef}.st4{fill:#ef4336}.st5{fill:#7eced1}.st6{fill:#bdd4de}.st7{fill:#58cbf5}.st8{fill:#daebf0}</style><circle class="st0" cx="50" cy="49.8" r="49.2"/><path class="st1" d="M27.5 22.8h44.1v54.1H27.5z"/><path class="st2" d="M27.5 22.8h44.1v4H27.5z"/><circle class="st0" cx="69.4" cy="24.8" r=".8"/><circle class="st3" cx="67.3" cy="24.8" r=".8"/><path class="st4" d="M29.5 30.4h5.3v1.1h-5.3z"/><path class="st5" d="M29.5 32.5h6.3v1.1h-6.3z"/><path class="st6" d="M33.5 34.4h9.2v1.1h-9.2zM43.6 34.4h7.8v1.1h-7.8zM52.5 34.4h9.2v1.1h-9.2z"/><path class="st4" d="M35.1 36.5h5.2v1.1h-5.2z"/><path class="st7" d="M37 38.4h5.2v1.1H37z"/><path class="st6" d="M41.6 36.5h13.8v1.1H41.6zM43.6 38.4h20.3v1.1H43.6zM35 40.6h5.2v1.1H35zM41.6 40.6h20.3v1.1H41.6zM57.1 36.5h6v1.1h-6z"/><path class="st5" d="M32.7 45.4H39v1.1h-6.3zM31.1 43.4h4.7v1.1h-4.7z"/><path class="st6" d="M33.5 47.2h9.2v1.1h-9.2z"/><path class="st4" d="M43.6 47.2h7.8v1.1h-7.8z"/><path class="st7" d="M35.1 49.3h5.2v1.1h-5.2z"/><path class="st8" d="M37 51.3h5.2v1.1H37z"/><path class="st6" d="M41.6 49.3h13.8v1.1H41.6zM43.6 51.3h20.3v1.1H43.6zM35 53.5h5.2v1.1H35zM41.6 53.5h20.3v1.1H41.6z"/><path class="st4" d="M32.7 57.9H39V59h-6.3z"/><path class="st6" d="M33.5 59.7h19v1.1h-19z"/><path class="st8" d="M35.1 61.8h5.2v1.1h-5.2z"/><path class="st7" d="M41.6 61.8h13.8v1.1H41.6z"/><path class="st6" d="M43 63.8h20.9v1.1H43z"/><path class="st4" d="M45.1 66h20.8v1.1H45.1z"/></svg>